<svg width="375" height="667" viewBox="0 0 375 667" fill="none" xmlns="http://www.w3.org/2000/svg">
    <defs>
        <linearGradient id="paint0_linear" x1="19.6638" y1="32.9556" x2="0.301071" y2="-0.581629" gradientUnits="userSpaceOnUse">
            <stop stop-color="#7EAD2B"/>
            <stop offset="1" stop-color="#92C932"/>
        </linearGradient>
        <linearGradient id="paint1_linear" x1="19.6638" y1="32.9558" x2="0.301106" y2="-0.581468" gradientUnits="userSpaceOnUse">
            <stop stop-color="#F9D100"/>
            <stop offset="1" stop-color="#F9EB74"/>
        </linearGradient>
        <linearGradient id="paint2_linear" x1="-0.00147037" y1="138.902" x2="-19.3642" y2="105.364" gradientUnits="userSpaceOnUse">
            <stop stop-color="#7EAD2B"/>
            <stop offset="1" stop-color="#92C932"/>
        </linearGradient>
        <linearGradient id="paint3_linear" x1="-0.00143539" y1="138.902" x2="-19.3642" y2="105.365" gradientUnits="userSpaceOnUse">
            <stop stop-color="#F9D100"/>
            <stop offset="1" stop-color="#F9EB74"/>
        </linearGradient>
        <linearGradient id="paint4_linear" x1="121.249" y1="68.8978" x2="101.886" y2="35.3605" gradientUnits="userSpaceOnUse">
            <stop stop-color="#7EAD2B"/>
            <stop offset="1" stop-color="#92C932"/>
        </linearGradient>
        <linearGradient id="paint5_linear" x1="121.249" y1="68.8979" x2="101.886" y2="35.3607" gradientUnits="userSpaceOnUse">
            <stop stop-color="#F9D100"/>
            <stop offset="1" stop-color="#F9EB74"/>
        </linearGradient>
        <linearGradient id="paint6_linear" x1="242.499" y1="-1.1059" x2="223.136" y2="-34.6432" gradientUnits="userSpaceOnUse">
            <stop stop-color="#7EAD2B"/>
            <stop offset="1" stop-color="#92C932"/>
        </linearGradient>
        <linearGradient id="paint7_linear" x1="242.499" y1="-1.10574" x2="223.136" y2="-34.643" gradientUnits="userSpaceOnUse">
            <stop stop-color="#F9D100"/>
            <stop offset="1" stop-color="#F9EB74"/>
        </linearGradient>
        <linearGradient id="paint8_linear" x1="-19.667" y1="244.848" x2="-39.0297" y2="211.31" gradientUnits="userSpaceOnUse">
            <stop stop-color="#7EAD2B"/>
            <stop offset="1" stop-color="#92C932"/>
        </linearGradient>
        <linearGradient id="paint9_linear" x1="101.583" y1="174.844" x2="82.2204" y2="141.307" gradientUnits="userSpaceOnUse">
            <stop stop-color="#7EAD2B"/>
            <stop offset="1" stop-color="#92C932"/>
        </linearGradient>
        <linearGradient id="paint10_linear" x1="101.583" y1="174.844" x2="82.2204" y2="141.307" gradientUnits="userSpaceOnUse">
            <stop stop-color="#F9D100"/>
            <stop offset="1" stop-color="#F9EB74"/>
        </linearGradient>
        <linearGradient id="paint11_linear" x1="222.833" y1="104.84" x2="203.47" y2="71.3029" gradientUnits="userSpaceOnUse">
            <stop stop-color="#7EAD2B"/>
            <stop offset="1" stop-color="#92C932"/>
        </linearGradient>
        <linearGradient id="paint12_linear" x1="222.833" y1="104.84" x2="203.47" y2="71.3031" gradientUnits="userSpaceOnUse">
            <stop stop-color="#F9D100"/>
            <stop offset="1" stop-color="#F9EB74"/>
        </linearGradient>
        <linearGradient id="paint13_linear" x1="344.083" y1="34.8365" x2="324.721" y2="1.29923" gradientUnits="userSpaceOnUse">
            <stop stop-color="#7EAD2B"/>
            <stop offset="1" stop-color="#92C932"/>
        </linearGradient>
        <linearGradient id="paint14_linear" x1="344.083" y1="34.8366" x2="324.721" y2="1.29939" gradientUnits="userSpaceOnUse">
            <stop stop-color="#F9D100"/>
            <stop offset="1" stop-color="#F9EB74"/>
        </linearGradient>
        <linearGradient id="paint15_linear" x1="81.9178" y1="280.79" x2="62.5551" y2="247.253" gradientUnits="userSpaceOnUse">
            <stop stop-color="#7EAD2B"/>
            <stop offset="1" stop-color="#92C932"/>
        </linearGradient>
        <linearGradient id="paint16_linear" x1="81.9178" y1="280.79" x2="62.5551" y2="247.253" gradientUnits="userSpaceOnUse">
            <stop stop-color="#F9D100"/>
            <stop offset="1" stop-color="#F9EB74"/>
        </linearGradient>
        <linearGradient id="paint17_linear" x1="203.168" y1="210.786" x2="183.805" y2="177.249" gradientUnits="userSpaceOnUse">
            <stop stop-color="#7EAD2B"/>
            <stop offset="1" stop-color="#92C932"/>
        </linearGradient>
        <linearGradient id="paint18_linear" x1="203.168" y1="210.786" x2="183.805" y2="177.249" gradientUnits="userSpaceOnUse">
            <stop stop-color="#F9D100"/>
            <stop offset="1" stop-color="#F9EB74"/>
        </linearGradient>
        <linearGradient id="paint19_linear" x1="324.418" y1="140.783" x2="305.055" y2="107.245" gradientUnits="userSpaceOnUse">
            <stop stop-color="#7EAD2B"/>
            <stop offset="1" stop-color="#92C932"/>
        </linearGradient>
        <linearGradient id="paint20_linear" x1="324.418" y1="140.783" x2="305.055" y2="107.245" gradientUnits="userSpaceOnUse">
            <stop stop-color="#F9D100"/>
            <stop offset="1" stop-color="#F9EB74"/>
        </linearGradient>
        <linearGradient id="paint21_linear" x1="62.2524" y1="386.736" x2="42.8896" y2="353.199" gradientUnits="userSpaceOnUse">
            <stop stop-color="#7EAD2B"/>
            <stop offset="1" stop-color="#92C932"/>
        </linearGradient>
        <linearGradient id="paint22_linear" x1="62.2523" y1="386.736" x2="42.8896" y2="353.199" gradientUnits="userSpaceOnUse">
            <stop stop-color="#F9D100"/>
            <stop offset="1" stop-color="#F9EB74"/>
        </linearGradient>
        <linearGradient id="paint23_linear" x1="183.502" y1="316.732" x2="164.14" y2="283.195" gradientUnits="userSpaceOnUse">
            <stop stop-color="#7EAD2B"/>
            <stop offset="1" stop-color="#92C932"/>
        </linearGradient>
        <linearGradient id="paint24_linear" x1="183.502" y1="316.732" x2="164.14" y2="283.195" gradientUnits="userSpaceOnUse">
            <stop stop-color="#F9D100"/>
            <stop offset="1" stop-color="#F9EB74"/>
        </linearGradient>
        <linearGradient id="paint25_linear" x1="304.752" y1="246.729" x2="285.39" y2="213.191" gradientUnits="userSpaceOnUse">
            <stop stop-color="#7EAD2B"/>
            <stop offset="1" stop-color="#92C932"/>
        </linearGradient>
        <linearGradient id="paint26_linear" x1="304.752" y1="246.729" x2="285.39" y2="213.191" gradientUnits="userSpaceOnUse">
            <stop stop-color="#F9D100"/>
            <stop offset="1" stop-color="#F9EB74"/>
        </linearGradient>
        <linearGradient id="paint27_linear" x1="426.003" y1="176.725" x2="406.64" y2="143.188" gradientUnits="userSpaceOnUse">
            <stop stop-color="#7EAD2B"/>
            <stop offset="1" stop-color="#92C932"/>
        </linearGradient>
        <linearGradient id="paint28_linear" x1="42.5871" y1="492.682" x2="23.2244" y2="459.145" gradientUnits="userSpaceOnUse">
            <stop stop-color="#7EAD2B"/>
            <stop offset="1" stop-color="#92C932"/>
        </linearGradient>
        <linearGradient id="paint29_linear" x1="42.5871" y1="492.682" x2="23.2243" y2="459.145" gradientUnits="userSpaceOnUse">
            <stop stop-color="#F9D100"/>
            <stop offset="1" stop-color="#F9EB74"/>
        </linearGradient>
        <linearGradient id="paint30_linear" x1="163.837" y1="422.678" x2="144.474" y2="389.141" gradientUnits="userSpaceOnUse">
            <stop stop-color="#7EAD2B"/>
            <stop offset="1" stop-color="#92C932"/>
        </linearGradient>
        <linearGradient id="paint31_linear" x1="163.837" y1="422.678" x2="144.474" y2="389.141" gradientUnits="userSpaceOnUse">
            <stop stop-color="#F9D100"/>
            <stop offset="1" stop-color="#F9EB74"/>
        </linearGradient>
        <linearGradient id="paint32_linear" x1="285.087" y1="352.675" x2="265.724" y2="319.137" gradientUnits="userSpaceOnUse">
            <stop stop-color="#7EAD2B"/>
            <stop offset="1" stop-color="#92C932"/>
        </linearGradient>
        <linearGradient id="paint33_linear" x1="285.087" y1="352.675" x2="265.724" y2="319.138" gradientUnits="userSpaceOnUse">
            <stop stop-color="#F9D100"/>
            <stop offset="1" stop-color="#F9EB74"/>
        </linearGradient>
        <linearGradient id="paint34_linear" x1="406.337" y1="282.671" x2="386.974" y2="249.133" gradientUnits="userSpaceOnUse">
            <stop stop-color="#7EAD2B"/>
            <stop offset="1" stop-color="#92C932"/>
        </linearGradient>
        <linearGradient id="paint35_linear" x1="22.9217" y1="598.628" x2="3.55894" y2="565.091" gradientUnits="userSpaceOnUse">
            <stop stop-color="#7EAD2B"/>
            <stop offset="1" stop-color="#92C932"/>
        </linearGradient>
        <linearGradient id="paint36_linear" x1="22.9217" y1="598.628" x2="3.55892" y2="565.091" gradientUnits="userSpaceOnUse">
            <stop stop-color="#F9D100"/>
            <stop offset="1" stop-color="#F9EB74"/>
        </linearGradient>
        <linearGradient id="paint37_linear" x1="144.172" y1="528.625" x2="124.809" y2="495.087" gradientUnits="userSpaceOnUse">
            <stop stop-color="#7EAD2B"/>
            <stop offset="1" stop-color="#92C932"/>
        </linearGradient>
        <linearGradient id="paint38_linear" x1="144.172" y1="528.625" x2="124.809" y2="495.087" gradientUnits="userSpaceOnUse">
            <stop stop-color="#F9D100"/>
            <stop offset="1" stop-color="#F9EB74"/>
        </linearGradient>
        <linearGradient id="paint39_linear" x1="265.422" y1="458.621" x2="246.059" y2="425.084" gradientUnits="userSpaceOnUse">
            <stop stop-color="#7EAD2B"/>
            <stop offset="1" stop-color="#92C932"/>
        </linearGradient>
        <linearGradient id="paint40_linear" x1="265.422" y1="458.621" x2="246.059" y2="425.084" gradientUnits="userSpaceOnUse">
            <stop stop-color="#F9D100"/>
            <stop offset="1" stop-color="#F9EB74"/>
        </linearGradient>
        <linearGradient id="paint41_linear" x1="386.672" y1="388.617" x2="367.309" y2="355.08" gradientUnits="userSpaceOnUse">
            <stop stop-color="#7EAD2B"/>
            <stop offset="1" stop-color="#92C932"/>
        </linearGradient>
        <linearGradient id="paint42_linear" x1="386.672" y1="388.617" x2="367.309" y2="355.08" gradientUnits="userSpaceOnUse">
            <stop stop-color="#F9D100"/>
            <stop offset="1" stop-color="#F9EB74"/>
        </linearGradient>
        <linearGradient id="paint43_linear" x1="3.25634" y1="704.574" x2="-16.1064" y2="671.037" gradientUnits="userSpaceOnUse">
            <stop stop-color="#7EAD2B"/>
            <stop offset="1" stop-color="#92C932"/>
        </linearGradient>
        <linearGradient id="paint44_linear" x1="124.506" y1="634.571" x2="105.144" y2="601.033" gradientUnits="userSpaceOnUse">
            <stop stop-color="#7EAD2B"/>
            <stop offset="1" stop-color="#92C932"/>
        </linearGradient>
        <linearGradient id="paint45_linear" x1="124.506" y1="634.571" x2="105.144" y2="601.033" gradientUnits="userSpaceOnUse">
            <stop stop-color="#F9D100"/>
            <stop offset="1" stop-color="#F9EB74"/>
        </linearGradient>
        <linearGradient id="paint46_linear" x1="245.756" y1="564.567" x2="226.394" y2="531.03" gradientUnits="userSpaceOnUse">
            <stop stop-color="#7EAD2B"/>
            <stop offset="1" stop-color="#92C932"/>
        </linearGradient>
        <linearGradient id="paint47_linear" x1="245.756" y1="564.567" x2="226.394" y2="531.03" gradientUnits="userSpaceOnUse">
            <stop stop-color="#F9D100"/>
            <stop offset="1" stop-color="#F9EB74"/>
        </linearGradient>
        <linearGradient id="paint48_linear" x1="367.007" y1="494.563" x2="347.644" y2="461.026" gradientUnits="userSpaceOnUse">
            <stop stop-color="#7EAD2B"/>
            <stop offset="1" stop-color="#92C932"/>
        </linearGradient>
        <linearGradient id="paint49_linear" x1="367.006" y1="494.563" x2="347.644" y2="461.026" gradientUnits="userSpaceOnUse">
            <stop stop-color="#F9D100"/>
            <stop offset="1" stop-color="#F9EB74"/>
        </linearGradient>
        <linearGradient id="paint50_linear" x1="226.091" y1="670.513" x2="206.728" y2="636.976" gradientUnits="userSpaceOnUse">
            <stop stop-color="#7EAD2B"/>
            <stop offset="1" stop-color="#92C932"/>
        </linearGradient>
        <linearGradient id="paint51_linear" x1="226.091" y1="670.513" x2="206.728" y2="636.976" gradientUnits="userSpaceOnUse">
            <stop stop-color="#F9D100"/>
            <stop offset="1" stop-color="#F9EB74"/>
        </linearGradient>
        <linearGradient id="paint52_linear" x1="347.341" y1="600.509" x2="327.978" y2="566.972" gradientUnits="userSpaceOnUse">
            <stop stop-color="#7EAD2B"/>
            <stop offset="1" stop-color="#92C932"/>
        </linearGradient>
        <linearGradient id="paint53_linear" x1="347.341" y1="600.509" x2="327.978" y2="566.972" gradientUnits="userSpaceOnUse">
            <stop stop-color="#F9D100"/>
            <stop offset="1" stop-color="#F9EB74"/>
        </linearGradient>
        <linearGradient id="paint54_linear" x1="327.676" y1="706.455" x2="308.313" y2="672.918" gradientUnits="userSpaceOnUse">
            <stop stop-color="#7EAD2B"/>
            <stop offset="1" stop-color="#92C932"/>
        </linearGradient>
        <linearGradient id="paint55_linear" x1="187" y1="-2.40613e-06" x2="399.266" y2="590.726" gradientUnits="userSpaceOnUse">
            <stop stop-color="#414CBE" stop-opacity="0.5"/>
            <stop offset="1" stop-color="#414CBE"/>
        </linearGradient>
    </defs>
    <rect width="667" height="667" fill="#5350B9" transform="translate(-146)"/>
    <path d="M52.9552 20.6144L55.1359 12.4759L53.1013 11.9307L34.4833 -20.3166L-35.171 19.8983L-37.3517 28.0368C-37.3517 28.0368 -32.1386 37.066 -25.4361 48.6751C-18.7337 60.2841 -16.699 60.8293 -16.699 60.8293L52.9552 20.6144Z" fill="#529320"/>
    <path d="M-14.5184 52.6907L55.1359 12.4758C55.1359 12.4758 53.1013 11.9306 46.3988 0.321578C41.9305 -7.41779 34.4833 -20.3167 34.4833 -20.3167L-35.171 19.8982C-35.171 19.8982 -25.4896 36.6668 -23.2555 40.5365C-16.553 52.1456 -14.5184 52.6907 -14.5184 52.6907Z" fill="url(#paint0_linear)"/>
    <path d="M13.806 24.2989C20.2175 20.5973 23.4145 14.1314 20.9467 9.8571C18.4789 5.58276 11.2808 5.11854 4.8693 8.82022C-1.5422 12.5219 -4.73921 18.9877 -2.27142 23.2621C0.196366 27.5364 7.39445 28.0006 13.806 24.2989Z" stroke="#529320" stroke-width="2.97888" stroke-miterlimit="10"/>
    <path d="M-7.72331 43.6082L41.2927 15.3088C39.2447 11.7616 40.4713 7.18374 44.0185 5.13575L36.5713 -7.76319C33.0241 -5.71521 28.4462 -6.94185 26.3982 -10.4891L-22.6177 17.8103C-20.5697 21.3575 -21.7964 25.9354 -25.3436 27.9834L-17.8964 40.8823C-14.3492 38.8344 -9.77129 40.061 -7.72331 43.6082Z" stroke="#529320" stroke-width="2.97888" stroke-miterlimit="10"/>
    <path d="M25.4684 29.6045C25.4684 29.6045 23.4338 29.0594 16.7313 17.4503C10.0288 5.84127 4.81574 -3.18799 4.81574 -3.18799L-5.50342 2.76978C-5.50342 2.76978 -0.290372 11.799 6.41212 23.4081C13.1146 35.0171 15.1492 35.5623 15.1492 35.5623L25.4684 29.6045Z" fill="url(#paint1_linear)"/>
    <path d="M23.2878 37.7431L25.4685 29.6046L15.1493 35.5624L12.9686 43.7008L23.2878 37.7431Z" fill="#F9D100"/>
    <path opacity="0.2" d="M23.2878 37.7431L25.4685 29.6046L15.1493 35.5624L12.9686 43.7008L23.2878 37.7431Z" fill="black"/>
    <path d="M33.29 126.56L35.4707 118.422L33.436 117.877L14.818 85.6294L-54.8363 125.844L-57.017 133.983C-57.017 133.983 -51.8039 143.012 -45.1014 154.621C-38.3989 166.23 -36.3643 166.775 -36.3643 166.775L33.29 126.56Z" fill="#529320"/>
    <path d="M-34.1837 158.637L35.4706 118.422C35.4706 118.422 33.436 117.877 26.7335 106.268C22.2652 98.5283 14.818 85.6293 14.818 85.6293L-54.8363 125.844C-54.8363 125.844 -45.1549 142.613 -42.9208 146.483C-36.2183 158.092 -34.1837 158.637 -34.1837 158.637Z" fill="url(#paint2_linear)"/>
    <path d="M-5.85933 130.245C0.552169 126.543 3.74918 120.077 1.28139 115.803C-1.1864 111.529 -8.38448 111.065 -14.796 114.766C-21.2075 118.468 -24.4045 124.934 -21.9367 129.208C-19.4689 133.482 -12.2708 133.947 -5.85933 130.245Z" stroke="#529320" stroke-width="2.97888" stroke-miterlimit="10"/>
    <path d="M-27.3887 149.554L21.6273 121.255C19.5793 117.708 20.806 113.13 24.3532 111.082L16.906 98.1829C13.3588 100.231 8.78089 99.0042 6.73291 95.457L-42.2831 123.756C-40.2351 127.304 -41.4617 131.881 -45.0089 133.929L-37.5617 146.828C-34.0145 144.78 -29.4366 146.007 -27.3887 149.554Z" stroke="#529320" stroke-width="2.97888" stroke-miterlimit="10"/>
    <path d="M5.80309 135.551C5.80309 135.551 3.76847 135.005 -2.93401 123.396C-9.6365 111.787 -14.8495 102.758 -14.8495 102.758L-25.1687 108.716C-25.1687 108.716 -19.9557 117.745 -13.2532 129.354C-6.55068 140.963 -4.51607 141.508 -4.51607 141.508L5.80309 135.551Z" fill="url(#paint3_linear)"/>
    <path d="M3.6225 143.689L5.80319 135.551L-4.51596 141.508L-6.69665 149.647L3.6225 143.689Z" fill="#F9D100"/>
    <path opacity="0.2" d="M3.6225 143.689L5.80319 135.551L-4.51596 141.508L-6.69665 149.647L3.6225 143.689Z" fill="black"/>
    <path d="M154.54 56.5565L156.721 48.4181L154.686 47.8729L136.068 15.6255L66.4137 55.8405L64.233 63.9789C64.233 63.9789 69.4461 73.0082 76.1486 84.6172C82.8511 96.2263 84.8857 96.7714 84.8857 96.7714L154.54 56.5565Z" fill="#529320"/>
    <path d="M87.0664 88.6329L156.721 48.4179C156.721 48.4179 154.686 47.8728 147.984 36.2637C143.515 28.5244 136.068 15.6254 136.068 15.6254L66.4138 55.8403C66.4138 55.8403 76.0951 72.609 78.3293 76.4786C85.0318 88.0877 87.0664 88.6329 87.0664 88.6329Z" fill="url(#paint4_linear)"/>
    <path d="M115.391 60.2411C121.802 56.5394 124.999 50.0736 122.531 45.7992C120.064 41.5249 112.866 41.0607 106.454 44.7624C100.043 48.464 96.8455 54.9299 99.3133 59.2042C101.781 63.4785 108.979 63.9428 115.391 60.2411Z" stroke="#529320" stroke-width="2.97888" stroke-miterlimit="10"/>
    <path d="M93.8614 79.5504L142.877 51.251C140.829 47.7038 142.056 43.1259 145.603 41.0779L138.156 28.1789C134.609 30.2269 130.031 29.0003 127.983 25.4531L78.967 53.7525C81.015 57.2997 79.7883 61.8776 76.2411 63.9255L83.6883 76.8245C87.2355 74.7765 91.8134 76.0031 93.8614 79.5504Z" stroke="#529320" stroke-width="2.97888" stroke-miterlimit="10"/>
    <path d="M127.053 65.5467C127.053 65.5467 125.018 65.0015 118.316 53.3925C111.613 41.7834 106.4 32.7541 106.4 32.7541L96.0813 38.7119C96.0813 38.7119 101.294 47.7412 107.997 59.3502C114.699 70.9593 116.734 71.5044 116.734 71.5044L127.053 65.5467Z" fill="url(#paint5_linear)"/>
    <path d="M124.872 73.6852L127.053 65.5467L116.734 71.5045L114.553 79.643L124.872 73.6852Z" fill="#F9D100"/>
    <path opacity="0.2" d="M124.872 73.6852L127.053 65.5467L116.734 71.5045L114.553 79.643L124.872 73.6852Z" fill="black"/>
    <path d="M275.79 -13.4471L277.971 -21.5856L275.936 -22.1308L257.318 -54.3781L187.664 -14.1632L185.483 -6.02475C185.483 -6.02475 190.696 3.00451 197.399 14.6136C204.101 26.2226 206.136 26.7678 206.136 26.7678L275.79 -13.4471Z" fill="#529320"/>
    <path d="M208.316 18.6292L277.971 -21.5857C277.971 -21.5857 275.936 -22.1309 269.234 -33.7399C264.765 -41.4793 257.318 -54.3783 257.318 -54.3783L187.664 -14.1633C187.664 -14.1633 197.345 2.6053 199.579 6.47498C206.282 18.084 208.316 18.6292 208.316 18.6292Z" fill="url(#paint6_linear)"/>
    <path d="M215.111 9.54669L264.127 -18.7527C262.079 -22.2999 263.306 -26.8778 266.853 -28.9258L259.406 -41.8247C255.859 -39.7767 251.281 -41.0034 249.233 -44.5506L200.217 -16.2512C202.265 -12.704 201.038 -8.1261 197.491 -6.07812L204.938 6.82083C208.486 4.77284 213.063 5.99948 215.111 9.54669Z" stroke="#529320" stroke-width="2.97888" stroke-miterlimit="10"/>
    <path d="M248.303 -4.45698C248.303 -4.45698 246.269 -5.00216 239.566 -16.6112C232.864 -28.2203 227.651 -37.2495 227.651 -37.2495L217.331 -31.2917C217.331 -31.2917 222.544 -22.2625 229.247 -10.6534C235.949 0.95561 237.984 1.50078 237.984 1.50078L248.303 -4.45698Z" fill="url(#paint7_linear)"/>
    <path d="M246.123 3.68155L248.303 -4.45691L237.984 1.50085L235.803 9.63931L246.123 3.68155Z" fill="#F9D100"/>
    <path opacity="0.2" d="M246.123 3.68155L248.303 -4.45691L237.984 1.50085L235.803 9.63931L246.123 3.68155Z" fill="black"/>
    <path d="M13.6244 232.506L15.8051 224.368L13.7705 223.823L-4.84751 191.575L-74.5018 231.79L-76.6825 239.929C-76.6825 239.929 -71.4694 248.958 -64.767 260.567C-58.0645 272.176 -56.0299 272.721 -56.0299 272.721L13.6244 232.506Z" fill="#529320"/>
    <path d="M-53.8492 264.583L15.8051 224.368C15.8051 224.368 13.7705 223.823 7.06799 212.214C2.59967 204.474 -4.84754 191.575 -4.84754 191.575L-74.5018 231.79C-74.5018 231.79 -64.8205 248.559 -62.5863 252.429C-55.8838 264.038 -53.8492 264.583 -53.8492 264.583Z" fill="url(#paint8_linear)"/>
    <path d="M-47.0542 255.5L1.96179 227.201C-0.0861881 223.654 1.14045 219.076 4.68766 217.028L-2.75955 204.129C-6.30676 206.177 -10.8846 204.95 -12.9326 201.403L-61.9486 229.702C-59.9006 233.25 -61.1273 237.828 -64.6745 239.875L-57.2273 252.774C-53.6801 250.726 -49.1022 251.953 -47.0542 255.5Z" stroke="#529320" stroke-width="2.97888" stroke-miterlimit="10"/>
    <path d="M134.874 162.503L137.055 154.364L135.021 153.819L116.403 121.572L46.7483 161.786L44.5676 169.925C44.5676 169.925 49.7806 178.954 56.4831 190.563C63.1856 202.172 65.2202 202.717 65.2202 202.717L134.874 162.503Z" fill="#529320"/>
    <path d="M67.4009 194.579L137.055 154.364C137.055 154.364 135.021 153.819 128.318 142.21C123.85 134.47 116.403 121.571 116.403 121.571L46.7483 161.786C46.7483 161.786 56.4297 178.555 58.6638 182.425C65.3663 194.034 67.4009 194.579 67.4009 194.579Z" fill="url(#paint9_linear)"/>
    <path d="M95.7252 166.187C102.137 162.485 105.334 156.02 102.866 151.745C100.398 147.471 93.2001 147.007 86.7886 150.708C80.3771 154.41 77.18 160.876 79.6478 165.15C82.1156 169.425 89.3137 169.889 95.7252 166.187Z" stroke="#529320" stroke-width="2.97888" stroke-miterlimit="10"/>
    <path d="M74.1959 185.496L123.212 157.197C121.164 153.65 122.391 149.072 125.938 147.024L118.491 134.125C114.943 136.173 110.365 134.946 108.317 131.399L59.3015 159.699C61.3495 163.246 60.1229 167.824 56.5757 169.872L64.0229 182.771C67.5701 180.723 72.148 181.949 74.1959 185.496Z" stroke="#529320" stroke-width="2.97888" stroke-miterlimit="10"/>
    <path d="M107.388 171.493C107.388 171.493 105.353 170.948 98.6505 159.339C91.948 147.729 86.735 138.7 86.735 138.7L76.4158 144.658C76.4158 144.658 81.6289 153.687 88.3314 165.296C95.0339 176.905 97.0685 177.45 97.0685 177.45L107.388 171.493Z" fill="url(#paint10_linear)"/>
    <path d="M105.207 179.631L107.388 171.493L97.0686 177.451L94.8879 185.589L105.207 179.631Z" fill="#F9D100"/>
    <path opacity="0.2" d="M105.207 179.631L107.388 171.493L97.0686 177.451L94.8879 185.589L105.207 179.631Z" fill="black"/>
    <path d="M256.125 92.4989L258.305 84.3604L256.271 83.8153L237.653 51.5679L167.998 91.7828L165.818 99.9213C165.818 99.9213 171.031 108.951 177.733 120.56C184.436 132.169 186.47 132.714 186.47 132.714L256.125 92.4989Z" fill="#529320"/>
    <path d="M188.651 124.575L258.305 84.3603C258.305 84.3603 256.271 83.8151 249.568 72.2061C245.1 64.4667 237.653 51.5678 237.653 51.5678L167.998 91.7827C167.998 91.7827 177.68 108.551 179.914 112.421C186.616 124.03 188.651 124.575 188.651 124.575Z" fill="url(#paint11_linear)"/>
    <path d="M216.975 96.1835C223.387 92.4818 226.584 86.0159 224.116 81.7416C221.648 77.4673 214.45 77.0031 208.039 80.7047C201.627 84.4064 198.43 90.8723 200.898 95.1466C203.366 99.4209 210.564 99.8852 216.975 96.1835Z" stroke="#529320" stroke-width="2.97888" stroke-miterlimit="10"/>
    <path d="M195.446 115.493L244.462 87.1933C242.414 83.6461 243.641 79.0683 247.188 77.0203L239.741 64.1213C236.193 66.1693 231.616 64.9427 229.568 61.3955L180.552 89.6949C182.6 93.2421 181.373 97.8199 177.826 99.8679L185.273 112.767C188.82 110.719 193.398 111.946 195.446 115.493Z" stroke="#529320" stroke-width="2.97888" stroke-miterlimit="10"/>
    <path d="M228.638 101.489C228.638 101.489 226.603 100.944 219.901 89.3348C213.198 77.7258 207.985 68.6965 207.985 68.6965L197.666 74.6543C197.666 74.6543 202.879 83.6836 209.581 95.2926C216.284 106.902 218.319 107.447 218.319 107.447L228.638 101.489Z" fill="url(#paint12_linear)"/>
    <path d="M226.457 109.628L228.638 101.489L218.319 107.447L216.138 115.585L226.457 109.628Z" fill="#F9D100"/>
    <path opacity="0.2" d="M226.457 109.628L228.638 101.489L218.319 107.447L216.138 115.585L226.457 109.628Z" fill="black"/>
    <path d="M377.375 22.4952L379.555 14.3568L377.521 13.8116L358.903 -18.4358L289.249 21.7792L287.068 29.9176C287.068 29.9176 292.281 38.9469 298.983 50.5559C305.686 62.165 307.721 62.7102 307.721 62.7102L377.375 22.4952Z" fill="#529320"/>
    <path d="M309.901 54.5716L379.556 14.3567C379.556 14.3567 377.521 13.8115 370.818 2.20244C366.35 -5.53693 358.903 -18.4359 358.903 -18.4359L289.249 21.7791C289.249 21.7791 298.93 38.5477 301.164 42.4174C307.867 54.0264 309.901 54.5716 309.901 54.5716Z" fill="url(#paint13_linear)"/>
    <path d="M338.226 26.1798C344.637 22.4781 347.834 16.0123 345.366 11.738C342.898 7.46362 335.7 6.9994 329.289 10.7011C322.877 14.4028 319.68 20.8686 322.148 25.1429C324.616 29.4173 331.814 29.8815 338.226 26.1798Z" stroke="#529320" stroke-width="2.97888" stroke-miterlimit="10"/>
    <path d="M316.696 45.4891L365.712 17.1897C363.664 13.6425 364.891 9.06459 368.438 7.01661L360.991 -5.88233C357.444 -3.83435 352.866 -5.06099 350.818 -8.6082L301.802 19.6912C303.85 23.2384 302.623 27.8163 299.076 29.8643L306.523 42.7632C310.07 40.7152 314.648 41.9419 316.696 45.4891Z" stroke="#529320" stroke-width="2.97888" stroke-miterlimit="10"/>
    <path d="M349.888 31.4854C349.888 31.4854 347.853 30.9402 341.151 19.3312C334.448 7.72213 329.235 -1.30713 329.235 -1.30713L318.916 4.65063C318.916 4.65063 324.129 13.6799 330.832 25.2889C337.534 36.898 339.569 37.4432 339.569 37.4432L349.888 31.4854Z" fill="url(#paint14_linear)"/>
    <path d="M347.707 39.6239L349.888 31.4855L339.569 37.4432L337.388 45.5817L347.707 39.6239Z" fill="#F9D100"/>
    <path opacity="0.2" d="M347.707 39.6239L349.888 31.4855L339.569 37.4432L337.388 45.5817L347.707 39.6239Z" fill="black"/>
    <path d="M115.209 268.449L117.39 260.31L115.355 259.765L96.7373 227.518L27.083 267.733L24.9023 275.871C24.9023 275.871 30.1153 284.9 36.8178 296.509C43.5203 308.118 45.5549 308.664 45.5549 308.664L115.209 268.449Z" fill="#529320"/>
    <path d="M47.7356 300.525L117.39 260.31C117.39 260.31 115.355 259.765 108.653 248.156C104.185 240.416 96.7373 227.517 96.7373 227.517L27.083 267.732C27.083 267.732 36.7644 284.501 38.9985 288.371C45.701 299.98 47.7356 300.525 47.7356 300.525Z" fill="url(#paint15_linear)"/>
    <path d="M76.0599 272.133C82.4714 268.431 85.6684 261.965 83.2006 257.691C80.7329 253.417 73.5348 252.953 67.1233 256.654C60.7118 260.356 57.5148 266.822 59.9825 271.096C62.4503 275.37 69.6484 275.835 76.0599 272.133Z" stroke="#529320" stroke-width="2.97888" stroke-miterlimit="10"/>
    <path d="M54.5307 291.442L103.547 263.143C101.499 259.596 102.725 255.018 106.272 252.97L98.8253 240.071C95.2781 242.119 90.7002 240.892 88.6522 237.345L39.6362 265.645C41.6842 269.192 40.4576 273.77 36.9104 275.818L44.3576 288.717C47.9048 286.669 52.4827 287.895 54.5307 291.442Z" stroke="#529320" stroke-width="2.97888" stroke-miterlimit="10"/>
    <path d="M87.7223 277.439C87.7223 277.439 85.6877 276.894 78.9852 265.285C72.2827 253.675 67.0697 244.646 67.0697 244.646L56.7505 250.604C56.7505 250.604 61.9636 259.633 68.6661 271.242C75.3686 282.851 77.4032 283.397 77.4032 283.397L87.7223 277.439Z" fill="url(#paint16_linear)"/>
    <path d="M85.5417 285.577L87.7224 277.439L77.4033 283.397L75.2226 291.535L85.5417 285.577Z" fill="#F9D100"/>
    <path opacity="0.2" d="M85.5417 285.577L87.7224 277.439L77.4033 283.397L75.2226 291.535L85.5417 285.577Z" fill="black"/>
    <path d="M236.459 198.445L238.64 190.306L236.605 189.761L217.987 157.514L148.333 197.729L146.152 205.867C146.152 205.867 151.365 214.897 158.068 226.506C164.77 238.115 166.805 238.66 166.805 238.66L236.459 198.445Z" fill="#529320"/>
    <path d="M168.986 230.521L238.64 190.306C238.64 190.306 236.605 189.761 229.903 178.152C225.435 170.413 217.987 157.514 217.987 157.514L148.333 197.729C148.333 197.729 158.014 214.497 160.249 218.367C166.951 229.976 168.986 230.521 168.986 230.521Z" fill="url(#paint17_linear)"/>
    <path d="M197.31 202.129C203.721 198.428 206.918 191.962 204.451 187.687C201.983 183.413 194.785 182.949 188.373 186.651C181.962 190.352 178.765 196.818 181.233 201.092C183.7 205.367 190.898 205.831 197.31 202.129Z" stroke="#529320" stroke-width="2.97888" stroke-miterlimit="10"/>
    <path d="M175.781 221.439L224.797 193.139C222.749 189.592 223.975 185.014 227.523 182.966L220.075 170.067C216.528 172.115 211.95 170.889 209.902 167.342L160.886 195.641C162.934 199.188 161.708 203.766 158.16 205.814L165.608 218.713C169.155 216.665 173.733 217.892 175.781 221.439Z" stroke="#529320" stroke-width="2.97888" stroke-miterlimit="10"/>
    <path d="M208.972 207.435C208.972 207.435 206.938 206.89 200.235 195.281C193.533 183.672 188.32 174.643 188.32 174.643L178.001 180.6C178.001 180.6 183.214 189.63 189.916 201.239C196.619 212.848 198.653 213.393 198.653 213.393L208.972 207.435Z" fill="url(#paint18_linear)"/>
    <path d="M206.792 215.574L208.973 207.435L198.653 213.393L196.473 221.531L206.792 215.574Z" fill="#F9D100"/>
    <path opacity="0.2" d="M206.792 215.574L208.973 207.435L198.653 213.393L196.473 221.531L206.792 215.574Z" fill="black"/>
    <path d="M357.709 128.441L359.89 120.303L357.855 119.758L339.237 87.5103L269.583 127.725L267.402 135.864C267.402 135.864 272.615 144.893 279.318 156.502C286.02 168.111 288.055 168.656 288.055 168.656L357.709 128.441Z" fill="#529320"/>
    <path d="M290.236 160.518L359.89 120.303C359.89 120.303 357.855 119.758 351.153 108.148C346.685 100.409 339.237 87.5102 339.237 87.5102L269.583 127.725C269.583 127.725 279.265 144.494 281.499 148.363C288.201 159.972 290.236 160.518 290.236 160.518Z" fill="url(#paint19_linear)"/>
    <path d="M318.56 132.126C324.972 128.424 328.169 121.958 325.701 117.684C323.233 113.41 316.035 112.945 309.623 116.647C303.212 120.349 300.015 126.815 302.483 131.089C304.95 135.363 312.149 135.828 318.56 132.126Z" stroke="#529320" stroke-width="2.97888" stroke-miterlimit="10"/>
    <path d="M297.031 151.435L346.047 123.136C343.999 119.589 345.225 115.011 348.773 112.963L341.325 100.064C337.778 102.112 333.2 100.885 331.152 97.3378L282.136 125.637C284.184 129.184 282.958 133.762 279.41 135.81L286.858 148.709C290.405 146.661 294.983 147.888 297.031 151.435Z" stroke="#529320" stroke-width="2.97888" stroke-miterlimit="10"/>
    <path d="M330.222 137.431C330.222 137.431 328.188 136.886 321.485 125.277C314.783 113.668 309.57 104.639 309.57 104.639L299.251 110.597C299.251 110.597 304.464 119.626 311.166 131.235C317.869 142.844 319.903 143.389 319.903 143.389L330.222 137.431Z" fill="url(#paint20_linear)"/>
    <path d="M328.042 145.57L330.222 137.432L319.903 143.389L317.723 151.528L328.042 145.57Z" fill="#F9D100"/>
    <path opacity="0.2" d="M328.042 145.57L330.222 137.432L319.903 143.389L317.723 151.528L328.042 145.57Z" fill="black"/>
    <path d="M95.5438 374.395L97.7244 366.256L95.6898 365.711L77.0718 333.464L7.41751 373.679L5.23682 381.817C5.23682 381.817 10.4499 390.846 17.1524 402.455C23.8548 414.065 25.8895 414.61 25.8895 414.61L95.5438 374.395Z" fill="#529320"/>
    <path d="M28.0702 406.471L97.7245 366.256C97.7245 366.256 95.6899 365.711 88.9874 354.102C84.519 346.363 77.0718 333.464 77.0718 333.464L7.41754 373.679C7.41754 373.679 17.0989 390.447 19.3331 394.317C26.0356 405.926 28.0702 406.471 28.0702 406.471Z" fill="url(#paint21_linear)"/>
    <path d="M56.3945 378.079C62.806 374.378 66.003 367.912 63.5352 363.637C61.0674 359.363 53.8693 358.899 47.4578 362.6C41.0463 366.302 37.8493 372.768 40.3171 377.042C42.7849 381.317 49.983 381.781 56.3945 378.079Z" stroke="#529320" stroke-width="2.97888" stroke-miterlimit="10"/>
    <path d="M34.8652 397.388L83.8812 369.089C81.8332 365.542 83.0598 360.964 86.607 358.916L79.1598 346.017C75.6126 348.065 71.0347 346.838 68.9868 343.291L19.9708 371.591C22.0188 375.138 20.7921 379.716 17.2449 381.764L24.6921 394.663C28.2393 392.615 32.8172 393.841 34.8652 397.388Z" stroke="#529320" stroke-width="2.97888" stroke-miterlimit="10"/>
    <path d="M68.0569 383.385C68.0569 383.385 66.0223 382.84 59.3198 371.231C52.6173 359.622 47.4042 350.592 47.4042 350.592L37.0851 356.55C37.0851 356.55 42.2981 365.579 49.0006 377.188C55.7031 388.798 57.7377 389.343 57.7377 389.343L68.0569 383.385Z" fill="url(#paint22_linear)"/>
    <path d="M65.8763 391.523L68.057 383.385L57.7378 389.343L55.5571 397.481L65.8763 391.523Z" fill="#F9D100"/>
    <path opacity="0.2" d="M65.8763 391.523L68.057 383.385L57.7378 389.343L55.5571 397.481L65.8763 391.523Z" fill="black"/>
    <path d="M216.794 304.391L218.975 296.253L216.94 295.707L198.322 263.46L128.668 303.675L126.487 311.813C126.487 311.813 131.7 320.843 138.402 332.452C145.105 344.061 147.14 344.606 147.14 344.606L216.794 304.391Z" fill="#529320"/>
    <path d="M149.32 336.467L218.975 296.252C218.975 296.252 216.94 295.707 210.237 284.098C205.769 276.359 198.322 263.46 198.322 263.46L128.668 303.675C128.668 303.675 138.349 320.443 140.583 324.313C147.286 335.922 149.32 336.467 149.32 336.467Z" fill="url(#paint23_linear)"/>
    <path d="M177.645 308.075C184.056 304.374 187.253 297.908 184.785 293.633C182.317 289.359 175.119 288.895 168.708 292.597C162.296 296.298 159.099 302.764 161.567 307.038C164.035 311.313 171.233 311.777 177.645 308.075Z" stroke="#529320" stroke-width="2.97888" stroke-miterlimit="10"/>
    <path d="M156.115 327.385L205.131 299.085C203.083 295.538 204.31 290.96 207.857 288.912L200.41 276.013C196.863 278.061 192.285 276.835 190.237 273.287L141.221 301.587C143.269 305.134 142.042 309.712 138.495 311.76L145.942 324.659C149.489 322.611 154.067 323.837 156.115 327.385Z" stroke="#529320" stroke-width="2.97888" stroke-miterlimit="10"/>
    <path d="M189.307 313.381C189.307 313.381 187.272 312.836 180.57 301.227C173.867 289.618 168.654 280.589 168.654 280.589L158.335 286.546C158.335 286.546 163.548 295.576 170.251 307.185C176.953 318.794 178.988 319.339 178.988 319.339L189.307 313.381Z" fill="url(#paint24_linear)"/>
    <path d="M187.126 321.52L189.307 313.381L178.988 319.339L176.807 327.477L187.126 321.52Z" fill="#F9D100"/>
    <path opacity="0.2" d="M187.126 321.52L189.307 313.381L178.988 319.339L176.807 327.477L187.126 321.52Z" fill="black"/>
    <path d="M338.044 234.387L340.225 226.249L338.19 225.704L319.572 193.456L249.918 233.671L247.737 241.81C247.737 241.81 252.95 250.839 259.652 262.448C266.355 274.057 268.39 274.602 268.39 274.602L338.044 234.387Z" fill="#529320"/>
    <path d="M270.57 266.464L340.225 226.249C340.225 226.249 338.19 225.704 331.487 214.095C327.019 206.355 319.572 193.456 319.572 193.456L249.918 233.671C249.918 233.671 259.599 250.44 261.833 254.309C268.536 265.919 270.57 266.464 270.57 266.464Z" fill="url(#paint25_linear)"/>
    <path d="M298.895 238.072C305.306 234.37 308.503 227.904 306.035 223.63C303.568 219.355 296.369 218.891 289.958 222.593C283.546 226.295 280.349 232.76 282.817 237.035C285.285 241.309 292.483 241.773 298.895 238.072Z" stroke="#529320" stroke-width="2.97888" stroke-miterlimit="10"/>
    <path d="M277.365 257.381L326.381 229.082C324.333 225.535 325.56 220.957 329.107 218.909L321.66 206.01C318.113 208.058 313.535 206.831 311.487 203.284L262.471 231.583C264.519 235.13 263.292 239.708 259.745 241.756L267.192 254.655C270.739 252.607 275.317 253.834 277.365 257.381Z" stroke="#529320" stroke-width="2.97888" stroke-miterlimit="10"/>
    <path d="M310.557 243.377C310.557 243.377 308.522 242.832 301.82 231.223C295.117 219.614 289.904 210.585 289.904 210.585L279.585 216.543C279.585 216.543 284.798 225.572 291.501 237.181C298.203 248.79 300.238 249.335 300.238 249.335L310.557 243.377Z" fill="url(#paint26_linear)"/>
    <path d="M308.376 251.516L310.557 243.378L300.238 249.335L298.057 257.474L308.376 251.516Z" fill="#F9D100"/>
    <path opacity="0.2" d="M308.376 251.516L310.557 243.378L300.238 249.335L298.057 257.474L308.376 251.516Z" fill="black"/>
    <path d="M459.294 164.384L461.475 156.245L459.44 155.7L440.822 123.453L371.168 163.668L368.987 171.806C368.987 171.806 374.2 180.835 380.903 192.444C387.605 204.053 389.64 204.599 389.64 204.599L459.294 164.384Z" fill="#529320"/>
    <path d="M391.82 196.46L461.475 156.245C461.475 156.245 459.44 155.7 452.738 144.091C448.269 136.351 440.822 123.453 440.822 123.453L371.168 163.667C371.168 163.667 380.849 180.436 383.083 184.306C389.786 195.915 391.82 196.46 391.82 196.46Z" fill="url(#paint27_linear)"/>
    <path d="M75.8785 480.341L78.0592 472.202L76.0245 471.657L57.4065 439.41L-12.2478 479.625L-14.4285 487.763C-14.4285 487.763 -9.21542 496.792 -2.51293 508.402C4.18955 520.011 6.22417 520.556 6.22417 520.556L75.8785 480.341Z" fill="#529320"/>
    <path d="M8.40489 512.417L78.0592 472.202C78.0592 472.202 76.0246 471.657 69.3221 460.048C64.8538 452.309 57.4065 439.41 57.4065 439.41L-12.2477 479.625C-12.2477 479.625 -2.56637 496.393 -0.332209 500.263C6.37028 511.872 8.40489 512.417 8.40489 512.417Z" fill="url(#paint28_linear)"/>
    <path d="M36.7292 484.025C43.1407 480.324 46.3377 473.858 43.8699 469.583C41.4021 465.309 34.204 464.845 27.7925 468.547C21.381 472.248 18.184 478.714 20.6518 482.988C23.1196 487.263 30.3177 487.727 36.7292 484.025Z" stroke="#529320" stroke-width="2.97888" stroke-miterlimit="10"/>
    <path d="M15.1999 503.335L64.2159 475.035C62.1679 471.488 63.3945 466.91 66.9418 464.862L59.4945 451.963C55.9473 454.011 51.3694 452.784 49.3215 449.237L0.305489 477.537C2.35347 481.084 1.12683 485.662 -2.42038 487.71L5.02683 500.609C8.57404 498.561 13.1519 499.787 15.1999 503.335Z" stroke="#529320" stroke-width="2.97888" stroke-miterlimit="10"/>
    <path d="M48.3916 489.331C48.3916 489.331 46.357 488.786 39.6545 477.177C32.952 465.568 27.739 456.538 27.739 456.538L17.4198 462.496C17.4198 462.496 22.6328 471.525 29.3353 483.135C36.0378 494.744 38.0724 495.289 38.0724 495.289L48.3916 489.331Z" fill="url(#paint29_linear)"/>
    <path d="M46.211 497.469L48.3917 489.331L38.0725 495.289L35.8918 503.427L46.211 497.469Z" fill="#F9D100"/>
    <path opacity="0.2" d="M46.211 497.469L48.3917 489.331L38.0725 495.289L35.8918 503.427L46.211 497.469Z" fill="black"/>
    <path d="M197.129 410.337L199.309 402.199L197.275 401.653L178.657 369.406L109.002 409.621L106.822 417.759C106.822 417.759 112.035 426.789 118.737 438.398C125.44 450.007 127.474 450.552 127.474 450.552L197.129 410.337Z" fill="#529320"/>
    <path d="M129.655 442.414L199.309 402.199C199.309 402.199 197.275 401.653 190.572 390.044C186.104 382.305 178.657 369.406 178.657 369.406L109.002 409.621C109.002 409.621 118.684 426.39 120.918 430.259C127.62 441.868 129.655 442.414 129.655 442.414Z" fill="url(#paint30_linear)"/>
    <path d="M157.979 414.021C164.391 410.32 167.588 403.854 165.12 399.58C162.652 395.305 155.454 394.841 149.043 398.543C142.631 402.244 139.434 408.71 141.902 412.985C144.37 417.259 151.568 417.723 157.979 414.021Z" stroke="#529320" stroke-width="2.97888" stroke-miterlimit="10"/>
    <path d="M136.45 433.331L185.466 405.031C183.418 401.484 184.645 396.906 188.192 394.858L180.745 381.959C177.197 384.007 172.62 382.781 170.572 379.233L121.556 407.533C123.604 411.08 122.377 415.658 118.83 417.706L126.277 430.605C129.824 428.557 134.402 429.784 136.45 433.331Z" stroke="#529320" stroke-width="2.97888" stroke-miterlimit="10"/>
    <path d="M169.642 419.327C169.642 419.327 167.607 418.782 160.905 407.173C154.202 395.564 148.989 386.535 148.989 386.535L138.67 392.492C138.67 392.492 143.883 401.522 150.585 413.131C157.288 424.74 159.322 425.285 159.322 425.285L169.642 419.327Z" fill="url(#paint31_linear)"/>
    <path d="M167.461 427.466L169.642 419.327L159.323 425.285L157.142 433.423L167.461 427.466Z" fill="#F9D100"/>
    <path opacity="0.2" d="M167.461 427.466L169.642 419.327L159.323 425.285L157.142 433.423L167.461 427.466Z" fill="black"/>
    <path d="M318.379 340.333L320.559 332.195L318.525 331.65L299.907 299.402L230.252 339.617L228.072 347.756C228.072 347.756 233.285 356.785 239.987 368.394C246.69 380.003 248.724 380.548 248.724 380.548L318.379 340.333Z" fill="#529320"/>
    <path d="M250.905 372.41L320.559 332.195C320.559 332.195 318.525 331.65 311.822 320.041C307.354 312.301 299.907 299.402 299.907 299.402L230.252 339.617C230.252 339.617 239.934 356.386 242.168 360.256C248.87 371.865 250.905 372.41 250.905 372.41Z" fill="url(#paint32_linear)"/>
    <path d="M279.229 344.018C285.641 340.316 288.838 333.85 286.37 329.576C283.902 325.302 276.704 324.837 270.293 328.539C263.881 332.241 260.684 338.707 263.152 342.981C265.62 347.255 272.818 347.72 279.229 344.018Z" stroke="#529320" stroke-width="2.97888" stroke-miterlimit="10"/>
    <path d="M257.7 363.327L306.716 335.028C304.668 331.48 305.895 326.903 309.442 324.855L301.995 311.956C298.447 314.004 293.87 312.777 291.822 309.23L242.806 337.529C244.854 341.076 243.627 345.654 240.08 347.702L247.527 360.601C251.074 358.553 255.652 359.78 257.7 363.327Z" stroke="#529320" stroke-width="2.97888" stroke-miterlimit="10"/>
    <path d="M290.892 349.324C290.892 349.324 288.857 348.778 282.155 337.169C275.452 325.56 270.239 316.531 270.239 316.531L259.92 322.489C259.92 322.489 265.133 331.518 271.835 343.127C278.538 354.736 280.573 355.281 280.573 355.281L290.892 349.324Z" fill="url(#paint33_linear)"/>
    <path d="M288.711 357.462L290.892 349.323L280.573 355.281L278.392 363.42L288.711 357.462Z" fill="#F9D100"/>
    <path opacity="0.2" d="M288.711 357.462L290.892 349.323L280.573 355.281L278.392 363.42L288.711 357.462Z" fill="black"/>
    <path d="M439.629 270.329L441.809 262.191L439.775 261.646L421.157 229.398L351.502 269.613L349.322 277.752C349.322 277.752 354.535 286.781 361.237 298.39C367.94 309.999 369.974 310.544 369.974 310.544L439.629 270.329Z" fill="#529320"/>
    <path d="M372.155 302.406L441.809 262.191C441.809 262.191 439.775 261.646 433.072 250.037C428.604 242.297 421.157 229.398 421.157 229.398L351.502 269.613C351.502 269.613 361.184 286.382 363.418 290.252C370.12 301.861 372.155 302.406 372.155 302.406Z" fill="url(#paint34_linear)"/>
    <path d="M378.95 293.323L427.966 265.024C425.918 261.477 427.145 256.899 430.692 254.851L423.245 241.952C419.698 244 415.12 242.773 413.072 239.226L364.056 267.525C366.104 271.073 364.877 275.651 361.33 277.698L368.777 290.597C372.324 288.549 376.902 289.776 378.95 293.323Z" stroke="#529320" stroke-width="2.97888" stroke-miterlimit="10"/>
    <path d="M56.2131 586.287L58.3938 578.148L56.3591 577.603L37.7411 545.356L-31.9132 585.571L-34.0939 593.709C-34.0939 593.709 -28.8808 602.739 -22.1783 614.348C-15.4759 625.957 -13.4412 626.502 -13.4412 626.502L56.2131 586.287Z" fill="#529320"/>
    <path d="M-11.2605 618.363L58.3938 578.148C58.3938 578.148 56.3592 577.603 49.6567 565.994C45.1884 558.255 37.7411 545.356 37.7411 545.356L-31.9131 585.571C-31.9131 585.571 -22.2318 602.339 -19.9976 606.209C-13.2951 617.818 -11.2605 618.363 -11.2605 618.363Z" fill="url(#paint35_linear)"/>
    <path d="M17.0638 589.971C23.4753 586.27 26.6723 579.804 24.2045 575.529C21.7367 571.255 14.5386 570.791 8.12712 574.493C1.71561 578.194 -1.4814 584.66 0.986391 588.934C3.45418 593.209 10.6523 593.673 17.0638 589.971Z" stroke="#529320" stroke-width="2.97888" stroke-miterlimit="10"/>
    <path d="M-4.4655 609.281L44.5505 580.981C42.5025 577.434 43.7291 572.856 47.2763 570.808L39.8291 557.909C36.2819 559.957 31.704 558.731 29.6561 555.183L-19.3599 583.483C-17.3119 587.03 -18.5386 591.608 -22.0858 593.656L-14.6386 606.555C-11.0914 604.507 -6.51348 605.733 -4.4655 609.281Z" stroke="#529320" stroke-width="2.97888" stroke-miterlimit="10"/>
    <path d="M28.7262 595.277C28.7262 595.277 26.6916 594.732 19.9891 583.123C13.2866 571.514 8.07355 562.484 8.07355 562.484L-2.24561 568.442C-2.24561 568.442 2.96744 577.472 9.66993 589.081C16.3724 600.69 18.407 601.235 18.407 601.235L28.7262 595.277Z" fill="url(#paint36_linear)"/>
    <path d="M26.5456 603.415L28.7263 595.277L18.4071 601.235L16.2264 609.373L26.5456 603.415Z" fill="#F9D100"/>
    <path opacity="0.2" d="M26.5456 603.415L28.7263 595.277L18.4071 601.235L16.2264 609.373L26.5456 603.415Z" fill="black"/>
    <path d="M177.463 516.283L179.644 508.145L177.609 507.6L158.991 475.352L89.3368 515.567L87.1561 523.706C87.1561 523.706 92.3692 532.735 99.0717 544.344C105.774 555.953 107.809 556.498 107.809 556.498L177.463 516.283Z" fill="#529320"/>
    <path d="M109.989 548.36L179.644 508.145C179.644 508.145 177.609 507.6 170.907 495.991C166.438 488.251 158.991 475.352 158.991 475.352L89.3369 515.567C89.3369 515.567 99.0182 532.336 101.252 536.205C107.955 547.814 109.989 548.36 109.989 548.36Z" fill="url(#paint37_linear)"/>
    <path d="M138.314 519.968C144.725 516.266 147.922 509.8 145.454 505.526C142.987 501.251 135.789 500.787 129.377 504.489C122.966 508.191 119.769 514.656 122.236 518.931C124.704 523.205 131.902 523.669 138.314 519.968Z" stroke="#529320" stroke-width="2.97888" stroke-miterlimit="10"/>
    <path d="M116.784 539.277L165.8 510.978C163.752 507.43 164.979 502.852 168.526 500.804L161.079 487.906C157.532 489.953 152.954 488.727 150.906 485.18L101.89 513.479C103.938 517.026 102.711 521.604 99.1642 523.652L106.611 536.551C110.159 534.503 114.737 535.73 116.784 539.277Z" stroke="#529320" stroke-width="2.97888" stroke-miterlimit="10"/>
    <path d="M149.976 525.273C149.976 525.273 147.942 524.728 141.239 513.119C134.537 501.51 129.324 492.481 129.324 492.481L119.004 498.439C119.004 498.439 124.217 507.468 130.92 519.077C137.622 530.686 139.657 531.231 139.657 531.231L149.976 525.273Z" fill="url(#paint38_linear)"/>
    <path d="M147.796 533.412L149.976 525.273L139.657 531.231L137.476 539.37L147.796 533.412Z" fill="#F9D100"/>
    <path opacity="0.2" d="M147.796 533.412L149.976 525.273L139.657 531.231L137.476 539.37L147.796 533.412Z" fill="black"/>
    <path d="M298.713 446.279L300.894 438.141L298.859 437.596L280.241 405.348L210.587 445.563L208.406 453.702C208.406 453.702 213.619 462.731 220.322 474.34C227.024 485.949 229.059 486.494 229.059 486.494L298.713 446.279Z" fill="#529320"/>
    <path d="M231.24 478.356L300.894 438.141C300.894 438.141 298.859 437.596 292.157 425.987C287.688 418.247 280.241 405.348 280.241 405.348L210.587 445.563C210.587 445.563 220.268 462.332 222.502 466.202C229.205 477.811 231.24 478.356 231.24 478.356Z" fill="url(#paint39_linear)"/>
    <path d="M259.564 449.964C265.975 446.262 269.172 439.796 266.705 435.522C264.237 431.248 257.039 430.783 250.627 434.485C244.216 438.187 241.019 444.653 243.486 448.927C245.954 453.201 253.152 453.666 259.564 449.964Z" stroke="#529320" stroke-width="2.97888" stroke-miterlimit="10"/>
    <path d="M238.035 469.273L287.051 440.974C285.003 437.427 286.229 432.849 289.776 430.801L282.329 417.902C278.782 419.95 274.204 418.723 272.156 415.176L223.14 443.475C225.188 447.022 223.961 451.6 220.414 453.648L227.861 466.547C231.409 464.499 235.987 465.726 238.035 469.273Z" stroke="#529320" stroke-width="2.97888" stroke-miterlimit="10"/>
    <path d="M271.226 455.27C271.226 455.27 269.192 454.724 262.489 443.115C255.787 431.506 250.574 422.477 250.574 422.477L240.254 428.435C240.254 428.435 245.468 437.464 252.17 449.073C258.872 460.682 260.907 461.227 260.907 461.227L271.226 455.27Z" fill="url(#paint40_linear)"/>
    <path d="M269.046 463.408L271.226 455.27L260.907 461.227L258.727 469.366L269.046 463.408Z" fill="#F9D100"/>
    <path opacity="0.2" d="M269.046 463.408L271.226 455.27L260.907 461.227L258.727 469.366L269.046 463.408Z" fill="black"/>
    <path d="M419.963 376.276L422.144 368.137L420.109 367.592L401.491 335.345L331.837 375.56L329.656 383.698C329.656 383.698 334.869 392.727 341.572 404.336C348.274 415.945 350.309 416.491 350.309 416.491L419.963 376.276Z" fill="#529320"/>
    <path d="M352.49 408.352L422.144 368.137C422.144 368.137 420.109 367.592 413.407 355.983C408.938 348.244 401.491 335.345 401.491 335.345L331.837 375.56C331.837 375.56 341.518 392.328 343.752 396.198C350.455 407.807 352.49 408.352 352.49 408.352Z" fill="url(#paint41_linear)"/>
    <path d="M380.814 379.96C387.225 376.258 390.422 369.793 387.954 365.518C385.487 361.244 378.288 360.78 371.877 364.481C365.465 368.183 362.268 374.649 364.736 378.923C367.204 383.198 374.402 383.662 380.814 379.96Z" stroke="#529320" stroke-width="2.97888" stroke-miterlimit="10"/>
    <path d="M359.285 399.269L408.301 370.97C406.253 367.423 407.479 362.845 411.027 360.797L403.579 347.898C400.032 349.946 395.454 348.719 393.406 345.172L344.39 373.471C346.438 377.019 345.212 381.597 341.664 383.645L349.112 396.543C352.659 394.496 357.237 395.722 359.285 399.269Z" stroke="#529320" stroke-width="2.97888" stroke-miterlimit="10"/>
    <path d="M392.476 385.266C392.476 385.266 390.441 384.721 383.739 373.112C377.036 361.503 371.823 352.473 371.823 352.473L361.504 358.431C361.504 358.431 366.717 367.46 373.42 379.069C380.122 390.678 382.157 391.224 382.157 391.224L392.476 385.266Z" fill="url(#paint42_linear)"/>
    <path d="M36.5478 692.233L38.7285 684.094L36.6939 683.549L18.0758 651.302L-51.5785 691.517L-53.7592 699.655C-53.7592 699.655 -48.5461 708.685 -41.8436 720.294C-35.1411 731.903 -33.1065 732.448 -33.1065 732.448L36.5478 692.233Z" fill="#529320"/>
    <path d="M-30.9259 724.309L38.7284 684.094C38.7284 684.094 36.6938 683.549 29.9913 671.94C25.523 664.201 18.0758 651.302 18.0758 651.302L-51.5785 691.517C-51.5785 691.517 -41.8971 708.285 -39.663 712.155C-32.9605 723.764 -30.9259 724.309 -30.9259 724.309Z" fill="url(#paint43_linear)"/>
    <path d="M-24.1308 715.227L24.8851 686.927C22.8372 683.38 24.0638 678.802 27.611 676.754L20.1638 663.855C16.6166 665.903 12.0387 664.677 9.99072 661.129L-39.0253 689.429C-36.9773 692.976 -38.2039 697.554 -41.7511 699.602L-34.3039 712.501C-30.7567 710.453 -26.1788 711.679 -24.1308 715.227Z" stroke="#529320" stroke-width="2.97888" stroke-miterlimit="10"/>
    <path d="M157.798 622.229L159.978 614.091L157.944 613.546L139.326 581.298L69.6715 621.513L67.4908 629.652C67.4908 629.652 72.7039 638.681 79.4064 650.29C86.1089 661.899 88.1435 662.444 88.1435 662.444L157.798 622.229Z" fill="#529320"/>
    <path d="M90.3242 654.306L159.978 614.091C159.978 614.091 157.944 613.546 151.241 601.937C146.773 594.197 139.326 581.298 139.326 581.298L69.6716 621.513C69.6716 621.513 79.3529 638.282 81.5871 642.151C88.2896 653.761 90.3242 654.306 90.3242 654.306Z" fill="url(#paint44_linear)"/>
    <path d="M118.648 625.914C125.06 622.212 128.257 615.746 125.789 611.472C123.321 607.198 116.123 606.733 109.712 610.435C103.3 614.137 100.103 620.602 102.571 624.877C105.039 629.151 112.237 629.615 118.648 625.914Z" stroke="#529320" stroke-width="2.97888" stroke-miterlimit="10"/>
    <path d="M97.1192 645.223L146.135 616.924C144.087 613.376 145.314 608.798 148.861 606.75L141.414 593.852C137.867 595.9 133.289 594.673 131.241 591.126L82.2248 619.425C84.2728 622.972 83.0461 627.55 79.4989 629.598L86.9461 642.497C90.4934 640.449 95.0712 641.676 97.1192 645.223Z" stroke="#529320" stroke-width="2.97888" stroke-miterlimit="10"/>
    <path d="M130.311 631.219C130.311 631.219 128.276 630.674 121.574 619.065C114.871 607.456 109.658 598.427 109.658 598.427L99.3391 604.385C99.3391 604.385 104.552 613.414 111.255 625.023C117.957 636.632 119.992 637.177 119.992 637.177L130.311 631.219Z" fill="url(#paint45_linear)"/>
    <path d="M128.13 639.358L130.311 631.219L119.992 637.177L117.811 645.316L128.13 639.358Z" fill="#F9D100"/>
    <path opacity="0.2" d="M128.13 639.358L130.311 631.219L119.992 637.177L117.811 645.316L128.13 639.358Z" fill="black"/>
    <path d="M279.048 552.225L281.229 544.087L279.194 543.542L260.576 511.294L190.922 551.509L188.741 559.648C188.741 559.648 193.954 568.677 200.656 580.286C207.359 591.895 209.394 592.44 209.394 592.44L279.048 552.225Z" fill="#529320"/>
    <path d="M211.574 584.302L281.229 544.087C281.229 544.087 279.194 543.542 272.491 531.933C268.023 524.193 260.576 511.294 260.576 511.294L190.922 551.509C190.922 551.509 200.603 568.278 202.837 572.148C209.54 583.757 211.574 584.302 211.574 584.302Z" fill="url(#paint46_linear)"/>
    <path d="M239.899 555.91C246.31 552.208 249.507 545.742 247.039 541.468C244.571 537.194 237.373 536.729 230.962 540.431C224.55 544.133 221.353 550.599 223.821 554.873C226.289 559.147 233.487 559.612 239.899 555.91Z" stroke="#529320" stroke-width="2.97888" stroke-miterlimit="10"/>
    <path d="M218.369 575.219L267.385 546.92C265.337 543.373 266.564 538.795 270.111 536.747L262.664 523.848C259.117 525.896 254.539 524.669 252.491 521.122L203.475 549.421C205.523 552.969 204.296 557.546 200.749 559.594L208.196 572.493C211.743 570.445 216.321 571.672 218.369 575.219Z" stroke="#529320" stroke-width="2.97888" stroke-miterlimit="10"/>
    <path d="M251.561 561.216C251.561 561.216 249.526 560.67 242.824 549.061C236.121 537.452 230.908 528.423 230.908 528.423L220.589 534.381C220.589 534.381 225.802 543.41 232.505 555.019C239.207 566.628 241.242 567.173 241.242 567.173L251.561 561.216Z" fill="url(#paint47_linear)"/>
    <path d="M249.38 569.354L251.561 561.216L241.242 567.173L239.061 575.312L249.38 569.354Z" fill="#F9D100"/>
    <path opacity="0.2" d="M249.38 569.354L251.561 561.216L241.242 567.173L239.061 575.312L249.38 569.354Z" fill="black"/>
    <path d="M400.298 482.222L402.479 474.083L400.444 473.538L381.826 441.291L312.172 481.506L309.991 489.644C309.991 489.644 315.204 498.673 321.907 510.282C328.609 521.891 330.644 522.437 330.644 522.437L400.298 482.222Z" fill="#529320"/>
    <path d="M332.824 514.298L402.479 474.083C402.479 474.083 400.444 473.538 393.742 461.929C389.273 454.19 381.826 441.291 381.826 441.291L312.172 481.506C312.172 481.506 321.853 498.274 324.087 502.144C330.79 513.753 332.824 514.298 332.824 514.298Z" fill="url(#paint48_linear)"/>
    <path d="M361.149 485.906C367.56 482.204 370.757 475.739 368.289 471.464C365.822 467.19 358.623 466.726 352.212 470.427C345.8 474.129 342.603 480.595 345.071 484.869C347.539 489.144 354.737 489.608 361.149 485.906Z" stroke="#529320" stroke-width="2.97888" stroke-miterlimit="10"/>
    <path d="M339.619 505.215L388.635 476.916C386.587 473.369 387.814 468.791 391.361 466.743L383.914 453.844C380.367 455.892 375.789 454.665 373.741 451.118L324.725 479.418C326.773 482.965 325.546 487.543 321.999 489.591L329.446 502.49C332.993 500.442 337.571 501.668 339.619 505.215Z" stroke="#529320" stroke-width="2.97888" stroke-miterlimit="10"/>
    <path d="M372.811 491.212C372.811 491.212 370.776 490.667 364.074 479.058C357.371 467.449 352.158 458.419 352.158 458.419L341.839 464.377C341.839 464.377 347.052 473.406 353.755 485.015C360.457 496.624 362.492 497.17 362.492 497.17L372.811 491.212Z" fill="url(#paint49_linear)"/>
    <path d="M370.63 499.35L372.811 491.212L362.492 497.17L360.311 505.308L370.63 499.35Z" fill="#F9D100"/>
    <path opacity="0.2" d="M370.63 499.35L372.811 491.212L362.492 497.17L360.311 505.308L370.63 499.35Z" fill="black"/>
    <path d="M259.382 658.172L261.563 650.033L259.528 649.488L240.91 617.241L171.256 657.455L169.075 665.594C169.075 665.594 174.288 674.623 180.991 686.232C187.693 697.841 189.728 698.386 189.728 698.386L259.382 658.172Z" fill="#529320"/>
    <path d="M191.909 690.248L261.563 650.033C261.563 650.033 259.528 649.488 252.826 637.879C248.358 630.139 240.91 617.241 240.91 617.241L171.256 657.455C171.256 657.455 180.937 674.224 183.172 678.094C189.874 689.703 191.909 690.248 191.909 690.248Z" fill="url(#paint50_linear)"/>
    <path d="M220.233 661.856C226.645 658.154 229.842 651.688 227.374 647.414C224.906 643.14 217.708 642.676 211.296 646.377C204.885 650.079 201.688 656.545 204.156 660.819C206.623 665.093 213.822 665.558 220.233 661.856Z" stroke="#529320" stroke-width="2.97888" stroke-miterlimit="10"/>
    <path d="M198.704 681.165L247.72 652.866C245.672 649.319 246.898 644.741 250.446 642.693L242.998 629.794C239.451 631.842 234.873 630.615 232.825 627.068L183.809 655.367C185.857 658.915 184.631 663.492 181.083 665.54L188.531 678.439C192.078 676.391 196.656 677.618 198.704 681.165Z" stroke="#529320" stroke-width="2.97888" stroke-miterlimit="10"/>
    <path d="M231.895 667.162C231.895 667.162 229.861 666.616 223.158 655.007C216.456 643.398 211.243 634.369 211.243 634.369L200.924 640.327C200.924 640.327 206.137 649.356 212.839 660.965C219.542 672.574 221.576 673.119 221.576 673.119L231.895 667.162Z" fill="url(#paint51_linear)"/>
    <path d="M380.632 588.168L382.813 580.029L380.778 579.484L362.16 547.237L292.506 587.452L290.325 595.59C290.325 595.59 295.538 604.619 302.241 616.228C308.943 627.837 310.978 628.383 310.978 628.383L380.632 588.168Z" fill="#529320"/>
    <path d="M313.159 620.244L382.813 580.029C382.813 580.029 380.778 579.484 374.076 567.875C369.608 560.136 362.16 547.237 362.16 547.237L292.506 587.452C292.506 587.452 302.188 604.22 304.422 608.09C311.124 619.699 313.159 620.244 313.159 620.244Z" fill="url(#paint52_linear)"/>
    <path d="M341.483 591.852C347.894 588.15 351.091 581.685 348.624 577.41C346.156 573.136 338.958 572.672 332.546 576.373C326.135 580.075 322.938 586.541 325.406 590.815C327.873 595.09 335.071 595.554 341.483 591.852Z" stroke="#529320" stroke-width="2.97888" stroke-miterlimit="10"/>
    <path d="M319.954 611.161L368.97 582.862C366.922 579.315 368.148 574.737 371.696 572.689L364.248 559.79C360.701 561.838 356.123 560.611 354.075 557.064L305.059 585.364C307.107 588.911 305.881 593.489 302.334 595.537L309.781 608.436C313.328 606.388 317.906 607.614 319.954 611.161Z" stroke="#529320" stroke-width="2.97888" stroke-miterlimit="10"/>
    <path d="M353.145 597.158C353.145 597.158 351.111 596.613 344.408 585.004C337.706 573.395 332.493 564.365 332.493 564.365L322.174 570.323C322.174 570.323 327.387 579.352 334.089 590.961C340.792 602.57 342.826 603.116 342.826 603.116L353.145 597.158Z" fill="url(#paint53_linear)"/>
    <path d="M350.965 605.296L353.146 597.158L342.826 603.116L340.646 611.254L350.965 605.296Z" fill="#F9D100"/>
    <path opacity="0.2" d="M350.965 605.296L353.146 597.158L342.826 603.116L340.646 611.254L350.965 605.296Z" fill="black"/>
    <path d="M360.967 694.114L363.148 685.975L361.113 685.43L342.495 653.183L272.841 693.398L270.66 701.536C270.66 701.536 275.873 710.566 282.576 722.175C289.278 733.784 291.313 734.329 291.313 734.329L360.967 694.114Z" fill="#529320"/>
    <path d="M293.494 726.19L363.148 685.975C363.148 685.975 361.113 685.43 354.411 673.821C349.942 666.082 342.495 653.183 342.495 653.183L272.841 693.398C272.841 693.398 282.522 710.166 284.756 714.036C291.459 725.645 293.494 726.19 293.494 726.19Z" fill="url(#paint54_linear)"/>
    <path d="M300.289 717.108L349.305 688.808C347.257 685.261 348.483 680.683 352.03 678.635L344.583 665.736C341.036 667.784 336.458 666.558 334.41 663.01L285.394 691.31C287.442 694.857 286.215 699.435 282.668 701.483L290.115 714.382C293.663 712.334 298.241 713.56 300.289 717.108Z" stroke="#529320" stroke-width="2.97888" stroke-miterlimit="10"/>
    <rect width="375" height="667" fill="url(#paint55_linear)"/>
</svg>