<svg width="60" height="64" viewBox="0 0 60 64" fill="none" xmlns="http://www.w3.org/2000/svg">
<path d="M30 64C46.5685 64 60 50.5685 60 34C60 17.4315 46.5685 4 30 4C13.4315 4 0 17.4315 0 34C0 50.5685 13.4315 64 30 64Z" fill="black" fill-opacity="0.2"/>
<path d="M30 60C46.5685 60 60 46.5685 60 30C60 13.4315 46.5685 0 30 0C13.4315 0 0 13.4315 0 30C0 46.5685 13.4315 60 30 60Z" fill="#FDCA47"/>
<path d="M49.6542 7.34595C54.3995 12.7931 57.0094 19.7757 57.0002 26.9999C57.0002 43.5679 43.5682 56.9999 27.0002 56.9999C19.4792 56.9999 12.6112 54.2249 7.34619 49.6539C12.8472 55.9879 20.9522 59.9999 30.0002 59.9999C46.5682 59.9999 60.0002 46.5679 60.0002 29.9999C60.0002 20.9509 55.9892 12.8459 49.6542 7.34595Z" fill="#F9B700"/>
<path fill-rule="evenodd" clip-rule="evenodd" d="M4.41818 18.5C3.30218 22.24 11.0012 9.00005 23.0012 4.08205C28.8342 1.69305 9.16818 2.58205 4.41818 18.5Z" fill="#FFE8BB"/>
<path d="M33.8478 19.314C31.6488 20.437 28.3498 20.437 26.1508 19.314C23.8008 18.08 20.9308 17.291 17.4948 16.982C14.1398 16.679 7.02779 16.691 3.46979 17.972C3.05871 18.1243 2.65875 18.3051 2.27279 18.513C2.05379 18.626 2.00979 18.708 2.00979 19.128V19.667C2.00979 20.683 1.88579 20.288 2.59479 20.712C3.97579 21.54 4.76079 23.689 5.18179 26.646C5.77979 30.959 7.84679 33.66 11.2038 34.951C14.331 36.1446 17.7947 36.1063 20.8948 34.844C22.5848 34.153 24.0698 33.059 25.2488 31.285C27.3168 28.178 26.6978 26.236 27.7648 23.564C28.6948 21.234 31.3078 21.234 32.2398 23.564C33.3058 26.236 32.6868 28.177 34.7538 31.285C35.9328 33.058 37.4178 34.152 39.1088 34.844C42.2087 36.1073 45.6728 36.1456 48.7998 34.951C52.1548 33.66 54.2238 30.959 54.8218 26.646C55.2408 23.689 56.0268 21.541 57.4078 20.712C58.1168 20.288 57.9928 20.683 57.9928 19.667V19.128C57.9928 18.708 57.9478 18.626 57.7298 18.513C57.3438 18.3058 56.9442 18.125 56.5338 17.972C52.9738 16.691 45.8618 16.679 42.5088 16.982C39.0678 17.291 36.1968 18.08 33.8478 19.314Z" fill="#E8A329"/>
<path d="M42.5838 40.279C34.4748 45.935 25.4798 45.902 17.4158 40.279C16.4458 39.601 15.5708 40.773 16.2288 41.857C18.6858 45.904 23.6458 49.505 29.9998 49.505C36.3538 49.505 41.3138 45.901 43.7708 41.857C44.4298 40.773 43.5548 39.604 42.5838 40.279ZM33.8488 18.314C31.6488 19.438 28.3498 19.438 26.1508 18.314C23.8008 17.081 20.9318 16.29 17.4938 15.982C14.1398 15.681 7.02779 15.691 3.46979 16.973C3.05866 17.1244 2.65867 17.3045 2.27279 17.512C2.05379 17.626 2.00979 17.71 2.00979 18.128V18.668C2.00979 19.684 1.88579 19.289 2.59479 19.712C3.97679 20.54 4.76079 22.689 5.18179 25.647C5.77979 29.959 7.84679 32.661 11.2038 33.952C14.331 35.1456 17.7947 35.1073 20.8948 33.845C22.5848 33.154 24.0688 32.06 25.2488 30.287C27.3178 27.177 26.6978 25.236 27.7648 22.565C28.6948 20.233 31.3068 20.233 32.2388 22.565C33.3068 25.236 32.6868 27.176 34.7548 30.287C35.9318 32.059 37.4178 33.153 39.1088 33.845C42.208 35.1083 45.6715 35.1465 48.7978 33.952C52.1538 32.661 54.2238 29.959 54.8208 25.647C55.2408 22.689 56.0258 20.541 57.4078 19.712C58.1168 19.289 57.9928 19.684 57.9928 18.668V18.128C57.9928 17.71 57.9478 17.626 57.7298 17.512C57.3434 17.3054 56.9435 17.1254 56.5328 16.973C52.9738 15.691 45.8618 15.68 42.5088 15.982C39.0678 16.29 36.1968 17.081 33.8488 18.314Z" fill="#302C3B"/>
<path opacity="0.3" d="M35.3178 20.2079C33.9798 21.3959 35.1948 29.9889 39.2558 31.5779C41.7898 32.5699 46.7718 33.1709 50.2158 30.1349C53.0348 27.6499 53.6438 20.1249 51.6398 18.9539C49.4378 17.6689 38.1798 17.6689 35.3178 20.2079ZM24.8568 20.2109C26.1948 21.3989 24.9798 29.9919 20.9188 31.5809C18.3838 32.5729 13.4028 33.1739 9.95884 30.1389C7.13984 27.6539 6.52984 20.1289 8.53484 18.9579C10.7368 17.6719 21.9948 17.6719 24.8568 20.2109Z" fill="#4E5E67"/>
<path d="M42.9078 18.197L35.2808 25.811C35.5488 26.8513 35.9435 27.8548 36.4558 28.799L47.1208 18.15C45.7167 18.0853 44.3101 18.101 42.9078 18.197ZM51.6378 18.953C51.5558 18.905 51.4378 18.863 51.3308 18.819L38.7978 31.341C38.9478 31.424 39.0958 31.514 39.2548 31.576C39.9488 31.847 40.8298 32.088 41.8098 32.233L52.7278 21.316C52.5758 20.18 52.2218 19.293 51.6378 18.953ZM13.4498 18.137L7.44678 24.13C7.57578 25.267 7.84578 26.439 8.25478 27.483L17.5338 18.217C16.1749 18.1158 14.8116 18.0891 13.4498 18.137ZM10.2498 30.371C10.9989 30.9744 11.8431 31.4492 12.7478 31.776L24.5378 19.986C23.8738 19.516 22.9148 19.143 21.7728 18.858L10.2498 30.371Z" fill="#4E5E67"/>
</svg>
