<svg width="72" height="72" viewBox="0 0 72 72" fill="none" xmlns="http://www.w3.org/2000/svg">
    <path d="M36 72C55.8823 72 72 55.8823 72 36C72 16.1177 55.8823 0 36 0C16.1177 0 0 16.1177 0 36C0 55.8823 16.1177 72 36 72Z" fill="#A69B3A"/>
    <path d="M71 36C71 55.33 55.33 71 36 71C16.67 71 1 55.33 1 36C1 16.67 16.67 1 36 1C55.33 1 71 16.67 71 36Z" stroke="white" stroke-opacity="0.3" stroke-width="2"/>
    <path d="M48.9119 36.2976C49.3789 40.1476 63.0119 48.0396 65.7359 33.9466C68.5959 19.1436 47.2459 22.5566 48.9119 36.2976Z" fill="#785647"/>
    <path d="M63.666 29.3195C60.215 26.7295 53.463 30.6395 54.467 38.8575C54.52 39.2795 53.242 38.0585 53.127 37.1265C51.965 27.6085 61.199 23.8765 63.666 29.3195Z" fill="#C4926E"/>
    <path d="M63.666 29.3195C64.285 30.6805 64.484 32.6075 63.986 35.1715C62.275 43.9675 54.519 39.2795 54.466 38.8585C53.463 30.6405 60.215 26.7295 63.666 29.3195Z" fill="#EBBB96"/>
    <path d="M23.0869 36.2976C22.6199 40.1476 8.98695 48.0396 6.26395 33.9466C3.40395 19.1436 24.7549 22.5566 23.0869 36.2976Z" fill="#785647"/>
    <path d="M8.33301 29.3195C11.784 26.7295 18.535 30.6395 17.533 38.8575C17.479 39.2795 18.759 38.0585 18.872 37.1265C20.034 27.6085 10.801 23.8765 8.33301 29.3195Z" fill="#C4926E"/>
    <path d="M8.33297 29.3195C7.71497 30.6805 7.51497 32.6075 8.01297 35.1715C9.72297 43.9675 17.48 39.2795 17.534 38.8585C18.536 30.6405 11.785 26.7295 8.33297 29.3195Z" fill="#EBBB96"/>
    <path d="M55.488 30.7355C55.488 17.0075 45.457 12.0865 36 12.0865C26.542 12.0865 16.51 17.0075 16.51 30.7355C16.51 34.9095 12.027 38.4205 11.998 44.0025C11.93 58.3915 24 64.0005 36 64.0005C48 64.0005 60.072 58.3965 60 44.0005C59.971 38.4185 55.488 34.9095 55.488 30.7355Z" fill="#785647"/>
    <path d="M42.6949 13.0255C42.6949 13.0255 42.4329 11.4175 44.8339 9.89051C44.8339 9.89051 39.3379 9.32751 36.9419 11.6675C36.9419 11.6675 36.5319 9.76851 37.8999 7.99951C37.8999 7.99951 31.7059 7.99951 27.4669 14.3385L46.9929 18.3395C46.9929 18.3395 46.6669 15.1845 49.2899 13.7745C49.2909 13.7745 45.9919 12.2395 42.6949 13.0255Z" fill="#785647"/>
    <path d="M36.001 26.7836C20.902 18.2136 11.125 36.8006 23.904 45.0356C21.11 53.5566 23.76 60.5766 36.001 60.5766C48.238 60.5766 50.889 53.5566 48.096 45.0356C60.875 36.8006 51.098 18.2136 36.001 26.7836Z" fill="#EBBB96"/>
    <path d="M31.0719 43.8246C30.5729 42.0566 35.5459 45.0196 34.8759 45.2226C33.6609 45.5946 31.4689 45.2236 31.0719 43.8246ZM40.9259 43.8246C41.4259 42.0566 36.4539 45.0196 37.1229 45.2226C38.3379 45.5946 40.5289 45.2236 40.9259 43.8246ZM30.5389 35.7716C30.5389 38.3906 28.8889 40.5156 26.8479 40.5156C24.8099 40.5156 23.1589 38.3906 23.1589 35.7716C23.1589 33.1486 24.8099 31.0236 26.8479 31.0236C28.8889 31.0236 30.5389 33.1486 30.5389 35.7716Z" fill="#302C3B"/>
    <path d="M26.584 33.6955C26.584 35.3325 24.741 35.3325 24.741 33.6955C24.741 32.0555 26.584 32.0555 26.584 33.6955Z" fill="white"/>
    <path d="M48.8479 35.7716C48.8479 38.3906 47.1959 40.5156 45.1569 40.5156C43.1179 40.5156 41.4679 38.3906 41.4679 35.7716C41.4679 33.1486 43.1179 31.0236 45.1569 31.0236C47.1959 31.0236 48.8479 33.1486 48.8479 35.7716Z" fill="#302C3B"/>
    <path d="M44.893 33.6955C44.893 35.3325 43.049 35.3325 43.049 33.6955C43.049 32.0555 44.893 32.0555 44.893 33.6955Z" fill="white"/>
    <path d="M43.9359 50.0005H28.0609C27.6949 50.0005 27.4979 50.2545 27.4979 50.5005C27.4979 54.1355 30.4779 58.0005 35.9979 58.0005C41.5189 58.0005 44.4989 54.1355 44.4989 50.5005C44.4999 50.2545 44.3049 50.0005 43.9359 50.0005Z" fill="#302C3B"/>
    <path d="M31.5 55.5705C32.801 56.4705 34.301 57.0005 36 57.0005C37.699 57.0005 39.199 56.4715 40.5 55.5705C39.245 54.5955 37.751 54.0005 36 54.0005C34.248 54.0005 32.756 54.5955 31.5 55.5705Z" fill="#F46C60"/>
</svg>