<svg width="72" height="72" viewBox="0 0 72 72" fill="none" xmlns="http://www.w3.org/2000/svg">
    <path d="M36 72C55.8823 72 72 55.8823 72 36C72 16.1177 55.8823 0 36 0C16.1177 0 0 16.1177 0 36C0 55.8823 16.1177 72 36 72Z" fill="#6A3D1C"/>
    <path d="M71 36C71 55.33 55.33 71 36 71C16.67 71 1 55.33 1 36C1 16.67 16.67 1 36 1C55.33 1 71 16.67 71 36Z" stroke="white" stroke-opacity="0.3" stroke-width="2"/>
    <path d="M14.3585 15C13.0145 25.7456 13.2281 34.3872 15.2313 39.9064L33.7977 26.2C30.1073 22.1264 22.6225 16.1672 14.3585 15Z" fill="#F9C802"/>
    <path d="M16.696 39.1423L26.2528 26.9999C26.2528 26.9999 22.9192 22.7111 15.676 18.5887C13.5064 27.9143 16.696 39.1423 16.696 39.1423Z" fill="#AB5C10"/>
    <path d="M20.1856 32.3079L25.5032 26.1999C25.5032 26.1999 22.92 22.7111 15.6768 18.5887C21.4936 25.1263 20.1856 32.3079 20.1856 32.3079Z" fill="#82450D"/>
    <path d="M57.6416 15C58.9864 25.7456 58.7704 34.3872 56.7688 39.9064L38.2024 26.2C41.8912 22.1264 49.3776 16.1672 57.6416 15Z" fill="#F9C802"/>
    <path d="M55.304 39.1423L45.7472 26.9999C45.7472 26.9999 49.0808 22.7111 56.324 18.5887C58.4936 27.9143 55.304 39.1423 55.304 39.1423Z" fill="#AB5C10"/>
    <path d="M51.8136 32.3079L46.4968 26.1999C46.4968 26.1999 49.08 22.7111 56.3232 18.5887C50.5056 25.1263 51.8136 32.3079 51.8136 32.3079Z" fill="#82450D"/>
    <path d="M56.6376 45.5008C56.6376 45.5008 57.044 44.232 60 44.948C60 44.948 58.5768 41.72 56.5608 41.1328C56.5608 41.1328 58.0184 40.3768 59.2768 40.7208C59.2768 40.7208 58.0496 36.5128 54.2992 32.0128C54.5088 31.9504 54.7272 31.9008 54.9648 31.8904C54.9648 31.8904 54.2408 30.5808 52.8608 29.8904C52.8608 29.8904 53.7856 28.7656 55.3232 28.024C55.3232 28.024 52.8408 26.968 50.94 27.6648C50.94 27.6648 51.0736 26.6248 51.5608 25.6912C51.5608 25.6912 50.2208 25.3936 48.8112 25.8488C45.6176 23.7152 41.4496 22.4888 36 22.4888C30.5496 22.4888 26.3824 23.716 23.188 25.8488C21.7776 25.3936 20.4376 25.6912 20.4376 25.6912C20.9264 26.6248 21.0592 27.6648 21.0592 27.6648C19.1576 26.968 16.676 28.024 16.676 28.024C18.2144 28.7664 19.1392 29.8904 19.1392 29.8904C17.7592 30.5808 17.0352 31.8904 17.0352 31.8904C17.2728 31.9016 17.4904 31.9504 17.6992 32.0128C13.9488 36.5128 12.7224 40.7208 12.7224 40.7208C13.98 40.376 15.4384 41.1328 15.4384 41.1328C13.4232 41.7192 12 44.948 12 44.948C14.956 44.232 15.3608 45.5008 15.3608 45.5008C13.3888 45.932 12.856 47.1928 12.856 47.1928C12.856 47.1928 18.364 63 36 63C53.6344 63 59.144 47.1928 59.144 47.1928C59.144 47.1928 58.6096 45.932 56.6376 45.5008Z" fill="#F9C802"/>
    <path d="M40.5496 22.8112C39.14 22.6048 37.6296 22.4128 36.0008 22.4128C34.372 22.4128 32.86 22.6048 31.4496 22.8112C32.0384 25.8952 36 32.0784 36 32.0784C36 32.0784 39.9712 25.8736 40.5496 22.8112ZM47.8504 25.228C46.324 24.3544 44.5928 23.6736 42.632 23.2096C43.104 25.0424 45.5336 28.7584 45.5336 28.7584C45.5336 28.7584 47.3072 26.628 47.8504 25.228ZM29.368 23.2112C27.4072 23.6736 25.676 24.3552 24.1512 25.228C24.7 26.6408 26.464 28.7576 26.464 28.7576C26.464 28.7576 28.9024 25.0264 29.368 23.2112ZM27.8264 46.872C18.5168 45.3752 16.52 47.1488 16.5752 47.5232C16.5936 47.6456 20.6624 46.3832 27.8264 46.872ZM28.156 48.156C16.74 48.1016 14.672 50.628 14.8056 51.0744C14.8504 51.2168 19.4904 48.9184 28.156 48.156ZM44.1736 46.872C53.4848 45.3752 55.48 47.1488 55.4248 47.5232C55.408 47.6456 51.3392 46.3832 44.1736 46.872ZM43.8456 48.156C55.26 48.1016 57.3288 50.628 57.1944 51.0744C57.1512 51.2168 52.5112 48.9184 43.8456 48.156Z" fill="#D47706"/>
    <path d="M39.2335 45.8888C38.5847 45.1328 33.4135 45.1328 32.7647 45.8888C31.7727 47.0496 34.7159 49.8744 35.9991 49.8744C37.2823 49.8744 40.2287 47.0504 39.2335 45.8888ZM43.1903 51.732C38.5559 54.6176 33.4151 54.6 28.8087 51.732C28.2543 51.388 27.7543 51.9848 28.1303 52.5384C29.5343 54.6016 32.3703 56.44 35.9999 56.44C39.6311 56.44 42.4655 54.6016 43.8687 52.5384C44.2455 51.9848 43.7455 51.388 43.1903 51.732Z" fill="#302C3B"/>
    <path d="M32.9087 54.9167C32.0951 56.6007 31.4967 58.3591 31.7223 59.6023C32.5399 64.1319 39.4607 64.1319 40.2775 59.6023C40.5023 58.3583 39.9039 56.6007 39.0903 54.9167H32.9087Z" fill="#F46C60"/>
    <path d="M35.9991 61.3015L34.9167 54.9167H37.0807L35.9991 61.3015Z" fill="#E81C27"/>
    <path d="M43.1904 53.1992C38.556 56.0848 33.4152 56.0664 28.8088 53.1992C28.2544 52.8544 32.3696 54.0352 35.9992 54.0352C39.6312 54.0352 43.7456 52.8544 43.1904 53.1992Z" fill="#302C3B"/>
    <path d="M45.8848 44.6C47.6521 44.6 49.0848 42.6301 49.0848 40.2C49.0848 37.77 47.6521 35.8 45.8848 35.8C44.1175 35.8 42.6848 37.77 42.6848 40.2C42.6848 42.6301 44.1175 44.6 45.8848 44.6Z" fill="#302C3B"/>
    <path d="M45.3008 38.3081C45.3008 39.6417 43.7008 39.6417 43.7008 38.3081C43.7008 36.9745 45.3008 36.9745 45.3008 38.3081Z" fill="white"/>
    <path d="M26.1144 44.6C27.8817 44.6 29.3144 42.6301 29.3144 40.2C29.3144 37.77 27.8817 35.8 26.1144 35.8C24.3471 35.8 22.9144 37.77 22.9144 40.2C22.9144 42.6301 24.3471 44.6 26.1144 44.6Z" fill="#302C3B"/>
    <path d="M25.5296 38.3081C25.5296 39.6417 23.9296 39.6417 23.9296 38.3081C23.9296 36.9745 25.5296 36.9745 25.5296 38.3081Z" fill="white"/>
</svg>