<svg width="72" height="72" viewBox="0 0 72 72" fill="none" xmlns="http://www.w3.org/2000/svg">
    <path d="M36 72C55.8823 72 72 55.8823 72 36C72 16.1177 55.8823 0 36 0C16.1177 0 0 16.1177 0 36C0 55.8823 16.1177 72 36 72Z" fill="#3E1C6A"/>
    <path d="M71 36C71 55.33 55.33 71 36 71C16.67 71 1 55.33 1 36C1 16.67 16.67 1 36 1C55.33 1 71 16.67 71 36Z" stroke="white" stroke-opacity="0.3" stroke-width="2"/>
    <path d="M33.4151 26.7976C33.5439 27.068 32.132 28.116 32.0104 27.8416C29.6432 22.5088 25.1656 20.2448 25.1656 20.2448L26.0144 19.396C26.0144 19.396 30.7104 21.1432 33.4151 26.7976Z" fill="#AA5BEF"/>
    <path d="M25.8769 21.7168C28.0105 21.7168 28.0105 18.5168 25.8769 18.5168C23.7433 18.5168 23.7433 21.7168 25.8769 21.7168Z" fill="#AA5BEF"/>
    <path fill-rule="evenodd" clip-rule="evenodd" d="M24.5592 20.0008C24.6016 20.424 25.16 19.5944 25.7256 18.8792C26.0912 18.4192 24.4312 18.7224 24.5592 20.0008Z" fill="#C28FEF"/>
    <path d="M38.5847 26.7976C38.4551 27.068 39.8679 28.116 39.9895 27.8416C42.3558 22.5088 46.8342 20.2448 46.8342 20.2448L45.9854 19.396C45.9854 19.396 41.2894 21.1432 38.5847 26.7976Z" fill="#AA5BEF"/>
    <path d="M46.123 21.7168C48.2566 21.7168 48.2566 18.5168 46.123 18.5168C43.9894 18.5168 43.9894 21.7168 46.123 21.7168Z" fill="#AA5BEF"/>
    <path fill-rule="evenodd" clip-rule="evenodd" d="M44.8061 20.0008C44.8485 20.424 45.4069 19.5944 45.9725 18.8792C46.3381 18.4192 44.6781 18.7224 44.8061 20.0008Z" fill="#C28FEF"/>
    <path d="M36 46.208C45.7734 46.208 49.8598 50.3808 48.2846 57.6C52.7165 50.0408 48.6294 38.4 36 38.4C23.3705 38.4 19.2834 50.0408 23.7161 57.6C22.1393 50.3808 26.2265 46.208 36 46.208Z" fill="#8F3BD9"/>
    <path d="M35.9999 46.136C52.7381 46.136 59.738 51.2144 57.0388 60C64.6283 50.7984 57.6292 36.6312 35.9999 36.6312C14.3706 36.6312 7.3715 50.7984 14.961 60C12.2618 51.2144 19.2609 46.136 35.9999 46.136Z" fill="#8F3BD9"/>
    <path d="M35.9991 40.536C57.0044 40.536 59.7372 51.216 57.0388 60C64.6275 50.7984 57.6292 36.6312 35.9991 36.6312C14.3698 36.6312 7.37147 50.7984 14.9602 60C12.261 51.216 14.9946 40.536 35.9991 40.536Z" fill="#AA5BEF"/>
    <path fill-rule="evenodd" clip-rule="evenodd" d="M21.7872 41.0832C23.0432 41.0976 18.7176 40.5864 13.6833 48.4624C11.7993 51.4096 15.1089 41 21.7872 41.0832Z" fill="#C28FEF"/>
    <path d="M58.078 12C46.0166 17.3288 54.9165 23.1624 52.6821 40.5824C66.5827 30.0616 50.6829 19.7616 58.078 12Z" fill="#8F3BD9"/>
    <path d="M58.0779 12C48.0917 20.1952 60.5163 24.3624 52.682 40.5824C70.149 27.5976 49.7492 22.3952 58.0779 12Z" fill="#AA5BEF"/>
    <path d="M13.9226 12C25.984 17.3288 17.0841 23.1624 19.3185 40.5824C5.41788 30.0616 21.3169 19.7616 13.9226 12Z" fill="#8F3BD9"/>
    <path d="M13.9227 12C23.9081 20.1952 11.4843 24.3624 19.3186 40.5824C1.85164 27.5976 22.2506 22.3952 13.9227 12Z" fill="#AA5BEF"/>
    <path d="M35.9998 50.0472C11.4673 50.0472 11.4673 24.4472 35.9998 24.4472C60.5331 24.4472 60.5331 50.0472 35.9998 50.0472Z" fill="#AA5BEF"/>
    <path fill-rule="evenodd" clip-rule="evenodd" d="M32.0335 25.6016C33.1023 25.2832 22.1313 25.7128 18.9505 34.1744C17.0089 39.3376 20.9713 28.896 32.0335 25.6016Z" fill="#C28FEF"/>
    <path d="M26.4008 41.5632C31.7327 41.5632 31.7327 32.1808 26.4008 32.1808C21.0664 32.1816 21.0664 41.5632 26.4008 41.5632Z" fill="#302C3B"/>
    <path fill-rule="evenodd" clip-rule="evenodd" d="M23.108 36.5344C23.2144 37.7784 24.6104 35.3424 26.0247 33.2488C26.9375 31.9016 22.788 32.788 23.108 36.5344Z" fill="#4E5E67"/>
    <path d="M46.4005 41.5632C51.7325 41.5632 51.7325 32.1808 46.4005 32.1808C41.0662 32.1816 41.0662 41.5632 46.4005 41.5632Z" fill="#302C3B"/>
    <path fill-rule="evenodd" clip-rule="evenodd" d="M43.1077 36.5344C43.2133 37.7784 44.6093 35.3424 46.0245 33.2488C46.9357 31.9016 42.7877 32.788 43.1077 36.5344Z" fill="#4E5E67"/>
    <path d="M40.7998 46.2544C39.2342 42.6976 32.7711 42.6632 31.2 46.2544H40.7998Z" fill="#302C3B"/>
</svg>