<svg width="72" height="72" viewBox="0 0 72 72" fill="none" xmlns="http://www.w3.org/2000/svg">
    <path d="M36 72C55.8823 72 72 55.8823 72 36C72 16.1177 55.8823 0 36 0C16.1177 0 0 16.1177 0 36C0 55.8823 16.1177 72 36 72Z" fill="#850A0A"/>
    <path d="M71 36C71 55.33 55.33 71 36 71C16.67 71 1 55.33 1 36C1 16.67 16.67 1 36 1C55.33 1 71 16.67 71 36Z" stroke="white" stroke-opacity="0.3" stroke-width="2"/>
    <path d="M27.6704 25.8678C27.2969 29.523 16.3906 37.0181 14.2114 23.635C11.9234 9.57838 29.0032 12.8191 27.6704 25.8678Z" fill="#FBB855"/>
    <path d="M24.3985 25.7079C24.1489 28.5422 16.8914 34.3542 15.441 23.9767C13.9178 13.076 25.2849 15.5888 24.3985 25.7079Z" fill="#FDE0DA"/>
    <path d="M44.3295 25.8678C44.7031 29.523 55.6094 37.0181 57.7886 23.635C60.0765 9.57838 42.9967 12.8191 44.3295 25.8678Z" fill="#FBB855"/>
    <path d="M47.6015 25.7079C47.8511 28.5422 55.1086 34.3542 56.559 23.9767C58.0822 13.076 46.7151 15.5888 47.6015 25.7079Z" fill="#FDE0DA"/>
    <path d="M38.956 13.0368C38.5376 14.368 37.6952 15.4072 37.6952 15.4072C36.5712 12.7608 33.2825 11 33.2825 11C34.024 13.296 33.8392 15.2584 33.8392 15.2584C31.9097 14.3704 30.0193 14.7224 30.0193 14.7224C31.3161 16.3519 31.0577 18.4447 31.0577 18.4447H41.9816C41.776 15.2216 38.956 13.0368 38.956 13.0368Z" fill="#FBB855"/>
    <path d="M54.0686 33.3197C51.0934 21.1638 45.7343 15.8855 36 15.8855C26.2657 15.8855 20.9066 21.1638 17.9314 33.3197C16.861 37.6909 12.0002 38.9845 12.0002 46.5324C12.0002 64.205 32.4344 57.9107 36 57.9107C39.5656 57.9107 59.9998 64.205 59.9998 46.5324C59.9998 38.9845 55.139 37.6909 54.0686 33.3197Z" fill="#FBB855"/>
    <path d="M45.4327 40.4574C38.7831 42.6557 40.5935 21.9312 35.9999 21.9312C31.4064 21.9312 33.2168 42.6557 26.5672 40.4574C17.5105 37.463 14.2842 41.499 14.9274 46.6797C16.7881 61.6668 33.4096 55.0412 35.9999 55.0412C38.5903 55.0412 55.2118 61.6668 57.0725 46.6797C57.7157 41.499 54.4886 37.463 45.4327 40.4574Z" fill="white"/>
    <path d="M47.9207 35.607C47.9207 40.9405 41.8672 40.9405 41.8672 35.607C41.8672 30.2742 47.9207 30.2742 47.9207 35.607Z" fill="#302C3B"/>
    <path d="M44.8166 34.2477C44.8166 35.5805 42.9567 35.5805 42.9567 34.2477C42.9559 32.9142 44.8166 32.9142 44.8166 34.2477Z" fill="white"/>
    <path d="M30.132 35.607C30.132 40.9405 24.0801 40.9405 24.0801 35.607C24.0801 30.275 30.132 30.275 30.132 35.607Z" fill="#302C3B"/>
    <path d="M27.0281 34.2477C27.0281 35.5805 25.1674 35.5805 25.1674 34.2477C25.1674 32.9134 27.0281 32.9134 27.0281 34.2477Z" fill="white"/>
    <path d="M28.3872 48.566C18.029 46.9156 15.8074 48.8716 15.8682 49.2844C15.8882 49.4188 20.4161 48.026 28.3872 48.566ZM28.7536 49.9828C16.0522 49.922 13.7506 52.7091 13.8994 53.2019C13.949 53.3587 19.1121 50.8236 28.7536 49.9828ZM43.6135 48.566C53.9718 46.9156 56.1942 48.8716 56.1326 49.2844C56.1126 49.4188 51.5838 48.026 43.6135 48.566ZM43.2471 49.9828C55.9486 49.9228 58.2501 52.7091 58.1005 53.2019C58.0509 53.3587 52.8878 50.8236 43.2471 49.9828Z" fill="#CFD8DD"/>
    <path d="M36 50.3356C34.7576 55.7971 30.4496 53.1187 29.9344 52.1836C29.9344 53.7403 33.3984 56.4827 36 53.7155C38.6016 56.4827 42.0655 53.7403 42.0655 52.1836C41.5487 53.1179 37.2424 55.7971 36 50.3356Z" fill="#FF8FA8"/>
    <path d="M30.4952 47.9772C30.4952 45.278 32.9608 44.7581 36 44.7581C39.0408 44.7581 41.5031 45.278 41.5031 47.9772C41.5031 50.1236 37.1248 52.0276 36 52.0276C34.8776 52.0276 30.4952 50.1228 30.4952 47.9772Z" fill="#FF8FA8"/>
    <path d="M31.2224 48.0541C31.2224 45.8549 33.2968 45.4309 35.8544 45.4309C39.2639 45.4309 31.2224 51.3148 31.2224 48.0541Z" fill="#F6BEC1"/>
</svg>