<svg width="72" height="72" viewBox="0 0 72 72" fill="none" xmlns="http://www.w3.org/2000/svg">
    <path d="M36 72C55.8823 72 72 55.8823 72 36C72 16.1177 55.8823 0 36 0C16.1177 0 0 16.1177 0 36C0 55.8823 16.1177 72 36 72Z" fill="#6A1C25"/>
    <path d="M71 36C71 55.33 55.33 71 36 71C16.67 71 1 55.33 1 36C1 16.67 16.67 1 36 1C55.33 1 71 16.67 71 36Z" stroke="white" stroke-opacity="0.3" stroke-width="2"/>
    <path d="M55.2145 41.992C57.0913 44.1216 56.5193 47.384 56.5193 47.384C55.3985 46.8448 54.1673 46.7752 54.1673 46.7752C55.0505 49.1712 53.8889 52.492 53.8889 52.492C52.9617 50.572 51.6049 49.4832 51.6049 49.4832C50.8345 51.3416 49.3121 52.4072 49.3121 52.4072C49.1857 50.5216 47.6953 49.404 47.6953 49.404L55.2145 41.992ZM16.7855 41.992C14.9087 44.1216 15.4807 47.384 15.4807 47.384C16.6023 46.8448 17.8327 46.7752 17.8327 46.7752C16.9495 49.1712 18.1111 52.492 18.1111 52.492C19.0383 50.572 20.3943 49.4832 20.3943 49.4832C21.1655 51.3416 22.688 52.4072 22.688 52.4072C22.8152 50.5216 24.304 49.404 24.304 49.404L16.7855 41.992Z" fill="#EBBB96"/>
    <path d="M55.9513 34.9544C55.9513 53.3096 41.556 54.1544 36 54.1544C30.4448 54.1544 16.0487 53.3088 16.0487 34.9544C16.0487 24.3504 30.4456 15.7544 36 15.7544C41.556 15.7536 55.9513 24.3504 55.9513 34.9544Z" fill="#EBBB96"/>
    <path d="M36 44.9344C36 44.9344 42.1112 52.4688 41.3824 56.1216C40.3528 61.2928 31.6472 61.2928 30.6184 56.1216C29.8887 52.4688 36 44.9344 36 44.9344Z" fill="#F46C60"/>
    <path d="M36 58.0608L34.6384 50.7728H37.3616L36 58.0608Z" fill="#E03636"/>
    <path d="M29.8639 17.6464C22.6743 21.476 22.9231 36.52 18.5327 40.6968C16.2678 27.8416 26.8559 14.164 29.8639 17.6464Z" fill="#785647"/>
    <path d="M22.7711 17.816C17.4767 21.3336 9.12626 21.856 12.9871 30.7296C15.6479 36.8456 10.5759 46.0704 14.4551 44.1544C25.4199 38.7384 18.2695 21.7176 29.864 17.6456C29.2496 16.3888 25.8791 15.7488 22.7711 17.816Z" fill="#B47D56"/>
    <path d="M42.136 17.6169C49.3264 21.4457 49.0768 36.5201 53.4672 40.6977C55.7321 27.8417 45.144 14.1337 42.136 17.6169Z" fill="#785647"/>
    <path d="M49.2289 17.816C54.5233 21.3336 62.8738 21.8568 59.0129 30.7304C56.3513 36.8464 61.425 46.0712 57.5433 44.1552C46.5801 38.7392 53.7297 21.6888 42.1353 17.6168C42.7505 16.3592 46.1201 15.7488 49.2289 17.816Z" fill="#B47D56"/>
    <path d="M27.8431 38.4816C29.6396 38.4816 31.096 36.6907 31.096 34.4816C31.096 32.2724 29.6396 30.4816 27.8431 30.4816C26.0467 30.4816 24.5903 32.2724 24.5903 34.4816C24.5903 36.6907 26.0467 38.4816 27.8431 38.4816Z" fill="#302C3B"/>
    <path d="M27.2487 32.6832C27.2487 34.016 25.6223 34.016 25.6223 32.6832C25.6223 31.3504 27.2487 31.3504 27.2487 32.6832Z" fill="white"/>
    <path d="M44.1569 38.4816C45.9534 38.4816 47.4097 36.6907 47.4097 34.4816C47.4097 32.2724 45.9534 30.4816 44.1569 30.4816C42.3604 30.4816 40.9041 32.2724 40.9041 34.4816C40.9041 36.6907 42.3604 38.4816 44.1569 38.4816Z" fill="#302C3B"/>
    <path d="M43.5633 32.6832C43.5633 34.0168 41.9369 34.0168 41.9369 32.6832C41.9369 31.3504 43.5633 31.3504 43.5633 32.6832Z" fill="white"/>
    <path d="M48.4521 47.3672C48.4521 58.3608 37.3177 53.2672 36.0001 52.0232C34.6816 53.2672 23.5464 58.3608 23.5464 47.3672C23.5464 37.4184 48.4521 37.4184 48.4521 47.3672Z" fill="#C4926E"/>
    <path d="M28.6279 46.616C28.6279 47.6768 27.2615 47.6768 27.2615 46.616C27.2615 45.5552 28.6279 45.556 28.6279 46.616ZM26.2151 48.7624C26.2151 49.8224 24.8479 49.8224 24.8479 48.7624C24.8479 47.7016 26.2151 47.7016 26.2151 48.7624ZM29.0167 50.5344C29.0167 51.5928 27.6503 51.5928 27.6503 50.5344C27.6503 49.4736 29.0167 49.4736 29.0167 50.5344ZM43.3728 46.616C43.3728 47.6768 44.7384 47.6768 44.7384 46.616C44.7384 45.5552 43.3728 45.556 43.3728 46.616ZM45.7848 48.7624C45.7848 49.8224 47.1512 49.8224 47.1512 48.7624C47.1512 47.7016 45.7848 47.7016 45.7848 48.7624ZM42.9832 50.5344C42.9832 51.5928 44.3496 51.5928 44.3496 50.5344C44.3496 49.4736 42.9832 49.4736 42.9832 50.5344Z" fill="#B47D56"/>
    <path d="M40.8 17.916C40.612 15.3552 38.0328 13.6192 38.0328 13.6192C37.6488 14.676 36.8784 15.5024 36.8784 15.5024C35.8504 13.4 32.84 12 32.84 12C33.5192 13.824 33.3504 15.3832 33.3504 15.3832C31.5856 14.6776 29.8544 14.9568 29.8544 14.9568C31.0416 16.2512 30.8048 17.9152 30.8048 17.9152H40.8V17.916Z" fill="#EBBB96"/>
    <path d="M29.3864 44.0408C29.3864 41.136 32.348 40.5768 36.0008 40.5768C39.6536 40.5768 42.6152 41.136 42.6152 44.0408C42.6152 46.352 37.3504 48.4016 36.0008 48.4016C34.6504 48.4016 29.3864 46.3512 29.3864 44.0408Z" fill="#302C3B"/>
    <path d="M30.2592 44.1232C30.2592 41.756 32.7504 41.3016 35.8256 41.3016C39.9216 41.3016 30.2592 47.632 30.2592 44.1232Z" fill="#4E5E67"/>
</svg>