<svg width="72" height="72" viewBox="0 0 72 72" fill="none" xmlns="http://www.w3.org/2000/svg">
    <path d="M36 72C55.8823 72 72 55.8823 72 36C72 16.1177 55.8823 0 36 0C16.1177 0 0 16.1177 0 36C0 55.8823 16.1177 72 36 72Z" fill="#1C6A29"/>
    <path d="M71 36C71 55.33 55.33 71 36 71C16.67 71 1 55.33 1 36C1 16.67 16.67 1 36 1C55.33 1 71 16.67 71 36Z" stroke="white" stroke-opacity="0.3" stroke-width="2"/>
    <path d="M57 34.8856C57 53.6528 35.5008 60 35.5008 60C35.5008 60 14 53.6528 14 34.8856C14 20.8984 22.5936 12 35.5008 12C48.4056 12 57 20.8984 57 34.8856Z" fill="#A6E639"/>
    <path d="M45.546 14.164C51.3398 17.9624 54.7846 24.7592 54.7846 33.5984C54.7846 52.3168 33.3396 58.6488 33.3396 58.6488C33.3396 58.6488 32.2303 58.4552 30.5079 57.9536C33.3977 59.38 35.5007 60 35.5007 60C35.5007 60 56.9999 53.6528 56.9999 34.8856C56.9999 24.9608 52.6697 17.6032 45.546 14.164Z" fill="#92C932"/>
    <path d="M41.3807 47.364C40.3829 47.908 38.5252 48.9216 35.5 48.9216C32.4757 48.9216 30.6179 47.9072 29.621 47.364C29.2053 47.1376 28.3334 46.6872 28.3334 47.5408C28.3334 49.3408 31.8172 51.4504 35.5 51.4504C39.1837 51.4504 42.6667 49.3408 42.6667 47.5408C42.6667 46.6872 41.7972 47.1376 41.3807 47.364Z" fill="#302C3B"/>
    <path fill-rule="evenodd" clip-rule="evenodd" d="M15.0885 34.464C15.1147 37.5064 15.4436 24.3736 28.3468 14.9968C32.2885 12.1312 14.9308 16.1968 15.0885 34.464Z" fill="#B8FF3F"/>
    <path d="M48.932 38.9736C40.3527 46.208 34.0492 38.6592 42.6285 31.4264C51.2094 24.1936 57.5137 31.7408 48.932 38.9736ZM22.0673 38.9736C13.488 31.7408 19.7915 24.1936 28.3708 31.4264C36.9509 38.6592 30.6474 46.208 22.0673 38.9736Z" fill="#302C3B"/>
    <path d="M51.8853 29.436C52.1433 31.8608 50.7482 35.1192 46.9379 38.3296C44.7465 40.1768 42.6825 41.2248 40.8773 41.6608C42.7884 42.3264 45.6989 41.7016 48.9318 38.9752C53.4994 35.1248 53.8498 31.1872 51.8853 29.436ZM31.966 35.9904C31.7048 40.2296 26.4046 42.0416 19.9283 36.8032C20.5692 37.5955 21.2861 38.3225 22.0688 38.9736C28.8007 44.6512 34.1287 41.2232 31.966 35.9904Z" fill="#1A1626"/>
    <path fill-rule="evenodd" clip-rule="evenodd" d="M41.3233 34.1856C40.1926 36.064 45.0914 34.8808 48.2663 30.8216C50.3151 28.2096 43.3635 30.7968 41.3233 34.1856ZM29.6775 34.1856C30.8083 36.064 25.9094 34.8808 22.7346 30.8216C20.6849 28.2096 27.6366 30.7968 29.6775 34.1856Z" fill="#6E8189"/>
</svg>