<svg width="72" height="72" viewBox="0 0 72 72" fill="none" xmlns="http://www.w3.org/2000/svg">
    <path d="M36 72C55.8823 72 72 55.8823 72 36C72 16.1177 55.8823 0 36 0C16.1177 0 0 16.1177 0 36C0 55.8823 16.1177 72 36 72Z" fill="#246314"/>
    <path d="M71 36C71 55.33 55.33 71 36 71C16.67 71 1 55.33 1 36C1 16.67 16.67 1 36 1C55.33 1 71 16.67 71 36Z" stroke="white" stroke-opacity="0.3" stroke-width="2"/>
    <path d="M59.9298 33.5696C59.0018 29.2449 12.9989 29.2449 12.0701 33.5696C11.3821 36.7656 15.9861 42.8472 15.9861 42.8472C15.9861 47.6751 25.9852 58.7999 36.0003 58.7999C46.0171 58.7999 56.013 47.6751 56.013 42.8472C56.013 42.8472 60.6186 36.7656 59.9298 33.5696Z" fill="#FED0AC"/>
    <path d="M36.0004 38.6328C26.9484 38.6328 12.8005 35.1512 12.8005 35.1512C14.9485 39.1464 29.2228 49.3368 36.0004 49.3368C42.7811 49.3368 57.0515 39.1464 59.2002 35.1512C59.2002 35.1512 45.0515 38.6328 36.0004 38.6328Z" fill="#302C3B"/>
    <path d="M57.5705 29.2049C40.4611 21.5258 31.5411 21.5258 14.4284 29.2049C11.7476 30.4073 11.3364 34.1441 12.9508 35.9041C15.1764 38.3289 31.6763 41.9624 36.0019 41.9624C40.3291 41.9624 56.8233 38.3289 59.0489 35.9041C60.6641 34.1441 60.2529 30.4073 57.5705 29.2049Z" fill="#92C932"/>
    <path d="M30.3548 35.0033C31.9132 34.0465 34.7284 33.9497 33.694 33.2065C31.606 31.7113 28.742 35.9913 30.3548 35.0033ZM41.6459 35.0033C40.0883 34.0465 37.2739 33.9497 38.3083 33.2065C40.3955 31.7113 43.2587 35.9913 41.6459 35.0033Z" fill="#297124"/>
    <path d="M50.4042 35.9017C37.6115 35.9017 37.6115 17.2002 50.4042 17.2002C63.1986 17.2002 63.1986 35.9017 50.4042 35.9017Z" fill="#92C932"/>
    <path d="M41.9691 21.8722C39.9067 26.4418 42.6259 29.8721 42.1739 29.5417C41.2363 28.8561 39.8723 26.5514 40.3771 23.7818C40.3771 23.7818 40.8723 23.969 41.9691 21.8722ZM59.5346 29.5897C57.6202 34.0225 53.805 34.8993 54.3578 35.0225C55.589 35.2953 58.8202 33.4977 59.6954 31.5225C59.4954 30.7097 59.0954 30.9473 59.5346 29.5897Z" fill="#7AB51D"/>
    <path d="M21.5974 35.9017C34.3902 35.9017 34.3902 17.2002 21.5974 17.2002C8.80232 17.2002 8.80232 35.9017 21.5974 35.9017Z" fill="#92C932"/>
    <path d="M30.0323 21.8722C32.0947 26.4418 29.3755 29.8721 29.8275 29.5417C30.7651 28.8561 32.1291 26.5514 31.6243 23.7818C31.6243 23.7818 31.1291 23.969 30.0323 21.8722ZM12.466 29.5897C14.3812 34.0225 18.1964 34.8993 17.6436 35.0225C16.4124 35.2953 13.1812 33.4977 12.306 31.5225C12.506 30.7097 12.906 30.9473 12.466 29.5897Z" fill="#7AB51D"/>
    <path d="M19.9964 33.3513C9.86286 33.3513 9.86286 18.1514 19.9964 18.1514C30.1299 18.1514 30.1299 33.3513 19.9964 33.3513Z" fill="#302C3B"/>
    <path d="M19.9964 32.4009C11.1301 32.4009 11.1301 19.101 19.9964 19.101C28.8628 19.101 28.8628 32.4009 19.9964 32.4009Z" fill="#D47706"/>
    <path d="M19.0829 29.9018C12.1158 29.9018 12.1158 19.4514 19.0829 19.4514C26.0493 19.4514 26.0493 29.9018 19.0829 29.9018Z" fill="#F59E01"/>
    <path d="M18.3757 30.5001C18.9269 30.4913 20.2837 28.3401 20.2965 25.7169C20.3085 23.0929 18.9741 20.9937 18.4221 21.0001C17.8693 21.0121 16.5093 23.1577 16.4957 25.7833C16.4837 28.4089 17.8205 30.5097 18.3757 30.5001Z" fill="#302C3B"/>
    <path d="M16.9005 23.969C18.7973 23.9506 18.8189 21.0994 16.9213 21.1186C15.0205 21.1402 14.9941 23.9882 16.9005 23.969Z" fill="white"/>
    <path d="M52.0034 33.3513C41.8722 33.3513 41.8722 18.1514 52.0034 18.1514C62.1377 18.1514 62.1377 33.3513 52.0034 33.3513Z" fill="#302C3B"/>
    <path d="M52.0034 32.4017C43.1403 32.4017 43.1403 19.101 52.0034 19.101C60.8706 19.101 60.8706 32.4017 52.0034 32.4017Z" fill="#D47706"/>
    <path d="M51.0899 29.9009C44.1227 29.9009 44.1227 19.4514 51.0899 19.4514C58.0578 19.4514 58.0578 29.9009 51.0899 29.9009Z" fill="#F59E01"/>
    <path d="M53.5834 30.5009C54.1362 30.4913 55.4914 28.3401 55.505 25.7178C55.5178 23.0946 54.1834 20.9954 53.6314 21.001C53.077 21.013 51.7186 23.1586 51.7034 25.7842C51.6938 28.4089 53.0314 30.5105 53.5834 30.5009Z" fill="#302C3B"/>
    <path d="M48.9106 23.9697C50.8058 23.9505 50.8274 21.1002 48.9306 21.1194C47.0306 21.1402 47.0058 23.9889 48.9106 23.9697Z" fill="white"/>
    <path d="M26.6084 45.4129C26.6084 45.4129 32.4548 48.5376 36.0003 48.5376C39.5483 48.5376 45.3931 45.4129 45.3931 45.4129C42.7731 44.3721 39.6531 43.7377 36.0003 43.7377C32.3452 43.7377 29.23 44.3721 26.6084 45.4129Z" fill="#F46C60"/>
    <path d="M41.6332 50.344C41.6332 50.344 38.1268 51.2192 36.0004 51.2192C33.8732 51.2192 30.3668 50.344 30.3668 50.344C35.1604 53.5184 36.8388 53.5168 41.6332 50.344Z" fill="#EBBB96"/>
</svg>