<svg width="72" height="72" viewBox="0 0 72 72" fill="none" xmlns="http://www.w3.org/2000/svg">
    <path d="M36 72C55.8823 72 72 55.8823 72 36C72 16.1177 55.8823 0 36 0C16.1177 0 0 16.1177 0 36C0 55.8823 16.1177 72 36 72Z" fill="#1C6A60"/>
    <path d="M71 36C71 55.33 55.33 71 36 71C16.67 71 1 55.33 1 36C1 16.67 16.67 1 36 1C55.33 1 71 16.67 71 36Z" stroke="white" stroke-opacity="0.3" stroke-width="2"/>
    <path d="M60 22.6C60 27.9016 55.7 32.2 50.4016 32.2C45.0984 32.2 40.8 27.9016 40.8 22.6C40.8 17.2984 45.0984 13 50.4016 13C55.7 13 60 17.2984 60 22.6Z" fill="#302C3B"/>
    <path d="M50.4016 28.3968C53.5894 28.3968 56.1736 25.8015 56.1736 22.6C56.1736 19.3985 53.5894 16.8032 50.4016 16.8032C47.2139 16.8032 44.6296 19.3985 44.6296 22.6C44.6296 25.8015 47.2139 28.3968 50.4016 28.3968Z" fill="#4E5E67"/>
    <path d="M31.2 22.6C31.2 27.9016 26.9 32.2 21.6016 32.2C16.2984 32.2 12 27.9016 12 22.6C12 17.2984 16.2984 13 21.6016 13C26.9 13 31.2 17.2984 31.2 22.6Z" fill="#302C3B"/>
    <path d="M21.6016 28.3968C24.7894 28.3968 27.3736 25.8015 27.3736 22.6C27.3736 19.3985 24.7894 16.8032 21.6016 16.8032C18.4138 16.8032 15.8296 19.3985 15.8296 22.6C15.8296 25.8015 18.4138 28.3968 21.6016 28.3968Z" fill="#4E5E67"/>
    <path d="M56.6384 42.0471C56.6384 42.0471 57.044 40.6719 60 41.4471C60 41.4471 58.5768 37.9519 56.5608 37.3159C56.5608 37.3159 58.0184 36.4975 59.2768 36.8703C59.2392 36.8327 52.9704 17.5399 36.0008 17.4903C19.108 17.4407 12.6904 36.9071 12.7232 36.8703C13.9808 36.4967 15.4392 37.3159 15.4392 37.3159C13.4232 37.9511 12 41.4471 12 41.4471C14.956 40.6719 15.3616 42.0471 15.3616 42.0471C13.3896 42.5143 12.856 43.8799 12.856 43.8799C12.856 43.8799 18.3648 60.9999 36 60.9999C53.6352 60.9999 59.144 43.8799 59.144 43.8799C59.144 43.8799 58.6104 42.5143 56.6384 42.0471Z" fill="#CFD8DD"/>
    <path d="M22.0704 21.4C20.5464 20.2496 18.0952 20.636 18.0952 20.636C19.288 21.7384 19.8456 23.0536 19.8456 23.0536C18.46 23.3688 17.5112 24.4432 17.5112 24.4432C18.7928 24.8768 19.3536 26.308 19.3536 26.308L25.5112 21.3656C24.3064 19.4376 21.98 19.344 21.98 19.344C22.1952 20.3664 22.0704 21.4 22.0704 21.4ZM54.488 24.444C54.488 24.444 53.5384 23.368 52.1536 23.052C52.1536 23.052 52.7112 21.7376 53.904 20.6352C53.904 20.6352 51.4536 20.2504 49.9288 21.4008C49.9288 21.4008 49.804 20.3688 50.0168 19.344C50.0168 19.344 47.6904 19.4392 46.4872 21.3672L52.6448 26.3072C52.648 26.3064 53.208 24.8752 54.488 24.444Z" fill="#CFD8DD"/>
    <path d="M20.9792 32.8112C24.3304 29.596 29.3512 29.196 32.1856 31.9168C37.1704 36.6968 25.0296 49.864 20.0464 45.084C17.2088 42.36 17.6256 36.0256 20.9792 32.8112Z" fill="#4E5E67"/>
    <path d="M27.8448 40.3944C29.3912 40.3944 30.6448 38.7826 30.6448 36.7944C30.6448 34.8062 29.3912 33.1944 27.8448 33.1944C26.2984 33.1944 25.0448 34.8062 25.0448 36.7944C25.0448 38.7826 26.2984 40.3944 27.8448 40.3944Z" fill="#1A1626"/>
    <path d="M27.332 35.176C27.332 36.376 25.932 36.376 25.932 35.176C25.932 33.976 27.332 33.976 27.332 35.176Z" fill="white"/>
    <path d="M39.8135 31.9168C42.6527 29.1952 47.6671 29.5968 51.0231 32.812C54.3735 36.0248 54.7927 42.3632 51.9543 45.0824C46.9703 49.8632 34.8311 36.6944 39.8135 31.9168Z" fill="#4E5E67"/>
    <path d="M44.1552 40.3944C45.7016 40.3944 46.9552 38.7826 46.9552 36.7944C46.9552 34.8062 45.7016 33.1944 44.1552 33.1944C42.6088 33.1944 41.3552 34.8062 41.3552 36.7944C41.3552 38.7826 42.6088 40.3944 44.1552 40.3944Z" fill="#1A1626"/>
    <path d="M43.6449 35.176C43.6449 36.376 42.2449 36.376 42.2449 35.176C42.2449 33.976 43.6449 33.976 43.6449 35.176Z" fill="white"/>
    <path d="M26.3665 51.0288C26.3665 47.7336 30.4377 41.9416 35.9585 41.9416C41.4785 41.9416 45.5505 47.7336 45.5505 51.0288C45.5505 53.6728 42.5425 59.5304 35.9585 59.5304C29.3737 59.5304 26.3665 53.6728 26.3665 51.0288Z" fill="#E6EBEF"/>
    <path d="M35.9984 52.1448C34.5976 57.6056 29.7408 54.928 29.1584 53.992C29.1584 55.5496 33.0648 58.292 35.9984 55.5248C38.9336 58.292 42.84 55.5496 42.84 53.992C42.2552 54.9272 37.3992 57.6056 35.9984 52.1448Z" fill="#302C3B"/>
    <path d="M29.6975 49.7776C29.6975 47.2648 32.5015 46.7824 35.9591 46.7824C39.4159 46.7824 42.2191 47.2656 42.2191 49.7776C42.2191 51.776 37.2359 53.548 35.9591 53.548C34.6807 53.548 29.6975 51.776 29.6975 49.7776Z" fill="#302C3B"/>
    <path d="M30.524 49.8496C30.524 47.8008 32.8816 47.4072 35.7928 47.4072C39.6704 47.4072 30.524 52.8824 30.524 49.8496Z" fill="#4E5E67"/>
</svg>