<svg width="72" height="72" viewBox="0 0 72 72" fill="none" xmlns="http://www.w3.org/2000/svg">
    <path d="M36 72C55.8823 72 72 55.8823 72 36C72 16.1177 55.8823 0 36 0C16.1177 0 0 16.1177 0 36C0 55.8823 16.1177 72 36 72Z" fill="#641C6A"/>
    <path d="M71 36C71 55.33 55.33 71 36 71C16.67 71 1 55.33 1 36C1 16.67 16.67 1 36 1C55.33 1 71 16.67 71 36Z" stroke="white" stroke-opacity="0.3" stroke-width="2"/>
    <path d="M60 23.6C60 28.9016 55.7 33.2 50.4016 33.2C45.0984 33.2 40.8 28.9016 40.8 23.6C40.8 18.2984 45.0984 14 50.4016 14C55.7 14 60 18.2984 60 23.6Z" fill="#9E6C49"/>
    <path d="M50.4016 29.3968C53.5894 29.3968 56.1736 26.8015 56.1736 23.6C56.1736 20.3985 53.5894 17.8032 50.4016 17.8032C47.2139 17.8032 44.6296 20.3985 44.6296 23.6C44.6296 26.8015 47.2139 29.3968 50.4016 29.3968Z" fill="#D6A57C"/>
    <path d="M31.2 23.6C31.2 28.9016 26.9 33.2 21.6016 33.2C16.2984 33.2 12 28.9016 12 23.6C12 18.2984 16.2984 14 21.6016 14C26.9 14 31.2 18.2984 31.2 23.6Z" fill="#9E6C49"/>
    <path d="M21.6016 29.3968C24.7894 29.3968 27.3736 26.8015 27.3736 23.6C27.3736 20.3985 24.7894 17.8032 21.6016 17.8032C18.4138 17.8032 15.8296 20.3985 15.8296 23.6C15.8296 26.8015 18.4138 29.3968 21.6016 29.3968Z" fill="#D6A57C"/>
    <path d="M56.6384 43.0471C56.6384 43.0471 57.044 41.6719 60 42.4471C60 42.4471 58.5768 38.9519 56.5608 38.3159C56.5608 38.3159 58.0184 37.4967 59.2768 37.8703C59.2392 37.8327 52.9704 18.5399 36.0008 18.4903C19.108 18.4407 12.6904 37.9071 12.7232 37.8703C13.9808 37.4967 15.4392 38.3159 15.4392 38.3159C13.4232 38.9511 12 42.4471 12 42.4471C14.956 41.6719 15.3616 43.0471 15.3616 43.0471C13.3896 43.5143 12.856 44.8799 12.856 44.8799C12.856 44.8799 18.3648 61.9999 36 61.9999C53.6352 61.9999 59.144 44.8799 59.144 44.8799C59.144 44.8799 58.6104 43.5143 56.6384 43.0471Z" fill="#9E6C49"/>
    <path d="M22.0704 22.4C20.5464 21.2496 18.0952 21.636 18.0952 21.636C19.288 22.7384 19.8456 24.0536 19.8456 24.0536C18.46 24.3688 17.5112 25.4432 17.5112 25.4432C18.7928 25.8768 19.3536 27.308 19.3536 27.308L25.5112 22.3656C24.3064 20.4376 21.98 20.344 21.98 20.344C22.1952 21.3664 22.0704 22.4 22.0704 22.4ZM54.488 25.444C54.488 25.444 53.5384 24.368 52.1536 24.052C52.1536 24.052 52.7112 22.7376 53.904 21.6352C53.904 21.6352 51.4536 21.2504 49.9288 22.4008C49.9288 22.4008 49.804 21.3688 50.0168 20.344C50.0168 20.344 47.6904 20.4392 46.4872 22.3672L52.6448 27.3072C52.648 27.3064 53.208 25.8752 54.488 25.444Z" fill="#9E6C49"/>
    <path d="M27.8448 41.3944C29.3912 41.3944 30.6448 39.7826 30.6448 37.7944C30.6448 35.8062 29.3912 34.1944 27.8448 34.1944C26.2984 34.1944 25.0448 35.8062 25.0448 37.7944C25.0448 39.7826 26.2984 41.3944 27.8448 41.3944Z" fill="#1A1626"/>
    <path d="M27.332 36.176C27.332 37.376 25.932 37.376 25.932 36.176C25.932 34.976 27.332 34.976 27.332 36.176Z" fill="white"/>
    <path d="M44.1552 41.3944C45.7016 41.3944 46.9552 39.7826 46.9552 37.7944C46.9552 35.8062 45.7016 34.1944 44.1552 34.1944C42.6088 34.1944 41.3552 35.8062 41.3552 37.7944C41.3552 39.7826 42.6088 41.3944 44.1552 41.3944Z" fill="#1A1626"/>
    <path d="M43.6449 36.176C43.6449 37.376 42.2449 37.376 42.2449 36.176C42.2449 34.976 43.6449 34.976 43.6449 36.176Z" fill="white"/>
    <path d="M26.3665 52.028C26.3665 48.7328 30.4377 42.9408 35.9585 42.9408C41.4785 42.9408 45.5505 48.7328 45.5505 52.028C45.5505 54.672 42.5425 60.5296 35.9585 60.5296C29.3737 60.5296 26.3665 54.672 26.3665 52.028Z" fill="#D6A57C"/>
    <path d="M35.9984 53.144C34.5976 58.6048 29.7408 55.9272 29.1584 54.9912C29.1584 56.5488 33.0648 59.2912 35.9984 56.524C38.9336 59.2912 42.84 56.5488 42.84 54.9912C42.2552 55.9264 37.3992 58.6048 35.9984 53.144Z" fill="#302C3B"/>
    <path d="M29.6975 50.7768C29.6975 48.264 32.5015 47.7816 35.9591 47.7816C39.4159 47.7816 42.2191 48.2648 42.2191 50.7768C42.2191 52.7752 37.2359 54.5472 35.9591 54.5472C34.6807 54.5472 29.6975 52.7752 29.6975 50.7768Z" fill="#302C3B"/>
    <path d="M30.524 50.8488C30.524 48.8 32.8816 48.4064 35.7928 48.4064C39.6704 48.4064 30.524 53.8816 30.524 50.8488Z" fill="#4E5E67"/>
</svg>