<svg width="72" height="72" viewBox="0 0 72 72" fill="none" xmlns="http://www.w3.org/2000/svg">
    <path d="M36 72C55.8823 72 72 55.8823 72 36C72 16.1177 55.8823 0 36 0C16.1177 0 0 16.1177 0 36C0 55.8823 16.1177 72 36 72Z" fill="#5E16A6"/>
    <path d="M71 36C71 55.33 55.33 71 36 71C16.67 71 1 55.33 1 36C1 16.67 16.67 1 36 1C55.33 1 71 16.67 71 36Z" stroke="white" stroke-opacity="0.3" stroke-width="2"/>
    <path d="M56.2809 35.6622L41.0219 20.7591C41.0219 20.7591 52.2927 10.0163 56.8881 12.3252C59.1258 13.4492 58.3098 32.622 56.2809 35.6622Z" fill="#6E8189"/>
    <path d="M55.1088 34.6245L41.8242 27.437C41.8242 27.437 45.2988 18.1278 55.6728 14.066C57.2289 15.6637 57.0641 32.614 55.1088 34.6245Z" fill="white"/>
    <path d="M53.272 35.4542L42.0787 29.3979C42.0787 29.3979 45.0077 21.5528 53.748 18.1318C55.0593 19.4767 54.9193 33.7581 53.272 35.4542Z" fill="#CFD8DD"/>
    <path d="M15.7184 35.6621L30.9759 20.7599C30.9759 20.7599 19.7066 10.017 15.1112 12.3259C12.8727 13.4492 13.6895 32.622 15.7184 35.6621Z" fill="#6E8189"/>
    <path d="M16.8904 34.6245L30.1742 27.437C30.1742 27.437 26.6989 18.1278 16.3256 14.066C14.7703 15.6637 14.9352 32.614 16.8904 34.6245Z" fill="white"/>
    <path d="M18.7273 35.4542L29.9198 29.3979C29.9198 29.3979 26.9916 21.5528 18.2513 18.1318C16.94 19.4767 17.08 33.7581 18.7273 35.4542Z" fill="#CFD8DD"/>
    <path d="M59.373 48.8539C59.373 48.8539 58.893 44.1473 56.8913 41.2679C56.4305 40.6055 60.001 42.0224 60.001 42.0224C60.001 42.0224 57.5169 32.4644 51.7847 27.0817C51.5407 25.3065 51.7895 23.8432 51.7895 23.8432C51.4583 23.9856 51.0039 24.2504 50.5142 24.6016C50.331 23.172 50.4142 22.0831 50.4142 22.0831C49.9046 22.396 49.1046 23.0848 48.3718 23.9632C44.6068 21.0191 40.1626 19.7358 36 19.7358V19.7366C31.8375 19.7366 27.3933 21.0191 23.6275 23.964C22.8947 23.0856 22.0938 22.3976 21.585 22.0839C21.585 22.0839 21.6674 23.172 21.485 24.6024C20.997 24.2512 20.5402 23.9856 20.2098 23.844C20.2098 23.844 20.4586 25.3073 20.2146 27.0825C14.4831 32.466 11.999 42.0224 11.999 42.0224C11.999 42.0224 15.5704 40.6055 15.1104 41.2695C13.1079 44.1497 12.6278 48.8539 12.6278 48.8539C12.6278 48.8539 20.7146 47.6866 19.4553 48.8539C18.4369 49.7979 16.2208 49.7979 16.2208 49.7979C19.2145 51.7452 25.802 51.1324 25.802 51.1324C30.5542 54.5421 41.4475 54.5405 46.1989 51.1324C46.1989 51.1324 52.7847 51.7452 55.7793 49.7963C55.7793 49.7963 53.5632 49.7963 52.5463 48.8539C51.2847 47.6866 59.373 48.8539 59.373 48.8539Z" fill="#6E8189"/>
    <path d="M56.4177 46.0305C56.4177 46.0305 55.052 42.4631 52.1175 40.3791C51.7455 40.1134 53.952 38.971 56.2176 39.5182C51.5343 27.3081 41.6562 25.3552 41.6562 48.4882C41.6562 52.5556 30.343 52.5556 30.343 48.4882C30.343 25.3512 20.4625 27.3137 15.7816 39.5174C18.0472 38.9702 20.2537 40.1126 19.8817 40.3783C16.9472 42.4623 15.5815 46.0297 15.5815 46.0297C20.2145 44.5424 23.3883 47.4249 23.1819 47.7482C22.4146 48.945 20.7146 49.8251 20.7146 49.8251C22.2714 50.8595 24.3659 51.0763 25.306 51.1211C26.0468 54.7469 28.0813 57.6286 30.5646 58.6782L31.7094 57.2094C31.7094 57.2094 33.0599 59.2831 36.0048 59.9999C38.9497 59.2831 40.3066 57.2094 40.3066 57.2094L41.4546 58.6782C43.9403 57.6278 45.9596 54.7445 46.6932 51.1219C47.6349 51.0779 49.727 50.8603 51.2846 49.8251C51.2846 49.8251 49.5846 48.945 48.8173 47.7498C48.6117 47.4274 51.7847 44.5432 56.4177 46.0305Z" fill="#E6EBEF"/>
    <path d="M28.5245 39.5864C28.5245 41.7945 27.0933 43.585 25.3236 43.585C23.5555 43.585 22.1243 41.7945 22.1243 39.5864C22.1243 37.3767 23.5555 35.5854 25.3236 35.5854C27.0933 35.5854 28.5245 37.3775 28.5245 39.5864Z" fill="#302C3B"/>
    <path d="M25.0947 37.8367C25.0947 39.2183 23.4971 39.2183 23.4971 37.8367C23.4971 36.4558 25.0947 36.4558 25.0947 37.8367Z" fill="white"/>
    <path d="M49.8759 39.5864C49.8759 41.7929 48.4478 43.585 46.6741 43.585C44.9068 43.585 43.4756 41.7929 43.4756 39.5864C43.4756 37.3767 44.9068 35.5854 46.6741 35.5854C48.4478 35.5854 49.8759 37.3775 49.8759 39.5864Z" fill="#302C3B"/>
    <path d="M46.4445 37.8367C46.4445 39.2183 44.8461 39.2183 44.8461 37.8367C44.8461 36.4558 46.4445 36.4558 46.4445 37.8367Z" fill="white"/>
    <path d="M41.4707 48.8404C40.3723 47.9827 31.6231 47.9827 30.5286 48.8404C29.7486 49.4516 32.6199 53.359 35.9985 53.359C39.3818 53.359 42.2515 49.4516 41.4707 48.8404Z" fill="#302C3B"/>
    <path d="M41.6706 54.767C41.0266 55.159 40.2834 55.3174 39.5641 55.2838C38.8377 55.2294 38.1497 54.9998 37.5984 54.5622C37.048 54.1405 36.6408 53.5373 36.5232 52.8733H35.4744C35.3559 53.5373 34.9511 54.1405 34.3975 54.5622C33.8567 54.9998 33.1351 55.2278 32.4486 55.2822C31.6926 55.315 30.9814 55.1574 30.3269 54.7654C29.6445 54.3624 29.1273 53.7301 28.8677 52.9813C28.9053 53.8237 29.3645 54.6422 30.0253 55.2078C30.6782 55.7734 31.5726 56.1046 32.4158 56.1422C33.3319 56.1926 34.2143 55.9342 34.9831 55.4142C35.3865 55.1287 35.731 54.7679 35.9976 54.3518C36.2712 54.7718 36.616 55.1374 37.0136 55.4142C37.7696 55.9326 38.6889 56.1926 39.5641 56.1406C40.448 56.1034 41.2946 55.7749 41.9722 55.2062C42.6315 54.6406 43.0907 53.8221 43.1299 52.9813C42.8706 53.7307 42.3534 54.3636 41.6706 54.767Z" fill="#302C3B"/>
</svg>