<svg width="72" height="72" viewBox="0 0 72 72" fill="none" xmlns="http://www.w3.org/2000/svg">
    <path d="M36 72C55.8823 72 72 55.8823 72 36C72 16.1177 55.8823 0 36 0C16.1177 0 0 16.1177 0 36C0 55.8823 16.1177 72 36 72Z" fill="#7C164D"/>
    <path d="M71 36C71 55.33 55.33 71 36 71C16.67 71 1 55.33 1 36C1 16.67 16.67 1 36 1C55.33 1 71 16.67 71 36Z" stroke="white" stroke-opacity="0.3" stroke-width="2"/>
    <path d="M56.7126 34.6187L41.1295 20.3724C41.1295 20.3724 52.639 10.1037 57.3326 12.3109C59.6181 13.3853 58.7837 31.7123 56.7126 34.6187Z" fill="#EA8800"/>
    <path d="M55.5158 33.6267L41.9487 26.7555C41.9487 26.7555 45.4983 17.858 56.0926 13.9749C57.6814 15.502 57.5126 31.7043 55.5158 33.6267Z" fill="white"/>
    <path d="M53.6398 34.4195L42.2087 28.6308C42.2087 28.6308 45.1991 21.1308 54.1254 17.8621C55.4646 19.1468 55.3222 32.7987 53.6398 34.4195Z" fill="#CFD8DD"/>
    <path d="M15.2875 34.6187L30.8705 20.3724C30.8705 20.3724 19.361 10.1037 14.6675 12.3109C12.3819 13.3853 13.2163 31.7123 15.2875 34.6187Z" fill="#EA8800"/>
    <path d="M16.4842 33.6267L30.0513 26.7555C30.0513 26.7555 26.5017 17.858 15.9074 13.9749C14.3186 15.502 14.4874 31.7043 16.4842 33.6267Z" fill="white"/>
    <path d="M18.3602 34.4195L29.7913 28.6308C29.7913 28.6308 26.8009 21.1308 17.8746 17.8621C16.5354 19.1468 16.6778 32.7987 18.3602 34.4195Z" fill="#CFD8DD"/>
    <path d="M52.4582 47.5161C56.1494 47.1249 59.9997 48.5785 59.9997 48.5785C59.9997 48.5785 59.6214 35.9234 54.3598 28.3067C53.8694 25.2139 54.4126 22.7563 54.4126 22.7563C53.4486 22.9203 52.7078 23.4171 52.1374 24.0299C52.0598 21.21 52.4822 18.894 52.4822 18.894C51.0128 20.1393 49.8374 21.6947 49.0407 23.4483C45.2159 20.7604 40.1 18.8932 36 18.8932C31.9 18.8932 26.7841 20.7604 22.9585 23.4475C22.1617 21.6939 20.9864 20.1385 19.517 18.8932C19.517 18.8932 19.9386 21.2092 19.8618 24.0291C19.2914 23.4163 18.5506 22.9195 17.5866 22.7555C17.5866 22.7555 18.1306 25.2131 17.6394 28.3059C12.3786 35.9234 12.0002 48.5785 12.0002 48.5785C12.0002 48.5785 15.8506 47.1257 19.5418 47.5161C17.2762 48.8753 15.7562 53.8048 15.7562 53.8048C15.7562 53.8048 22.5025 49.3361 25.1721 51.8128C27.6617 54.1168 25.8289 59.992 36 60C46.1711 59.992 44.3383 54.1168 46.8287 51.8128C49.4983 49.3361 56.2446 53.8048 56.2446 53.8048C56.2446 53.8048 54.7238 48.8753 52.4582 47.5161Z" fill="#EA8800"/>
    <path d="M58.7238 47.1953C51.4494 39.7474 41.6536 47.8985 36 47.6169C30.3465 47.8985 20.5506 39.7466 13.2762 47.1953C16.101 46.0705 19.201 45.9689 21.4666 47.1721C18.9914 48.5473 17.7258 51.6952 17.7258 51.6952C17.7258 51.6952 22.6017 48.3201 25.7017 50.7736C29.1833 53.524 26.2281 58.7344 36 58.7344C45.7719 58.7344 42.8167 53.5232 46.2983 50.7736C49.3983 48.3209 54.2742 51.6952 54.2742 51.6952C54.2742 51.6952 53.0086 48.5465 50.5335 47.1721C52.799 45.9689 55.899 46.0705 58.7238 47.1953Z" fill="white"/>
    <path d="M30.9473 52.4217C33.2816 54.1872 38.7808 54.1432 41.0504 52.4217C41.7807 51.8713 43.1711 40.0674 36.0008 40.0674C28.8273 40.0674 30.2161 51.8721 30.9473 52.4217Z" fill="#EA8800"/>
    <path d="M40.7719 56.3488C40.245 56.687 39.6251 56.851 38.9999 56.8176C38.3879 56.7664 37.8095 56.56 37.3455 56.1584C36.8823 55.7768 36.5399 55.2288 36.4407 54.6272H35.5591C35.4591 55.2288 35.1175 55.7776 34.6528 56.1584C34.2 56.56 33.5904 56.7664 33.0144 56.8176C32.3845 56.8544 31.7593 56.6902 31.2288 56.3488C30.6429 55.9656 30.2085 55.3906 30 54.7224C30.0312 55.4912 30.42 56.232 30.9744 56.744C31.525 57.2546 32.2379 57.5551 32.988 57.5928C33.7568 57.644 34.5016 57.4096 35.1463 56.9352C35.4799 56.6848 35.7703 56.3496 36.0007 55.968C36.2295 56.3496 36.5199 56.6848 36.8535 56.9352C37.4903 57.404 38.2631 57.6448 38.9999 57.5928C39.7532 57.5539 40.4695 57.2538 41.0255 56.744C41.5799 56.2312 41.9671 55.4832 41.9999 54.7224C41.7695 55.4408 41.3167 56.0032 40.7719 56.3488Z" fill="#302C3B"/>
    <path d="M30.6145 51.4489C30.6145 48.9657 33.0289 48.4913 36.0008 48.4913C38.976 48.4913 41.384 48.9665 41.384 51.4489C41.384 53.4257 37.1008 55.1769 36.0008 55.1769C34.9033 55.1769 30.6145 53.4249 30.6145 51.4489Z" fill="#302C3B"/>
    <path d="M31.3264 51.5201C31.3264 49.4921 33.3552 49.1041 35.8584 49.1041C39.1943 49.1049 31.3264 54.5169 31.3264 51.5201Z" fill="#4E5E67"/>
    <path d="M30.2584 37.7162C30.2584 40.2786 28.644 42.3522 26.6488 42.3522C24.6569 42.3522 23.0425 40.2786 23.0425 37.7162C23.0425 35.1539 24.6569 33.0763 26.6488 33.0763C28.6448 33.0755 30.2584 35.1539 30.2584 37.7162Z" fill="#302C3B"/>
    <path d="M26.3913 35.6891C26.3913 37.2866 24.5897 37.2866 24.5897 35.6891C24.5897 34.0835 26.3913 34.0835 26.3913 35.6891Z" fill="white"/>
    <path d="M45.3495 42.3522C47.3422 42.3522 48.9575 40.2766 48.9575 37.7163C48.9575 35.1559 47.3422 33.0803 45.3495 33.0803C43.3569 33.0803 41.7416 35.1559 41.7416 37.7163C41.7416 40.2766 43.3569 42.3522 45.3495 42.3522Z" fill="#302C3B"/>
    <path d="M45.0895 35.6891C45.0895 37.2866 43.288 37.2866 43.288 35.6891C43.288 34.0835 45.0895 34.0835 45.0895 35.6891Z" fill="white"/>
</svg>