<svg width="72" height="72" viewBox="0 0 72 72" fill="none" xmlns="http://www.w3.org/2000/svg">
    <path d="M36 72C55.8823 72 72 55.8823 72 36C72 16.1177 55.8823 0 36 0C16.1177 0 0 16.1177 0 36C0 55.8823 16.1177 72 36 72Z" fill="#4B4B4B"/>
    <path d="M71 36C71 55.33 55.33 71 36 71C16.67 71 1 55.33 1 36C1 16.67 16.67 1 36 1C55.33 1 71 16.67 71 36Z" stroke="white" stroke-opacity="0.3" stroke-width="2"/>
    <path d="M59.9995 38.4C60.0683 33.2704 53.278 29.584 51.8293 23.2952C50.0045 15.364 42.0887 12 36 12C29.9113 12 21.9971 15.364 20.1707 23.2952C18.722 29.584 11.9317 33.2704 12.0005 38.4C11.9973 38.4 11.9909 43.3888 15.394 47.7832L16.094 46.2112C16.094 46.2112 16.194 48.6376 18.2468 51.3928L18.8972 48.9664C18.8972 48.9664 18.9956 52.64 22.1955 56.1176C22.1955 56.1176 22.4691 53.7032 22.7971 52.836C22.7971 52.836 24.5986 56.6408 28.7986 59.2C28.7986 59.2 28.2474 58.1768 28.789 57.0096C31.5161 58.8096 34.0768 60 36 60C37.9232 60 40.4839 58.8096 43.211 57.0096C43.7526 58.1768 43.2014 59.2 43.2014 59.2C47.4014 56.6408 49.2013 52.836 49.2013 52.836C49.5293 53.7032 49.8061 56.1176 49.8061 56.1176C53.0044 52.6392 53.1044 48.9664 53.1044 48.9664L53.7548 51.3928C55.806 48.6384 55.9052 46.2112 55.9052 46.2112L56.6068 47.7832C60.0075 43.3888 60.0011 38.4 59.9995 38.4Z" fill="black"/>
    <path d="M51.6045 30.4016C45.9798 26.6512 39.9015 31.2016 36 31.2016C32.0985 31.2016 26.0218 26.6512 20.3955 30.4016C14.7677 34.1512 21.2507 42.2704 27.597 40C29.6217 39.2768 30.7673 39.1064 31.3329 39.2936C30.8145 39.9544 30.0489 40.6688 28.6722 41.1496C25.161 42.3776 26.197 45.204 28.5522 45.564C28.4765 45.7055 28.4086 45.851 28.349 46C27.357 48.5576 26.3978 56.0016 36 56.0016C45.6022 56.0016 44.6422 48.5576 43.651 46C43.5915 45.8504 43.5225 45.7048 43.4446 45.564C45.8038 45.208 46.8398 42.38 43.3286 41.1496C42.0879 40.7152 41.3471 40.0936 40.8335 39.492C41.4431 39.3432 42.5567 39.472 44.4006 40C51.0197 41.8984 57.2307 34.1512 51.6045 30.4016Z" fill="#99A8AE"/>
    <path d="M33.2049 40.3608C33.3017 41.6096 33.7537 44.3464 31.1193 44.4376C28.7994 44.5216 28.1618 42.1392 30.9337 42.0424C32.7817 41.98 33.2049 40.3608 33.2049 40.3608ZM38.7951 40.3608C38.6983 41.6096 38.2464 44.3464 40.8807 44.4376C43.2006 44.5216 43.8398 42.1392 41.0679 42.0424C39.2183 41.98 38.7951 40.3608 38.7951 40.3608ZM43.0783 49.556C43.2206 49.7136 40.1927 52.0704 36 52.0448C31.8097 52.0696 28.7802 49.7136 28.9218 49.556C29.017 49.34 32.0545 50.6312 36 50.5968C39.9471 50.6312 42.9831 49.3392 43.0783 49.556Z" fill="#302C3B"/>
    <path d="M28.7986 37.7752C31.4497 37.7752 33.6017 35.6952 33.6017 33.1344H23.9987C23.9987 35.6952 26.1474 37.7752 28.7986 37.7752Z" fill="#A6E639"/>
    <path d="M28.7986 35.744C30.1234 35.744 31.1986 34.7064 31.1986 33.424H26.3971C26.3971 34.7064 27.4739 35.744 28.7986 35.744Z" fill="#302C3B"/>
    <path d="M48.0029 33.1344C48.0029 35.6952 45.8541 37.7752 43.2014 37.7752C40.5511 37.7752 38.3999 35.6952 38.3999 33.1344H48.0029Z" fill="#A6E639"/>
    <path d="M45.6014 33.4232C45.6014 34.7064 44.5262 35.7432 43.2015 35.7432C41.8767 35.7432 40.8015 34.7056 40.8015 33.4232H45.6014Z" fill="#302C3B"/>
    <path d="M51.6044 33.2984C51.6044 33.6296 44.6158 33.9 36 33.9C27.3834 33.9 20.3955 33.6296 20.3955 33.2984C20.3955 32.9704 27.3826 32.7016 36 32.7016C44.6158 32.7016 51.6044 32.9704 51.6044 33.2984Z" fill="#302C3B"/>
</svg>