<svg width="60" height="64" viewBox="0 0 60 64" fill="none" xmlns="http://www.w3.org/2000/svg">
    <path fill-rule="evenodd" clip-rule="evenodd" d="M24 10.166C24 6.761 26.686 4 30 4C33.313 4 36 6.761 36 10.166C36 10.4862 35.9763 10.8008 35.9304 11.1079C38.6592 12.0072 41.1615 13.5512 43.112 15.7399C45.6146 18.548 47.209 22.4174 47.209 27.348C47.209 37.7923 57.6053 53.9804 59.4755 56.8099C59.8185 57.23 60 57.676 60 58.148C60 65.95 0 65.95 0 58.148C0 57.719 0.149963 57.3114 0.434875 56.9253C1.75128 54.9583 12.791 38.1407 12.791 27.348C12.791 18.5744 17.8396 13.161 24.0696 11.1079C24.0238 10.8008 24 10.4862 24 10.166ZM33.3645 10.4622C31.1339 10.0662 28.8248 10.0686 26.5951 10.4695C26.5855 10.3623 26.5807 10.2544 26.581 10.146C26.5809 9.84472 26.6173 9.55222 26.687 9.27329C26.8964 8.43559 27.4001 7.71963 28.0782 7.24869C28.6207 6.87194 29.2748 6.652 29.979 6.652C30.1929 6.652 30.4022 6.67229 30.605 6.71109C30.7362 6.73618 30.8647 6.76899 30.9901 6.80906C31.4753 6.96541 31.9135 7.23135 32.279 7.577L32.2576 7.55307C32.9457 8.19253 33.378 9.11762 33.378 10.147C33.378 10.2533 33.3735 10.3584 33.3645 10.4622Z" fill="black" fill-opacity="0.2"/>
    <path d="M30 0C26.686 0 24 2.761 24 6.166C24 9.571 26.686 12.333 30 12.333C33.313 12.333 36 9.571 36 6.166C36 2.761 33.313 0 30 0ZM29.979 9.64C28.101 9.64 26.58 8.076 26.58 6.147C26.58 4.216 28.101 2.652 29.979 2.652C31.857 2.652 33.378 4.216 33.378 6.147C33.379 8.075 31.857 9.64 29.979 9.64Z" fill="#F59E01"/>
    <path d="M29.979 2.651C30.867 2.651 31.673 3.004 32.279 3.577C31.9657 3.22261 31.581 2.93853 31.1502 2.74343C30.7193 2.54833 30.252 2.44662 29.779 2.445C27.902 2.445 26.38 4.01 26.38 5.939C26.38 6.957 26.806 7.87 27.481 8.508C26.8995 7.8589 26.5789 7.01748 26.581 6.146C26.58 4.216 28.102 2.651 29.979 2.651Z" fill="#EA8800"/>
    <path d="M30.168 0.405998C30.637 0.405998 30.521 0.169998 29.938 0.169998C26.755 0.169998 24.175 2.821 24.175 6.092C24.175 6.923 24.405 7.039 24.405 6.328C24.405 3.058 26.985 0.405998 30.168 0.405998Z" fill="#F9B700"/>
    <path d="M12.791 23.348C12.791 0.439999 47.209 0.439999 47.209 23.348C47.209 34.825 59 53.008 59 53.008L0.307007 53.115C0.307007 53.115 12.791 34.825 12.791 23.348Z" fill="#F9B700"/>
    <path d="M47.209 23.348C47.209 14.969 42.605 9.656 36.764 7.408C41.928 10.551 43.039 15.581 43.039 24.915C43.039 36.394 52.019 53.009 52.019 53.009L59.762 53.239C59.763 53.238 47.209 34.825 47.209 23.348Z" fill="#F59E01"/>
    <path d="M60 54.148C60 61.95 0 61.95 0 54.148C0 45.566 60 45.566 60 54.148Z" fill="#F59E01"/>
    <path d="M57.033 54.444C57.033 60.726 2.96698 60.726 2.96698 54.444C2.96698 47.534 57.033 47.534 57.033 54.444Z" fill="#302C3B"/>
    <path d="M22.382 49.449C37.887 48.667 57.033 50.331 57.033 54.444C57.033 56.466 51.419 57.838 43.812 58.558C41.529 53.241 32.441 50.203 22.382 49.449Z" fill="#1A1626"/>
    <path d="M19.901 49.653C20.723 63.096 39.278 63.101 40.096 49.653C33.79 49.113 26.208 49.113 19.901 49.653Z" fill="#F59E01"/>
    <path d="M39.171 49.578C37.444 57.95 25.702 57.876 24.13 49.381C22.677 49.447 21.26 49.537 19.901 49.653C20.723 63.096 39.278 63.101 40.096 49.653C39.79 49.626 39.481 49.603 39.171 49.578Z" fill="#D47706"/>
    <path d="M19.828 49.603C25.934 49.042 35.981 49.059 40.198 49.605C40.198 49.605 40.096 51.674 39.202 53.669C38.218 50.587 29.999 49.249 19.993 50.614C19.9267 50.2789 19.8716 49.9418 19.828 49.603Z" fill="#AB5C10"/>
    <path fill-rule="evenodd" clip-rule="evenodd" d="M15.813 20.007C16.238 23.483 21.833 16.682 27.495 10.833C31.148 7.07 14.535 9.548 15.813 20.007Z" fill="#FFE463"/>
    <path fill-rule="evenodd" clip-rule="evenodd" d="M27.353 57.158C28.625 56.788 25.759 54.994 23.243 53.117C21.623 51.906 23.522 58.268 27.353 57.158ZM29.341 57.832C29.341 58.494 27.933 58.494 27.933 57.832C27.933 57.169 29.341 57.169 29.341 57.832Z" fill="#F59E01"/>
    <path fill-rule="evenodd" clip-rule="evenodd" d="M4.70601 49.005C1.83101 50.07 16.545 45.35 33.84 46.432C38.757 46.739 21.229 42.883 4.70601 49.005Z" fill="#FFE463"/>
    <circle opacity="0.2" cx="47" cy="18" r="10.5" fill="black" stroke="black"/>
    <circle cx="47" cy="16" r="10.5" fill="#FF4770" stroke="#E72852"/>
</svg>
