<svg width="60" height="64" viewBox="0 0 60 64" fill="none" xmlns="http://www.w3.org/2000/svg">
    <path d="M59.313 14.028L54.617 15.589L60 20.307L52.854 18.349L52.061 24.25L49.0072 18.1994C47.5563 19.2388 45.8513 20.3137 44.4026 21.227C44.0048 21.4777 43.6257 21.7167 43.2771 21.939C44.9339 23.7814 46.0633 25.7267 45.332 26.452V26.453L42.1565 29.6032C44.2907 33.0414 45.522 37.0895 45.522 41.422C45.522 53.893 35.328 64 22.761 64C10.188 63.998 0 53.893 0 41.422V41.42C0.000947237 28.9548 10.1886 18.843 22.761 18.843C26.6994 18.8433 30.4048 19.8367 33.6363 21.5844L37.031 18.218C37.7933 17.4624 39.8897 18.7099 41.8131 20.4651C42.4495 20.0303 43.1889 19.5404 43.965 19.0263L43.9671 19.0249C45.0667 18.2963 46.2398 17.5191 47.2974 16.7809L39.389 14.45L46.065 12.652L42.764 7.633L48.092 11.067L47.775 4.375L50.842 10.221L54.719 4L53.611 10.909L59.242 9.415L54.532 13.256L59.313 14.028Z" fill="black" fill-opacity="0.2"/>
    <path d="M45.522 37.422C45.522 24.956 35.328 14.844 22.761 14.843C10.188 14.843 0 24.956 0 37.422C0 49.893 10.188 59.998 22.761 60C35.328 60 45.522 49.893 45.522 37.422Z" fill="#302C3B"/>
    <path fill-rule="evenodd" clip-rule="evenodd" d="M38.515 33.695C37.821 38.556 28.646 29.045 19.359 20.869C13.364 15.61 40.612 19.073 38.515 33.695Z" fill="#4E5E67"/>
    <path d="M36.799 55.174C34.623 55.662 32.383 55.947 30.063 55.947C15.567 55.947 3.471 45.767 0.631 32.218C0.217599 33.9213 0.00581256 35.6673 0 37.42C0.003 49.889 10.187 59.992 22.764 59.998C27.8487 59.9958 32.7875 58.2983 36.799 55.174Z" fill="#1A1626"/>
    <path d="M45.332 22.453L41.944 25.814C40.25 27.495 31.948 19.26 33.643 17.58L37.031 14.219L45.332 22.453Z" fill="#302C3B"/>
    <path d="M36.712 17.98C35.98 18.707 34.766 20.24 36.524 22.956C33.889 20.781 32.705 18.509 33.552 17.668L37.031 14.218C36.712 15.179 37.653 17.047 36.712 17.98Z" fill="#1A1626"/>
    <path d="M37.031 14.218C35.337 15.898 43.638 24.133 45.332 22.452C47.027 20.771 38.727 12.537 37.031 14.218Z" fill="#4E5E67"/>
    <path d="M38.993 15.801C38.146 16.641 42.889 21.348 43.736 20.507C44.584 19.666 39.84 14.961 38.993 15.801Z" fill="#1A1626"/>
    <path d="M39.913 17.899C41.036 16.736 47.917 12.691 50.113 10.606C50.969 9.793 52.045 11.528 51.661 11.966C49.525 14.398 42.355 18.284 41.299 19.32C40.472 18.688 39.913 17.899 39.913 17.899Z" fill="#B47D56"/>
    <path d="M41.014 17.023C40.746 18.093 41.783 18.931 41.783 18.931L41.3 19.319C40.473 18.689 39.914 17.899 39.914 17.899C40.235 17.539 41.014 17.023 41.014 17.023Z" fill="#785647"/>
    <path d="M54.617 11.589L59.313 10.028L54.532 9.256L59.242 5.415L53.611 6.909L54.719 0L50.842 6.221L47.775 0.375L48.092 7.067L42.764 3.633L46.065 8.652L39.389 10.45L48.465 13.125L52.061 20.25L52.854 14.349L60 16.307L54.617 11.589Z" fill="#EF4E16"/>
    <path d="M51.905 12.702L55.846 14.082L52.949 11.143L55.525 10.211L53.036 9.565L55.511 7.314L52.435 8.222L52.891 4.726L50.998 7.873L49.01 4.68L49.309 8.559L45.969 6.581L47.873 9.492L43.453 10.382L49.432 11.834L51.277 15.777L51.905 12.702Z" fill="#FFE12C"/>
    <path d="M51.223 11.438L52.891 12.022L51.664 10.777L52.753 10.383L51.699 10.11L52.748 9.157L51.445 9.541L51.639 8.062L50.838 9.393L49.996 8.041L50.121 9.684L48.707 8.846L49.513 10.079L47.888 10.525L50.07 11.131L50.955 12.741L51.223 11.438Z" fill="white"/>
</svg>
