<svg width="60" height="64" viewBox="0 0 60 64" fill="none" xmlns="http://www.w3.org/2000/svg">
    <path d="M30 64C46.5685 64 60 50.5685 60 34C60 17.4315 46.5685 4 30 4C13.4315 4 0 17.4315 0 34C0 50.5685 13.4315 64 30 64Z" fill="black" fill-opacity="0.2"/>
    <path d="M30 60C46.5685 60 60 46.5685 60 30C60 13.4315 46.5685 0 30 0C13.4315 0 0 13.4315 0 30C0 46.5685 13.4315 60 30 60Z" fill="#FDCA47"/>
    <path d="M49.6539 7.34595C54.2249 12.6109 56.9999 19.4809 56.9999 27.0009C56.9999 43.5679 43.5679 56.9999 26.9999 56.9999C19.7757 57.0092 12.7931 54.3993 7.34595 49.6539C12.8459 55.9899 20.9509 59.9999 29.9999 59.9999C46.5689 59.9999 59.9999 46.5679 59.9999 30.0009C59.9999 20.9539 55.9879 12.8489 49.6539 7.34595Z" fill="#F9B700"/>
    <path fill-rule="evenodd" clip-rule="evenodd" d="M4.41688 18.501C3.29988 22.243 10.9999 9.00001 22.9999 4.08401C28.8329 1.69301 9.16688 2.58401 4.41688 18.501Z" fill="#FFE8BB"/>
    <path d="M52 28.999C52 31.3863 51.0517 33.6757 49.3637 35.3637C47.6757 37.0517 45.3863 38 42.999 38C40.6118 38 38.3224 37.0517 36.6344 35.3637C34.9464 33.6757 33.998 31.3863 33.998 28.999C33.998 26.6118 34.9464 24.3224 36.6344 22.6344C38.3224 20.9464 40.6118 19.998 42.999 19.998C45.3863 19.998 47.6757 20.9464 49.3637 22.6344C51.0517 24.3224 52 26.6118 52 28.999Z" fill="white"/>
    <path d="M43 34.999C46.3137 34.999 49 32.3127 49 28.999C49 25.6853 46.3137 22.999 43 22.999C39.6863 22.999 37 25.6853 37 28.999C37 32.3127 39.6863 34.999 43 34.999Z" fill="#302C3B"/>
    <path d="M44.552 36.719C46.105 36.719 47.364 35.2639 47.364 33.469C47.364 31.6741 46.105 30.219 44.552 30.219C42.999 30.219 41.74 31.6741 41.74 33.469C41.74 35.2639 42.999 36.719 44.552 36.719Z" fill="white"/>
    <path d="M40.779 30.9009C41.6875 30.9009 42.424 30.0494 42.424 28.9989C42.424 27.9485 41.6875 27.0969 40.779 27.0969C39.8705 27.0969 39.134 27.9485 39.134 28.9989C39.134 30.0494 39.8705 30.9009 40.779 30.9009Z" fill="white"/>
    <path d="M26 28.999C26 31.3863 25.0517 33.6757 23.3637 35.3637C21.6757 37.0517 19.3863 38 16.999 38C14.6118 38 12.3224 37.0517 10.6344 35.3637C8.94636 33.6757 7.99805 31.3863 7.99805 28.999C7.99805 26.6118 8.94636 24.3224 10.6344 22.6344C12.3224 20.9464 14.6118 19.998 16.999 19.998C19.3863 19.998 21.6757 20.9464 23.3637 22.6344C25.0517 24.3224 26 26.6118 26 28.999Z" fill="white"/>
    <path d="M17 34.999C20.3137 34.999 23 32.3127 23 28.999C23 25.6853 20.3137 22.999 17 22.999C13.6863 22.999 11 25.6853 11 28.999C11 32.3127 13.6863 34.999 17 34.999Z" fill="#302C3B"/>
    <path d="M18.55 36.719C20.1025 36.719 21.361 35.2639 21.361 33.469C21.361 31.6741 20.1025 30.219 18.55 30.219C16.9975 30.219 15.739 31.6741 15.739 33.469C15.739 35.2639 16.9975 36.719 18.55 36.719Z" fill="white"/>
    <path d="M14.778 30.9009C15.686 30.9009 16.422 30.0494 16.422 28.9989C16.422 27.9485 15.686 27.0969 14.778 27.0969C13.8701 27.0969 13.134 27.9485 13.134 28.9989C13.134 30.0494 13.8701 30.9009 14.778 30.9009Z" fill="white"/>
    <path d="M38.988 47.8889C34.535 45.5819 24.913 45.8679 21.011 47.8889C20.318 48.2459 19.693 46.8519 20.161 46.2799C21.917 44.1319 25.46 42.5769 29.999 42.5769C34.539 42.5769 38.082 44.1319 39.835 46.2799C40.307 46.8519 39.682 48.2459 38.988 47.8889Z" fill="#302C3B"/>
    <path d="M44.996 34.002C39.92 40.773 37 47.008 37 52.125C37 56.473 40.582 60.002 45 60.002C49.42 60.002 53 56.473 53 52.125C53 47.008 49.996 40.666 44.996 34.002Z" fill="#75D6FF"/>
    <path opacity="0.3" d="M51.1111 44.2339C51.4471 45.6069 51.6291 46.9179 51.6291 48.1619C51.6291 52.5119 48.0741 56.0449 43.6911 56.0449C42.3673 56.0451 41.0646 55.7145 39.9011 55.0832C38.7376 54.4518 37.7504 53.5398 37.0291 52.4299C37.1951 56.6349 40.6871 60.0019 45.0001 60.0019C49.4201 60.0019 53.0001 56.4729 53.0001 52.1249C53.0001 49.7299 52.3181 47.0639 51.1111 44.2339Z" fill="#0FB4D4"/>
    <path opacity="0.5" d="M40.7091 47.5099C38.0741 46.7069 43.2811 38.4049 44.4061 36.9439C45.4301 35.6229 45.5531 48.9749 40.7091 47.5099Z" fill="white"/>
    <path d="M52.344 16.9961C48.186 13.7951 42.03 12.1821 38.563 13.1641C37.833 13.3711 37.397 16.0841 38.03 15.9901C42.884 15.2651 48.186 16.1211 52.212 18.8281C52.752 19.1911 52.969 17.4771 52.344 16.9961ZM7.65496 16.9981C11.812 13.7951 17.968 12.1821 21.434 13.1641C22.165 13.3711 22.601 16.0861 21.968 15.9901C17.114 15.2671 11.81 16.1211 7.78596 18.8281C7.24596 19.1931 7.02896 17.4791 7.65496 16.9981Z" fill="#917524"/>
</svg>