<svg width="62" height="70" viewBox="0 0 62 70" fill="none" xmlns="http://www.w3.org/2000/svg">
    <path d="M31.1418 4.94843C33.4622 3.67243 36.0669 3.00229 38.715 3C47.385 3 54.439 10.06 54.439 18.736C54.439 18.7567 54.439 18.7767 54.4385 18.7963C54.4383 18.809 54.4378 18.8215 54.437 18.834C56.7089 19.9948 58.6168 21.7594 59.951 23.934C61.2852 26.1085 61.9942 28.6088 62 31.16C62 37.646 57.588 43.188 51.283 44.638C50.248 44.878 49.201 45 48.17 45H13.994C12.713 45 11.443 44.794 10.232 44.391C5.30899 42.764 2 38.187 2 33C2.00024 31.2884 2.36697 29.5966 3.07556 28.0385C3.78415 26.4804 4.81815 25.0921 6.108 23.967C6.55099 23.578 7.01999 23.224 7.51199 22.908L7.96301 21.331C9.86401 14.704 16 10.076 22.885 10.076C23.6285 10.0799 24.3708 10.1374 25.106 10.248C25.1368 10.2527 25.1679 10.2574 25.1991 10.262C25.28 10.2741 25.3613 10.2863 25.44 10.3C26.8603 8.06504 28.8214 6.22442 31.1418 4.94843Z" fill="black" fill-opacity="0.2"/>
    <path d="M11.994 40C10.9271 39.9997 9.86715 39.8275 8.85501 39.49C6.85825 38.8321 5.12033 37.5603 3.8893 35.8561C2.65827 34.1519 1.99705 32.1023 2.00001 30C2.00082 28.5728 2.30717 27.1623 2.89845 25.8633C3.48973 24.5643 4.35224 23.4069 5.42801 22.469C5.98805 21.9788 6.6012 21.5528 7.25601 21.199L7.22301 21.196L7.88701 18.883C9.54101 13.109 14.887 9.076 20.885 9.076C21.483 9.076 22.096 9.124 22.817 9.227C23.3649 9.30536 23.9076 9.4169 24.442 9.561L24.706 9.083C25.894 6.93859 27.634 5.151 29.7456 3.90557C31.8572 2.66015 34.2635 2.00222 36.715 2C44.281 2 50.44 8.162 50.44 15.736C50.44 16.106 50.415 16.466 50.385 16.827L50.364 17.097C52.6059 17.953 54.5358 19.4684 55.899 21.4434C57.2622 23.4184 57.9947 25.7602 58 28.16C58.0113 30.8393 57.108 33.4422 55.4396 35.5386C53.7712 37.6351 51.4374 39.0995 48.824 39.69C47.943 39.896 47.049 40 46.17 40H11.994Z" fill="white"/>
    <path d="M36.715 4C43.19 4 48.44 9.255 48.44 15.736C48.44 16.051 48.417 16.358 48.393 16.666C45.7654 16.8642 43.2721 17.9055 41.284 19.635C42.7713 18.7757 44.4588 18.3236 46.1765 18.3243C47.8942 18.325 49.5814 18.7785 51.068 19.639C54.012 21.339 56 24.513 56 28.16C56 32.83 52.742 36.738 48.377 37.741C47.6537 37.9115 46.9132 37.9984 46.17 38H11.994C11.1422 37.9998 10.296 37.8624 9.488 37.593C7.8912 37.0649 6.50146 36.047 5.51625 34.6839C4.53105 33.3208 4.0005 31.6819 4 30C3.9988 28.8579 4.24321 27.7289 4.71666 26.6895C5.1901 25.6501 5.88151 24.7247 6.744 23.976C7.51023 23.3042 8.39878 22.7864 9.361 22.451C10.2069 22.153 11.0971 21.9998 11.994 21.998C13.2173 21.9983 14.4241 22.28 15.521 22.8214C16.618 23.3628 17.5757 24.1492 18.32 25.12L18.392 25.119C17.5362 23.5408 16.3059 22.1971 14.8091 21.2058C13.3123 20.2145 11.595 19.6061 9.808 19.434C11.189 14.614 15.622 11.077 20.884 11.077C21.447 11.077 21.993 11.131 22.532 11.208C23.5811 11.3566 24.6046 11.65 25.573 12.08C27.3493 12.8742 28.8961 14.1043 30.0697 15.6563C31.2433 17.2082 32.0057 19.0316 32.286 20.957L32.288 20.889C32.288 16.362 29.968 12.377 26.454 10.055C28.455 6.446 32.299 4 36.715 4ZM36.715 0C34.0669 0.00228865 31.4622 0.672432 29.1418 1.94843C26.8214 3.22442 24.8603 5.06504 23.44 7.3C23.331 7.281 23.217 7.265 23.106 7.248C22.3708 7.1374 21.6285 7.07992 20.885 7.076C14 7.076 7.864 11.704 5.963 18.331L5.512 19.908C5.02 20.224 4.551 20.578 4.108 20.967C2.81814 22.0921 1.78415 23.4804 1.07557 25.0385C0.366988 26.5966 0.000243952 28.2884 0 30C0 35.187 3.309 39.764 8.232 41.391C9.443 41.794 10.713 42 11.994 42H46.17C47.201 42 48.248 41.878 49.283 41.638C55.588 40.188 60 34.646 60 28.16C59.9942 25.6088 59.2853 23.1085 57.951 20.934C56.6168 18.7594 54.7089 16.9948 52.437 15.834C52.439 15.802 52.439 15.77 52.439 15.736C52.439 7.06 45.385 0 36.715 0Z" fill="#75D6FF"/>
    <path opacity="0.2" d="M44.8313 58.5095L44.8401 58.5012L44.8488 58.4926C45.6031 57.7474 46 56.8214 46 55.7656C46 54.7098 45.6031 53.7839 44.8488 53.0386C44.0715 52.2707 43.0816 51.9062 41.9635 51.9062C40.8492 51.9062 39.8621 52.2683 39.086 53.0309L36.0365 55.9233V33.9062C36.0365 32.813 35.6184 31.8624 34.8184 31.1137C34.0323 30.3779 33.0764 30 32 30C30.9236 30 29.9677 30.3779 29.1816 31.1137C28.3816 31.8624 27.9635 32.813 27.9635 33.9062V55.9233L24.914 53.0309C24.1379 52.2683 23.1508 51.9062 22.0365 51.9062C20.9184 51.9062 19.9285 52.2707 19.1512 53.0386C18.3969 53.7839 18 54.7098 18 55.7656C18 56.8214 18.3969 57.7474 19.1512 58.4926L19.1615 58.5028L19.1722 58.5128L29.2207 67.8785C29.981 68.6243 30.9278 69 32 69C33.1136 69 34.1002 68.6384 34.876 67.8767L44.8313 58.5095Z" fill="black" stroke="black" stroke-width="2"/>
    <path d="M42.8313 54.5095L42.8401 54.5012L42.8488 54.4926C43.6031 53.7474 44 52.8214 44 51.7656C44 50.7098 43.6031 49.7839 42.8488 49.0386C42.0715 48.2707 41.0816 47.9062 39.9635 47.9062C38.8492 47.9062 37.8621 48.2683 37.086 49.0309L34.0365 51.9233V29.9062C34.0365 28.813 33.6184 27.8624 32.8184 27.1137C32.0323 26.3779 31.0764 26 30 26C28.9236 26 27.9677 26.3779 27.1816 27.1137C26.3816 27.8624 25.9635 28.813 25.9635 29.9062V51.9233L22.914 49.0309C22.1379 48.2683 21.1508 47.9062 20.0365 47.9062C18.9184 47.9062 17.9285 48.2707 17.1512 49.0386C16.3969 49.7839 16 50.7098 16 51.7656C16 52.8214 16.3969 53.7474 17.1512 54.4926L17.1615 54.5028L17.1722 54.5128L27.2207 63.8785C27.981 64.6243 28.9278 65 30 65C31.1136 65 32.1002 64.6384 32.876 63.8767L42.8313 54.5095Z" fill="#4BF620" stroke="white" stroke-width="2"/>
</svg>
