<svg width="100" height="100" viewBox="0 0 100 100" fill="none" xmlns="http://www.w3.org/2000/svg">
    <defs>
        <linearGradient id="paint0_linear" x1="32.4621" y1="39.5833" x2="67.4621" y2="39.5833" gradientUnits="userSpaceOnUse">
            <stop stop-color="#F9EB74"/>
            <stop offset="1" stop-color="#F9D100"/>
        </linearGradient>
        <linearGradient id="paint1_linear" x1="35.7955" y1="38.959" x2="46.0049" y2="38.959" gradientUnits="userSpaceOnUse">
            <stop stop-color="#FCF5BC"/>
            <stop offset="1" stop-color="#F9EB74"/>
        </linearGradient>
        <linearGradient id="paint2_linear" x1="47.3782" y1="33.6256" x2="52.1959" y2="38.4434" gradientUnits="userSpaceOnUse">
            <stop stop-color="#414CBE"/>
            <stop offset="1" stop-color="#FF4770"/>
        </linearGradient>
        <linearGradient id="paint3_linear" x1="49.8694" y1="36.3694" x2="59.0617" y2="45.5617" gradientUnits="userSpaceOnUse">
            <stop stop-color="#35CCFC"/>
            <stop offset="1" stop-color="#414CBE"/>
        </linearGradient>
        <linearGradient id="paint4_linear" x1="51.7078" y1="38.2078" x2="48.0309" y2="34.5309" gradientUnits="userSpaceOnUse">
            <stop stop-color="#E3F8FF"/>
            <stop offset="1" stop-color="white"/>
        </linearGradient>
        <linearGradient id="paint5_linear" x1="46.2843" y1="31.865" x2="53.1786" y2="38.7593" gradientUnits="userSpaceOnUse">
            <stop stop-color="white"/>
            <stop offset="1" stop-color="white" stop-opacity="0"/>
        </linearGradient>
        <linearGradient id="paint6_linear" x1="36.4118" y1="87.4704" x2="61.23" y2="87.4704" gradientUnits="userSpaceOnUse">
            <stop stop-color="#F9EB74"/>
            <stop offset="1" stop-color="#F3AF00"/>
        </linearGradient>
        <linearGradient id="paint7_linear" x1="62.5023" y1="89.2125" x2="83.5023" y2="89.2125" gradientUnits="userSpaceOnUse">
            <stop stop-color="#F9EB74"/>
            <stop offset="1" stop-color="#F3AF00"/>
        </linearGradient>
        <linearGradient id="paint8_linear" x1="14.5023" y1="89.2125" x2="35.5023" y2="89.2125" gradientUnits="userSpaceOnUse">
            <stop stop-color="#F9EB74"/>
            <stop offset="1" stop-color="#F3AF00"/>
        </linearGradient>
    </defs>
    <path fill-rule="evenodd" clip-rule="evenodd" d="M100 50C100 77.615 77.615 100 50 100C22.385 100 0 77.615 0 50C0 22.385 22.385 0 50 0C77.615 0 100 22.385 100 50" fill="#35CCFC"/>
    <path d="M40.7917 71.6666H59.125C59.125 69.8333 57.625 68.3333 55.7917 68.3333H44.125C42.2917 68.3333 40.7917 69.8333 40.7917 71.6666Z" fill="#F9D100"/>
    <path d="M51.625 47.75V70H48.2917V47.75L44.125 39.1667H55.7917L51.625 47.75Z" fill="#F9D100"/>
    <path d="M33.7083 23.3334H25.8333C25.8333 30.25 27.9167 36.5417 31.2083 39.4167L36.6667 44.1667" stroke="#F9EB74" stroke-width="3.33333" stroke-miterlimit="50" stroke-linecap="round" stroke-linejoin="round"/>
    <path d="M67.4583 18.3334H32.4583V21.6667H67.4583V18.3334Z" fill="#F9EB74"/>
    <path d="M67.4583 21.6666H32.4583V40C32.4583 49.6666 40.2917 57.5 49.9583 57.5C59.625 57.5 67.4583 49.6666 67.4583 40V21.6666Z" fill="url(#paint0_linear)"/>
    <path d="M66.25 23.3334H74.125C74.125 30.25 72.0417 36.5417 68.75 39.4167L63.2917 44.1667" stroke="#F9D100" stroke-width="3.33333" stroke-miterlimit="50" stroke-linecap="round" stroke-linejoin="round"/>
    <path d="M43.5417 52.7083C38.75 50.125 35.7917 45.125 35.7917 39.6667V25C37.625 25 39.125 26.5 39.125 28.3333V39.6667C39.125 43.875 41.4167 47.75 45.125 49.7917C45.9167 50.25 46.25 51.25 45.7917 52.0417C45.375 52.875 44.3333 53.1667 43.5417 52.7083Z" fill="url(#paint1_linear)"/>
    <path d="M50.5417 31.25L51.5 33.7917L54.2083 33.9167C54.75 33.9583 55 34.625 54.5417 35L52.4167 36.7083L53.125 39.3333C53.25 39.875 52.6667 40.2917 52.2083 40L49.9167 38.5417L47.6667 40C47.2083 40.2917 46.625 39.875 46.75 39.3333L47.4583 36.7083L45.3333 35C44.9167 34.6667 45.125 33.9583 45.6667 33.9167L48.375 33.7917L49.3333 31.25C49.5833 30.7083 50.3333 30.7083 50.5417 31.25Z" fill="url(#paint2_linear)"/>
    <path d="M40.9 42.2384C38.7461 40.0845 38.7461 36.5924 40.9 34.4384L46.1 29.2384C48.2539 27.0845 51.7461 27.0845 53.9 29.2384L59.1 34.4384C61.2539 36.5923 61.2539 40.0845 59.1 42.2384L53.9 47.4384C51.7461 49.5923 48.2539 49.5924 46.1 47.4384L40.9 42.2384Z" fill="black" fill-opacity="0.15"/>
    <path d="M41.3875 33.0875L46.5875 27.8875C48.4722 26.0028 51.5278 26.0028 53.4125 27.8875L58.6125 33.0875C60.4972 34.9722 60.4972 38.0278 58.6125 39.9125L53.4125 45.1125C51.5278 46.9972 48.4722 46.9972 46.5875 45.1125L41.3875 39.9125C39.5028 38.0278 39.5028 34.9722 41.3875 33.0875Z" fill="url(#paint3_linear)" stroke="#B6EDFF" stroke-width="1.37886"/>
    <path fill-rule="evenodd" clip-rule="evenodd" d="M49.8693 33.6116C49.3617 33.6116 48.9501 34.0231 48.9501 34.5308V36.3694H46.1924V37.2886C46.1924 37.7963 46.6039 38.2078 47.1116 38.2078H48.9501V40.0463C48.9501 40.554 49.3617 40.9655 49.8693 40.9655C50.377 40.9655 50.7886 40.554 50.7886 40.0463V38.2078H52.6271C53.1347 38.2078 53.5463 37.7963 53.5463 37.2886V36.3694H50.7886V34.5308C50.7886 34.0231 50.377 33.6116 49.8693 33.6116Z" fill="black" fill-opacity="0.2"/>
    <path fill-rule="evenodd" clip-rule="evenodd" d="M49.8693 32.6924C49.3617 32.6924 48.9501 33.1039 48.9501 33.6116V35.4501H47.1116C46.6039 35.4501 46.1924 35.8617 46.1924 36.3694C46.1924 36.8771 46.6039 37.2886 47.1116 37.2886H48.9501V39.1271C48.9501 39.6348 49.3617 40.0463 49.8693 40.0463C50.377 40.0463 50.7886 39.6348 50.7886 39.1271V37.2886H52.6271C53.1347 37.2886 53.5463 36.8771 53.5463 36.3694C53.5463 35.8617 53.1347 35.4501 52.6271 35.4501H50.7886V33.6116C50.7886 33.1039 50.377 32.6924 49.8693 32.6924Z" fill="url(#paint4_linear)"/>
    <path d="M45.6081 41.3004L42.7189 38.4112C41.6419 37.3342 41.6419 35.5881 42.7189 34.5112L48.0113 29.2188C49.0882 28.1418 50.8343 28.1418 51.9113 29.2188L54.8005 32.108C55.073 32.3805 54.916 32.8724 54.5411 32.962C52.459 33.46 47.5382 35.2361 46.4272 41.0279C46.3546 41.4064 45.8806 41.5729 45.6081 41.3004Z" fill="url(#paint5_linear)" fill-opacity="0.7"/>
    <path fill-rule="evenodd" clip-rule="evenodd" d="M37 98.2935V73C37 72.4477 37.4477 72 38 72H62C62.5523 72 63 72.4477 63 73V98.2935C58.879 99.4 54.5477 99.9931 50.079 100C50.0527 100 50.0263 100 50 100C49.9737 100 49.9473 100 49.921 100C45.4523 99.9931 41.121 99.4 37 98.2935Z" fill="url(#paint6_linear)"/>
    <path fill-rule="evenodd" clip-rule="evenodd" d="M85 85.7078C78.9573 91.6315 71.4172 96.0334 63 98.2935V78H84C84.5523 78 85 78.4477 85 79V85.7078Z" fill="url(#paint7_linear)"/>
    <path fill-rule="evenodd" clip-rule="evenodd" d="M15 85.7078V79C15 78.4477 15.4477 78 16 78H37V98.2935C28.5828 96.0334 21.0427 91.6315 15 85.7078Z" fill="url(#paint8_linear)"/>
    <path d="M74.9278 84.7636C75.3238 84.8758 75.6307 85.0804 75.8485 85.3774C76.0729 85.6744 76.1851 86.034 76.1851 86.4564C76.1851 87.0702 75.9409 87.5553 75.4525 87.9116C74.9707 88.2614 74.3108 88.4363 73.4726 88.4363C72.9776 88.4363 72.5025 88.3703 72.0471 88.2383C71.5917 88.0997 71.2287 87.9182 70.9581 87.6939L71.5224 86.4069C72.1428 86.8227 72.7632 87.0306 73.3835 87.0306C73.7795 87.0306 74.06 86.9712 74.225 86.8524C74.3966 86.7336 74.4824 86.5356 74.4824 86.2584C74.4824 86.001 74.3999 85.8162 74.2349 85.7041C74.0699 85.5919 73.7993 85.5358 73.4231 85.5358H72.3441V84.13H73.2449C73.6079 84.13 73.8719 84.0772 74.0369 83.9716C74.2019 83.866 74.2844 83.6978 74.2844 83.4668C74.2844 83.2226 74.2052 83.0345 74.0468 82.9025C73.895 82.7639 73.6772 82.6946 73.3934 82.6946C73.1162 82.6946 72.8226 82.7507 72.5124 82.8629C72.2022 82.9685 71.9052 83.1203 71.6214 83.3183L71.0571 82.0313C71.3343 81.807 71.6973 81.6288 72.1461 81.4968C72.6015 81.3582 73.0634 81.2889 73.532 81.2889C74.027 81.2889 74.4593 81.3681 74.8288 81.5265C75.205 81.6849 75.4954 81.9092 75.7 82.1996C75.9046 82.49 76.0069 82.8266 76.0069 83.2094C76.0069 83.579 75.9112 83.899 75.7198 84.1696C75.535 84.4402 75.271 84.6382 74.9278 84.7636Z" fill="white"/>
    <path d="M28.2099 86.9118V88.3571H23.2899V87.0108L25.5668 84.6448C26.0024 84.1894 26.2201 83.7704 26.2201 83.3876C26.2201 82.9256 25.9463 82.6946 25.3985 82.6946C25.1345 82.6946 24.8474 82.7507 24.5372 82.8629C24.2336 82.9685 23.9268 83.1203 23.6166 83.3183L23.0523 82.0313C23.3295 81.807 23.6892 81.6288 24.1313 81.4968C24.5801 81.3582 25.0355 81.2889 25.4975 81.2889C25.9991 81.2889 26.4379 81.3714 26.8141 81.5364C27.1969 81.6948 27.4906 81.9224 27.6952 82.2194C27.8998 82.5164 28.0021 82.8629 28.0021 83.2589C28.0021 83.6615 27.9196 84.031 27.7546 84.3676C27.5962 84.6976 27.3223 85.0672 26.9329 85.4764L25.5272 86.9118H28.2099Z" fill="white"/>
    <path d="M51.1454 82.0932H52.8467V83.7381H47.3711V82.0932H49.0724V78.0485L47.7317 78.8146L46.9881 77.3275L49.6808 75.7952H51.1454V82.0932Z" fill="white"/>
</svg>
