<svg width="60" height="64" viewBox="0 0 60 64" fill="none" xmlns="http://www.w3.org/2000/svg">
    <path d="M33.5444 63.7928C32.3818 63.9297 31.1992 64 30 64C27.4951 64 25.0615 63.693 22.7354 63.1145C20.6899 63.2911 18.1821 63.395 15.4722 63.395C8.58398 63.395 3 62.7234 3 61.895C3 61.4952 4.30127 61.132 6.42188 60.863C6.19971 59.7181 6.80225 58.3967 8.229 58.2087C7.67529 56.7134 7.4292 55.2153 7.38818 53.7164C5.56494 51.6273 4.02686 49.2832 2.83398 46.7446C2.4585 46.9211 2.03174 46.9769 1.56738 46.863C-0.512207 46.3531 -0.336426 43.1833 1.01416 41.7625C0.352539 39.2865 0 36.6844 0 34C0 17.4314 13.4316 4 30 4C42.7012 4 53.5596 11.8934 57.936 23.0424C59.2686 26.4368 60 30.1329 60 34C60 38.6545 58.9399 43.0616 57.0483 46.9928C59.144 47.58 60.249 51.7427 57.8853 52.594C56.5659 53.0685 55.4219 52.0573 54.8853 50.7605C54.188 51.7937 53.4277 52.7811 52.6108 53.7174C52.5698 55.2161 52.3237 56.7137 51.77 58.2089C53.1777 58.395 53.7827 59.6843 53.5845 60.8184C57.5078 61.1492 60 61.644 60 62.197C60 63.1929 51.9194 64 41.9517 64C38.916 64 36.0552 63.9252 33.5444 63.7928Z" fill="black" fill-opacity="0.2"/>
    <path d="M15.472 59.395C22.3601 59.395 27.944 58.7234 27.944 57.895C27.944 57.0666 22.3601 56.395 15.472 56.395C8.5839 56.395 3 57.0666 3 57.895C3 58.7234 8.5839 59.395 15.472 59.395Z" fill="#0FB4D4"/>
    <path d="M41.9518 60C51.9194 60 59.9998 59.1928 59.9998 58.197C59.9998 57.2013 51.9194 56.394 41.9518 56.394C31.9842 56.394 23.9038 57.2013 23.9038 58.197C23.9038 59.1928 31.9842 60 41.9518 60Z" fill="#0FB4D4"/>
    <path d="M30 60C46.5685 60 60 46.5685 60 30C60 13.4315 46.5685 0 30 0C13.4315 0 0 13.4315 0 30C0 46.5685 13.4315 60 30 60Z" fill="#FDCA47"/>
    <path d="M49.6542 7.34595C54.2252 12.6119 57.0002 19.4809 57.0002 26.9999C57.0002 43.5679 43.5682 56.9999 27.0002 56.9999C19.776 57.0092 12.7933 54.3993 7.34619 49.6539C12.8462 55.9899 20.9522 59.9999 30.0002 59.9999C46.5682 59.9999 60.0002 46.5679 60.0002 29.9999C60.0002 20.9539 55.9882 12.8479 49.6542 7.34595Z" fill="#F9B700"/>
    <path fill-rule="evenodd" clip-rule="evenodd" d="M4.41787 18.5C3.30087 22.243 10.9999 8.99996 22.9999 4.08397C28.8339 1.69396 9.16787 2.58396 4.41787 18.5Z" fill="#FFE8BB"/>
    <path d="M42.7361 44C41.3411 40.406 37.9571 38 29.9981 38C22.0431 38 18.6561 40.406 17.2641 44C16.5201 45.92 17.5841 49 17.5841 49C20.7401 58.219 24.9001 49 30.0001 49C35.0831 49 39.2591 58.219 42.4141 49C42.4141 49 43.4801 45.92 42.7361 44Z" fill="#302C3B"/>
    <path d="M38.9732 42.965C39.0452 42.705 38.9692 42.346 38.8032 42.168C38.8032 42.168 36.7912 40 29.9992 40C23.2082 40 21.1982 42.168 21.1982 42.168C21.0342 42.346 20.9562 42.705 21.0262 42.965L21.1802 43.528C21.2522 43.787 21.4872 44 21.7042 44H38.2952C38.5122 44 38.7482 43.787 38.8182 43.527L38.9732 42.965Z" fill="white"/>
    <path d="M42.4321 58.469H49.2661C57.4671 48.553 47.7231 38.444 50.1641 28.67L43.3301 31.215C40.1801 40.705 50.6331 48.553 42.4321 58.469Z" fill="#0FB4D4"/>
    <path d="M48.2212 44.5079C51.0752 48.7269 46.6582 36.8829 48.2112 30.3199L45.0232 31.5269C43.9082 37.1329 46.6662 42.2069 48.2212 44.5079Z" fill="#75D6FF"/>
    <path d="M51.4138 58.602C48.4708 58.602 48.4708 54.186 51.4138 54.186C54.3568 54.186 54.3568 58.602 51.4138 58.602ZM43.8298 58.936C40.8868 58.936 40.8868 54.52 43.8298 54.52C46.7748 54.52 46.7748 58.936 43.8298 58.936Z" fill="#0FB4D4"/>
    <path d="M49.2052 56.07C49.9962 52.466 48.1582 52.32 46.5962 55.74C44.6372 54.972 43.7412 58.345 45.9692 58.345H49.0732C51.3772 58.346 50.6272 55.414 49.2052 56.07Z" fill="#75D6FF"/>
    <path d="M17.5669 58.469H10.7329C2.5319 48.553 12.2759 38.444 9.8349 28.67L16.6689 31.215C19.8189 40.705 9.3659 48.553 17.5669 58.469Z" fill="#0FB4D4"/>
    <path d="M10.793 46.4449C7.93903 50.6639 13.34 36.8819 11.787 30.3199L14.976 31.5269C16.09 37.1329 12.35 44.1449 10.793 46.4449Z" fill="#75D6FF"/>
    <path d="M8.5842 58.602C11.5292 58.602 11.5292 54.186 8.5842 54.186C5.6412 54.186 5.6412 58.602 8.5842 58.602ZM16.1682 58.936C19.1112 58.936 19.1112 54.52 16.1682 54.52C13.2252 54.52 13.2252 58.936 16.1682 58.936Z" fill="#0FB4D4"/>
    <path d="M10.7931 56.07C10.0021 52.466 11.8401 52.32 13.4021 55.74C15.3611 54.972 16.2571 58.345 14.0291 58.345H10.9251C8.62208 58.346 9.37208 55.414 10.7931 56.07Z" fill="#75D6FF"/>
    <path d="M57.885 48.5939C55.115 49.5899 53.119 44.0389 55.889 43.0429C58.66 42.0469 60.656 47.5959 57.885 48.5939Z" fill="#0FB4D4"/>
    <path fill-rule="evenodd" clip-rule="evenodd" d="M55.3381 46.758C55.8051 47.42 55.9011 45.545 56.1191 43.854C56.2601 42.766 53.9281 44.764 55.3381 46.758Z" fill="#75D6FF"/>
    <path d="M1.56724 42.863C-1.29176 42.162 0.11224 36.433 2.97124 37.134C5.83024 37.835 4.42624 43.564 1.56724 42.863Z" fill="#0FB4D4"/>
    <path fill-rule="evenodd" clip-rule="evenodd" d="M0.457835 39.9259C0.480835 40.7369 1.59884 39.2269 2.71384 37.9379C3.43184 37.1089 0.384835 37.4839 0.457835 39.9259Z" fill="#75D6FF"/>
    <path d="M33.9138 28.275C38.1268 36.228 46.6088 36.226 50.8238 28.275C51.0328 27.875 50.4838 27.695 49.8138 27.24C45.5888 30.56 38.7548 30.253 34.9228 27.242C34.2538 27.696 33.7068 27.875 33.9138 28.275ZM9.17576 28.275C13.3908 36.228 21.8728 36.226 26.0878 28.275C26.2948 27.875 25.7478 27.695 25.0778 27.24C20.8528 30.56 14.0168 30.253 10.1848 27.242C9.51576 27.696 8.96876 27.875 9.17576 28.275Z" fill="#302C3B"/>
    <path d="M9.45398 23.169C14.696 23.406 20.665 21.196 22.942 18.404C23.419 17.813 22.221 15.343 21.758 15.782C18.197 19.161 13.362 21.501 8.50998 21.593C7.85998 21.606 8.66698 23.134 9.45398 23.169ZM50.541 23.167C45.299 23.405 39.332 21.196 37.055 18.403C36.575 17.815 37.776 15.341 38.239 15.782C41.8 19.158 46.635 21.501 51.485 21.592C52.137 21.604 51.33 23.133 50.541 23.167Z" fill="#917524"/>
</svg>