<svg width="61" height="64" viewBox="0 0 61 64" fill="none" xmlns="http://www.w3.org/2000/svg">
    <path d="M47.7163 34.438C49.2607 37.9653 50.1143 41.1122 50.3984 43.8988C52.5771 42.7957 53.3081 41.845 53.3081 41.845C54.6592 45.646 60.001 48.683 60.001 48.683C59.6729 48.8851 59.3452 49.0804 59.0176 49.269L59.9478 49.908L59.7998 53.2419L57.9229 53.7421C57.6655 53.9069 57.4082 54.0676 57.1509 54.2242L58.126 54.791V58L38.4399 64L33.5933 61.4312C30.6953 61.6462 27.6973 61.4303 24.8379 60.8235L19.79 64L0.204102 58.7831L0.0532227 55.4491L0.985352 54.809C0.657227 54.6201 0.328613 54.4244 0 54.222C0 54.222 5.3418 51.1851 6.69482 47.384C6.69482 47.384 7.45166 48.3678 9.71777 49.495C9.19531 47.6395 9.14746 45.5979 9.69727 43.3906C10.9971 35.0259 16.1221 24.7443 22.9189 20.2017C21.8789 19.5875 21.7212 17.5846 22.4507 17.1039C18.7607 14.1478 15.311 9.66846 17.6548 4.69055C17.6978 4.54565 17.8467 4.55103 18.1182 4.76196C21.3726 7.29102 23.6172 6.25452 25.9209 5.19104C27.2017 4.59973 28.5005 4 30.001 4C31.5972 4 32.8486 4.73511 34.0381 5.43384C35.9639 6.56482 37.7275 7.60059 40.5283 5.26904C41.5762 4.39624 42.022 4.23621 42.0459 4.46399C44.1797 10.323 41.0034 14.2208 37.3921 17.0393C38.2803 17.364 38.2085 19.5828 37.1016 20.2141C41.5679 23.2067 45.3105 28.6763 47.7183 34.4484L47.7163 34.438Z" fill="black" fill-opacity="0.2"/>
    <path d="M34.759 14.911C39.152 11.995 44.697 7.74299 42.046 0.463989C42.046 0.463989 37.519 5.38799 33.849 2.19399L21.583 3.68099L17.675 0.647989C14.714 6.85299 20.769 12.289 25.103 14.974C16.078 19.103 9.37598 33.729 9.37598 43.282C9.37598 54.497 50.626 54.497 50.626 43.282C50.626 33.678 43.855 18.951 34.759 14.911Z" fill="#E5BC5E"/>
    <path d="M47.7161 30.438C52.4001 53.307 14.6721 55.685 9.71208 39.332C3.82908 62.541 63.9461 67.504 47.7161 30.438ZM40.5281 1.269C35.9971 5.041 34.1811 0 30.0011 0C25.8011 0 23.1821 4.697 18.1181 0.762C16.6221 -0.4 18.8451 4.674 22.0361 6.769C24.3761 8.308 23.9661 0.195 29.5031 6.617C31.1701 8.549 32.7501 0.351 34.4571 3.078C37.5851 8.077 45.2981 -2.703 40.5281 1.269Z" fill="#C49A45"/>
    <path d="M49.0952 48.404L48.9702 51.207L52.2692 50.328L52.4002 47.385C52.3992 47.385 50.4562 48.064 49.0952 48.404ZM10.9992 54.66L11.2102 57.215L7.90122 56.514L7.67822 53.832C7.67822 53.832 8.97322 54.279 10.9992 54.66Z" fill="#D99025"/>
    <path d="M28.4518 44.646C27.1334 44.5658 25.8564 44.1548 24.7388 43.451L25.8598 40.773C32.7038 44.582 34.1398 38.453 28.7958 36.752C24.1748 35.279 22.8368 28.874 28.4518 27.431V25.351H31.1238L31.1118 27.316C32.5438 27.455 33.6098 27.798 34.3088 28.351L33.3868 30.925C27.0678 27.431 26.1658 33.166 31.0648 34.774C35.8788 36.356 37.3718 43.372 31.1238 44.44V47.083H28.4518V44.646Z" fill="#785647"/>
    <path d="M29.729 51.715V55.383L38.44 60L58.126 54V50.791L50.94 46.615L29.729 51.715Z" fill="#529320"/>
    <path d="M30.001 49.611C30.001 49.611 32.287 53.193 38.632 56.306C38.632 56.306 48.534 55.839 58.126 49.611C58.126 49.611 48.712 47.193 30.001 49.611Z" fill="#92C932"/>
    <path d="M39.46 48.48C39.46 48.48 40.331 50.669 46.651 54.796V57.495L50.288 56.388V53.577C50.288 53.577 45.88 50.546 43.253 47.464L39.46 48.48Z" fill="#F9C802"/>
    <path d="M46.6509 54.797V57.496L50.2879 56.389V53.578C50.2879 53.578 49.2709 54.121 46.6509 54.797Z" fill="#D99025"/>
    <path d="M32.046 45.404L31.876 49.215L40.214 54.461L59.8 49.242L59.948 45.908L53.091 41.199L32.046 45.404Z" fill="#529320"/>
    <path d="M32.4131 43.234C32.4131 43.234 34.4891 47.072 40.5671 50.634C40.5671 50.634 50.3051 50.659 60.0011 44.683C60.0011 44.683 54.6591 41.646 53.3081 37.845C53.3081 37.846 49.3531 42.988 32.4131 43.234Z" fill="#92C932"/>
    <path d="M42.341 49.5861C42.341 49.5861 41.437 48.1371 39.452 48.8241L34.54 44.9671C36.794 44.9061 35.79 43.8131 35.79 43.8131C47.13 43.5021 51.561 40.1801 51.561 40.1801C51.561 40.1801 52.612 41.4631 54.108 40.9281L57.079 43.8381C57.079 43.8381 55.366 44.4731 57.286 45.2151C57.286 45.2151 51.515 48.6561 42.341 49.5861ZM42.792 48.5701C44.315 48.2911 51.446 46.9311 55.396 45.1311C54.812 44.5881 55.177 43.8671 55.501 43.7461C55.001 43.3181 54.204 42.6001 53.708 41.9761C52.862 42.1361 51.862 41.8281 51.427 41.4561C50.3 42.1831 46.411 44.1861 37.165 44.6751C37.165 44.6751 37.423 45.2221 36.589 45.3941L39.677 47.8201C39.897 47.7791 41.599 47.2711 42.792 48.5701Z" fill="#529320"/>
    <path d="M42.04 42.426C42.04 42.426 44.327 45.399 49.095 49.326L48.97 52.129L52.269 51.25L52.4 48.307C52.4 48.307 47.486 43.707 46.32 41.463C46.319 41.463 44.689 42.049 42.04 42.426Z" fill="#F9C802"/>
    <path d="M27.9562 50.943L28.1262 54.754L19.7902 60L0.204223 54.783L0.0532227 51.449L6.91122 46.738L27.9562 50.943Z" fill="#529320"/>
    <path d="M27.59 48.773C27.59 48.773 25.512 52.611 19.434 56.173C19.434 56.173 9.696 56.198 0 50.222C0 50.222 5.342 47.185 6.695 43.384C6.696 43.385 10.651 48.529 27.59 48.773Z" fill="#92C932"/>
    <path d="M2.71484 50.754C4.63484 50.012 2.92384 49.377 2.92384 49.377L5.89484 46.467C7.38884 47.004 8.44184 45.719 8.44184 45.719C8.44184 45.719 12.8738 49.041 24.2128 49.352C24.2128 49.352 23.2088 50.446 25.4628 50.506L20.5488 54.365C18.5668 53.676 17.6618 55.125 17.6618 55.125C8.48884 54.195 2.71484 50.754 2.71484 50.754ZM20.3268 53.361L23.4148 50.933C22.5808 50.761 22.8388 50.216 22.8388 50.216C13.5928 49.726 9.70184 47.724 8.57484 46.995C8.13884 47.368 7.14084 47.675 6.29584 47.516C5.79984 48.139 5.00284 48.856 4.50084 49.286C4.82484 49.405 5.19184 50.126 4.60784 50.669C8.55484 52.47 15.6858 53.831 17.2118 54.108C18.4048 52.811 20.1058 53.318 20.3268 53.361Z" fill="#529320"/>
    <path d="M17.963 47.967C17.963 47.967 15.674 50.938 10.908 54.865L11.033 57.67L7.73203 56.789L7.60303 53.846C7.60303 53.846 12.515 49.246 13.681 47.004C13.682 47.004 15.315 47.59 17.963 47.967Z" fill="#F9C802"/>
    <path d="M36.716 16.357C32.2944 17.213 27.7496 17.213 23.328 16.357C21.691 16.04 21.566 12.747 22.964 13.015C26.822 13.765 33.146 13.765 37.004 13.015C38.401 12.747 38.353 16.04 36.716 16.357Z" fill="#785647"/>
</svg>