<svg width="60" height="64" viewBox="0 0 60 64" fill="none" xmlns="http://www.w3.org/2000/svg">
    <path d="M30 64C46.5685 64 60 50.5685 60 34C60 17.4315 46.5685 4 30 4C13.4315 4 0 17.4315 0 34C0 50.5685 13.4315 64 30 64Z" fill="black" fill-opacity="0.2"/>
    <path d="M30 60C46.5685 60 60 46.5685 60 30C60 13.4315 46.5685 0 30 0C13.4315 0 0 13.4315 0 30C0 46.5685 13.4315 60 30 60Z" fill="#FDCA47"/>
    <path d="M49.6539 7.34595C54.3988 12.7934 57.0086 19.7758 56.9999 26.9999C56.9999 43.5679 43.5679 56.9999 26.9999 56.9999C19.7758 57.0088 12.7933 54.399 7.34595 49.6539C12.8459 55.9899 20.9519 59.9999 29.9999 59.9999C46.5679 59.9999 59.9999 46.5679 59.9999 29.9999C59.9999 20.9529 55.9879 12.8479 49.6539 7.34595V7.34595Z" fill="#F9B700"/>
    <path fill-rule="evenodd" clip-rule="evenodd" d="M4.41794 18.5C3.30194 22.242 10.9999 9.00002 22.9999 4.08402C28.8339 1.69302 9.16794 2.58402 4.41794 18.5V18.5Z" fill="#FFE8BB"/>
    <path d="M45.876 35C45.556 35 39.226 37 30.001 37C20.774 37 14.445 35 14.125 35C13.392 35 13 35.508 13 36C13 43.271 18.96 51 30.001 51C41.042 51 47.001 43.271 47.001 36C47.001 35.508 46.609 35 45.876 35V35Z" fill="#302C3B"/>
    <path d="M20.001 42.85V46.844C20.001 55.602 24.48 59.996 30.001 60C35.522 59.996 40.001 55.602 40.001 46.844V42.85C40.001 37.618 30.001 40.004 30.001 40.004C30.001 40.004 20.001 37.617 20.001 42.85V42.85Z" fill="#529320"/>
    <path d="M21.001 42.596V46.291C21.001 54.391 25.026 58.457 30.001 58.459C34.976 58.457 39.001 54.391 39.001 46.291V42.596C39.001 37.754 30.001 39.963 30.001 39.963C30.001 39.963 21.001 37.754 21.001 42.596V42.596Z" fill="#92C932"/>
    <path d="M28.6449 46.4841C28.6449 44.8061 32.1489 45.6131 33.3289 46.7521C34.0239 45.5631 33.6949 44.5611 33.6949 44.5611C33.6949 44.5611 32.6799 43.8191 31.1869 43.5321L31.185 41.9711C29.959 41.5781 28.6429 41.9711 28.6429 41.9711V43.4201C28.6429 43.4201 26.2259 43.8831 26.2259 46.4841C26.2259 49.8511 31.1869 49.2011 31.1869 51.3691C31.1869 52.9531 27.8569 52.2931 26.2259 51.0311C25.9257 51.7936 25.9257 52.6416 26.2259 53.4041C27.4319 53.9551 28.6419 54.1111 28.6419 54.1111L28.6449 55.4761C28.6449 55.4761 29.9599 55.8961 31.1869 55.4761V54.0201C31.1869 54.0201 34.0009 53.8581 34.0009 51.3701C34.0009 48.1371 28.6449 48.4181 28.6449 46.4841V46.4841Z" fill="white"/>
    <path d="M16.969 18.759C16.969 16.342 22.221 17.505 23.992 19.146C25.036 17.433 24.54 15.989 24.54 15.989C24.54 15.989 23.019 14.914 20.78 14.501L20.773 12.253C18.938 11.686 16.962 12.253 16.962 12.253V14.345C16.962 14.345 13.337 15.008 13.337 18.76C13.337 23.619 20.778 22.68 20.778 25.809C20.778 28.088 15.78 27.142 13.337 25.321C12.577 27.158 13.337 28.745 13.337 28.745C14.4961 29.2384 15.7137 29.5809 16.96 29.764L16.968 31.737C16.968 31.737 18.94 32.338 20.779 31.737V29.63C20.779 29.63 25 29.396 25 25.808C25 21.146 16.969 21.547 16.969 18.759ZM38.967 18.761C38.967 16.342 44.22 17.505 45.992 19.146C47.037 17.434 46.539 15.99 46.539 15.99C46.539 15.99 45.018 14.914 42.78 14.501L42.773 12.253C40.937 11.687 38.962 12.253 38.962 12.253V14.345C38.962 14.345 35.337 15.012 35.337 18.762C35.337 23.619 42.778 22.68 42.778 25.809C42.778 28.09 37.781 27.142 35.337 25.321C34.577 27.158 35.337 28.747 35.337 28.747C37.147 29.538 38.96 29.764 38.96 29.764L38.966 31.734C38.966 31.734 40.94 32.338 42.779 31.734V29.63C42.779 29.63 47 29.396 47 25.808C47 21.143 38.967 21.552 38.967 18.761Z" fill="#302C3B"/>
</svg>
