<svg width="60" height="64" viewBox="0 0 60 64" fill="none" xmlns="http://www.w3.org/2000/svg">
    <path d="M1.32283 13.832C-1.53899 9.29895 1.13386 4 1.13386 4C3.72029 7.53186 8.31209 9.50525 12.8136 11.4398C18.9708 14.0859 24.9591 16.6594 25.4161 23.0491C29.442 18.8882 33.088 14.4122 36.3052 9.66504C42.022 14.884 47.7384 20.103 53.4532 25.3251C53.2379 25.6425 53.0206 25.9587 52.8018 26.2737L53.4049 26.8241C53.7432 29.135 54.0543 31.426 54.3341 33.697C52.3043 36.499 49.9722 39.2236 47.4166 41.8495C49.5811 44.2549 51.0587 47.6936 52.5601 51.1866C54.4947 55.6884 56.4683 60.2803 60.0001 62.8671C60.0001 62.8671 54.7012 65.5391 50.168 62.675C50.168 62.675 44.2139 64.769 40.8023 60.39C35.669 59.6481 34.3297 56.8168 33.9962 53.4337C28.6251 57.4012 22.9503 60.9617 17.399 64L7.41468e-05 48.11C0.310621 46.8517 0.606031 45.5896 0.886793 44.3242L0.988355 43.8624L1.14607 43.1331L1.58894 42.8646L1.85994 42.6996L2.26277 42.4519L1.33015 41.6001C7.22175 38.2714 12.732 34.4401 17.7906 30.1703C16.6856 30.0854 15.5279 30.0947 14.3702 30.1041C9.49763 30.1437 4.61873 30.1832 3.60896 23.199C-0.768969 19.787 1.32283 13.832 1.32283 13.832Z" fill="black" fill-opacity="0.2"/>
    <path d="M53.405 22.824L36.585 7.46704C28.377 19.976 14.425 31.112 1.146 39.133C0.789871 40.7979 0.407825 42.4571 0 44.11L17.399 60C31.099 52.502 45.549 41.824 54.334 29.697C54.054 27.426 53.743 25.135 53.405 22.824Z" fill="#529320"/>
    <path d="M18.4791 53.26L1.33008 37.6C15.5321 29.576 27.5161 18.632 36.3051 5.66504C42.0221 10.884 47.7381 16.103 53.4531 21.325C44.6661 34.291 32.6811 45.234 18.4791 53.26Z" fill="#92C932"/>
    <path d="M17.0341 49.838C13.2211 46.358 9.41107 42.879 5.60107 39.398C5.83507 39.261 6.06807 39.122 6.30307 38.985C7.07307 38.529 7.17707 37.676 6.54707 37.101C6.35807 36.926 6.16607 36.752 5.97607 36.577C17.4971 29.491 27.4211 20.428 35.1831 9.90804C35.3731 10.082 35.5641 10.257 35.7541 10.429C36.3851 11.006 37.3181 10.908 37.8191 10.206L38.2721 9.56604L49.7051 20.005L49.2511 20.645C48.7511 21.35 48.8431 22.383 49.4741 22.958C49.6651 23.134 49.8561 23.307 50.0461 23.48C42.2861 33.999 32.3601 43.063 20.8391 50.151L20.2681 49.625C19.6391 49.053 18.5051 48.966 17.7371 49.424C17.5011 49.564 17.2691 49.701 17.0341 49.838ZM8.07007 39.544L17.3601 48.027C18.5441 47.629 19.9341 47.722 20.9861 48.298C31.5301 41.608 40.6921 33.241 48.0221 23.61C47.3911 22.652 47.2851 21.382 47.7231 20.3L38.4321 11.816C38.0209 12.1575 37.5176 12.3692 36.986 12.4242C36.4544 12.4792 35.9184 12.3751 35.4461 12.125C28.1161 21.755 18.9531 30.123 8.40707 36.815C8.96207 37.705 8.83807 38.764 8.07007 39.544Z" fill="#529320"/>
    <path d="M23 36C16.182 29.771 28.184 19.769 35 26C42.351 32.71 30.352 42.71 23 36Z" fill="#529320"/>
    <path d="M17.9678 26.0081L35.1178 41.6671C37.0601 40.0203 38.9414 38.3028 40.7578 36.5181L23.6098 20.8571C21.7925 22.6422 19.9106 24.3603 17.9678 26.0081Z" fill="#FFE12C"/>
    <path fill-rule="evenodd" clip-rule="evenodd" d="M22.854 27.1689C17.519 22.5169 6.19801 29.9069 4.46801 19.3089C4.46801 19.3089 -0.185989 15.5659 2.51801 10.2839C2.51801 10.2839 -0.406989 7.57795 1.43501 1.19495C9.34201 11.4779 31.482 8.49095 22.854 27.1689Z" fill="white"/>
    <path d="M1.76592 2.843C7.98892 10.818 29.6019 9.112 22.5249 26C17.3839 22.438 7.54792 27.698 5.53892 20.581C5.53892 20.581 9.24692 21.648 10.9769 20.252C5.56792 19.843 1.39892 17.036 2.51992 11.523C4.09592 13.954 9.18492 14.421 9.18492 14.421C9.18492 14.421 -0.345081 10.535 1.76592 2.843ZM1.13392 0C1.13392 0 -1.53908 5.299 1.32292 9.832C1.32292 9.832 -0.76908 15.787 3.60892 19.199C5.31592 31.008 18.0849 22.737 23.1829 28.338C32.8969 7.39 8.61892 10.221 1.13392 0Z" fill="#BEC3CF"/>
    <path fill-rule="evenodd" clip-rule="evenodd" d="M58.806 58.564C52.422 60.408 49.717 57.482 49.717 57.482C44.434 60.187 40.692 55.533 40.692 55.533C30.094 53.803 37.484 42.48 32.832 37.146C51.509 28.517 48.522 50.658 58.806 58.564Z" fill="white"/>
    <path d="M57.1571 58.234C49.4651 60.343 45.5771 50.814 45.5771 50.814C45.5771 50.814 46.0451 55.904 48.4761 57.48C42.9631 58.601 40.1561 54.431 39.7471 49.023C38.3511 50.753 39.4181 54.461 39.4181 54.461C32.3011 52.451 37.5611 42.615 33.9981 37.475C50.8881 30.398 49.1831 52.01 57.1571 58.234ZM31.6621 36.816C37.2641 41.916 28.9921 54.683 40.8021 56.39C44.2141 60.769 50.1681 58.675 50.1681 58.675C54.7011 61.539 60.0001 58.867 60.0001 58.867C49.7791 51.381 52.6091 27.102 31.6621 36.816Z" fill="#BEC3CF"/>
</svg>