<svg width="60" height="64" viewBox="0 0 60 64" fill="none" xmlns="http://www.w3.org/2000/svg">
    <path d="M30 64C46.5685 64 60 50.5685 60 34C60 17.4315 46.5685 4 30 4C13.4315 4 0 17.4315 0 34C0 50.5685 13.4315 64 30 64Z" fill="black" fill-opacity="0.2"/>
    <path d="M30 60C46.5685 60 60 46.5685 60 30C60 13.4315 46.5685 0 30 0C13.4315 0 0 13.4315 0 30C0 46.5685 13.4315 60 30 60Z" fill="#FDCA47"/>
    <path d="M49.654 7.34595C54.3989 12.7934 57.0087 19.7758 57 26.9999C57 43.5679 43.568 56.9999 27 56.9999C19.7759 57.0086 12.7934 54.3988 7.34601 49.6539C12.847 55.9899 20.953 59.9999 30 59.9999C46.568 59.9999 60 46.5679 60 29.9999C60 20.9529 55.989 12.8479 49.654 7.34595V7.34595Z" fill="#F9B700"/>
    <path fill-rule="evenodd" clip-rule="evenodd" d="M4.41801 18.5C3.30301 22.242 11.001 9.00002 23.001 4.08402C28.834 1.69302 9.16801 2.58402 4.41801 18.5V18.5Z" fill="#FFE8BB"/>
    <path d="M35.252 47.002C34.053 47.126 32.492 47.248 30 47.248C27.51 47.248 25.947 47.126 24.748 47.002C23.713 46.892 23.795 51.922 24.73 52.403C25.619 52.862 28.537 53.143 29.334 52.924C30.002 52.736 30 52.321 30 52.321C30 52.321 29.996 52.736 30.666 52.924C31.463 53.144 34.381 52.862 35.27 52.403C36.205 51.922 36.289 46.892 35.252 47.002V47.002ZM44 17.103C40.025 17.103 36.512 19.042 34.328 22.021C31.539 20.742 28.258 20.869 25.68 22.03C23.496 19.047 19.979 17.103 16 17.103C9.373 17.103 4 22.474 4 29.103C4 35.73 9.373 41.103 16 41.103C22.629 41.103 28 35.73 28 29.103C28 27.826 27.797 26.597 27.428 25.443C28.975 24.994 31.03 24.996 32.574 25.444C32.1933 26.6264 31.9996 27.8609 32 29.103C32 35.73 37.373 41.103 44 41.103C50.627 41.103 56 35.73 56 29.103C56 22.474 50.627 17.103 44 17.103ZM16 38.103C14.8102 38.1155 13.6297 37.8919 12.5269 37.4452C11.424 36.9985 10.4207 36.3376 9.57495 35.5006C8.7292 34.6636 8.05781 33.6672 7.59963 32.5691C7.14145 31.471 6.90557 30.2929 6.90563 29.103C6.9057 27.9131 7.14171 26.7351 7.60002 25.637C8.05832 24.5389 8.72982 23.5426 9.57566 22.7058C10.4215 21.8689 11.4249 21.208 12.5278 20.7614C13.6307 20.3149 14.8112 20.0914 16.001 20.104C18.3714 20.1291 20.6361 21.0884 22.3034 22.7735C23.9707 24.4587 24.9058 26.7335 24.9056 29.104C24.9055 31.4745 23.9701 33.7493 22.3027 35.4342C20.6353 37.1191 18.3704 38.0782 16 38.103V38.103ZM44 38.103C42.8102 38.1155 41.6297 37.8919 40.5269 37.4452C39.424 36.9985 38.4207 36.3376 37.5749 35.5006C36.7292 34.6636 36.0578 33.6672 35.5996 32.5691C35.1415 31.471 34.9056 30.2929 34.9056 29.103C34.9057 27.9131 35.1417 26.7351 35.6 25.637C36.0583 24.5389 36.7298 23.5426 37.5757 22.7058C38.4215 21.8689 39.4249 21.208 40.5278 20.7614C41.6307 20.3149 42.8112 20.0914 44.001 20.104C46.3714 20.1291 48.6361 21.0884 50.3034 22.7735C51.9707 24.4587 52.9058 26.7335 52.9056 29.104C52.9055 31.4745 51.9701 33.7493 50.3027 35.4342C48.6353 37.1191 46.3704 38.0782 44 38.103Z" fill="#E8A329"/>
    <path d="M17.5 32.5C19.433 32.5 21 30.4853 21 28C21 25.5147 19.433 23.5 17.5 23.5C15.567 23.5 14 25.5147 14 28C14 30.4853 15.567 32.5 17.5 32.5Z" fill="#302C3B"/>
    <path d="M42.5 32.5C44.433 32.5 46 30.4853 46 28C46 25.5147 44.433 23.5 42.5 23.5C40.567 23.5 39 25.5147 39 28C39 30.4853 40.567 32.5 42.5 32.5Z" fill="#302C3B"/>
    <path d="M44 16C40.025 16 36.512 17.939 34.328 20.918C31.539 19.639 28.258 19.766 25.68 20.927C23.496 17.943 19.979 16 16 16C9.373 16 4 21.371 4 28C4 34.627 9.373 40 16 40C22.629 40 28 34.627 28 28C28 26.723 27.797 25.494 27.428 24.34C28.975 23.891 31.03 23.893 32.574 24.341C32.1934 25.5233 31.9997 26.7579 32 28C32 34.627 37.373 40 44 40C50.627 40 56 34.627 56 28C56 21.371 50.627 16 44 16ZM16 37C14.8102 37.0125 13.6297 36.7889 12.5269 36.3422C11.424 35.8955 10.4207 35.2345 9.57495 34.3976C8.7292 33.5606 8.05781 32.5642 7.59963 31.4661C7.14145 30.368 6.90557 29.1899 6.90563 28C6.9057 26.8101 7.14171 25.6321 7.60002 24.534C8.05832 23.4359 8.72982 22.4396 9.57566 21.6027C10.4215 20.7659 11.4249 20.105 12.5278 19.6584C13.6307 19.2118 14.8112 18.9884 16.001 19.001C18.3714 19.0261 20.6361 19.9854 22.3034 21.6705C23.9707 23.3556 24.9058 25.6305 24.9056 28.001C24.9055 30.3715 23.9701 32.6463 22.3027 34.3312C20.6353 36.0161 18.3704 36.9751 16 37V37ZM44 37C42.8102 37.0125 41.6297 36.7889 40.5269 36.3422C39.424 35.8955 38.4207 35.2345 37.5749 34.3976C36.7292 33.5606 36.0578 32.5642 35.5996 31.4661C35.1415 30.368 34.9056 29.1899 34.9056 28C34.9057 26.8101 35.1417 25.6321 35.6 24.534C36.0583 23.4359 36.7298 22.4396 37.5757 21.6027C38.4215 20.7659 39.4249 20.105 40.5278 19.6584C41.6307 19.2118 42.8112 18.9884 44.001 19.001C46.3714 19.0261 48.6361 19.9854 50.3034 21.6705C51.9707 23.3556 52.9058 25.6305 52.9056 28.001C52.9055 30.3715 51.9701 32.6463 50.3027 34.3312C48.6353 36.0161 46.3704 36.9751 44 37ZM42.584 43.189C36.979 44.75 30 44.754 30 44.754C30 44.754 23.023 44.75 17.416 43.191C16.295 42.878 15.785 43.8 16.324 44.9C17.813 47.93 26.016 50 30 50C33.986 50 42.189 47.93 43.676 44.898C44.217 43.801 43.707 42.879 42.584 43.189V43.189Z" fill="#302C3B"/>
    <path d="M35.252 46.002C34.053 46.126 32.492 46.248 30 46.248C27.51 46.248 25.947 46.126 24.748 46.002C23.713 45.892 23.795 50.922 24.73 51.403C25.619 51.862 28.537 52.143 29.334 51.924C30.002 51.736 30 51.321 30 51.321C30 51.321 29.996 51.736 30.666 51.924C31.463 52.144 34.381 51.862 35.27 51.403C36.205 50.922 36.289 45.892 35.252 46.002V46.002Z" fill="white"/>
    <path opacity="0.3" d="M43.998 19C48.969 19 52.998 23.025 52.998 28C52.998 32.975 48.969 37 43.998 37C42.8162 37 41.646 36.7672 40.5542 36.3149C39.4623 35.8626 38.4703 35.1996 37.6347 34.3638C36.7992 33.5281 36.1364 32.5359 35.6844 31.444C35.2323 30.3521 34.9997 29.1818 35 28C34.9997 26.8182 35.2323 25.6479 35.6844 24.556C36.1364 23.4641 36.7992 22.4719 37.6347 21.6362C38.4703 20.8004 39.4623 20.1374 40.5542 19.6851C41.646 19.2328 42.8162 19 43.998 19V19Z" fill="#E6EBEF"/>
    <path opacity="0.3" d="M40.93 19.545C39.695 19.9937 38.5736 20.7079 37.6449 21.6374C36.7161 22.5668 36.0027 23.6888 35.555 24.924L40.93 19.545ZM47.617 19.756L35.766 31.604C36 32.131 36.282 32.641 36.608 33.116L49.125 20.6C48.6532 20.2668 48.1478 19.9839 47.617 19.756V19.756ZM50.596 21.883L37.893 34.592C38.278 34.944 38.692 35.26 39.135 35.559L51.563 23.114C51.2754 22.6776 50.952 22.2658 50.596 21.883ZM52.855 26.436L42.443 36.842C42.9577 36.9337 43.4792 36.9809 44.002 36.983H44.045C44.324 36.983 44.602 36.965 44.875 36.948L52.957 28.862C53.0374 28.0526 53.0031 27.2359 52.855 26.436" fill="white"/>
    <path opacity="0.3" d="M15.998 19C20.969 19 24.998 23.025 24.998 28C24.998 32.975 20.969 37 15.998 37C14.8162 37 13.646 36.7672 12.5542 36.3149C11.4623 35.8626 10.4703 35.1996 9.63475 34.3638C8.79918 33.5281 8.13643 32.5359 7.68436 31.444C7.23228 30.3521 6.99974 29.1818 7 28C6.99974 26.8182 7.23228 25.6479 7.68436 24.556C8.13643 23.4641 8.79918 22.4719 9.63475 21.6362C10.4703 20.8004 11.4623 20.1374 12.5542 19.6851C13.646 19.2328 14.8162 19 15.998 19V19Z" fill="#E6EBEF"/>
    <path opacity="0.3" d="M12.93 19.545C11.695 19.9937 10.5736 20.7079 9.64488 21.6374C8.71615 22.5668 8.00273 23.6888 7.55499 24.924L12.93 19.545ZM19.617 19.756L7.76599 31.604C7.99999 32.131 8.28199 32.641 8.60799 33.116L21.125 20.6C20.6532 20.2668 20.1478 19.9839 19.617 19.756V19.756ZM22.596 21.883L9.89299 34.592C10.278 34.944 10.692 35.26 11.135 35.559L23.563 23.114C23.2754 22.6776 22.952 22.2658 22.596 21.883V21.883ZM24.855 26.436L14.443 36.842C14.9577 36.9337 15.4792 36.9809 16.002 36.983H16.045C16.324 36.983 16.602 36.965 16.875 36.948L24.957 28.862C25.0374 28.0526 25.0031 27.2359 24.855 26.436" fill="white"/>
    <path d="M52.345 13.997C48.187 10.796 42.031 9.18296 38.566 10.165C37.834 10.373 37.399 13.085 38.031 12.991C42.885 12.266 48.189 13.122 52.215 15.829C52.754 16.192 52.97 14.478 52.345 13.997V13.997ZM7.65699 14C11.814 10.796 17.97 9.18396 21.437 10.166C22.167 10.372 22.603 13.087 21.97 12.991C17.117 12.268 11.813 13.122 7.78799 15.829C7.24699 16.195 7.03099 14.479 7.65699 14V14Z" fill="#917524"/>
</svg>
