<svg width="71" height="87" viewBox="0 0 71 87" fill="none" xmlns="http://www.w3.org/2000/svg">
    <defs>
        <linearGradient id="paint0_linear" x1="21.1687" y1="4.17114" x2="29.5326" y2="31.0485" gradientUnits="userSpaceOnUse">
            <stop offset="0.325967" stop-color="#E8F9FF"/>
            <stop offset="0.640884" stop-color="#2B86A4"/>
            <stop offset="0.895028" stop-color="#207C9A"/>
            <stop offset="1" stop-color="#005D7A"/>
        </linearGradient>
        <linearGradient id="paint1_linear" x1="30.2594" y1="18.7261" x2="42.5326" y2="27.7605" gradientUnits="userSpaceOnUse">
            <stop stop-color="#35CCFC"/>
            <stop offset="1" stop-color="#414CBE"/>
        </linearGradient>
        <linearGradient id="paint2_linear" x1="26.7385" y1="12.3516" x2="35.9434" y2="19.1274" gradientUnits="userSpaceOnUse">
            <stop stop-color="white"/>
            <stop offset="1" stop-color="white" stop-opacity="0"/>
        </linearGradient>
        <linearGradient id="paint3_linear" x1="29.252" y1="13.5846" x2="29.252" y2="23.8675" gradientUnits="userSpaceOnUse">
            <stop stop-opacity="0.1"/>
            <stop offset="1" stop-opacity="0.3"/>
        </linearGradient>
        <linearGradient id="paint4_linear" x1="30.2251" y1="16.6587" x2="30.2251" y2="23.8675" gradientUnits="userSpaceOnUse">
            <stop stop-color="#C4E9F5"/>
            <stop offset="0.430939" stop-color="#71C8E4"/>
            <stop offset="0.480663" stop-color="#5FC2E1"/>
            <stop offset="1" stop-color="#78CFEB"/>
        </linearGradient>
        <linearGradient id="paint5_linear" x1="32.8268" y1="21.3346" x2="29.7705" y2="18.5983" gradientUnits="userSpaceOnUse">
            <stop stop-color="#B7E9F9"/>
            <stop offset="1" stop-color="white"/>
        </linearGradient>
        <linearGradient id="paint6_linear" x1="43.1226" y1="17.533" x2="53.1592" y2="49.7858" gradientUnits="userSpaceOnUse">
            <stop offset="0.325967" stop-color="#E8F9FF"/>
            <stop offset="0.640884" stop-color="#2B86A4"/>
            <stop offset="0.895028" stop-color="#207C9A"/>
            <stop offset="1" stop-color="#005D7A"/>
        </linearGradient>
        <linearGradient id="paint7_linear" x1="54.0314" y1="34.9988" x2="68.7592" y2="45.8401" gradientUnits="userSpaceOnUse">
            <stop stop-color="#35CCFC"/>
            <stop offset="1" stop-color="#414CBE"/>
        </linearGradient>
        <linearGradient id="paint8_linear" x1="49.8063" y1="27.3495" x2="60.8522" y2="35.4805" gradientUnits="userSpaceOnUse">
            <stop stop-color="white"/>
            <stop offset="1" stop-color="white" stop-opacity="0"/>
        </linearGradient>
        <linearGradient id="paint9_linear" x1="52.8224" y1="28.8291" x2="52.8224" y2="41.1686" gradientUnits="userSpaceOnUse">
            <stop stop-opacity="0.1"/>
            <stop offset="1" stop-opacity="0.3"/>
        </linearGradient>
        <linearGradient id="paint10_linear" x1="53.9902" y1="32.518" x2="53.9902" y2="41.1686" gradientUnits="userSpaceOnUse">
            <stop stop-color="#C4E9F5"/>
            <stop offset="0.430939" stop-color="#71C8E4"/>
            <stop offset="0.480663" stop-color="#5FC2E1"/>
            <stop offset="1" stop-color="#78CFEB"/>
        </linearGradient>
        <linearGradient id="paint11_linear" x1="57.1123" y1="38.1291" x2="53.4447" y2="34.8455" gradientUnits="userSpaceOnUse">
            <stop stop-color="#B7E9F9"/>
            <stop offset="1" stop-color="white"/>
        </linearGradient>
        <linearGradient id="paint12_linear" x1="36.1541" y1="40.3505" x2="47.7434" y2="77.5928" gradientUnits="userSpaceOnUse">
            <stop offset="0.325967" stop-color="#E8F9FF"/>
            <stop offset="0.640884" stop-color="#2B86A4"/>
            <stop offset="0.895028" stop-color="#207C9A"/>
            <stop offset="1" stop-color="#005D7A"/>
        </linearGradient>
        <linearGradient id="paint13_linear" x1="48.7505" y1="60.5183" x2="65.7567" y2="73.0368" gradientUnits="userSpaceOnUse">
            <stop stop-color="#35CCFC"/>
            <stop offset="1" stop-color="#414CBE"/>
        </linearGradient>
        <linearGradient id="paint14_linear" x1="43.8718" y1="51.6856" x2="56.6265" y2="61.0745" gradientUnits="userSpaceOnUse">
            <stop stop-color="white"/>
            <stop offset="1" stop-color="white" stop-opacity="0"/>
        </linearGradient>
        <linearGradient id="paint15_linear" x1="47.3546" y1="53.3941" x2="47.3546" y2="67.6426" gradientUnits="userSpaceOnUse">
            <stop stop-opacity="0.1"/>
            <stop offset="1" stop-opacity="0.3"/>
        </linearGradient>
        <linearGradient id="paint16_linear" x1="48.703" y1="57.6537" x2="48.703" y2="67.6426" gradientUnits="userSpaceOnUse">
            <stop stop-color="#C4E9F5"/>
            <stop offset="0.430939" stop-color="#71C8E4"/>
            <stop offset="0.480663" stop-color="#5FC2E1"/>
            <stop offset="1" stop-color="#78CFEB"/>
        </linearGradient>
        <linearGradient id="paint17_linear" x1="52.308" y1="64.1328" x2="48.073" y2="60.3413" gradientUnits="userSpaceOnUse">
            <stop stop-color="#B7E9F9"/>
            <stop offset="1" stop-color="white"/>
        </linearGradient>
    </defs>
    <rect x="0.921875" y="23.8718" width="25.9922" height="29.4958" fill="#35CCFC" fill-opacity="0.5"/>
    <rect x="17.2768" y="18.6851" width="37.2783" height="39.8692" fill="#35CCFC" fill-opacity="0.25"/>
    <path fill-rule="evenodd" clip-rule="evenodd" d="M30.4279 4.17114H27.7452V4.17542C26.2174 4.21387 24.6982 5.0249 23.5324 6.60864L18.8051 13.0308C16.4154 16.2771 16.4154 21.5403 18.8051 24.7866L23.5324 31.2087C24.6982 32.7925 26.2174 33.6035 27.7452 33.642V33.6512H30.4279V32.8781C31.0646 32.4783 31.6612 31.9218 32.1861 31.2087L36.9135 24.7866C39.3031 21.5403 39.3031 16.2771 36.9135 13.0308L32.1861 6.60864C31.6612 5.89563 31.0646 5.33911 30.4279 4.93933V4.17114Z" fill="url(#paint0_linear)"/>
    <path d="M21.3396 24.7866C18.95 21.5403 18.95 16.277 21.3396 13.0308L26.067 6.60868C28.4567 3.36239 32.331 3.36239 34.7207 6.60869L39.4481 13.0308C41.8377 16.2771 41.8377 21.5403 39.4481 24.7866L34.7207 31.2087C32.331 34.455 28.4567 34.455 26.067 31.2087L21.3396 24.7866Z" fill="url(#paint1_linear)"/>
    <path fill-rule="evenodd" clip-rule="evenodd" d="M30.4652 33.5598C31.7301 33.3144 32.9494 32.5307 33.9224 31.2089L38.6498 24.7868C41.0394 21.5405 41.0394 16.2773 38.6498 13.0309L33.9224 6.60883C32.7275 4.98553 31.1613 4.17413 29.5951 4.17413L29.2957 6.26556C30.568 6.15302 31.8683 6.75726 32.8407 8.07831L37.5681 14.5004C39.3603 16.9351 39.3603 20.8826 37.5681 23.3173L32.8407 29.7394C31.0485 32.1741 28.1427 32.1741 26.3505 29.7394L26.0024 29.2667L25.9462 29.6597L30.4652 33.5598Z" fill="black" fill-opacity="0.12"/>
    <path d="M21.8805 24.0519C19.7896 21.2114 19.7896 16.606 21.8805 13.7655L26.6079 7.34343C28.6988 4.50292 32.0889 4.50292 34.1798 7.34343L38.9072 13.7655C40.9981 16.606 40.9981 21.2114 38.9072 24.0519L34.1798 30.474C32.0889 33.3145 28.6988 33.3145 26.6079 30.474L21.8805 24.0519Z" stroke="#B6EDFF" stroke-width="1.82469"/>
    <path d="M25.775 25.1817L23.8218 22.5284C22.18 20.298 22.18 17.2589 23.8218 15.0285L28.5691 8.57932C29.5399 7.26055 31.51 7.25806 32.4841 8.57436L33.2653 9.63006C33.4057 9.81975 33.2021 10.1508 32.9676 10.1778C32.5819 10.2221 32.1209 10.397 31.7761 10.9068C30.2626 13.1442 27.7694 17.7664 26.903 24.8725C26.835 25.4308 26.1084 25.6347 25.775 25.1817Z" fill="url(#paint2_linear)" fill-opacity="0.7"/>
    <path fill-rule="evenodd" clip-rule="evenodd" d="M29.2519 13.5846C28.7294 13.5846 28.3057 14.0082 28.3057 14.5308V17.4406H26.7526C26.0427 17.4406 25.4672 18.0161 25.4672 18.726C25.4672 19.4359 26.0427 20.0114 26.7526 20.0114H28.3057V22.9214C28.3057 23.444 28.7294 23.8676 29.2519 23.8676C29.7745 23.8676 30.1981 23.444 30.1981 22.9214V20.0114H31.7513C32.4612 20.0114 33.0367 19.4359 33.0367 18.726C33.0367 18.0161 32.4612 17.4406 31.7513 17.4406H30.1981V14.5308C30.1981 14.0082 29.7745 13.5846 29.2519 13.5846Z" fill="url(#paint3_linear)"/>
    <path fill-rule="evenodd" clip-rule="evenodd" d="M30.252 13.5846C29.7146 13.5846 29.2789 14.0203 29.2789 14.5577V17.4406H27.7258C27.0159 17.4406 26.4404 18.0161 26.4404 18.726C26.4404 19.4359 27.0159 20.0114 27.7258 20.0114H29.2789V22.8944C29.2789 23.4319 29.7146 23.8676 30.252 23.8676H31.1713V20.0114H32.7244C33.4343 20.0114 34.0098 19.4359 34.0098 18.726C34.0098 18.0161 33.4343 17.4406 32.7244 17.4406H31.1713V13.5846H30.252Z" fill="url(#paint4_linear)"/>
    <path fill-rule="evenodd" clip-rule="evenodd" d="M31.1717 13.5846C30.6492 13.5846 30.2255 14.0082 30.2255 14.5308V17.4409H28.6724C27.9625 17.4409 27.387 18.0165 27.387 18.7263C27.387 19.4363 27.9625 20.0117 28.6724 20.0117H30.2255V22.9214C30.2255 23.444 30.6492 23.8676 31.1717 23.8676C31.6943 23.8676 32.1179 23.444 32.1179 22.9214V20.0117H33.6711C34.381 20.0117 34.9565 19.4363 34.9565 18.7263C34.9565 18.0165 34.381 17.4409 33.6711 17.4409H32.1179V14.5308C32.1179 14.0082 31.6943 13.5846 31.1717 13.5846Z" fill="url(#paint5_linear)"/>
    <path fill-rule="evenodd" clip-rule="evenodd" d="M54.2337 17.533H51.0144V17.5381C49.1811 17.5842 47.358 18.5575 45.959 20.458L40.2862 28.1644C37.4186 32.0601 37.4186 38.376 40.2862 42.2716L45.959 49.978C47.358 51.8785 49.1811 52.8518 51.0144 52.8979V52.9091H54.2337V51.9812C54.9977 51.5015 55.7135 50.8337 56.3434 49.978L62.0163 42.2716C64.8838 38.376 64.8838 32.0601 62.0163 28.1644L56.3434 20.458C55.7135 19.6023 54.9977 18.9346 54.2337 18.4548V17.533Z" fill="url(#paint6_linear)"/>
    <path d="M43.3277 42.2715C40.4601 38.3759 40.4601 32.06 43.3277 28.1644L49.0005 20.458C51.8681 16.5624 56.5174 16.5624 59.3849 20.458L65.0578 28.1644C67.9253 32.06 67.9254 38.3759 65.0578 42.2715L59.3849 49.978C56.5174 53.8735 51.8681 53.8735 49.0005 49.978L43.3277 42.2715Z" fill="url(#paint7_linear)"/>
    <path fill-rule="evenodd" clip-rule="evenodd" d="M54.2783 52.7991C55.7963 52.5046 57.2593 51.5643 58.427 49.9781L64.0999 42.2717C66.9674 38.3761 66.9674 32.0602 64.0999 28.1646L58.427 20.4581C56.9931 18.5103 55.1137 17.5365 53.2343 17.5365L52.875 20.0461C54.4018 19.9111 55.962 20.6362 57.129 22.2216L62.8018 29.928C64.9525 32.8496 64.9525 37.5867 62.8018 40.5083L57.129 48.2147C54.9783 51.1365 51.4913 51.1365 49.3406 48.2147L48.9231 47.6475L48.8555 48.1193L54.2783 52.7991Z" fill="black" fill-opacity="0.12"/>
    <path d="M43.9767 41.3898C41.4676 37.9812 41.4676 32.4547 43.9767 29.0461L49.6496 21.3396C52.1587 17.931 56.2268 17.931 58.7359 21.3396L64.4088 29.0461C66.9179 32.4547 66.9179 37.9812 64.4088 41.3898L58.7359 49.0963C56.2268 52.5049 52.1587 52.5049 49.6496 49.0963L43.9767 41.3898Z" stroke="#B6EDFF" stroke-width="2.18962"/>
    <path d="M48.6501 42.7457L46.3063 39.5616C44.3361 36.8851 44.3361 33.2383 46.3063 30.5618L52.0031 22.8228C53.168 21.2403 55.5321 21.2373 56.701 22.8168L57.6385 24.0837C57.807 24.3113 57.5626 24.7086 57.2813 24.7409C56.8185 24.7941 56.2653 25.004 55.8515 25.6157C54.0353 28.3006 51.0434 33.8472 50.0038 42.3746C49.9221 43.0445 49.0502 43.2892 48.6501 42.7457Z" fill="url(#paint8_linear)" fill-opacity="0.7"/>
    <path fill-rule="evenodd" clip-rule="evenodd" d="M52.8224 28.8291C52.1954 28.8291 51.687 29.3374 51.687 29.9645V33.4563H49.8232C48.9713 33.4564 48.2808 34.147 48.2808 34.9988C48.2808 35.8507 48.9713 36.5413 49.8232 36.5413H51.687V40.0333C51.687 40.6604 52.1954 41.1687 52.8224 41.1687C53.4495 41.1687 53.9578 40.6604 53.9578 40.0333V36.5413H55.8217C56.6735 36.5413 57.3641 35.8507 57.3641 34.9988C57.3641 34.147 56.6735 33.4563 55.8217 33.4563H53.9578V29.9645C53.9578 29.3374 53.4495 28.8291 52.8224 28.8291Z" fill="url(#paint9_linear)"/>
    <path fill-rule="evenodd" clip-rule="evenodd" d="M54.0226 28.8291C53.3776 28.8291 52.8548 29.3519 52.8548 29.9969V33.4563H50.991C50.1391 33.4564 49.4485 34.147 49.4485 34.9988C49.4485 35.8507 50.1391 36.5413 50.991 36.5413H52.8548V40.0009C52.8548 40.6459 53.3776 41.1687 54.0226 41.1687H55.1256V36.5413H56.9894C57.8413 36.5413 58.5319 35.8507 58.5319 34.9988C58.5319 34.147 57.8413 33.4563 56.9894 33.4563H55.1256V28.8291H54.0226Z" fill="url(#paint10_linear)"/>
    <path fill-rule="evenodd" clip-rule="evenodd" d="M55.1262 28.8291C54.4991 28.8291 53.9908 29.3374 53.9908 29.9645V33.4567H52.127C51.2751 33.4567 50.5845 34.1473 50.5845 34.9991C50.5845 35.8511 51.2751 36.5416 52.127 36.5416H53.9908V40.0333C53.9908 40.6604 54.4991 41.1687 55.1262 41.1687C55.7533 41.1687 56.2616 40.6604 56.2616 40.0333V36.5416H58.1254C58.9773 36.5416 59.6679 35.8511 59.6679 34.9991C59.6679 34.1473 58.9773 33.4567 58.1254 33.4567H56.2616V29.9645C56.2616 29.3374 55.7533 28.8291 55.1262 28.8291Z" fill="url(#paint11_linear)"/>
    <path fill-rule="evenodd" clip-rule="evenodd" d="M48.9841 40.3505H45.2668V40.3563C43.1498 40.4095 41.0447 41.5334 39.4293 43.728L32.8789 52.6267C29.5677 57.1249 29.5677 64.4178 32.8789 68.9161L39.4294 77.8147C41.0448 80.0093 43.1498 81.1332 45.2668 81.1864V81.1992H48.9841V80.1278C49.8663 79.5739 50.6929 78.8027 51.4202 77.8147L57.9706 68.9161C61.2818 64.4178 61.2818 57.1249 57.9706 52.6266L51.4202 43.728C50.6929 42.74 49.8663 41.9689 48.9841 41.4149V40.3505Z" fill="url(#paint12_linear)"/>
    <path d="M36.3909 68.9161C33.0798 64.4179 33.0798 57.1249 36.3909 52.6266L42.9414 43.728C46.2526 39.2298 51.6211 39.2298 54.9322 43.728L61.4827 52.6266C64.7939 57.1248 64.7939 64.4179 61.4827 68.9161L54.9323 77.8147C51.6211 82.3129 46.2526 82.3129 42.9414 77.8147L36.3909 68.9161Z" fill="url(#paint13_linear)"/>
    <path fill-rule="evenodd" clip-rule="evenodd" d="M49.0358 81.0724C50.7885 80.7324 52.4778 79.6466 53.8261 77.8149L60.3765 68.9164C63.6877 64.4181 63.6877 57.1251 60.3765 52.6268L53.8261 43.7283C52.1703 41.4789 50.0001 40.3544 47.83 40.3546L47.4151 43.2526C49.1781 43.0967 50.9798 43.934 52.3273 45.7644L58.8777 54.6631C61.3611 58.0367 61.3611 63.5065 58.8777 66.8801L52.3273 75.7788C49.8439 79.1525 45.8175 79.1525 43.3341 75.7788L42.8519 75.1238L42.7739 75.6685L49.0358 81.0724Z" fill="black" fill-opacity="0.12"/>
    <path d="M37.1404 67.898C34.2431 63.9621 34.2431 57.5807 37.1404 53.6447L43.6908 44.7461C46.5881 40.8101 51.2855 40.8101 54.1828 44.7461L60.7332 53.6447C63.6305 57.5807 63.6305 63.9621 60.7333 67.898L54.1828 76.7967C51.2855 80.7326 46.5881 80.7326 43.6908 76.7967L37.1404 67.898Z" stroke="#B6EDFF" stroke-width="2.52836"/>
    <path d="M42.5367 69.4636L39.8303 65.787C37.5553 62.6965 37.5553 58.4854 39.8303 55.3949L46.4084 46.4587C47.7535 44.6313 50.4834 44.6278 51.8331 46.4518L52.9157 47.9146C53.1102 48.1774 52.8281 48.6362 52.5032 48.6735C51.9688 48.7349 51.33 48.9774 50.8522 49.6837C48.755 52.7839 45.3003 59.1886 44.0998 69.0352C44.0055 69.8087 42.9987 70.0912 42.5367 69.4636Z" fill="url(#paint14_linear)" fill-opacity="0.7"/>
    <path fill-rule="evenodd" clip-rule="evenodd" d="M47.3546 53.3941C46.6304 53.3941 46.0435 53.9811 46.0435 54.7051V58.7371H43.8914C42.9077 58.7371 42.1103 59.5345 42.1103 60.5181C42.1103 61.5019 42.9077 62.2993 43.8914 62.2993H46.0435V66.3316C46.0435 67.0556 46.6304 67.6426 47.3546 67.6426C48.0786 67.6426 48.6656 67.0556 48.6656 66.3316V62.2993H50.8177C51.8015 62.2993 52.5988 61.5019 52.5988 60.5181C52.5988 59.5345 51.8015 58.7371 50.8177 58.7371H48.6656V54.7051C48.6656 53.9811 48.0786 53.3941 47.3546 53.3941Z" fill="url(#paint15_linear)"/>
    <path fill-rule="evenodd" clip-rule="evenodd" d="M48.7403 53.3941C47.9955 53.3941 47.3918 53.9979 47.3918 54.7426V58.7371H45.2397C44.2561 58.7371 43.4587 59.5345 43.4587 60.5181C43.4587 61.5019 44.2561 62.2993 45.2397 62.2993H47.3918V66.2941C47.3918 67.0389 47.9955 67.6426 48.7403 67.6426H50.014V62.2993H52.1661C53.1498 62.2993 53.9472 61.5019 53.9472 60.5181C53.9472 59.5345 53.1498 58.7371 52.1661 58.7371H50.014V53.3941H48.7403Z" fill="url(#paint16_linear)"/>
    <path fill-rule="evenodd" clip-rule="evenodd" d="M50.0147 53.3941C49.2906 53.3941 48.7036 53.9811 48.7036 54.7051V58.7376H46.5515C45.5678 58.7376 44.7704 59.535 44.7704 60.5186C44.7704 61.5024 45.5678 62.2997 46.5515 62.2997H48.7036V66.3316C48.7036 67.0556 49.2906 67.6426 50.0147 67.6426C50.7388 67.6426 51.3257 67.0556 51.3257 66.3316V62.2997H53.4778C54.4615 62.2997 55.2589 61.5024 55.2589 60.5186C55.2589 59.535 54.4615 58.7376 53.4778 58.7376H51.3257V54.7051C51.3257 53.9811 50.7388 53.3941 50.0147 53.3941Z" fill="url(#paint17_linear)"/>
    <path d="M15.3515 54.3898L16.2967 57.4618C16.8284 59.1751 18.1872 60.5338 19.9005 61.0655L23.0316 62.0699L19.9595 63.0151C18.2463 63.5468 16.8875 64.9056 16.3558 66.6188L15.3515 69.75L14.4062 66.6779C13.8745 64.9647 12.5158 63.6059 10.8025 63.0742L7.67139 62.0699L10.7434 61.1246C12.4567 60.5929 13.8155 59.2341 14.3472 57.5209L15.3515 54.3898Z" fill="white" fill-opacity="0.5"/>
    <path d="M15.3515 56.9667L15.9796 59.008C16.3329 60.1464 17.2358 61.0493 18.3742 61.4026L20.4548 62.07L18.4134 62.6981C17.275 63.0514 16.3721 63.9543 16.0188 65.0927L15.3515 67.1733L14.7234 65.1319C14.3701 63.9935 13.4672 63.0906 12.3287 62.7373L10.2482 62.07L12.2895 61.4419C13.4279 61.0886 14.3308 60.1857 14.6841 59.0472L15.3515 56.9667Z" fill="white"/>
    <path d="M25.5374 35.4185L27.5018 43.9495C28.2314 47.0925 30.7009 49.562 33.8439 50.2917L42.375 52.256L33.8439 54.2204C30.7009 54.95 28.2314 57.4196 27.5018 60.5626L25.5374 69.0936L23.573 60.5626C22.8434 57.4196 20.3739 54.95 17.2309 54.2204L8.69983 52.256L17.2309 50.2917C20.3739 49.562 22.8434 47.0925 23.573 43.9495L25.5374 35.4185Z" fill="white" fill-opacity="0.4"/>
    <path d="M25.5375 40.4792L26.9114 46.4461C27.4217 48.6445 29.149 50.3717 31.3474 50.8821L37.3143 52.256L31.3474 53.63C29.149 54.1403 27.4217 55.8676 26.9114 58.0659L25.5375 64.0329L24.1635 58.0659C23.6532 55.8676 21.9259 54.1403 19.7275 53.63L13.7606 52.256L19.7275 50.8821C21.9259 50.3717 23.6532 48.6445 24.1635 46.4461L25.5375 40.4792Z" fill="white"/>
</svg>