<svg width="58" height="62" viewBox="0 0 58 62" fill="none" xmlns="http://www.w3.org/2000/svg">
    <path d="M12.1226 7.37851L12.188 7.31308L12.1924 7.31748C15.4539 4.57187 26.5066 10.7437 37.3252 21.3343L38.8301 20.0514C38.6746 19.8246 38.5427 19.5819 38.4368 19.3268C38.2356 18.8419 38.1321 18.3221 38.1323 17.7972C38.1323 17.5853 38.1492 17.3741 38.1826 17.1659C38.2322 16.8585 38.3179 16.557 38.438 16.2682C38.6396 15.7833 38.9348 15.3434 39.3071 14.9732C40.8711 13.4132 43.4111 13.4112 44.9771 14.9723C46.5432 16.5333 46.5432 19.0621 44.979 20.6222C44.2251 21.3714 43.2051 21.7921 42.1421 21.7921C41.3286 21.7921 40.5403 21.5457 39.8772 21.0943L38.5894 22.5934C49.2207 33.368 55.416 44.3788 52.6609 47.629L52.666 47.6341L52.5837 47.7154C52.5664 47.734 52.5488 47.752 52.531 47.7699L52.4871 47.8123L52.4294 47.8651C49.4805 50.6839 45.6289 52.2013 41.3911 52.5091C36.1541 52.8897 30.3291 51.4134 24.8931 48.2203L23.9219 48.5269C23.3535 48.7061 22.71 48.7176 22.021 48.5921C22.021 48.5921 21.4919 49.055 21.4919 49.8731C24.1682 49.8731 26.3381 52.0352 26.3381 54.7022V59.242H28.3879V62.0001H0V59.242H2.0481V54.7013C2.0481 52.0352 4.21802 49.8731 6.896 49.8731V49.8602C5.2146 49.6766 3.88892 47.5789 3.88892 45.0182C3.88892 42.3377 5.34155 40.1646 7.13403 40.1632V40.16H9.47998C9.60327 40.16 9.7251 40.1703 9.84473 40.1903C9.99219 40.2149 10.1367 40.2545 10.2776 40.308C10.9263 39.2374 11.408 38.5741 11.408 38.5741C11.1125 37.61 11.0498 36.7093 11.293 35.9449L11.5999 34.9793C8.3938 29.5638 6.91162 23.7599 7.29517 18.5421C7.60303 14.3311 9.12207 10.5008 11.9397 7.56601C11.9753 7.52499 12.0125 7.48544 12.051 7.44687C12.0745 7.42368 12.0981 7.40073 12.1226 7.37851Z" fill="black" fill-opacity="0.2"/>
    <path d="M22.021 46.592L11.408 36.574C11.408 36.574 6.896 42.787 6.896 47.873H21.492C21.492 47.055 22.021 46.592 22.021 46.592Z" fill="#9B4482"/>
    <path d="M23.922 46.5269C19.334 47.9739 9.83996 38.5149 11.293 33.9449L12.496 30.1589L27.723 45.3269L23.922 46.5269Z" fill="#5E0043"/>
    <path d="M12.1881 5.31299C9.21108 8.27899 7.61208 12.209 7.29508 16.542C6.72708 24.273 10.2541 33.29 17.4161 40.425C24.5801 47.56 33.6311 51.073 41.3911 50.509C45.7431 50.193 49.6881 48.601 52.6661 45.634L12.1881 5.31299Z" fill="#5E0043"/>
    <path d="M40.5451 5.997C42.6181 7.71918 44.6112 9.53541 46.5181 11.44C48.43 13.3375 50.253 15.3227 51.9811 17.389C51.7661 15.229 50.3071 12.475 47.8911 10.069C45.4771 7.665 42.7131 6.212 40.5451 5.997ZM58.0001 18.348C57.6541 14.869 55.3051 10.435 51.4141 6.561C47.5251 2.688 43.0741 0.346 39.5801 0C42.6891 2.569 45.9411 5.519 49.2011 8.765C52.4611 12.011 55.4221 15.253 58.0001 18.348Z" fill="white"/>
    <path d="M52.531 45.7699C49.4 48.8869 37.801 42.3889 26.623 31.2559C15.447 20.1199 8.92195 8.56488 12.051 5.44688C15.182 2.32888 26.781 8.82788 37.961 19.9619C49.137 31.0959 55.66 42.6499 52.531 45.7699Z" fill="#9B4483"/>
    <path d="M30.1109 30.462L27.4199 27.779L39.5249 17.459L40.4729 18.401L30.1109 30.462Z" fill="#5E0043"/>
    <path d="M29.516 34.025C26.512 31.365 23.844 28.374 23.844 28.374L28.326 25.323L32.576 29.556L29.516 34.025Z" fill="#5E0043"/>
    <path d="M44.9791 18.6221C44.225 19.3714 43.2051 19.7919 42.1421 19.7919C41.0791 19.7919 40.0592 19.3714 39.3051 18.6221C38.9332 18.2517 38.6381 17.8115 38.4368 17.3267C38.2356 16.8419 38.132 16.3221 38.1322 15.7972C38.1324 15.2723 38.2363 14.7526 38.4379 14.268C38.6395 13.7833 38.9349 13.3433 39.3071 12.9731C40.8711 11.4131 43.4111 11.4111 44.9771 12.9721C46.5431 14.5331 46.5431 17.0621 44.9791 18.6221ZM6.8961 47.8731C4.2181 47.8731 2.0481 50.0351 2.0481 52.7011V57.9311H10.6931V47.8731H6.8961Z" fill="#5E0043"/>
    <path d="M21.4921 47.873H9.69312V57.932H26.3381V52.702C26.3381 50.035 24.1681 47.873 21.4921 47.873Z" fill="#7F2164"/>
    <path d="M0 57.2419H8.617V59.9999H0V57.2419Z" fill="#5E0043"/>
    <path d="M7.61703 57.2419H28.388V59.9999H7.61703V57.2419ZM9.48003 38.1599H7.13403V47.8729H9.48003C11.271 47.8729 12.726 45.6989 12.726 43.0179C12.726 40.3369 11.271 38.1599 9.48003 38.1599Z" fill="#7F2164"/>
    <path d="M7.13592 47.8731C8.92918 47.8731 10.3829 45.6994 10.3829 43.0181C10.3829 40.3367 8.92918 38.1631 7.13592 38.1631C5.34265 38.1631 3.88892 40.3367 3.88892 43.0181C3.88892 45.6994 5.34265 47.8731 7.13592 47.8731Z" fill="#5E0043"/>
    <path d="M7.57006 47.0511C8.81822 47.0511 9.83006 45.2455 9.83006 43.0181C9.83006 40.7907 8.81822 38.9851 7.57006 38.9851C6.32189 38.9851 5.31006 40.7907 5.31006 43.0181C5.31006 45.2455 6.32189 47.0511 7.57006 47.0511Z" fill="black"/>
</svg>