<svg width="60" height="64" viewBox="0 0 60 64" fill="none" xmlns="http://www.w3.org/2000/svg">
    <path d="M30 64C46.5685 64 60 50.5685 60 34C60 17.4315 46.5685 4 30 4C13.4315 4 0 17.4315 0 34C0 50.5685 13.4315 64 30 64Z" fill="black" fill-opacity="0.2"/>
    <path d="M30 60C46.5685 60 60 46.5685 60 30C60 13.4315 46.5685 0 30 0C13.4315 0 0 13.4315 0 30C0 46.5685 13.4315 60 30 60Z" fill="#FDCA47"/>
    <path d="M49.654 7.345C54.3989 12.7924 57.0087 19.7749 57 26.999C57 43.568 43.568 57 27 57C19.7759 57.0087 12.7934 54.3989 7.34601 49.654C12.847 55.99 20.953 60 30 60C46.568 60 60 46.568 60 29.999C60 20.952 55.988 12.847 49.654 7.345Z" fill="#F9B700"/>
    <path fill-rule="evenodd" clip-rule="evenodd" d="M4.41799 18.499C3.30199 22.241 11.001 8.999 23.001 4.083C28.834 1.692 9.16799 2.583 4.41799 18.499Z" fill="#FFE8BB"/>
    <path d="M30 33C22.367 32.943 16.229 37.695 16.183 43.609C16.154 46.882 17.331 51.785 20.994 51.812C23.65 51.832 26.594 48.523 30.001 48.544C33.368 48.569 36.151 51.983 38.784 51.999C42.024 52.022 43.794 47.116 43.819 43.81C43.867 37.9 37.629 33.057 30 33Z" fill="#302C3B"/>
    <path d="M36.045 42.67C36.045 40.008 33.443 38.438 31.858 38.399C31.275 38.385 30.376 38.885 30.706 40.215C30.87 40.885 31.906 41.697 31.906 42.778C31.906 44.979 28.097 44.979 28.097 42.778C28.097 41.698 29.131 40.885 29.296 40.215C29.623 38.885 28.726 38.385 28.141 38.399C26.557 38.438 23.954 40.008 23.954 42.67C23.954 44.328 24.789 45.608 26.098 46.602H33.902C35.211 45.607 36.045 44.328 36.045 42.67Z" fill="#1A1626"/>
    <path d="M30 45.09C24.818 45.09 23.091 49.408 23.091 49.408C23.091 49.408 26.546 46.818 30 46.818C33.453 46.818 36.908 49.408 36.908 49.408C36.908 49.408 35.182 45.09 30 45.09Z" fill="#F46C60"/>
    <path d="M38.42 37.17C36.289 35.545 33.539 34.545 30.001 34.545C26.462 34.545 23.711 35.545 21.581 37.17C21.238 37.432 21.277 38 21.881 38H38.119C38.723 38 38.762 37.432 38.42 37.17Z" fill="white"/>
    <path d="M12.457 17.438C17.699 17.675 23.668 15.465 25.945 12.673C26.422 12.082 25.224 9.612 24.761 10.051C21.2 13.43 16.364 15.77 11.513 15.862C10.863 15.875 11.67 17.403 12.457 17.438ZM47.545 17.437C42.303 17.675 36.336 15.466 34.059 12.673C33.579 12.085 34.78 9.611 35.243 10.052C38.804 13.428 43.639 15.771 48.489 15.862C49.141 15.873 48.334 17.402 47.545 17.437Z" fill="#917524"/>
    <path d="M47.561 19.696C48.188 19.475 48.552 20.562 48.161 20.854C43.561 24.264 40.77 27.134 40.77 27.134C40.77 27.134 44.641 28.572 49.501 31.844C50.02 32.193 49.243 33.475 48.797 33.321C40.74 30.549 36.068 29.899 32.793 29.522C32.311 29.466 32.119 29.106 32.445 28.75C34.99 25.959 40.297 22.248 47.561 19.696ZM12.439 19.695C11.811 19.474 11.448 20.562 11.839 20.853C16.439 24.263 19.229 27.134 19.229 27.134C19.229 27.134 15.357 28.572 10.499 31.843C9.97899 32.192 10.756 33.474 11.204 33.32C19.26 30.547 23.932 29.898 27.207 29.52C27.69 29.464 27.879 29.104 27.555 28.748C25.01 25.959 19.702 22.248 12.439 19.695Z" fill="#302C3B"/>
</svg>
