<svg width="52" height="56" viewBox="0 0 52 56" fill="none" xmlns="http://www.w3.org/2000/svg">
    <path d="M49.1303 56C50.7151 56 52 54.7149 52 53.1301V6.86989C52 5.28453 50.7149 4 49.1303 4H2.86991C1.28454 4 0 5.28473 0 6.86989V53.1299C0 54.7149 1.28454 55.9998 2.86991 55.9998H49.1303V56Z" fill="black" fill-opacity="0.15"/>
    <path d="M49.1303 52C50.7151 52 52 50.7149 52 49.1301V2.86989C52 1.28453 50.7149 0 49.1303 0H2.86991C1.28454 0 0 1.28473 0 2.86989V49.1299C0 50.7149 1.28454 51.9998 2.86991 51.9998H49.1303V52Z" fill="#485A96"/>
    <path d="M35.9889 51.9998V31.8381H42.8879L43.9208 23.9807H35.9887V18.9641C35.9887 16.6892 36.6326 15.1389 39.9584 15.1389L44.2 15.137V8.10938C43.4664 8.0138 40.9484 7.7998 38.0193 7.7998C31.9036 7.7998 27.7167 11.4615 27.7167 18.1861V23.9807H20.8V31.8381H27.7167V51.9996H35.9889V51.9998Z" fill="white"/>
</svg>