<svg width="60" height="64" viewBox="0 0 60 64" fill="none" xmlns="http://www.w3.org/2000/svg">
    <path d="M3.90073 64.0005C0.587725 64.0005 -0.910275 61.6215 0.572725 58.7095L27.3077 6.1825C28.7877 3.2725 31.2137 3.2725 32.6947 6.1825L59.4287 58.7095C60.9107 61.6215 59.4107 64.0005 56.0987 64.0005H3.90073Z" fill="black" fill-opacity="0.15"/>
    <path d="M3.90073 60.0005C0.587725 60.0005 -0.910275 57.6215 0.572725 54.7095L27.3077 2.1825C28.7877 -0.7275 31.2137 -0.7275 32.6947 2.1825L59.4287 54.7095C60.9107 57.6215 59.4107 60.0005 56.0987 60.0005H3.90073Z" fill="#FFCE31"/>
    <path d="M28.9517 4.85749C30.1897 2.42349 29.3087 0.118495 27.8287 3.02849L8.67072 40.6705C7.96072 42.1545 8.32972 42.4515 9.11772 41.0165C17.3547 26.0225 28.9517 4.85749 28.9517 4.85749Z" fill="#FFE463"/>
    <path d="M59.4287 54.7095L32.6937 2.1825L56.4277 52.7095C57.9107 55.6215 56.4107 58.0005 53.0987 58.0005C53.0987 58.0005 0.426728 57.9845 0.202728 57.9595C0.676728 59.1975 1.98073 60.0005 3.90073 60.0005H56.0977C59.4107 60.0005 60.9107 57.6215 59.4287 54.7095V54.7095Z" fill="#F9B700"/>
    <path d="M25.8017 21.5865L28.5517 40.0505C28.8267 41.8905 31.1747 41.8905 31.4497 40.0505L34.1977 21.5865C34.7037 14.3875 25.2937 14.3875 25.8017 21.5865V21.5865Z" fill="#1A1626"/>
    <path d="M30.0007 51.8135C32.3308 51.8135 34.2197 49.9291 34.2197 47.6045C34.2197 45.2799 32.3308 43.3955 30.0007 43.3955C27.6706 43.3955 25.7817 45.2799 25.7817 47.6045C25.7817 49.9291 27.6706 51.8135 30.0007 51.8135Z" fill="#1A1626"/>
</svg>
