<svg width="100" height="100" viewBox="0 0 100 100" fill="none" xmlns="http://www.w3.org/2000/svg">
    <defs>
        <linearGradient id="paint0_linear" x1="26.3215" y1="63.7495" x2="33.0061" y2="85.2307" gradientUnits="userSpaceOnUse">
            <stop offset="0.325967" stop-color="#E8F9FF"/>
            <stop offset="0.640884" stop-color="#2B86A4"/>
            <stop offset="0.895028" stop-color="#207C9A"/>
            <stop offset="1" stop-color="#005D7A"/>
        </linearGradient>
        <linearGradient id="paint1_linear" x1="33.5871" y1="75.3823" x2="43.3962" y2="82.603" gradientUnits="userSpaceOnUse">
            <stop stop-color="#35CCFC"/>
            <stop offset="1" stop-color="#414CBE"/>
        </linearGradient>
        <linearGradient id="paint2_linear" x1="30.7731" y1="70.2877" x2="38.13" y2="75.7032" gradientUnits="userSpaceOnUse">
            <stop stop-color="white"/>
            <stop offset="1" stop-color="white" stop-opacity="0"/>
        </linearGradient>
        <linearGradient id="paint3_linear" x1="32.7822" y1="71.2732" x2="32.7822" y2="79.4916" gradientUnits="userSpaceOnUse">
            <stop stop-opacity="0.1"/>
            <stop offset="1" stop-opacity="0.3"/>
        </linearGradient>
        <linearGradient id="paint4_linear" x1="33.5595" y1="73.7301" x2="33.5595" y2="79.4916" gradientUnits="userSpaceOnUse">
            <stop stop-color="#C4E9F5"/>
            <stop offset="0.430939" stop-color="#71C8E4"/>
            <stop offset="0.480663" stop-color="#5FC2E1"/>
            <stop offset="1" stop-color="#78CFEB"/>
        </linearGradient>
        <linearGradient id="paint5_linear" x1="35.6392" y1="77.4672" x2="33.1964" y2="75.2803" gradientUnits="userSpaceOnUse">
            <stop stop-color="#B7E9F9"/>
            <stop offset="1" stop-color="white"/>
        </linearGradient>
        <linearGradient id="paint6_linear" x1="58.7146" y1="63.7495" x2="65.3992" y2="85.2307" gradientUnits="userSpaceOnUse">
            <stop offset="0.325967" stop-color="#E8F9FF"/>
            <stop offset="0.640884" stop-color="#2B86A4"/>
            <stop offset="0.895028" stop-color="#207C9A"/>
            <stop offset="1" stop-color="#005D7A"/>
        </linearGradient>
        <linearGradient id="paint7_linear" x1="65.9801" y1="75.3823" x2="75.7892" y2="82.603" gradientUnits="userSpaceOnUse">
            <stop stop-color="#35CCFC"/>
            <stop offset="1" stop-color="#414CBE"/>
        </linearGradient>
        <linearGradient id="paint8_linear" x1="63.1662" y1="70.2877" x2="70.5231" y2="75.7032" gradientUnits="userSpaceOnUse">
            <stop stop-color="white"/>
            <stop offset="1" stop-color="white" stop-opacity="0"/>
        </linearGradient>
        <linearGradient id="paint9_linear" x1="65.1753" y1="71.2732" x2="65.1753" y2="79.4916" gradientUnits="userSpaceOnUse">
            <stop stop-opacity="0.1"/>
            <stop offset="1" stop-opacity="0.3"/>
        </linearGradient>
        <linearGradient id="paint10_linear" x1="65.9526" y1="73.7301" x2="65.9526" y2="79.4916" gradientUnits="userSpaceOnUse">
            <stop stop-color="#C4E9F5"/>
            <stop offset="0.430939" stop-color="#71C8E4"/>
            <stop offset="0.480663" stop-color="#5FC2E1"/>
            <stop offset="1" stop-color="#78CFEB"/>
        </linearGradient>
        <linearGradient id="paint11_linear" x1="68.0322" y1="77.4672" x2="65.5895" y2="75.2803" gradientUnits="userSpaceOnUse">
            <stop stop-color="#B7E9F9"/>
            <stop offset="1" stop-color="white"/>
        </linearGradient>
        <linearGradient id="paint12_linear" x1="41.954" y1="66.24" x2="49.8309" y2="91.5528" gradientUnits="userSpaceOnUse">
            <stop offset="0.325967" stop-color="#E8F9FF"/>
            <stop offset="0.640884" stop-color="#2B86A4"/>
            <stop offset="0.895028" stop-color="#207C9A"/>
            <stop offset="1" stop-color="#005D7A"/>
        </linearGradient>
        <linearGradient id="paint13_linear" x1="50.5155" y1="79.9479" x2="62.0742" y2="88.4564" gradientUnits="userSpaceOnUse">
            <stop stop-color="#35CCFC"/>
            <stop offset="1" stop-color="#414CBE"/>
        </linearGradient>
        <linearGradient id="paint14_linear" x1="47.1996" y1="73.9443" x2="55.8687" y2="80.3258" gradientUnits="userSpaceOnUse">
            <stop stop-color="white"/>
            <stop offset="1" stop-color="white" stop-opacity="0"/>
        </linearGradient>
        <linearGradient id="paint15_linear" x1="49.5668" y1="75.1057" x2="49.5668" y2="84.7901" gradientUnits="userSpaceOnUse">
            <stop stop-opacity="0.1"/>
            <stop offset="1" stop-opacity="0.3"/>
        </linearGradient>
        <linearGradient id="paint16_linear" x1="50.4834" y1="78.0009" x2="50.4834" y2="84.7901" gradientUnits="userSpaceOnUse">
            <stop stop-color="#C4E9F5"/>
            <stop offset="0.430939" stop-color="#71C8E4"/>
            <stop offset="0.480663" stop-color="#5FC2E1"/>
            <stop offset="1" stop-color="#78CFEB"/>
        </linearGradient>
        <linearGradient id="paint17_linear" x1="52.9337" y1="82.4046" x2="50.0553" y2="79.8275" gradientUnits="userSpaceOnUse">
            <stop stop-color="#B7E9F9"/>
            <stop offset="1" stop-color="white"/>
        </linearGradient>
        <linearGradient id="paint18_linear" x1="48.9742" y1="55.7433" x2="50.5587" y2="58.3311" gradientUnits="userSpaceOnUse">
            <stop stop-color="white"/>
            <stop offset="1" stop-color="#D1F1FF"/>
        </linearGradient>
    </defs>
    <path fill-rule="evenodd" clip-rule="evenodd" d="M7.94742e-06 50C1.03616e-05 22.385 22.385 -4.31442e-05 50 -4.073e-05C77.615 -3.83158e-05 100 22.385 100 50C100 77.615 77.615 100 50 100C22.385 100 5.53324e-06 77.615 7.94742e-06 50" fill="#E45896"/>
    <path d="M95.9932 69.6448C88.3599 87.4937 70.6411 100 50 100C29.3589 100 11.6401 87.4937 4.00684 69.6448C13.1499 53.7229 30.3223 43 50 43C69.6777 43 86.8501 53.7229 95.9932 69.6448Z" fill="#72DDFF"/>
    <path d="M94.4082 73C86.0835 89.0413 69.3218 100 50 100C30.6782 100 13.917 89.0413 5.59229 73C13.917 56.9587 30.6782 46 50 46C69.3218 46 86.0835 56.9587 94.4082 73Z" fill="#35CCFC"/>
    <path fill-rule="evenodd" clip-rule="evenodd" d="M33.7218 63.7495H31.5778C30.3566 63.7803 29.1427 64.4319 28.2106 65.6978L24.4323 70.8306C22.5226 73.425 22.5226 77.6316 24.4323 80.2261L28.2106 85.3589C29.1427 86.6248 30.3566 87.2729 31.5778 87.3037V87.3108H33.7218V86.6931C34.2306 86.3735 34.7076 85.9287 35.1271 85.3589L38.9054 80.2261C40.8151 77.6316 40.8151 73.425 38.9054 70.8306L35.1271 65.6978C34.7076 65.1279 34.2306 64.6831 33.7218 64.3635V63.7495Z" fill="url(#paint0_linear)"/>
    <path d="M26.4581 80.2262C24.5483 77.6316 24.5483 73.425 26.4581 70.8305L30.2364 65.6978C32.1463 63.1032 35.2428 63.1032 37.1527 65.6978L40.9309 70.8305C42.8408 73.425 42.8408 77.6316 40.9309 80.2262L37.1527 85.3589C35.2428 87.9534 32.1463 87.9534 30.2364 85.3589L26.4581 80.2262Z" fill="url(#paint1_linear)"/>
    <path fill-rule="evenodd" clip-rule="evenodd" d="M33.752 87.2378C34.7627 87.0417 35.7373 86.4153 36.5151 85.3589L40.2935 80.2261C42.2031 77.6316 42.2031 73.425 40.2935 70.8306L36.5151 65.6978C35.5601 64.4004 34.3086 63.7495 33.0571 63.7495L32.8174 65.4233C33.834 65.3335 34.8735 65.8164 35.6504 66.8723L39.4287 72.0049C40.8613 73.9509 40.8613 77.1057 39.4287 79.0518L35.6504 84.1843C34.2183 86.1304 31.8955 86.1304 30.4634 84.1843L30.1851 83.8064L30.1401 84.1208L33.752 87.2378Z" fill="black" fill-opacity="0.12"/>
    <path d="M26.8904 71.4177L30.6687 66.285C32.3398 64.0148 35.0493 64.0148 36.7204 66.285L40.4987 71.4177C42.1698 73.6879 42.1698 77.3687 40.4987 79.6389L36.7204 84.7716C35.0493 87.0419 32.3398 87.0419 30.6687 84.7716L26.8904 79.6389C25.2193 77.3687 25.2193 73.6879 26.8904 71.4177Z" stroke="#B6EDFF" stroke-width="1.45835"/>
    <path d="M30.0031 80.5419L28.442 78.4213C27.1298 76.6387 27.1298 74.2098 28.442 72.4272L32.2362 67.2728C33.0121 66.2188 34.5866 66.2168 35.3652 67.2688L35.9896 68.1126C36.1018 68.2642 35.939 68.5288 35.7517 68.5503C35.4434 68.5857 35.075 68.7256 34.7994 69.133C33.5897 70.9212 31.597 74.6154 30.9046 80.2948C30.8502 80.741 30.2695 80.9039 30.0031 80.5419Z" fill="url(#paint2_linear)" fill-opacity="0.7"/>
    <path fill-rule="evenodd" clip-rule="evenodd" d="M32.7822 71.2732C32.3643 71.2732 32.0259 71.6118 32.0259 72.0293V74.355H30.7847C30.2173 74.355 29.7573 74.8149 29.7573 75.3823C29.7573 75.9497 30.2173 76.4097 30.7847 76.4097H32.0259V78.7354C32.0259 79.1531 32.3643 79.4917 32.7822 79.4917C33.1997 79.4917 33.5381 79.1531 33.5381 78.7354V76.4097H34.7798C35.3472 76.4097 35.8071 75.9497 35.8071 75.3823C35.8071 74.8149 35.3472 74.355 34.7798 74.355H33.5381V72.0293C33.5381 71.6118 33.1997 71.2732 32.7822 71.2732Z" fill="url(#paint3_linear)"/>
    <path fill-rule="evenodd" clip-rule="evenodd" d="M33.5815 71.2732C33.1519 71.2732 32.8037 71.6213 32.8037 72.051V74.355H31.562C30.9946 74.355 30.5347 74.8149 30.5347 75.3823C30.5347 75.9497 30.9946 76.4097 31.562 76.4097H32.8037V78.7139C32.8037 79.1436 33.1519 79.4917 33.5815 79.4917H34.3159V76.4097H35.5571C36.1245 76.4097 36.5845 75.9497 36.5845 75.3823C36.5845 74.8149 36.1245 74.355 35.5571 74.355H34.3159V71.2732H33.5815Z" fill="url(#paint4_linear)"/>
    <path fill-rule="evenodd" clip-rule="evenodd" d="M34.3164 71.2732C33.8984 71.2732 33.5601 71.6118 33.5601 72.0293V74.3552H32.3188C31.7515 74.3552 31.2915 74.8152 31.2915 75.3826C31.2915 75.95 31.7515 76.4099 32.3188 76.4099H33.5601V78.7354C33.5601 79.1531 33.8984 79.4917 34.3164 79.4917C34.7339 79.4917 35.0723 79.1531 35.0723 78.7354V76.4099H36.314C36.8813 76.4099 37.3413 75.95 37.3413 75.3826C37.3413 74.8152 36.8813 74.3552 36.314 74.3552H35.0723V72.0293C35.0723 71.6118 34.7339 71.2732 34.3164 71.2732Z" fill="url(#paint5_linear)"/>
    <path fill-rule="evenodd" clip-rule="evenodd" d="M66.1149 63.7495H63.9708C62.7496 63.7803 61.5358 64.4319 60.6036 65.6978L56.8253 70.8306C54.9156 73.425 54.9156 77.6316 56.8253 80.2261L60.6036 85.3589C61.5358 86.6248 62.7496 87.2729 63.9708 87.3037V87.3108H66.1149V86.6931C66.6237 86.3735 67.1007 85.9287 67.5201 85.3589L71.2985 80.2261C73.2081 77.6316 73.2081 73.425 71.2985 70.8306L67.5201 65.6978C67.1007 65.1279 66.6237 64.6831 66.1149 64.3635V63.7495Z" fill="url(#paint6_linear)"/>
    <path d="M58.8512 80.2262C56.9413 77.6316 56.9413 73.425 58.8512 70.8305L62.6295 65.6978C64.5393 63.1032 67.6359 63.1032 69.5457 65.6978L73.324 70.8305C75.2339 73.425 75.2339 77.6316 73.324 80.2262L69.5457 85.3589C67.6359 87.9534 64.5393 87.9534 62.6295 85.3589L58.8512 80.2262Z" fill="url(#paint7_linear)"/>
    <path fill-rule="evenodd" clip-rule="evenodd" d="M66.145 87.2378C67.1558 87.0417 68.1304 86.4153 68.9082 85.3589L72.6865 80.2261C74.5962 77.6316 74.5962 73.425 72.6865 70.8306L68.9082 65.6978C67.9531 64.4004 66.7017 63.7495 65.4502 63.7495L65.2104 65.4233C66.2271 65.3335 67.2666 65.8164 68.0435 66.8723L71.8218 72.0049C73.2544 73.9509 73.2544 77.1057 71.8218 79.0518L68.0435 84.1843C66.6113 86.1304 64.2886 86.1304 62.8564 84.1843L62.5781 83.8064L62.5332 84.1208L66.145 87.2378Z" fill="black" fill-opacity="0.12"/>
    <path d="M59.2835 79.6389C57.6123 77.3687 57.6123 73.6879 59.2835 71.4177L63.0617 66.285C64.7329 64.0148 67.4423 64.0148 69.1135 66.285L72.8917 71.4177C74.5629 73.6879 74.5629 77.3687 72.8917 79.6389L69.1135 84.7716C67.4423 87.0419 64.7329 87.0419 63.0617 84.7716L59.2835 79.6389Z" stroke="#B6EDFF" stroke-width="1.45835"/>
    <path d="M62.3961 80.5419L60.8351 78.4213C59.5229 76.6387 59.5229 74.2098 60.8351 72.4272L64.6293 67.2728C65.4052 66.2188 66.9797 66.2168 67.7583 67.2688L68.3827 68.1126C68.4948 68.2642 68.3321 68.5288 68.1447 68.5503C67.8365 68.5857 67.468 68.7256 67.1924 69.133C65.9828 70.9212 63.9901 74.6154 63.2977 80.2948C63.2433 80.741 62.6626 80.9039 62.3961 80.5419Z" fill="url(#paint8_linear)" fill-opacity="0.7"/>
    <path fill-rule="evenodd" clip-rule="evenodd" d="M65.1753 71.2732C64.7573 71.2732 64.4189 71.6118 64.4189 72.0293V74.355H63.1777C62.6104 74.355 62.1504 74.8149 62.1504 75.3823C62.1504 75.9497 62.6104 76.4097 63.1777 76.4097H64.4189V78.7354C64.4189 79.1531 64.7573 79.4917 65.1753 79.4917C65.5928 79.4917 65.9312 79.1531 65.9312 78.7354V76.4097H67.1729C67.5527 76.4097 67.8843 76.2036 68.062 75.897C68.1499 75.7456 68.2002 75.5698 68.2002 75.3823C68.2002 74.8149 67.7402 74.355 67.1729 74.355H65.9312V72.0293C65.9312 71.6118 65.5928 71.2732 65.1753 71.2732Z" fill="url(#paint9_linear)"/>
    <path fill-rule="evenodd" clip-rule="evenodd" d="M65.9746 71.2732C65.5449 71.2732 65.1968 71.6213 65.1968 72.051V74.355H63.9551C63.3877 74.355 62.9277 74.8149 62.9277 75.3823C62.9277 75.9497 63.3877 76.4097 63.9551 76.4097H65.1968V78.7139C65.1968 79.1436 65.5449 79.4917 65.9746 79.4917H66.709V76.4097H67.9502C68.5176 76.4097 68.9775 75.9497 68.9775 75.3823C68.9775 74.8149 68.5176 74.355 67.9502 74.355H66.709V71.2732H65.9746Z" fill="url(#paint10_linear)"/>
    <path fill-rule="evenodd" clip-rule="evenodd" d="M66.7095 71.2732C66.2915 71.2732 65.9531 71.6118 65.9531 72.0293V74.3552H64.7119C64.1445 74.3552 63.6846 74.8152 63.6846 75.3826C63.6846 75.95 64.1445 76.4099 64.7119 76.4099H65.9531V78.7354C65.9531 79.1531 66.2915 79.4917 66.7095 79.4917C67.127 79.4917 67.4653 79.1531 67.4653 78.7354V76.4099H68.707C69.2744 76.4099 69.7344 75.95 69.7344 75.3826C69.7344 74.8152 69.2744 74.3552 68.707 74.3552H67.4653V72.0293C67.4653 71.8127 67.3745 71.6177 67.2285 71.4797C67.0933 71.3518 66.9106 71.2732 66.7095 71.2732Z" fill="url(#paint11_linear)"/>
    <path fill-rule="evenodd" clip-rule="evenodd" d="M50.6741 66.24H48.1477V66.2441C46.7087 66.2803 45.2786 67.0444 44.1804 68.5359L39.7283 74.584C37.4773 77.6414 37.4773 82.5984 39.7283 85.6558L44.1804 91.7039C45.2786 93.1953 46.7087 93.9595 48.1477 93.9956V94.0039H50.6741V93.2761C51.2737 92.8997 51.8357 92.3755 52.3303 91.7039L56.7825 85.6558C59.033 82.5984 59.033 77.6414 56.7825 74.584L52.3303 68.5359C51.8357 67.8643 51.2737 67.3401 50.6741 66.9636V66.24Z" fill="url(#paint12_linear)"/>
    <path d="M42.115 85.6556C39.8645 82.5983 39.8645 77.6414 42.115 74.5841L46.5672 68.5359C48.8177 65.4786 52.4665 65.4786 54.7171 68.5359L59.1693 74.5841C61.4198 77.6414 61.4198 82.5983 59.1693 85.6556L54.7171 91.7039C52.4665 94.7612 48.8177 94.7612 46.5672 91.7039L42.115 85.6556Z" fill="url(#paint13_linear)"/>
    <path fill-rule="evenodd" clip-rule="evenodd" d="M50.7095 93.918C51.9009 93.6868 53.0488 92.9487 53.9653 91.7039L58.4175 85.6558C60.668 82.5984 60.668 77.6414 58.4175 74.584L53.9653 68.5359C52.8398 67.0071 51.3652 66.24 49.8901 66.24L49.6079 68.2126C50.8062 68.1067 52.0303 68.6758 52.9463 69.9199L57.3984 75.968C59.0864 78.261 59.0864 81.9788 57.3984 84.2717L52.9463 90.3198C51.2583 92.6128 48.522 92.6128 46.834 90.3198L46.5063 89.8745L46.4531 90.2449L50.7095 93.918Z" fill="black" fill-opacity="0.12"/>
    <path d="M42.6244 84.9637C40.6551 82.2885 40.6551 77.9512 42.6244 75.2761L47.0765 69.2279C49.0458 66.5527 52.2385 66.5527 54.2077 69.2279L58.6599 75.2761C60.6291 77.9512 60.6291 82.2885 58.6599 84.9637L54.2077 91.0119C52.2385 93.687 49.0458 93.687 47.0765 91.0119L42.6244 84.9637Z" stroke="#B6EDFF" stroke-width="1.71847"/>
    <path d="M46.2922 86.0276L44.4527 83.5287C42.9065 81.4282 42.9065 78.566 44.4527 76.4655L48.9237 70.3917C49.8379 69.1497 51.6933 69.1474 52.6107 70.387L53.3465 71.3813C53.4787 71.5599 53.287 71.8717 53.0662 71.8971C52.7029 71.9388 52.2688 72.1036 51.944 72.5837C50.5186 74.6908 48.1705 79.0439 47.3546 85.7364C47.2905 86.2622 46.6062 86.4542 46.2922 86.0276Z" fill="url(#paint14_linear)" fill-opacity="0.7"/>
    <path fill-rule="evenodd" clip-rule="evenodd" d="M48.9292 75.3745C48.7725 75.5352 48.6758 75.7546 48.6758 75.9968V78.7371H47.2129C46.5444 78.7371 46.0024 79.2791 46.0024 79.9478C46.0024 80.6162 46.5444 81.1582 47.2129 81.1582H48.6758V83.8989C48.6758 84.3911 49.0747 84.79 49.5669 84.79C50.0591 84.79 50.458 84.3911 50.458 83.8989V81.1582H51.9209C52.5894 81.1582 53.1313 80.6162 53.1313 79.9478C53.1313 79.2791 52.5894 78.7371 51.9209 78.7371H50.458V75.9968C50.458 75.5046 50.0591 75.1057 49.5669 75.1057C49.3169 75.1057 49.0908 75.2087 48.9292 75.3745Z" fill="url(#paint15_linear)"/>
    <path fill-rule="evenodd" clip-rule="evenodd" d="M50.5088 75.1057C50.0024 75.1057 49.5923 75.5161 49.5923 76.0222V78.7371H48.1294C47.4609 78.7371 46.9189 79.2791 46.9189 79.9478C46.9189 80.3394 47.105 80.6877 47.3936 80.9089C47.5972 81.0652 47.8525 81.1582 48.1294 81.1582H49.5923V83.8735C49.5923 84.3799 50.0024 84.79 50.5088 84.79H51.3745V81.1582H52.8374C53.5059 81.1582 54.0479 80.6162 54.0479 79.9478C54.0479 79.2791 53.5059 78.7371 52.8374 78.7371H51.3745V75.1057H50.5088Z" fill="url(#paint16_linear)"/>
    <path fill-rule="evenodd" clip-rule="evenodd" d="M51.375 75.1057C50.8828 75.1057 50.4839 75.5046 50.4839 75.9968V78.7375H49.021C48.3525 78.7375 47.8105 79.2795 47.8105 79.9482C47.8105 80.1804 47.876 80.3975 47.9893 80.5818C48.2026 80.9277 48.585 81.1587 49.021 81.1587H50.4839V83.8989C50.4839 84.3911 50.8828 84.79 51.375 84.79C51.8672 84.79 52.2661 84.3911 52.2661 83.8989V81.1587H53.729C54.3975 81.1587 54.9395 80.6167 54.9395 79.9482C54.9395 79.2795 54.3975 78.7375 53.729 78.7375H52.2661V75.9968C52.2661 75.5046 51.8672 75.1057 51.375 75.1057Z" fill="url(#paint17_linear)"/>
    <path fill-rule="evenodd" clip-rule="evenodd" d="M40.5858 11.5855C41.3668 10.8045 42.6332 10.8045 43.4142 11.5855L50.0001 18.1714L56.586 11.5855C57.367 10.8045 58.6334 10.8045 59.4144 11.5855C60.1955 12.3666 60.1955 13.6329 59.4144 14.414L52.8286 20.9999L59.4144 27.5857C60.1955 28.3668 60.1955 29.6331 59.4144 30.4142C58.6334 31.1952 57.367 31.1952 56.586 30.4142L50.0001 23.8283L43.4142 30.4142C42.6332 31.1952 41.3668 31.1952 40.5858 30.4142C39.8047 29.6331 39.8047 28.3668 40.5858 27.5857L47.1716 20.9999L40.5858 14.414C39.8047 13.6329 39.8047 12.3666 40.5858 11.5855Z" fill="white"/>
    <path d="M51.2 61.1C50.4889 61.6333 49.5111 61.6333 48.8 61.1L40.8 55.1C39.2624 53.9468 40.0779 51.5 42 51.5L58 51.5C59.922 51.5 60.7376 53.9468 59.2 55.1L51.2 61.1Z" fill="black" fill-opacity="0.2"/>
    <path d="M46.9368 38C45.8674 38 45.0002 38.8669 45.0002 39.9365V50H41.2454C39.8308 50 39.2024 51.7781 40.3025 52.667L48.7439 59.4851C49.4773 60.0771 50.5242 60.0771 51.2576 59.4851L59.699 52.667C60.7991 51.7781 60.1706 50 58.7561 50H55.0002V39.9365C55.0002 38.8669 54.133 38 53.0637 38H46.9368Z" fill="white"/>
    <path d="M46.9368 38C45.8674 38 45.0002 38.8669 45.0002 39.9365V50H41.2454C39.8308 50 39.2024 51.7781 40.3025 52.667L48.7439 59.4851C49.4773 60.0771 50.5242 60.0771 51.2576 59.4851L59.699 52.667C60.7991 51.7781 60.1706 50 58.7561 50H55.0002V39.9365C55.0002 38.8669 54.133 38 53.0637 38H46.9368Z" fill="url(#paint18_linear)"/>
</svg>