<svg width="60" height="64" viewBox="0 0 60 64" fill="none" xmlns="http://www.w3.org/2000/svg">
    <path opacity="0.2" d="M30 64C46.5685 64 60 50.5685 60 34C60 17.4315 46.5685 4 30 4C13.4315 4 0 17.4315 0 34C0 50.5685 13.4315 64 30 64Z" fill="black"/>
    <path d="M30 60C46.5685 60 60 46.5685 60 30C60 13.4315 46.5685 0 30 0C13.4315 0 0 13.4315 0 30C0 46.5685 13.4315 60 30 60Z" fill="#302C3B"/>
    <path d="M30 55C43.8071 55 55 43.8071 55 30C55 16.1929 43.8071 5 30 5C16.1929 5 5 16.1929 5 30C5 43.8071 16.1929 55 30 55Z" fill="#99A8AE"/>
    <path d="M30.001 52C42.1512 52 52.001 42.1503 52.001 30C52.001 17.8497 42.1512 8 30.001 8C17.8507 8 8.00098 17.8497 8.00098 30C8.00098 42.1503 17.8507 52 30.001 52Z" fill="white"/>
    <path d="M31.667 1.998C33.839 1.998 35.956 2.232 38.001 2.672C35.05 1.56364 31.9232 0.997223 28.771 1C15.14 1 3.86798 11.432 2.00098 25C5.75098 11.711 17.61 1.998 31.667 1.998Z" fill="#4E5E67"/>
    <path d="M58.001 28.332C58.001 26.16 57.769 24.043 57.327 22C58.436 24.9508 59.0031 28.0777 59.001 31.23C59.001 44.861 48.567 56.132 35.001 58C48.29 54.25 58.001 42.391 58.001 28.332Z" fill="#1A1626"/>
    <path d="M32.1192 11.9469C32.372 10.8717 33.4486 10.2049 34.5238 10.4577C35.5991 10.7105 36.2658 11.787 36.0131 12.8623L32.3516 28.4377C32.0989 29.513 31.0223 30.1797 29.947 29.927C28.8718 29.6742 28.205 28.5976 28.4578 27.5224L32.1192 11.9469Z" fill="#F90000"/>
    <path d="M17 32C15.8954 32 15 31.1046 15 30C15 28.8954 15.8954 28 17 28L28 28C29.1046 28 30 28.8954 30 30C30 31.1046 29.1046 32 28 32L17 32Z" fill="#302C3B"/>
    <path d="M30 34C32.2091 34 34 32.2091 34 30C34 27.7909 32.2091 26 30 26C27.7909 26 26 27.7909 26 30C26 32.2091 27.7909 34 30 34Z" fill="#302C3B"/>
    <path d="M32.5 30C32.5 31.378 31.381 32.5 30 32.5C28.621 32.5 27.5 31.378 27.5 30C27.5 28.622 28.621 27.5 30 27.5C31.381 27.5 32.5 28.622 32.5 30Z" fill="white"/>
</svg>