<svg width="120" height="120" viewBox="0 0 120 120" fill="none" xmlns="http://www.w3.org/2000/svg">
<path d="M60 115C90.3764 115 115 90.3764 115 60C115 29.6236 90.3764 5 60 5C29.6236 5 5 29.6236 5 60C5 90.3764 29.6236 115 60 115Z" fill="#35CCFC" stroke="white" stroke-width="10"/>
<path d="M83.0228 75.1797C86.5447 71.5945 81.5378 60.6839 71.8405 50.8126C62.1445 40.9442 51.4237 35.8454 47.9018 39.4334C47.3887 39.9557 47.0566 40.6334 46.8936 41.4408L28.875 95.125L81.5759 76.0646C82.1412 75.8753 82.6274 75.5822 83.0228 75.1797Z" fill="black" fill-opacity="0.2"/>
<path d="M28.875 91.125L41.1685 86.6803L31.8722 82.1967L28.875 91.125Z" fill="#E6A400"/>
<path d="M64.7306 54.542L47.2534 36.3677L44.4388 44.7599L64.7306 54.542Z" fill="#FDCA47"/>
<path d="M44.4389 44.7599L41.295 54.1209L79.833 72.6963L81.5781 72.0638L64.7306 54.5421L44.4389 44.7599Z" fill="#E6A400"/>
<path d="M38.1555 63.479L66.9429 77.3567L79.833 72.6963L41.295 54.1209L38.1555 63.479Z" fill="#FDCA47"/>
<path d="M35.0145 72.8386L54.0571 82.0171L66.9428 77.3567L38.1555 63.4791L35.0145 72.8386Z" fill="#E6A400"/>
<path d="M35.0145 72.8386L31.8722 82.1967L41.1685 86.6803L54.0571 82.017L35.0145 72.8386Z" fill="#FDCA47"/>
<path opacity="0.3" d="M73.3225 63.4791L28.875 91.1251L81.5781 72.0638L73.3225 63.4791Z" fill="#302C3B"/>
<path d="M71.8405 46.8126C81.5379 56.6839 86.5447 67.5946 83.0228 71.1797C79.5009 74.7648 68.7786 69.6718 59.0798 59.7976C49.3839 49.9291 44.3799 39.0185 47.9018 35.4334C51.4237 31.8454 62.1445 36.9442 71.8405 46.8126Z" fill="#FDCA47"/>
<path d="M71.159 47.5055C79.8286 56.3188 84.4559 65.9155 81.4932 68.9357C78.5277 71.9545 69.0948 67.2567 60.4252 58.4377C51.7571 49.6272 47.1341 40.0305 50.0968 37.0132C53.0595 33.9901 62.4923 38.6893 71.159 47.5055Z" fill="#753F0B"/>
<path d="M73.5741 50.1146C77.3533 57.0893 77.7371 64.3243 74.0628 68.5749C77.4294 70.0743 80.142 70.3215 81.4961 68.9429C84.167 66.216 80.6509 58.1416 73.5741 50.1146Z" fill="#45332C"/>
<path d="M59.7755 21.9481C57.4324 18.5815 59.9753 17.0764 63.0947 17.6802C60.1292 13.9039 61.9591 11.2905 66.6324 12.3154C68.0943 12.6389 66.0603 15.1904 64.7507 15.0956C68.6808 18.1416 66.5246 21.3559 62.363 20.5983C66.043 25.8265 59.7209 24.5371 56.9552 24.757C56.2321 28.6713 60.5518 33.1319 59.1128 33.1319C55.8928 33.1304 50.7682 20.7852 59.7755 21.9481Z" fill="#0FB4D4"/>
<path d="M90.0334 29.163C87.9088 30.1563 81.8296 20.3252 89.2802 20.2404C85.0022 16.2169 85.5542 14.2777 91.2912 14.1598C84.7176 7.34319 95.1078 4.875 96.2017 8.52481C96.5281 9.61731 93.0206 7.56169 91.8792 9.521C90.5581 11.7836 99.9709 17.4919 90.2591 17.1584C93.8284 20.9175 94.0469 22.6727 88.3487 23.3037C89.0947 24.3718 91.3847 28.5377 90.0334 29.163Z" fill="#A6E639"/>
<path d="M92.4499 52.3656L94.6349 50.4451C94.6349 50.4451 96.6977 53.53 98.1496 54.7016C99.2622 49.4058 98.9661 46.1887 104.932 49.8615C101.561 40.6471 107.118 44.1288 112.369 46.6271C112.066 44.2855 112.417 44.5327 114.691 43.8729C116.711 51.7058 111.285 49.4375 106.862 46.8658C109.394 53.9325 106.744 53.6091 101.209 51.1926C101.115 54.1884 100.166 57.5852 98.4284 57.8741C96.4519 58.2062 92.4499 52.3656 92.4499 52.3656Z" fill="#E81C27"/>
<path d="M76.3297 30.2339C73.6761 33.8076 69.631 35.8043 66.5662 38.9294C63.3764 42.1839 61.4689 51.1366 61.4689 51.1366C61.4689 51.1366 62.6088 41.7986 65.6577 38.2049C68.4177 34.9561 72.3651 32.5871 74.5012 28.8108C78.3221 22.0474 74.9109 13.0012 70.0349 7.83481C71.0599 6.8875 72.4197 5.69725 73.2406 4.875C77.8291 10.9671 81.9087 22.7316 76.3297 30.2339Z" fill="#E635DE"/>
<path d="M80.7501 37.8585C76.9464 40.686 74.3345 44.7901 71.6852 48.6987C69.3464 52.1487 62.041 56.3864 62.041 56.3864C62.041 56.3864 68.9841 51.5435 71.0469 47.9109C73.5855 43.4388 76.1817 38.8317 80.2095 35.5973C88.2653 29.1343 99.8774 29.8588 108.988 33.2585C108.471 34.6255 107.397 37.4416 107.397 37.4416C107.397 37.4416 88.4249 32.1545 80.7501 37.8585Z" fill="#A6E639"/>
<path d="M96.7911 37.1713C94.3747 40.4877 93.1312 44.4911 91.2768 48.1323C89.5533 51.5262 87.2763 54.8095 83.9053 56.6107C80.234 58.5728 71.9324 57.9015 71.9324 57.9015C71.9324 57.9015 80.1894 57.798 83.5833 55.4333C87.0477 53.0184 88.8662 48.9315 90.2203 44.9913C92.7589 37.6213 95.943 29.567 103.437 26.2866L104.945 30.5042C104.945 30.5042 100.82 31.6427 96.7911 37.1713ZM38.7607 21.6305L34.6954 25.8367L30.6316 21.6305L34.6954 17.423L38.7607 21.6305Z" fill="#0FB4D4"/>
<path d="M44.4388 34.9116L40.3707 39.1163L36.3054 34.9116L40.3707 30.7054L44.4388 34.9116Z" fill="#A6E639"/>
<path d="M54.8219 15.0295L50.7552 19.2356L46.6885 15.0295L50.7566 10.8248L54.8219 15.0295Z" fill="#E81C27"/>
<path d="M99.0839 65.3377L95.0187 69.5424L90.9506 65.3377L95.0187 61.1316L99.0839 65.3377Z" fill="#E635DE"/>
<path d="M90.0162 79.7601L85.9524 83.9663L81.8871 79.7601L85.951 75.5511L90.0162 79.7601Z" fill="#E81C27"/>
<path d="M107.853 83.0864L103.789 87.2926L99.7193 83.0864L103.787 78.8803L107.853 83.0864Z" fill="#A6E639"/>
<path d="M111.919 63.9246L107.853 68.1307L103.789 63.9246L107.853 59.7156L111.919 63.9246ZM105.133 19.4915L101.068 23.6976L96.9996 19.4915L101.068 15.2853L105.133 19.4915Z" fill="#0FB4D4"/>
<path d="M61.5148 44.7743L57.4496 48.9776L53.3843 44.7743L57.4496 40.5653L61.5148 44.7743Z" fill="#A6E639"/>
</svg>
