<svg width="49" height="64" viewBox="0 0 48 64" fill="none" xmlns="http://www.w3.org/2000/svg">
    <path fill-rule="evenodd" clip-rule="evenodd" d="M21.7039 4.45672C22.4318 4.15519 23.2121 4 24 4C25.5913 4 27.1174 4.63214 28.2426 5.75736C29.3679 6.88258 30 8.4087 30 10C30 11.5913 29.3679 13.1174 28.2426 14.2426C27.6038 14.8814 26.8358 15.3613 26 15.6569V16.0821C31.2032 16.5114 35.9357 18.6004 39.667 21.8186L40.7448 20.7494L39.761 19.774L42.738 16.821C43.0233 16.5392 43.408 16.3812 43.809 16.3812C44.21 16.3812 44.5947 16.5392 44.88 16.821L47.558 19.477C47.6987 19.6159 47.8104 19.7813 47.8866 19.9637C47.9628 20.1461 48.0021 20.3418 48.0021 20.5395C48.0021 20.7372 47.9628 20.9329 47.8866 21.1153C47.8104 21.2977 47.6987 21.4631 47.558 21.602L44.581 24.553L43.5974 23.5778L42.4801 24.6861C45.9275 28.8416 48 34.1788 48 40C48 53.2548 37.2548 64 24 64C10.7452 64 0 53.2548 0 40C0 34.179 2.07233 28.8419 5.51953 24.6865L4.4035 23.5791L3.41998 24.555L0.444031 21.602C0.303589 21.463 0.192078 21.2975 0.115967 21.1151C0.039917 20.9328 0.000732422 20.7371 0.000732422 20.5395C0.000732422 20.3419 0.039917 20.1462 0.115967 19.9639C0.192078 19.7815 0.303589 19.616 0.444031 19.477L3.12201 16.82C3.4071 16.5383 3.79175 16.3803 4.1925 16.3803C4.59332 16.3803 4.97791 16.5383 5.263 16.82L8.23804 19.774L7.25513 20.7494L8.33301 21.8186C12.0643 18.6004 16.7968 16.5114 22 16.0821V15.6569C21.9005 15.6217 21.8017 15.5838 21.7039 15.5433C20.976 15.2417 20.3145 14.7998 19.7574 14.2426C19.2002 13.6855 18.7582 13.0241 18.4567 12.2961C18.1552 11.5681 18 10.7879 18 10C18 9.21207 18.1552 8.43185 18.4567 7.7039C18.7582 6.97594 19.2002 6.31451 19.7574 5.75736C20.3145 5.20021 20.976 4.75825 21.7039 4.45672ZM21 8.172V12.6458C20.3575 11.9173 20 10.9771 20 10C20 8.93913 20.4214 7.92172 21.1716 7.17157C21.9217 6.42143 22.9391 6 24 6C25.0609 6 26.0783 6.42143 26.8284 7.17157C27.5786 7.92172 28 8.93913 28 10C28 10.9771 27.6425 11.9173 27 12.6458V8.172C27 6.609 21 6.609 21 8.172Z" fill="black" fill-opacity="0.2"/>
    <path d="M24 0C23.2121 -1.17411e-08 22.4319 0.155195 21.7039 0.456723C20.9759 0.758251 20.3145 1.20021 19.7574 1.75736C19.2002 2.31451 18.7583 2.97595 18.4567 3.7039C18.1552 4.43185 18 5.21207 18 6C18 6.78793 18.1552 7.56815 18.4567 8.2961C18.7583 9.02405 19.2002 9.68549 19.7574 10.2426C20.3145 10.7998 20.9759 11.2417 21.7039 11.5433C22.4319 11.8448 23.2121 12 24 12C25.5913 12 27.1174 11.3679 28.2426 10.2426C29.3679 9.11742 30 7.5913 30 6C30 4.4087 29.3679 2.88258 28.2426 1.75736C27.1174 0.632141 25.5913 2.37122e-08 24 0V0ZM24 10C22.9391 10 21.9217 9.57857 21.1716 8.82843C20.4214 8.07828 20 7.06087 20 6C20 4.93913 20.4214 3.92172 21.1716 3.17157C21.9217 2.42143 22.9391 2 24 2C25.0609 2 26.0783 2.42143 26.8284 3.17157C27.5786 3.92172 28 4.93913 28 6C28 7.06087 27.5786 8.07828 26.8284 8.82843C26.0783 9.57857 25.0609 10 24 10V10Z" fill="#CFD8DD"/>
    <path d="M22 8H26V14H22V8Z" fill="#99A8AE"/>
    <path d="M27 9.999L21 10V4.172C21 2.609 27 2.609 27 4.172V9.999V9.999Z" fill="#BEC3CF"/>
    <path d="M9.26998 18.748L6.41798 21.578L3.56598 18.748L6.41798 15.919L9.26998 18.748Z" fill="#99A8AE"/>
    <path d="M8.23801 15.774L3.42001 20.555L0.444011 17.602C0.30357 17.463 0.192082 17.2975 0.115995 17.1151C0.0399087 16.9328 0.000732422 16.7371 0.000732422 16.5395C0.000732422 16.3419 0.0399087 16.1462 0.115995 15.9639C0.192082 15.7815 0.30357 15.616 0.444011 15.477L3.12201 12.82C3.40709 12.5383 3.79172 12.3803 4.19251 12.3803C4.5933 12.3803 4.97793 12.5383 5.26301 12.82L8.23801 15.774Z" fill="#BEC3CF"/>
    <path d="M41.582 21.577L38.73 18.748L41.582 15.919L44.434 18.748L41.582 21.577Z" fill="#99A8AE"/>
    <path d="M44.581 20.553L39.761 15.774L42.738 12.821C43.0232 12.5392 43.408 12.3812 43.809 12.3812C44.2099 12.3812 44.5947 12.5392 44.88 12.821L47.558 15.477C47.6987 15.6159 47.8104 15.7813 47.8866 15.9637C47.9628 16.1461 48.0021 16.3418 48.0021 16.5395C48.0021 16.7372 47.9628 16.9329 47.8866 17.1153C47.8104 17.2977 47.6987 17.4631 47.558 17.602L44.581 20.553Z" fill="#BEC3CF"/>
    <path d="M24 60C37.2548 60 48 49.2548 48 36C48 22.7452 37.2548 12 24 12C10.7452 12 0 22.7452 0 36C0 49.2548 10.7452 60 24 60Z" fill="#BEC3CF"/>
    <path d="M24 57C35.598 57 45 47.598 45 36C45 24.402 35.598 15 24 15C12.402 15 3 24.402 3 36C3 47.598 12.402 57 24 57Z" fill="#E6EBEF"/>
    <path d="M24 55C34.4934 55 43 46.4934 43 36C43 25.5066 34.4934 17 24 17C13.5066 17 5 25.5066 5 36C5 46.4934 13.5066 55 24 55Z" fill="white"/>
    <path d="M43 36C43 41.213 40.899 45.936 37.5 49.369L24 36V17C34.492 17 43 25.507 43 36Z" fill="#E03636"/>
    <path d="M34.936 47.021L25.228 35.52L23.329 37.419L34.936 47.021ZM23.329 18.73H24.672V24.103H23.329V18.73ZM23.329 48.277H24.672V53.651H23.329V48.277ZM6.539 35.52H11.913V36.863H6.539V35.52ZM36.087 35.52H41.461V36.863H36.087V35.52ZM14.69 21.406L15.852 20.734L17.196 23.06L16.033 23.732L14.69 21.406ZM8.544 28.042L9.215 26.879L11.543 28.222L10.871 29.385L8.544 28.042ZM9.213 45.502L8.542 44.341L10.869 42.995L11.54 44.156L9.213 45.502ZM15.852 51.646L14.689 50.974L16.033 48.65L17.196 49.322L15.852 51.646ZM33.314 50.976L32.152 51.648L30.808 49.322L31.969 48.65L33.314 50.976ZM39.46 44.34L38.789 45.502L36.464 44.157L37.136 42.996L39.46 44.34ZM38.788 26.879L39.458 28.042L37.131 29.382L36.461 28.22L38.788 26.879ZM32.15 20.733L33.311 21.404L31.968 23.73L30.806 23.059L32.15 20.733Z" fill="#302C3B"/>
    <path d="M24 38.999C25.6569 38.999 27 37.6559 27 35.999C27 34.3421 25.6569 32.999 24 32.999C22.3431 32.999 21 34.3421 21 35.999C21 37.6559 22.3431 38.999 24 38.999Z" fill="#302C3B"/>
    <path opacity="0.3" fill-rule="evenodd" clip-rule="evenodd" d="M39.619 36.809C39.179 41.742 33.369 32.08 27.476 23.784C23.684 18.444 40.947 21.96 39.619 36.809Z" fill="white"/>
</svg>