<svg width="250" height="250" viewBox="0 0 250 250" fill="none" xmlns="http://www.w3.org/2000/svg">
    <defs>
        <linearGradient id="paint0_linear" x1="140.068" y1="172.132" x2="156.252" y2="187.62" gradientUnits="userSpaceOnUse">
            <stop stop-color="#414CBE"/>
            <stop offset="1" stop-color="#FF4770"/>
        </linearGradient>
        <linearGradient id="paint1_linear" x1="68.7751" y1="130.306" x2="192.823" y2="130.306" gradientUnits="userSpaceOnUse">
            <stop stop-color="#F9EB74"/>
            <stop offset="1" stop-color="#F9D100"/>
        </linearGradient>
        <linearGradient id="paint2_linear" x1="57.2222" y1="73.8889" x2="92.7777" y2="73.8889" gradientUnits="userSpaceOnUse">
            <stop stop-color="#F9EB74"/>
            <stop offset="1" stop-color="#F9D100"/>
        </linearGradient>
        <linearGradient id="paint3_linear" x1="76.0939" y1="139.064" x2="120.557" y2="139.064" gradientUnits="userSpaceOnUse">
            <stop stop-color="#FCF5BC"/>
            <stop offset="1" stop-color="#F9EB74"/>
        </linearGradient>
    </defs>
    <path d="M64.5 156C64.5 156 67 160.5 73.5 167.5C80 174.5 80.6667 179.5 81.5 183.5" stroke="#49F0B4" stroke-width="4" stroke-linecap="round" stroke-linejoin="round"/>
    <path d="M63 175C71 179.5 70 187.5 70 187.5" stroke="#49F0B4" stroke-width="4" stroke-linecap="round" stroke-linejoin="round"/>
    <path d="M211.5 130.5C210.5 136.167 206.8 149.2 200 156" stroke="#49F0B4" stroke-width="4" stroke-linecap="round" stroke-linejoin="round"/>
    <path d="M220 145C220 145 218 152 214 158" stroke="#49F0B4" stroke-width="4" stroke-linecap="round" stroke-linejoin="round"/>
    <path d="M148.333 193.889C156.924 193.889 163.889 186.924 163.889 178.333C163.889 169.742 156.924 162.778 148.333 162.778C139.742 162.778 132.778 169.742 132.778 178.333C132.778 186.924 139.742 193.889 148.333 193.889Z" fill="url(#paint0_linear)"/>
    <path d="M90.5555 73.7777C96.8889 70.111 104.222 68.3333 111.556 68.3333C123 68.3333 133.889 72.8888 142.111 81.111L147.556 86.5555C159.889 98.8888 172.667 106.667 185.444 109.333C187.222 109.778 188.667 110.222 189.556 111.667C194.556 115.333 193.667 123.111 187.222 133.555C182.222 142.667 173.556 153.222 163.444 163.222C146.111 180.555 127.889 192.444 117.778 192.444C115 192.444 112.778 191.555 111.444 190.111C110.556 189.222 109.667 187.333 109.111 186C106.333 173.222 99.1111 160.444 86.3333 148.111L81.7778 143.555C68 129.555 65.1111 108 73.4444 91.6666C73.4444 91.6666 77.3333 82.4444 90.5555 73.7777Z" fill="url(#paint1_linear)"/>
    <path d="M74.9999 91.6666C65.2222 91.6666 57.2222 83.6666 57.2222 73.8889C57.2222 64.1111 65.2222 56.1111 74.9999 56.1111C84.7777 56.1111 92.7777 64.1111 92.7777 73.8889C92.7777 83.6666 84.7777 91.6666 74.9999 91.6666ZM74.9999 65C70.1111 65 66.1111 69 66.1111 73.8889C66.1111 78.7778 70.1111 82.7778 74.9999 82.7778C79.8888 82.7778 83.8888 78.7778 83.8888 73.8889C83.8888 69 79.8888 65 74.9999 65Z" fill="url(#paint2_linear)"/>
    <path d="M115.444 179.556L114 175.889C110.444 166.778 105.889 158.445 100.222 151.445C96.8887 147.333 93.7776 144.222 90.7776 141.111C84.7776 135.111 79.6665 130 77.3332 121.111C75.7776 115.222 75.7776 109 77.3332 102.556L78.2221 98.6667C82.3332 99.6667 84.9998 103.556 84.5554 107.778C84.1109 111.222 84.1109 115.333 84.9998 119.111C86.7776 126 90.8887 130 96.4443 135.556C99.4443 138.556 102.889 142.111 106.555 146.556C112.778 154.111 117.333 163 120 169.222C121.667 173.222 119.667 178 115.444 179.556Z" fill="url(#paint3_linear)"/>
</svg>