<svg width="250" height="250" viewBox="0 0 250 250" fill="none" xmlns="http://www.w3.org/2000/svg">
    <defs>
        <linearGradient id="paint0_linear" x1="153.317" y1="127.833" x2="213.561" y2="127.833" gradientUnits="userSpaceOnUse">
            <stop stop-color="#F9EB74"/>
            <stop offset="0.00897293" stop-color="#F9EB74"/>
            <stop offset="1" stop-color="#F9D100"/>
        </linearGradient>
        <linearGradient id="paint1_linear" x1="96.2439" y1="127.833" x2="36" y2="127.833" gradientUnits="userSpaceOnUse">
            <stop stop-color="#F9D100"/>
            <stop offset="0.6355" stop-color="#F9EA6F"/>
            <stop offset="1" stop-color="#F9EB74"/>
        </linearGradient>
        <linearGradient id="paint2_linear" x1="36" y1="148.439" x2="213.561" y2="148.439" gradientUnits="userSpaceOnUse">
            <stop stop-color="#F0C818"/>
            <stop offset="1" stop-color="#E0BC1B"/>
        </linearGradient>
        <linearGradient id="paint3_linear" x1="89.9023" y1="83.4488" x2="159.658" y2="83.4488" gradientUnits="userSpaceOnUse">
            <stop stop-color="#F9EB74"/>
            <stop offset="0.00897293" stop-color="#F9EB74"/>
            <stop offset="1" stop-color="#F9D100"/>
        </linearGradient>
        <linearGradient id="paint4_linear" x1="44.1392" y1="127.56" x2="66.5522" y2="127.56" gradientUnits="userSpaceOnUse">
            <stop offset="0.1691" stop-color="white" stop-opacity="0.4"/>
            <stop offset="1" stop-color="white"/>
        </linearGradient>
        <linearGradient id="paint5_linear" x1="104.612" y1="69.9843" x2="104.426" y2="95.2866" gradientUnits="userSpaceOnUse">
            <stop stop-color="white"/>
            <stop offset="1" stop-color="white" stop-opacity="0.4"/>
        </linearGradient>
        <linearGradient id="paint6_linear" x1="138.447" y1="145.92" x2="116.502" y2="121.665" gradientUnits="userSpaceOnUse">
            <stop stop-color="#FF4770"/>
            <stop offset="1" stop-color="#414CBE"/>
        </linearGradient>
    </defs>
    <path d="M191.37 110.39H153.32V145.27H213.56L191.37 110.39Z" fill="url(#paint0_linear)"/>
    <path d="M58.2 110.39H96.24V145.27H36L58.2 110.39Z" fill="url(#paint1_linear)"/>
    <path d="M153.74 145.27L159.66 100.88H89.9L95.82 145.27H36L58.2 196H102.59H146.98H191.37L213.56 145.27H153.74Z" fill="url(#paint2_linear)"/>
    <path d="M146.98 66H102.59L89.8999 100.88H159.66L146.98 66Z" fill="url(#paint3_linear)"/>
    <path opacity="0.7" d="M44.1401 141.52L61.9101 113.6C65.5901 113.64 67.7901 117.71 65.8101 120.81L57.1901 134.36C54.3501 138.82 49.4301 141.52 44.1401 141.52Z" fill="url(#paint4_linear)"/>
    <path opacity="0.7" d="M97 97.1L106.58 68.95C110.29 68.95 112.91 72.6 111.71 76.11L107.02 89.8799C105.56 94.18 101.53 97.08 97 97.1Z" fill="url(#paint5_linear)"/>
    <path d="M133.81 135.87C134.3 136.3 134.51 136.94 134.46 137.79C134.35 139.54 133.26 140.42 131.2 140.42H118.89C116.83 140.42 115.74 139.54 115.63 137.79C115.57 136.94 115.79 136.3 116.28 135.87C116.77 135.45 117.56 135.23 118.67 135.23H121.65L121.34 122.41L118.21 124.08C117.77 124.32 117.32 124.43 116.84 124.43C116.1 124.43 115.45 124.14 114.89 123.56C114.32 122.98 114.01 122.34 113.96 121.63C113.89 120.66 114.31 119.93 115.23 119.43L121.68 116.13C122.89 115.54 124.05 115.24 125.13 115.24C126.25 115.24 127.14 115.52 127.81 116.09C128.48 116.66 128.8 117.43 128.78 118.4L128.41 135.23H131.43C132.53 135.23 133.33 135.44 133.81 135.87Z" fill="url(#paint6_linear)"/>
    <path d="M35 99C35 99 42.918 96.3855 53.0339 88.958M91 31C84.8119 54.5616 73.4241 70.4876 62.5254 80.9643" stroke="#49F0B4" stroke-width="4" stroke-linecap="round" stroke-linejoin="round"/>
    <path d="M78 38.5L92 29L98 44.5" stroke="#49F0B4" stroke-width="4" stroke-linecap="round" stroke-linejoin="round"/>
    <path d="M193 73C193 73 152.5 56 147 11.5" stroke="#49F0B4" stroke-width="4" stroke-linecap="round" stroke-linejoin="round"/>
    <path d="M158.5 19L146.47 8.31629L138.5 22" stroke="#49F0B4" stroke-width="4" stroke-linecap="round" stroke-linejoin="round"/>
</svg>
