<svg width="250" height="250" viewBox="0 0 250 250" fill="none" xmlns="http://www.w3.org/2000/svg">
    <defs>
        <linearGradient id="paint0_linear" x1="72.0852" y1="122.032" x2="175.816" y2="149.827" gradientUnits="userSpaceOnUse">
            <stop stop-color="#C9AC30"/>
            <stop offset="1" stop-color="#F9D100"/>
        </linearGradient>
        <linearGradient id="paint1_linear" x1="164.068" y1="173.205" x2="167.819" y2="174.21" gradientUnits="userSpaceOnUse">
            <stop stop-color="#CAAD30"/>
            <stop offset="1" stop-color="#CAAD30" stop-opacity="0"/>
        </linearGradient>
        <linearGradient id="paint2_linear" x1="67.1449" y1="147.163" x2="70.8956" y2="148.168" gradientUnits="userSpaceOnUse">
            <stop stop-color="#CAAD30"/>
            <stop offset="1" stop-color="#CAAD30" stop-opacity="0"/>
        </linearGradient>
        <linearGradient id="paint3_linear" x1="152.226" y1="182.838" x2="157.852" y2="184.345" gradientUnits="userSpaceOnUse">
            <stop stop-color="#CAAD30"/>
            <stop offset="1" stop-color="#CAAD30" stop-opacity="0"/>
        </linearGradient>
        <linearGradient id="paint4_linear" x1="70.8679" y1="161.024" x2="76.4939" y2="162.531" gradientUnits="userSpaceOnUse">
            <stop stop-color="#CAAD30"/>
            <stop offset="1" stop-color="#CAAD30" stop-opacity="0"/>
        </linearGradient>
        <linearGradient id="paint5_linear" x1="137.678" y1="188.719" x2="145.179" y2="190.729" gradientUnits="userSpaceOnUse">
            <stop stop-color="#CAAD30"/>
            <stop offset="1" stop-color="#CAAD30" stop-opacity="0"/>
        </linearGradient>
        <linearGradient id="paint6_linear" x1="78.8211" y1="172.946" x2="86.3225" y2="174.956" gradientUnits="userSpaceOnUse">
            <stop stop-color="#CAAD30"/>
            <stop offset="1" stop-color="#CAAD30" stop-opacity="0"/>
        </linearGradient>
        <linearGradient id="paint7_linear" x1="122.448" y1="190.218" x2="131.825" y2="192.73" gradientUnits="userSpaceOnUse">
            <stop stop-color="#CAAD30"/>
            <stop offset="1" stop-color="#CAAD30" stop-opacity="0"/>
        </linearGradient>
        <linearGradient id="paint8_linear" x1="89.5578" y1="181.405" x2="98.9345" y2="183.917" gradientUnits="userSpaceOnUse">
            <stop stop-color="#CAAD30"/>
            <stop offset="1" stop-color="#CAAD30" stop-opacity="0"/>
        </linearGradient>
        <linearGradient id="paint9_linear" x1="104.794" y1="186.921" x2="116.046" y2="189.936" gradientUnits="userSpaceOnUse">
            <stop stop-color="#CAAD30"/>
            <stop offset="1" stop-color="#CAAD30" stop-opacity="0"/>
        </linearGradient>
        <linearGradient id="paint10_linear" x1="73.2448" y1="117.704" x2="177.11" y2="145.535" gradientUnits="userSpaceOnUse">
            <stop stop-color="#F9EB74"/>
            <stop offset="1" stop-color="#F9D100"/>
        </linearGradient>
        <linearGradient id="paint11_linear" x1="87.0933" y1="121.415" x2="163.261" y2="141.824" gradientUnits="userSpaceOnUse">
            <stop stop-color="#F9D100"/>
            <stop offset="1" stop-color="#F9EB74"/>
        </linearGradient>
        <linearGradient id="paint12_linear" x1="135.249" y1="150.809" x2="117.872" y2="111.467" gradientUnits="userSpaceOnUse">
            <stop stop-color="#FF4770"/>
            <stop offset="1" stop-color="#414CBE"/>
        </linearGradient>
        <linearGradient id="paint13_linear" x1="86.4863" y1="98.9879" x2="133.368" y2="111.55" gradientUnits="userSpaceOnUse">
            <stop stop-color="#F9EB74"/>
            <stop offset="1" stop-color="#FCF5BC"/>
        </linearGradient>
        <linearGradient id="paint14_linear" x1="126" y1="181.5" x2="54" y2="152" gradientUnits="userSpaceOnUse">
            <stop stop-color="#5A4C00"/>
            <stop offset="1" stop-color="#756302"/>
        </linearGradient>
        <linearGradient id="paint15_linear" x1="77.0852" y1="107.032" x2="180.816" y2="134.827" gradientUnits="userSpaceOnUse">
            <stop stop-color="#C9AC30"/>
            <stop offset="1" stop-color="#F9D100"/>
        </linearGradient>
        <linearGradient id="paint16_linear" x1="169.068" y1="158.205" x2="172.819" y2="159.21" gradientUnits="userSpaceOnUse">
            <stop stop-color="#CAAD30"/>
            <stop offset="1" stop-color="#CAAD30" stop-opacity="0"/>
        </linearGradient>
        <linearGradient id="paint17_linear" x1="72.1449" y1="132.163" x2="75.8956" y2="133.168" gradientUnits="userSpaceOnUse">
            <stop stop-color="#CAAD30"/>
            <stop offset="1" stop-color="#CAAD30" stop-opacity="0"/>
        </linearGradient>
        <linearGradient id="paint18_linear" x1="157.226" y1="167.838" x2="162.852" y2="169.345" gradientUnits="userSpaceOnUse">
            <stop stop-color="#CAAD30"/>
            <stop offset="1" stop-color="#CAAD30" stop-opacity="0"/>
        </linearGradient>
        <linearGradient id="paint19_linear" x1="75.8679" y1="146.024" x2="81.4939" y2="147.531" gradientUnits="userSpaceOnUse">
            <stop stop-color="#CAAD30"/>
            <stop offset="1" stop-color="#CAAD30" stop-opacity="0"/>
        </linearGradient>
        <linearGradient id="paint20_linear" x1="142.678" y1="173.719" x2="150.179" y2="175.729" gradientUnits="userSpaceOnUse">
            <stop stop-color="#CAAD30"/>
            <stop offset="1" stop-color="#CAAD30" stop-opacity="0"/>
        </linearGradient>
        <linearGradient id="paint21_linear" x1="83.8211" y1="157.946" x2="91.3225" y2="159.956" gradientUnits="userSpaceOnUse">
            <stop stop-color="#CAAD30"/>
            <stop offset="1" stop-color="#CAAD30" stop-opacity="0"/>
        </linearGradient>
        <linearGradient id="paint22_linear" x1="127.448" y1="175.218" x2="136.825" y2="177.73" gradientUnits="userSpaceOnUse">
            <stop stop-color="#CAAD30"/>
            <stop offset="1" stop-color="#CAAD30" stop-opacity="0"/>
        </linearGradient>
        <linearGradient id="paint23_linear" x1="94.5578" y1="166.405" x2="103.935" y2="168.917" gradientUnits="userSpaceOnUse">
            <stop stop-color="#CAAD30"/>
            <stop offset="1" stop-color="#CAAD30" stop-opacity="0"/>
        </linearGradient>
        <linearGradient id="paint24_linear" x1="109.794" y1="171.921" x2="121.046" y2="174.936" gradientUnits="userSpaceOnUse">
            <stop stop-color="#CAAD30"/>
            <stop offset="1" stop-color="#CAAD30" stop-opacity="0"/>
        </linearGradient>
        <linearGradient id="paint25_linear" x1="78.2448" y1="102.704" x2="182.11" y2="130.535" gradientUnits="userSpaceOnUse">
            <stop stop-color="#F9EB74"/>
            <stop offset="1" stop-color="#F9D100"/>
        </linearGradient>
        <linearGradient id="paint26_linear" x1="92.0933" y1="106.415" x2="168.261" y2="126.824" gradientUnits="userSpaceOnUse">
            <stop stop-color="#F9D100"/>
            <stop offset="1" stop-color="#F9EB74"/>
        </linearGradient>
        <linearGradient id="paint27_linear" x1="140.249" y1="135.809" x2="122.872" y2="96.4667" gradientUnits="userSpaceOnUse">
            <stop stop-color="#FF4770"/>
            <stop offset="1" stop-color="#414CBE"/>
        </linearGradient>
        <linearGradient id="paint28_linear" x1="91.4863" y1="83.9879" x2="138.368" y2="96.5497" gradientUnits="userSpaceOnUse">
            <stop stop-color="#F9EB74"/>
            <stop offset="1" stop-color="#FCF5BC"/>
        </linearGradient>
        <linearGradient id="paint29_linear" x1="67.0852" y1="92.0322" x2="170.816" y2="119.827" gradientUnits="userSpaceOnUse">
            <stop stop-color="#C9AC30"/>
            <stop offset="1" stop-color="#F9D100"/>
        </linearGradient>
        <linearGradient id="paint30_linear" x1="159.068" y1="143.205" x2="162.819" y2="144.21" gradientUnits="userSpaceOnUse">
            <stop stop-color="#CAAD30"/>
            <stop offset="1" stop-color="#CAAD30" stop-opacity="0"/>
        </linearGradient>
        <linearGradient id="paint31_linear" x1="62.1449" y1="117.163" x2="65.8956" y2="118.168" gradientUnits="userSpaceOnUse">
            <stop stop-color="#CAAD30"/>
            <stop offset="1" stop-color="#CAAD30" stop-opacity="0"/>
        </linearGradient>
        <linearGradient id="paint32_linear" x1="147.226" y1="152.838" x2="152.852" y2="154.345" gradientUnits="userSpaceOnUse">
            <stop stop-color="#CAAD30"/>
            <stop offset="1" stop-color="#CAAD30" stop-opacity="0"/>
        </linearGradient>
        <linearGradient id="paint33_linear" x1="65.8679" y1="131.024" x2="71.4939" y2="132.531" gradientUnits="userSpaceOnUse">
            <stop stop-color="#CAAD30"/>
            <stop offset="1" stop-color="#CAAD30" stop-opacity="0"/>
        </linearGradient>
        <linearGradient id="paint34_linear" x1="132.678" y1="158.719" x2="140.179" y2="160.729" gradientUnits="userSpaceOnUse">
            <stop stop-color="#CAAD30"/>
            <stop offset="1" stop-color="#CAAD30" stop-opacity="0"/>
        </linearGradient>
        <linearGradient id="paint35_linear" x1="73.8211" y1="142.946" x2="81.3225" y2="144.956" gradientUnits="userSpaceOnUse">
            <stop stop-color="#CAAD30"/>
            <stop offset="1" stop-color="#CAAD30" stop-opacity="0"/>
        </linearGradient>
        <linearGradient id="paint36_linear" x1="117.448" y1="160.218" x2="126.825" y2="162.73" gradientUnits="userSpaceOnUse">
            <stop stop-color="#CAAD30"/>
            <stop offset="1" stop-color="#CAAD30" stop-opacity="0"/>
        </linearGradient>
        <linearGradient id="paint37_linear" x1="84.5578" y1="151.405" x2="93.9345" y2="153.917" gradientUnits="userSpaceOnUse">
            <stop stop-color="#CAAD30"/>
            <stop offset="1" stop-color="#CAAD30" stop-opacity="0"/>
        </linearGradient>
        <linearGradient id="paint38_linear" x1="99.7936" y1="156.921" x2="111.046" y2="159.936" gradientUnits="userSpaceOnUse">
            <stop stop-color="#CAAD30"/>
            <stop offset="1" stop-color="#CAAD30" stop-opacity="0"/>
        </linearGradient>
        <linearGradient id="paint39_linear" x1="68.2448" y1="87.7045" x2="172.11" y2="115.535" gradientUnits="userSpaceOnUse">
            <stop stop-color="#F9EB74"/>
            <stop offset="1" stop-color="#F9D100"/>
        </linearGradient>
        <linearGradient id="paint40_linear" x1="82.0933" y1="91.4153" x2="158.261" y2="111.824" gradientUnits="userSpaceOnUse">
            <stop stop-color="#F9D100"/>
            <stop offset="1" stop-color="#F9EB74"/>
        </linearGradient>
        <linearGradient id="paint41_linear" x1="130.249" y1="120.809" x2="112.872" y2="81.4667" gradientUnits="userSpaceOnUse">
            <stop stop-color="#FF4770"/>
            <stop offset="1" stop-color="#414CBE"/>
        </linearGradient>
        <linearGradient id="paint42_linear" x1="81.4863" y1="68.9879" x2="128.368" y2="81.5497" gradientUnits="userSpaceOnUse">
            <stop stop-color="#F9EB74"/>
            <stop offset="1" stop-color="#FCF5BC"/>
        </linearGradient>
        <clipPath id="clip0">
            <rect width="129.035" height="129.035" fill="white" transform="translate(78.397 56.9299) rotate(15)"/>
        </clipPath>
        <clipPath id="clip1">
            <rect width="129.035" height="129.035" fill="white" transform="translate(83.397 41.9299) rotate(15)"/>
        </clipPath>
        <clipPath id="clip2">
            <rect width="129.035" height="129.035" fill="white" transform="translate(73.397 26.9299) rotate(15)"/>
        </clipPath>
    </defs>
    <path d="M177.192 145.537C184.32 117.204 167.396 88.2709 139.006 80.6639C110.616 73.0568 81.5799 89.6747 73.4999 117.752L70.4386 129.178L70.5251 129.201C63.9228 157.303 80.8128 185.671 108.856 193.185C136.9 200.699 165.711 184.577 174.131 156.962L174.218 156.985L177.192 145.537Z" fill="black" fill-opacity="0.2"/>
    <g clip-path="url(#clip0)">
        <path d="M177.192 144.537C184.32 116.204 167.396 87.2709 139.006 79.6639C110.616 72.0568 81.5799 88.6747 73.4999 116.752L70.4386 128.178L70.5251 128.201C63.9228 156.303 80.8128 184.671 108.856 192.185C136.9 199.699 165.711 183.577 174.131 155.962L174.218 155.985L177.192 144.537Z" fill="url(#paint0_linear)"/>
        <path d="M169.448 166.861L176.684 139.855L173.222 138.927L163.462 175.354C165.706 172.75 167.716 169.911 169.448 166.861Z" fill="url(#paint1_linear)" fill-opacity="0.7"/>
        <path d="M70.0014 150.235L79.7429 113.88L76.2808 112.952L69.102 139.743C69.0533 143.299 69.3618 146.811 70.0014 150.235Z" fill="url(#paint2_linear)"/>
        <path d="M158.368 180.512L169.76 137.999L164.566 136.608L151.403 185.735C153.856 184.188 156.187 182.442 158.368 180.512Z" fill="url(#paint3_linear)" fill-opacity="0.8"/>
        <path d="M75.2387 165.311L88.3984 116.199L83.2051 114.807L71.8232 157.285C72.7438 160.054 73.8875 162.738 75.2387 165.311Z" fill="url(#paint4_linear)"/>
        <path d="M144.898 189.239L159.373 135.216L152.449 133.361L136.687 192.186C139.507 191.426 142.252 190.439 144.898 189.239Z" fill="url(#paint5_linear)" fill-opacity="0.9"/>
        <path d="M84.7545 178.269L100.516 119.446L93.5918 117.59L79.1181 171.607C80.8082 173.97 82.6922 176.199 84.7545 178.269Z" fill="url(#paint6_linear)"/>
        <path d="M130.789 193.425L147.256 131.969L138.6 129.65L121.355 194.009C124.542 194.095 127.697 193.894 130.789 193.425Z" fill="url(#paint7_linear)"/>
        <path d="M97.12 187.515L114.365 123.156L105.709 120.837L89.2427 182.292C91.6854 184.245 94.3174 185.996 97.12 187.515Z" fill="url(#paint8_linear)"/>
        <path d="M114.119 193.32L131.676 127.795L121.29 125.012L103.732 190.537C105.395 191.164 107.104 191.715 108.857 192.185C110.609 192.654 112.365 193.032 114.119 193.32Z" fill="url(#paint9_linear)"/>
        <path d="M111.262 183.553C139.944 191.238 169.425 174.217 177.11 145.535C184.796 116.853 167.775 87.3723 139.093 79.6871C110.411 72.0018 80.93 89.0228 73.2448 117.704C65.5596 146.386 82.5806 175.867 111.262 183.553Z" fill="url(#paint10_linear)"/>
        <path d="M114.973 169.704C136.006 175.34 157.625 162.858 163.261 141.824C168.897 120.791 156.415 99.1717 135.382 93.5359C114.349 87.9 92.7291 100.382 87.0933 121.415C81.4574 142.449 93.9395 164.068 114.973 169.704Z" fill="url(#paint11_linear)"/>
        <path d="M138.541 149.951C139.002 151.002 139.046 152.22 138.722 153.432C138.513 154.211 138.131 154.943 137.709 155.48C137.2 155.993 136.605 156.483 135.774 156.816C130.605 159.142 125.381 159.598 120.101 158.183C115.254 156.884 111.666 154.346 109.189 150.435C106.798 146.548 105.748 141.813 106.084 136.059L102.102 134.992C101.15 134.737 100.464 134.182 99.9336 133.391C99.4035 132.599 99.266 131.727 99.5212 130.775C99.7531 129.91 100.331 129.137 101.186 128.717C102.041 128.296 102.913 128.159 103.865 128.414L107.067 129.272C107.12 128.729 107.305 128.037 107.584 126.998C107.862 125.96 108.047 125.267 108.273 124.771L105.071 123.913C104.119 123.658 103.432 123.103 102.902 122.312C102.372 121.52 102.235 120.648 102.49 119.696C102.722 118.831 103.3 118.058 104.155 117.638C105.009 117.217 105.881 117.08 106.833 117.335L110.815 118.402C113.401 113.25 116.701 109.589 120.692 107.504C124.683 105.419 129.146 105.038 133.993 106.337C139.013 107.682 143.31 110.689 146.883 115.357C147.436 116.062 147.73 116.697 147.914 117.396C148.097 118.094 147.999 118.81 147.743 119.762C147.419 120.974 146.771 122.006 145.847 122.686C144.922 123.366 143.941 123.567 142.989 123.312C142.383 123.15 141.8 122.901 141.414 122.612C140.941 122.299 140.514 121.814 139.851 121.173C138.445 119.497 137.119 118.214 135.873 117.323C134.627 116.433 133.422 115.739 132.123 115.391C129.96 114.811 127.956 115.017 126.31 115.967C124.664 116.918 123.069 118.717 121.697 121.411L129.92 123.614C130.872 123.869 131.558 124.424 132.089 125.215C132.532 125.983 132.67 126.855 132.414 127.807C132.159 128.759 131.604 129.446 130.836 129.889C130.068 130.333 129.11 130.447 128.158 130.192L119.156 127.78L118.599 129.857L117.996 132.108L126.998 134.52C127.95 134.775 128.636 135.33 129.166 136.121C129.61 136.889 129.747 137.761 129.492 138.713C129.237 139.665 128.682 140.352 127.914 140.795C127.146 141.239 126.187 141.353 125.235 141.098L117.013 138.895C116.853 141.913 117.335 144.269 118.262 146.002C119.213 147.648 120.845 148.827 123.009 149.407C124.221 149.732 125.589 149.82 127.136 149.585C128.66 149.437 130.45 148.989 132.505 148.241C133.337 147.907 134.013 147.81 134.578 147.776C135.144 147.742 135.686 147.794 136.292 147.957C137.354 148.149 138.104 148.813 138.541 149.951Z" fill="url(#paint12_linear)"/>
        <path d="M83.2585 123.263L80.2291 122.452L81.064 119.336C87.5347 95.187 112.361 80.7805 136.596 87.2743L139.625 88.0861L138.79 91.202C138.327 92.9331 136.571 93.9469 134.84 93.4831C114.066 87.9169 92.7756 100.209 87.2094 120.982C86.7456 122.713 84.9896 123.727 83.2585 123.263Z" fill="url(#paint13_linear)"/>
    </g>
    <path d="M179.192 131.537C186.32 103.204 169.396 74.2709 141.006 66.6639C112.616 59.0568 83.5799 75.6747 75.4999 103.752L72.4386 115.178L72.5251 115.201C65.9228 143.303 82.8128 171.671 110.856 179.185C138.9 186.699 167.711 170.577 176.131 142.962L176.218 142.985L179.192 131.537Z" fill="url(#paint14_linear)" fill-opacity="0.5"/>
    <g clip-path="url(#clip1)">
        <path d="M182.192 129.537C189.32 101.204 172.396 72.2709 144.006 64.6639C115.616 57.0568 86.5799 73.6747 78.4999 101.752L75.4386 113.178L75.5251 113.201C68.9228 141.303 85.8128 169.671 113.856 177.185C141.9 184.699 170.711 168.577 179.131 140.962L179.218 140.985L182.192 129.537Z" fill="url(#paint15_linear)"/>
        <path d="M174.448 151.861L181.684 124.855L178.222 123.927L168.462 160.354C170.706 157.75 172.716 154.911 174.448 151.861Z" fill="url(#paint16_linear)" fill-opacity="0.7"/>
        <path d="M75.0014 135.235L84.7429 98.8796L81.2808 97.9519L74.102 124.743C74.0533 128.299 74.3618 131.811 75.0014 135.235Z" fill="url(#paint17_linear)"/>
        <path d="M163.368 165.512L174.76 122.999L169.566 121.608L156.403 170.735C158.856 169.188 161.187 167.442 163.368 165.512Z" fill="url(#paint18_linear)" fill-opacity="0.8"/>
        <path d="M80.2387 150.311L93.3984 101.199L88.2051 99.8074L76.8232 142.285C77.7438 145.054 78.8875 147.738 80.2387 150.311Z" fill="url(#paint19_linear)"/>
        <path d="M149.898 174.239L164.373 120.216L157.449 118.361L141.687 177.186C144.507 176.426 147.252 175.439 149.898 174.239Z" fill="url(#paint20_linear)" fill-opacity="0.9"/>
        <path d="M89.7545 163.269L105.516 104.446L98.5918 102.59L84.1181 156.607C85.8082 158.97 87.6922 161.199 89.7545 163.269Z" fill="url(#paint21_linear)"/>
        <path d="M135.789 178.425L152.256 116.969L143.6 114.65L126.355 179.009C129.542 179.095 132.697 178.894 135.789 178.425Z" fill="url(#paint22_linear)"/>
        <path d="M102.12 172.515L119.365 108.156L110.709 105.837L94.2427 167.292C96.6854 169.245 99.3174 170.996 102.12 172.515Z" fill="url(#paint23_linear)"/>
        <path d="M119.119 178.32L136.676 112.795L126.29 110.012L108.732 175.537C110.395 176.164 112.104 176.715 113.857 177.185C115.609 177.654 117.365 178.032 119.119 178.32Z" fill="url(#paint24_linear)"/>
        <path d="M116.262 168.553C144.944 176.238 174.425 159.217 182.11 130.535C189.796 101.853 172.775 72.3723 144.093 64.6871C115.411 57.0018 85.93 74.0228 78.2448 102.704C70.5596 131.386 87.5806 160.867 116.262 168.553Z" fill="url(#paint25_linear)"/>
        <path d="M119.973 154.704C141.006 160.34 162.625 147.858 168.261 126.824C173.897 105.791 161.415 84.1717 140.382 78.5359C119.349 72.9 97.7291 85.3821 92.0933 106.415C86.4574 127.449 98.9395 149.068 119.973 154.704Z" fill="url(#paint26_linear)"/>
        <path d="M143.541 134.951C144.002 136.002 144.046 137.22 143.722 138.432C143.513 139.211 143.131 139.943 142.709 140.48C142.2 140.993 141.605 141.483 140.774 141.816C135.605 144.142 130.381 144.598 125.101 143.183C120.254 141.884 116.666 139.346 114.189 135.435C111.798 131.548 110.748 126.813 111.084 121.059L107.102 119.992C106.15 119.737 105.464 119.182 104.934 118.391C104.404 117.599 104.266 116.727 104.521 115.775C104.753 114.91 105.331 114.137 106.186 113.717C107.041 113.296 107.913 113.159 108.865 113.414L112.067 114.272C112.12 113.729 112.305 113.037 112.584 111.998C112.862 110.96 113.047 110.267 113.273 109.771L110.071 108.913C109.119 108.658 108.432 108.103 107.902 107.312C107.372 106.52 107.235 105.648 107.49 104.696C107.722 103.831 108.3 103.058 109.155 102.638C110.009 102.217 110.881 102.08 111.833 102.335L115.815 103.402C118.401 98.2503 121.701 94.5889 125.692 92.5042C129.683 90.4194 134.146 90.0381 138.993 91.3368C144.013 92.682 148.31 95.6886 151.883 100.357C152.436 101.062 152.73 101.697 152.914 102.396C153.097 103.094 152.999 103.81 152.743 104.762C152.419 105.974 151.771 107.006 150.847 107.686C149.922 108.366 148.941 108.567 147.989 108.312C147.383 108.15 146.8 107.901 146.414 107.612C145.941 107.299 145.514 106.814 144.851 106.173C143.445 104.497 142.119 103.214 140.873 102.323C139.627 101.433 138.422 100.739 137.123 100.391C134.96 99.8113 132.956 100.017 131.31 100.967C129.664 101.918 128.069 103.717 126.697 106.411L134.92 108.614C135.872 108.869 136.558 109.424 137.089 110.215C137.532 110.983 137.67 111.855 137.414 112.807C137.159 113.759 136.604 114.446 135.836 114.889C135.068 115.333 134.11 115.447 133.158 115.192L124.156 112.78L123.599 114.857L122.996 117.108L131.998 119.52C132.95 119.775 133.636 120.33 134.166 121.121C134.61 121.889 134.747 122.761 134.492 123.713C134.237 124.665 133.682 125.352 132.914 125.795C132.146 126.239 131.187 126.353 130.235 126.098L122.013 123.895C121.853 126.913 122.335 129.269 123.262 131.002C124.213 132.648 125.845 133.827 128.009 134.407C129.221 134.732 130.589 134.82 132.136 134.585C133.66 134.437 135.45 133.989 137.505 133.241C138.337 132.907 139.013 132.81 139.578 132.776C140.144 132.742 140.686 132.794 141.292 132.957C142.354 133.149 143.104 133.813 143.541 134.951Z" fill="url(#paint27_linear)"/>
        <path d="M88.2585 108.263L85.2291 107.452L86.064 104.336C92.5347 80.187 117.361 65.7805 141.596 72.2743L144.625 73.0861L143.79 76.202C143.327 77.9331 141.571 78.9469 139.84 78.4831C119.066 72.9169 97.7756 85.2092 92.2094 105.982C91.7456 107.713 89.9896 108.727 88.2585 108.263Z" fill="url(#paint28_linear)"/>
    </g>
    <g clip-path="url(#clip2)">
        <path d="M172.192 114.537C179.32 86.2039 162.396 57.2709 134.006 49.6639C105.616 42.0568 76.5799 58.6747 68.4999 86.7524L65.4386 98.1776L65.5251 98.2008C58.9228 126.303 75.8128 154.671 103.856 162.185C131.9 169.699 160.711 153.577 169.131 125.962L169.218 125.985L172.192 114.537Z" fill="url(#paint29_linear)"/>
        <path d="M164.448 136.861L171.684 109.855L168.222 108.927L158.462 145.354C160.706 142.75 162.716 139.911 164.448 136.861Z" fill="url(#paint30_linear)" fill-opacity="0.7"/>
        <path d="M65.0014 120.235L74.7429 83.8796L71.2808 82.9519L64.102 109.743C64.0533 113.299 64.3618 116.811 65.0014 120.235Z" fill="url(#paint31_linear)"/>
        <path d="M153.368 150.512L164.76 107.999L159.566 106.608L146.403 155.735C148.856 154.188 151.187 152.442 153.368 150.512Z" fill="url(#paint32_linear)" fill-opacity="0.8"/>
        <path d="M70.2387 135.311L83.3984 86.1989L78.2051 84.8074L66.8232 127.285C67.7438 130.054 68.8875 132.738 70.2387 135.311Z" fill="url(#paint33_linear)"/>
        <path d="M139.898 159.239L154.373 105.216L147.449 103.361L131.687 162.186C134.507 161.426 137.252 160.439 139.898 159.239Z" fill="url(#paint34_linear)" fill-opacity="0.9"/>
        <path d="M79.7545 148.269L95.5162 89.4457L88.5918 87.5903L74.1181 141.607C75.8082 143.97 77.6922 146.199 79.7545 148.269Z" fill="url(#paint35_linear)"/>
        <path d="M125.789 163.425L142.256 101.969L133.6 99.6501L116.355 164.009C119.542 164.095 122.697 163.894 125.789 163.425Z" fill="url(#paint36_linear)"/>
        <path d="M92.12 157.515L109.365 93.1564L100.709 90.8372L84.2427 152.292C86.6854 154.245 89.3174 155.996 92.12 157.515Z" fill="url(#paint37_linear)"/>
        <path d="M109.119 163.32L126.676 97.7948L116.29 95.0117L98.7322 160.537C100.395 161.164 102.104 161.715 103.857 162.185C105.609 162.654 107.365 163.032 109.119 163.32Z" fill="url(#paint38_linear)"/>
        <path d="M106.262 153.553C134.944 161.238 164.425 144.217 172.11 115.535C179.796 86.8535 162.775 57.3723 134.093 49.6871C105.411 42.0018 75.93 59.0228 68.2448 87.7045C60.5596 116.386 77.5806 145.867 106.262 153.553Z" fill="url(#paint39_linear)"/>
        <path d="M109.973 139.704C131.006 145.34 152.625 132.858 158.261 111.824C163.897 90.7913 151.415 69.1717 130.382 63.5359C109.349 57.9 87.7291 70.3821 82.0933 91.4153C76.4574 112.449 88.9395 134.068 109.973 139.704Z" fill="url(#paint40_linear)"/>
        <path d="M133.541 119.951C134.002 121.002 134.046 122.22 133.722 123.432C133.513 124.211 133.131 124.943 132.709 125.48C132.2 125.993 131.605 126.483 130.774 126.816C125.605 129.142 120.381 129.598 115.101 128.183C110.254 126.884 106.666 124.346 104.189 120.435C101.798 116.548 100.748 111.813 101.084 106.059L97.102 104.992C96.1499 104.737 95.4637 104.182 94.9336 103.391C94.4035 102.599 94.266 101.727 94.5212 100.775C94.7531 99.9097 95.3312 99.1369 96.186 98.7166C97.0408 98.2963 97.9125 98.1588 98.8646 98.4139L102.067 99.272C102.12 98.7295 102.305 98.037 102.584 96.9984C102.862 95.9597 103.047 95.2673 103.273 94.7712L100.071 93.913C99.1185 93.6579 98.4323 93.103 97.9022 92.3116C97.3721 91.5201 97.2347 90.6484 97.4898 89.6963C97.7217 88.8307 98.2998 88.058 99.1546 87.6376C100.009 87.2173 100.881 87.0798 101.833 87.3349L105.815 88.4017C108.401 83.2503 111.701 79.5889 115.692 77.5042C119.683 75.4194 124.146 75.0381 128.993 76.3368C134.013 77.682 138.31 80.6886 141.883 85.3568C142.436 86.0617 142.73 86.697 142.914 87.3956C143.097 88.0943 142.999 88.8099 142.743 89.762C142.419 90.9738 141.771 92.0062 140.847 92.6862C139.922 93.3662 138.941 93.5671 137.989 93.312C137.383 93.1496 136.8 92.9007 136.414 92.6116C135.941 92.2994 135.514 91.814 134.851 91.1725C133.445 89.4969 132.119 88.2139 130.873 87.3235C129.627 86.4331 128.422 85.739 127.123 85.3911C124.96 84.8113 122.956 85.0167 121.31 85.9671C119.664 86.9176 118.069 88.7166 116.697 91.4105L124.92 93.6138C125.872 93.8689 126.558 94.4238 127.089 95.2153C127.532 95.9835 127.67 96.8553 127.414 97.8074C127.159 98.7595 126.604 99.4457 125.836 99.8892C125.068 100.333 124.11 100.447 123.158 100.192L114.156 97.7799L113.599 99.8572L112.996 102.108L121.998 104.52C122.95 104.775 123.636 105.33 124.166 106.121C124.61 106.889 124.747 107.761 124.492 108.713C124.237 109.665 123.682 110.352 122.914 110.795C122.146 111.239 121.187 111.353 120.235 111.098L112.013 108.895C111.853 111.913 112.335 114.269 113.262 116.002C114.213 117.648 115.845 118.827 118.009 119.407C119.221 119.732 120.589 119.82 122.136 119.585C123.66 119.437 125.45 118.989 127.505 118.241C128.337 117.907 129.013 117.81 129.578 117.776C130.144 117.742 130.686 117.794 131.292 117.957C132.354 118.149 133.104 118.813 133.541 119.951Z" fill="url(#paint41_linear)"/>
        <path d="M78.2585 93.2634L75.2291 92.4516L76.064 89.3357C82.5347 65.187 107.361 50.7805 131.596 57.2743L134.625 58.0861L133.79 61.202C133.327 62.9331 131.571 63.9469 129.84 63.4831C109.066 57.9169 87.7756 70.2092 82.2094 90.9823C81.7456 92.7134 79.9896 93.7272 78.2585 93.2634Z" fill="url(#paint42_linear)"/>
    </g>
    <path d="M17.0716 62C40.1547 83.3018 36.9865 117.758 17.0716 114.811C-6.91676 111.26 37.8917 77.0888 36.9864 137" stroke="#49F0B4" stroke-width="4" stroke-linecap="round" stroke-linejoin="round"/>
    <path d="M233 90C211.115 110.249 208.518 132.706 225.581 131.602C240.048 128.289 217.421 106.199 208.147 141.91C205.566 151.851 208.147 164 208.147 164" stroke="#49F0B4" stroke-width="4" stroke-linecap="round" stroke-linejoin="round"/>
    <path d="M168 33.5L173 24" stroke="#49F0B4" stroke-width="4" stroke-linecap="round" stroke-linejoin="round"/>
    <path d="M83.5 29.5L78.5 16.5" stroke="#49F0B4" stroke-width="4" stroke-linecap="round" stroke-linejoin="round"/>
    <path d="M129 22L131.5 3" stroke="#49F0B4" stroke-width="4" stroke-linecap="round" stroke-linejoin="round"/>
</svg>