<svg width="250" height="250" viewBox="0 0 250 250" fill="none" xmlns="http://www.w3.org/2000/svg">
    <defs>
        <linearGradient id="paint0_linear" x1="74.9979" y1="76.324" x2="167.806" y2="68.2043" gradientUnits="userSpaceOnUse">
            <stop stop-color="#F9EB74"/>
            <stop offset="1" stop-color="#F9D100"/>
        </linearGradient>
        <linearGradient id="paint1_linear" x1="67.0874" y1="69.4417" x2="155.176" y2="61.7349" gradientUnits="userSpaceOnUse">
            <stop stop-color="white"/>
            <stop offset="1" stop-color="white" stop-opacity="0.4"/>
        </linearGradient>
        <linearGradient id="paint2_linear" x1="74.998" y1="172.743" x2="167.807" y2="180.863" gradientUnits="userSpaceOnUse">
            <stop stop-color="#F9EB74"/>
            <stop offset="1" stop-color="#F9D100"/>
        </linearGradient>
        <linearGradient id="paint3_linear" x1="68.403" y1="164.592" x2="156.492" y2="172.299" gradientUnits="userSpaceOnUse">
            <stop stop-color="white"/>
            <stop offset="1" stop-color="white" stop-opacity="0.4"/>
        </linearGradient>
        <linearGradient id="paint4_linear" x1="88.1557" y1="124.533" x2="181.318" y2="124.533" gradientUnits="userSpaceOnUse">
            <stop stop-color="#BECC53"/>
            <stop offset="1" stop-color="#8CC63F"/>
        </linearGradient>
        <linearGradient id="paint5_linear" x1="80.8857" y1="116.987" x2="169.31" y2="116.987" gradientUnits="userSpaceOnUse">
            <stop stop-color="white"/>
            <stop offset="1" stop-color="white" stop-opacity="0.4"/>
        </linearGradient>
    </defs>
    <path d="M29.5445 48.9698C28.9792 45.2571 31.6186 41.7757 35.4398 41.1939C39.2609 40.6122 42.8168 43.1503 43.382 46.8631C43.7007 48.5004 42.8688 50.3298 40.4561 54.9961C38.6233 58.5408 38.42 60.7684 38.9618 64.3273" stroke="#49F0B4" stroke-width="4" stroke-linecap="round" stroke-linejoin="round"/>
    <path d="M40.4067 73.8179L40.5573 74.8065" stroke="#49F0B4" stroke-width="4" stroke-linecap="round" stroke-linejoin="round"/>
    <path d="M207.549 172.784C208.428 168.341 212.874 165.479 217.478 166.39C222.082 167.301 225.102 171.641 224.222 176.083C223.914 178.071 222.212 179.804 217.54 184.103C213.99 187.369 212.843 189.812 212 194.071" stroke="#49F0B4" stroke-width="4" stroke-linecap="round" stroke-linejoin="round"/>
    <path d="M209.753 205.427L209.519 206.61" stroke="#49F0B4" stroke-width="4" stroke-linecap="round" stroke-linejoin="round"/>
    <path d="M155.333 89.3331L84.4441 95.5553C73.5552 96.5553 63.7774 88.4442 62.8886 77.3331C61.8886 66.3331 69.9997 56.6664 80.9997 55.6664L151.889 49.4442C162.889 48.4442 172.555 56.6664 173.555 67.6664C174.555 78.6664 166.333 88.4442 155.333 89.3331Z" fill="url(#paint0_linear)"/>
    <path opacity="0.5" d="M69.9998 76.7775L67.7776 76.9997C66.9998 68.6664 73.2221 61.3331 81.4443 60.5553L154.444 54.1108C154.778 58.4442 151.555 62.3331 147.222 62.7775L82.1109 68.4442C79.5554 68.6664 77.4443 70.222 76.4443 72.222C75.2221 74.7775 72.7776 76.5553 69.9998 76.7775Z" fill="url(#paint1_linear)"/>
    <path d="M82.7776 84.5551C87.6868 84.5551 91.6665 80.5754 91.6665 75.6662C91.6665 70.757 87.6868 66.7773 82.7776 66.7773C77.8684 66.7773 73.8887 70.757 73.8887 75.6662C73.8887 80.5754 77.8684 84.5551 82.7776 84.5551Z" fill="#FF4770"/>
    <path d="M151.889 199.555L80.9998 193.333C69.9998 192.333 61.8886 182.667 62.7775 171.667C63.7775 160.667 73.4442 152.555 84.4442 153.444L155.333 159.667C166.333 160.667 174.444 170.333 173.555 181.333C172.555 192.333 162.889 200.555 151.889 199.555Z" fill="url(#paint2_linear)"/>
    <path opacity="0.5" d="M70.0001 172.333L67.7778 172.111C68.5556 163.778 75.8889 157.667 84.1112 158.444L157.111 164.889C156.778 169.222 152.889 172.556 148.445 172.111L83.3334 166.444C80.7778 166.222 78.4445 167.333 77.0001 169.222C75.4445 171.333 72.7778 172.556 70.0001 172.333Z" fill="url(#paint3_linear)"/>
    <path d="M82.7776 182.333C87.6868 182.333 91.6665 178.354 91.6665 173.444C91.6665 168.535 87.6868 164.555 82.7776 164.555C77.8684 164.555 73.8887 168.535 73.8887 173.444C73.8887 178.354 77.8684 182.333 82.7776 182.333Z" fill="#FF4770"/>
    <path d="M167.111 144.555H96C85 144.555 76 135.555 76 124.555C76 113.555 85 104.555 96 104.555H167.111C178.111 104.555 187.111 113.555 187.111 124.555C187.111 135.555 178.111 144.555 167.111 144.555Z" fill="url(#paint4_linear)"/>
    <path opacity="0.5" d="M83.222 124.555H80.8887C80.8887 116.222 87.6665 109.444 95.9998 109.444H169.333C169.333 113.888 165.778 117.444 161.333 117.444H95.9998C93.4442 117.444 91.222 118.777 89.9998 120.777C88.4442 122.999 85.9998 124.555 83.222 124.555Z" fill="url(#paint5_linear)"/>
    <path d="M104.778 126.888L98.3333 133.333C96.9999 134.666 94.8888 134.666 93.6666 133.333L87.2222 126.888C85.8888 125.555 85.8888 123.444 87.2222 122.222L93.6666 115.777C94.9999 114.444 97.1111 114.444 98.3333 115.777L104.778 122.222C106 123.444 106 125.555 104.778 126.888Z" fill="#414CBE"/>
</svg>