<svg width="20" height="20" viewBox="0 0 20 20" fill="none" xmlns="http://www.w3.org/2000/svg">
    <path d="M18.8963 20C19.5058 20 20 19.5057 20 18.8962V1.1038C20 0.494052 19.5057 0 18.8963 0H1.10381C0.494056 0 0 0.494127 0 1.1038V18.8961C0 19.5057 0.494056 19.9999 1.10381 19.9999H18.8963V20Z" fill="#485A96"/>
    <path d="M13.8419 20V12.2455H16.4953L16.8926 9.22342H13.8418V7.29395C13.8418 6.41898 14.0895 5.82274 15.3686 5.82274L17 5.82199V3.11907C16.7178 3.0823 15.7494 3 14.6228 3C12.2706 3 10.6603 4.40833 10.6603 6.99474V9.22342H8V12.2455H10.6603V19.9999H13.8419V20Z" fill="white"/>
</svg>