<svg width="72" height="72" viewBox="0 0 72 72" fill="none" xmlns="http://www.w3.org/2000/svg">
    <defs>
        <linearGradient id="paint0_linear" x1="54.6851" y1="7.17536" x2="42.8513" y2="21.9075" gradientUnits="userSpaceOnUse">
            <stop stop-color="#FF8FA8"/>
            <stop offset="1" stop-color="white"/>
        </linearGradient>
    </defs>
    <path d="M50.685 2.34864C50.3403 2.56153 50.0767 2.88086 49.8943 3.30663L47.6472 8.64017H4.14721C1.85676 8.64017 0 10.4969 0 12.7874V34.9058C0 37.1962 1.85676 39.053 4.14721 39.053H67.7376C70.028 39.053 71.8848 37.1962 71.8848 34.9058V12.7874C71.8848 10.4969 70.028 8.64017 67.7376 8.64017H52.4334L54 5.04017C54.1419 4.73603 54.2129 4.43191 54.2129 4.12778C54.2129 3.5398 53.9696 3.04306 53.483 2.63755C52.9964 2.23205 52.4489 2.0293 51.8407 2.0293C51.4149 2.0293 51.0297 2.13574 50.685 2.34864Z" fill="black" fill-opacity="0.2"/>
    <path fill-rule="evenodd" clip-rule="evenodd" d="M19.9918 70.3998C19.9918 70.0551 19.8803 69.7003 19.6573 69.3354L18.5928 67.6322C17.9846 66.6185 17.2141 65.9494 16.2814 65.625C18.0657 64.8343 19.4393 63.5721 20.4024 61.8386C21.3655 60.1051 21.847 58.032 21.847 55.6192C21.847 53.3889 21.4313 51.4476 20.6001 49.7951C19.7688 48.1427 18.5877 46.8704 17.057 45.9783C15.5262 45.0862 13.7268 44.6402 11.6587 44.6402C9.57034 44.6402 7.76079 45.0862 6.23002 45.9783C4.69923 46.8704 3.51822 48.1427 2.68693 49.7951C1.85563 51.4476 1.44 53.3889 1.44 55.6192C1.44 57.8495 1.85563 59.7959 2.68693 61.4584C3.51822 63.121 4.69923 64.3984 6.23002 65.2905C7.76079 66.1826 9.57034 66.6286 11.6587 66.6286C12.3886 66.6286 12.9816 66.7401 13.4378 66.9632C13.894 67.1862 14.2641 67.5309 14.5479 67.9972L16.3423 70.9472C16.545 71.2919 16.8086 71.5504 17.133 71.7228C17.4574 71.8951 17.8021 71.9813 18.167 71.9813C18.6536 71.9813 19.0794 71.8343 19.4444 71.5403C19.8093 71.2463 19.9918 70.8661 19.9918 70.3998ZM16.2662 61.4584C15.1612 62.8169 13.6254 63.4961 11.6587 63.4961C9.67173 63.4961 8.12575 62.8169 7.02075 61.4584C5.91574 60.1 5.36326 58.1536 5.36326 55.6192C5.36326 53.0848 5.91574 51.1434 7.02075 49.7951C8.12575 48.4468 9.67173 47.7727 11.6587 47.7727C13.6254 47.7727 15.1612 48.4468 16.2662 49.7951C17.3712 51.1434 17.9237 53.0848 17.9237 55.6192C17.9237 58.1536 17.3712 60.1 16.2662 61.4584Z" fill="black" fill-opacity="0.2"/>
    <path d="M27.9715 64.3477C29.4921 65.8683 31.7224 66.6286 34.6623 66.6286C37.5819 66.6286 39.802 65.8632 41.3227 64.3325C42.8433 62.8017 43.6037 60.5866 43.6037 57.6873V46.7082C43.6037 46.1203 43.4313 45.6489 43.0866 45.294C42.742 44.9392 42.2756 44.7618 41.6877 44.7618C41.0997 44.7618 40.6334 44.9392 40.2887 45.294C39.944 45.6489 39.7716 46.1203 39.7716 46.7082V57.9001C39.7716 59.7249 39.3357 61.1138 38.4639 62.0667C37.592 63.0196 36.3249 63.4961 34.6623 63.4961C32.9794 63.4961 31.7021 63.0247 30.8303 62.0819C29.9584 61.1391 29.5225 59.7452 29.5225 57.9001V46.7082C29.5225 46.1203 29.3502 45.6489 29.0055 45.294C28.6608 44.9392 28.1945 44.7618 27.6065 44.7618C27.0185 44.7618 26.5522 44.9392 26.2075 45.294C25.8628 45.6489 25.6905 46.1203 25.6905 46.7082V57.6873C25.6905 60.6069 26.4508 62.827 27.9715 64.3477Z" fill="black" fill-opacity="0.2"/>
    <path d="M48.6485 65.9899C49.0033 66.3549 49.4747 66.5374 50.0627 66.5374C50.6709 66.5374 51.1525 66.3549 51.5073 65.9899C51.8621 65.625 52.0395 65.1485 52.0395 64.5606V46.7082C52.0395 46.1203 51.8621 45.6489 51.5073 45.294C51.1525 44.9392 50.6709 44.7618 50.0627 44.7618C49.4747 44.7618 49.0033 44.9392 48.6485 45.294C48.2937 45.6489 48.1163 46.1203 48.1163 46.7082V64.5606C48.1163 65.1485 48.2937 65.625 48.6485 65.9899Z" fill="black" fill-opacity="0.2"/>
    <path d="M71.9714 64.7734C71.9714 63.7394 71.3632 63.2224 70.1467 63.2224H60.2017L71.0895 47.9552C71.4341 47.4888 71.6065 47.0225 71.6065 46.5562C71.6065 46.0898 71.4493 45.6995 71.1351 45.3853C70.8208 45.071 70.4001 44.9139 69.8729 44.9139H57.3125C56.0959 44.9139 55.4877 45.441 55.4877 46.4954C55.4877 47.5294 56.0959 48.0464 57.3125 48.0464H66.8317L55.9439 63.2832C55.6195 63.7293 55.4573 64.1956 55.4573 64.6822C55.4573 65.1688 55.6144 65.5692 55.9287 65.8835C56.2429 66.1978 56.6636 66.3549 57.1908 66.3549H70.1467C71.3632 66.3549 71.9714 65.8278 71.9714 64.7734Z" fill="black" fill-opacity="0.2"/>
    <path fill-rule="evenodd" clip-rule="evenodd" d="M19.6573 67.8954C19.8803 68.2603 19.9918 68.6152 19.9918 68.9598C19.9918 69.4262 19.8093 69.8063 19.4444 70.1003C19.0794 70.3943 18.6536 70.5413 18.167 70.5413C17.8021 70.5413 17.4574 70.4551 17.133 70.2828C16.8086 70.1105 16.545 69.8519 16.3423 69.5073L14.5479 66.5572C14.2641 66.0909 13.894 65.7462 13.4378 65.5232C12.9817 65.3002 12.3886 65.1887 11.6587 65.1887C9.57034 65.1887 7.7608 64.7426 6.23001 63.8505C4.69923 62.9584 3.51821 61.681 2.68692 60.0185C1.85564 58.3559 1.44 56.4095 1.44 54.1792C1.44 51.9489 1.85564 50.0076 2.68692 48.3552C3.51821 46.7027 4.69923 45.4305 6.23001 44.5384C7.7608 43.6462 9.57034 43.2002 11.6587 43.2002C13.7268 43.2002 15.5262 43.6462 17.057 44.5384C18.5878 45.4305 19.7688 46.7027 20.6001 48.3552C21.4313 50.0076 21.847 51.9489 21.847 54.1792C21.847 56.592 21.3655 58.6651 20.4024 60.3986C19.4393 62.1322 18.0657 63.3943 16.2814 64.185C17.2141 64.5094 17.9846 65.1785 18.5928 66.1923L19.6573 67.8954ZM11.6587 62.0561C13.6254 62.0561 15.1612 61.3769 16.2662 60.0185C17.3712 58.66 17.9237 56.7136 17.9237 54.1792C17.9237 51.6448 17.3712 49.7035 16.2662 48.3552C15.1612 47.0069 13.6254 46.3327 11.6587 46.3327C9.67172 46.3327 8.12575 47.0069 7.02075 48.3552C5.91575 49.7035 5.36325 51.6448 5.36325 54.1792C5.36325 56.7136 5.91575 58.66 7.02075 60.0185C8.12575 61.3769 9.67172 62.0561 11.6587 62.0561ZM34.6623 65.1887C31.7224 65.1887 29.4921 64.4283 27.9715 62.9077C26.4508 61.387 25.6905 59.1669 25.6905 56.2473V45.2683C25.6905 44.6803 25.8629 44.2089 26.2075 43.8541C26.5522 43.4993 27.0185 43.3218 27.6065 43.3218C28.1945 43.3218 28.6608 43.4993 29.0055 43.8541C29.3502 44.2089 29.5225 44.6803 29.5225 45.2683V56.4602C29.5225 58.3052 29.9584 59.6991 30.8303 60.6419C31.7021 61.5847 32.9794 62.0561 34.6623 62.0561C36.3249 62.0561 37.5921 61.5797 38.4639 60.6267C39.3357 59.6738 39.7716 58.285 39.7716 56.4602V45.2683C39.7716 44.6803 39.944 44.2089 40.2887 43.8541C40.6333 43.4993 41.0997 43.3218 41.6877 43.3218C42.2756 43.3218 42.742 43.4993 43.0866 43.8541C43.4313 44.2089 43.6037 44.6803 43.6037 45.2683V56.2473C43.6037 59.1467 42.8433 61.3617 41.3227 62.8925C39.8021 64.4233 37.5819 65.1887 34.6623 65.1887ZM50.0627 65.0974C49.4747 65.0974 49.0033 64.9149 48.6485 64.55C48.2937 64.185 48.1163 63.7086 48.1163 63.1206V45.2683C48.1163 44.6803 48.2937 44.2089 48.6485 43.8541C49.0033 43.4993 49.4747 43.3218 50.0627 43.3218C50.6709 43.3218 51.1525 43.4993 51.5073 43.8541C51.8621 44.2089 52.0395 44.6803 52.0395 45.2683V63.1206C52.0395 63.7086 51.8621 64.185 51.5073 64.55C51.1525 64.9149 50.6709 65.0974 50.0627 65.0974ZM70.1467 61.7824C71.3632 61.7824 71.9714 62.2994 71.9714 63.3335C71.9714 64.3878 71.3632 64.9149 70.1467 64.9149H57.1908C56.6636 64.9149 56.2429 64.7578 55.9287 64.4435C55.6144 64.1293 55.4573 63.7288 55.4573 63.2422C55.4573 62.7556 55.6195 62.2893 55.9439 61.8432L66.8317 46.6064H57.3125C56.0959 46.6064 55.4877 46.0894 55.4877 45.0554C55.4877 44.0011 56.0959 43.4739 57.3125 43.4739H69.8729C70.4001 43.4739 70.8208 43.631 71.1351 43.9453C71.4493 44.2596 71.6065 44.6499 71.6065 45.1162C71.6065 45.5825 71.4341 46.0489 71.0894 46.5152L60.2017 61.7824H70.1467Z" fill="white"/>
    <path fill-rule="evenodd" clip-rule="evenodd" d="M4.1472 7.2002H67.7376C70.028 7.2002 71.8848 9.05696 71.8848 11.3474V33.4658C71.8848 35.7562 70.028 37.613 67.7376 37.613H4.1472C1.85676 37.613 0 35.7562 0 33.4658L0 11.3474C0 9.05696 1.85676 7.2002 4.1472 7.2002Z" fill="#FF4770"/>
    <path fill-rule="evenodd" clip-rule="evenodd" d="M7.11384 33.4656C6.40421 33.4656 5.85678 33.273 5.47155 32.8878C5.08632 32.5026 4.89371 31.9551 4.89371 31.2455V14.2143C4.89371 13.5047 5.10659 12.937 5.53238 12.5112C5.95816 12.0854 6.53599 11.8726 7.26591 11.8726C7.99582 11.8726 8.57365 12.0854 8.99943 12.5112C9.42522 12.937 9.6381 13.5047 9.6381 14.2143V29.6032H17.4238C18.9039 29.6032 19.6439 30.252 19.6439 31.5496C19.6439 32.827 18.9039 33.4656 17.4238 33.4656H7.11384ZM24.3883 33.6481C23.6584 33.6481 23.0806 33.4352 22.6548 33.0095C22.229 32.5837 22.0161 32.0058 22.0161 31.2759V14.2143C22.0161 13.5047 22.229 12.937 22.6548 12.5112C23.0806 12.0854 23.6584 11.8726 24.3883 11.8726C25.1182 11.8726 25.6961 12.0854 26.1218 12.5112C26.5476 12.937 26.7605 13.5047 26.7605 14.2143V31.2759C26.7605 32.0058 26.5476 32.5837 26.1218 33.0095C25.6961 33.4352 25.1182 33.6481 24.3883 33.6481ZM54.1154 33.4656C53.4058 33.4656 52.8584 33.273 52.4731 32.8878C52.0879 32.5026 51.8953 31.9551 51.8953 31.2455V14.2448C51.8953 13.5351 52.0879 12.9877 52.4731 12.6025C52.8584 12.2172 53.4058 12.0246 54.1154 12.0246H64.8816C66.3819 12.0246 67.1321 12.6329 67.1321 13.8494C67.1321 15.0862 66.3819 15.7046 64.8816 15.7046H56.518V20.7227H64.2733C65.7737 20.7227 66.5239 21.3411 66.5239 22.5779C66.5239 23.7944 65.7737 24.4026 64.2733 24.4026H56.518V29.7857H64.8816C66.3819 29.7857 67.1321 30.4041 67.1321 31.6409C67.1321 32.8574 66.3819 33.4656 64.8816 33.4656H54.1154Z" fill="white"/>
    <path fill-rule="evenodd" clip-rule="evenodd" d="M49.8943 1.86669C50.0767 1.44091 50.3403 1.12158 50.685 0.908692C51.0297 0.695802 51.4149 0.589357 51.8407 0.589357C52.4489 0.589357 52.9964 0.792108 53.483 1.19761C53.9696 1.60312 54.2129 2.09986 54.2129 2.68784C54.2129 2.99197 54.1419 3.29609 54 3.60022L41.5593 32.1885C41.3363 32.6548 41.0018 33.0147 40.5557 33.2681C40.1096 33.5216 39.623 33.6483 39.0959 33.6483C38.5687 33.6483 38.0821 33.5216 37.6361 33.2681C37.19 33.0147 36.8555 32.6548 36.6324 32.1885L29.0129 14.8532C28.8709 14.5693 28.8 14.2753 28.8 13.9712C28.8 13.363 29.0534 12.8561 29.5603 12.4506C30.0672 12.0451 30.6349 11.8423 31.2634 11.8423C31.6892 11.8423 32.0795 11.9488 32.4343 12.1617C32.7891 12.3745 33.0578 12.6939 33.2403 13.1197L39.1567 27.3529L49.8943 1.86669Z" fill="url(#paint0_linear)"/>
</svg>
