<svg width="21" height="32" viewBox="0 0 21 32" fill="none" xmlns="http://www.w3.org/2000/svg">
    <path fill-rule="evenodd" clip-rule="evenodd" d="M16.1702 12.8509L20.7438 8.38901C20.9164 8.22849 20.9721 7.98166 20.9028 7.76035C20.8285 7.5372 20.6375 7.36984 20.4025 7.33945L14.0727 6.4183L11.2484 0.688568C11.0388 0.262665 10.3458 0.262665 10.1362 0.688568L7.31192 6.4183L0.982057 7.33945C0.747148 7.37155 0.556154 7.5372 0.481783 7.76035C0.414171 7.98337 0.469957 8.23019 0.642351 8.39072L5.21591 12.8526L4.13417 19.157C4.09699 19.3851 4.18996 19.6201 4.38095 19.7621C4.57193 19.899 4.82547 19.9176 5.02999 19.806L10.6922 16.833L16.3561 19.8026C16.4423 19.8517 16.5404 19.877 16.6401 19.877C16.7702 19.877 16.8936 19.8347 17.0052 19.7603C17.1962 19.6184 17.2891 19.3835 17.252 19.1552L16.1702 12.8509ZM10.6923 18.2297L7.5891 19.8591L7.0212 25.6783H14.3636L13.7956 19.8591L10.6923 18.2297ZM6.65618 26.9139C5.51192 26.9139 4.57891 27.8418 4.57891 28.9912V30.629C4.57891 30.9687 4.85779 31.2477 5.19753 31.2477H16.187C16.5268 31.2477 16.8057 30.9687 16.8057 30.629V28.9912C16.8057 27.8419 15.8727 26.9139 14.7285 26.9139H6.65618Z" fill="#FFF6AD"/>
</svg>