<svg width="58" height="61" viewBox="0 0 58 61" fill="none" xmlns="http://www.w3.org/2000/svg">
    <path d="M47.5533 51.1581C45.0553 49.7831 34.6763 46.1401 34.6763 46.1401H19.2183C19.2183 46.1401 8.85026 49.7731 6.36126 51.1561C2.74826 53.1601 1.98926 60.5001 1.98926 60.5001H51.9893C51.9883 60.5001 51.1803 53.1541 47.5533 51.1581Z" fill="#302C3B"/>
    <path d="M18.8013 42.2341H35.1833V51.3121H18.8013V42.2341Z" fill="#E6A400"/>
    <path d="M27.0003 49.2772L18.2773 45.2852L20.8303 60.5002H33.1723L35.7253 45.2852L27.0003 49.2772Z" fill="white"/>
    <path d="M27.0003 49.2771L19.2803 52.6581L20.8303 60.5001H33.1723L34.7233 52.6581L27.0003 49.2771Z" fill="#E6EBEF"/>
    <path d="M31.3593 60.5001L29.0453 52.9781L30.1253 50.6451L27.0003 49.2771L23.8763 50.6451L24.9583 52.9781L22.6423 60.5001H31.3593Z" fill="#018BC9"/>
    <path d="M15.9342 60.5C15.9342 60.5 12.6412 57.238 9.62818 50.922L17.2442 48.813L8.71118 43.233C8.71118 43.233 14.0382 39.047 19.2792 37.79V48.813C19.2792 48.813 20.1092 53.737 24.2622 60.501H15.9342V60.5ZM38.0682 60.5C38.0682 60.5 41.3592 57.238 44.3752 50.922L36.7582 48.813L45.2912 43.233C45.2912 43.233 39.9632 39.047 34.7232 37.79V48.813C34.7232 48.813 33.8932 53.737 29.7412 60.501H38.0682V60.5Z" fill="#4E5E67"/>
    <path d="M26.9892 4.37207C9.03418 4.37207 9.03418 15.0111 9.03418 28.3121H44.9412C44.9412 15.0111 44.9412 4.37207 26.9892 4.37207Z" fill="#EA8800"/>
    <path d="M12.9273 33.5922C14.8273 31.8222 13.1023 24.8822 10.6523 24.4642C5.41727 23.5712 8.82827 37.4072 12.9273 33.5922ZM41.0493 33.5922C39.1493 31.8222 40.8733 24.8822 43.3233 24.4642C48.5593 23.5712 45.1483 37.4062 41.0493 33.5922Z" fill="#F5BC2C"/>
    <path d="M42.8213 25.1021C42.8213 10.5551 36.6033 15.3021 26.9883 15.3021C17.3743 15.3021 11.1553 10.5541 11.1553 25.1021C11.1553 25.1021 11.1893 29.2141 12.2143 34.6171C13.5703 41.7661 21.1813 46.9341 26.9873 46.9341C32.7943 46.9341 40.4053 41.7661 41.7613 34.6171C42.7873 29.2121 42.8213 25.1021 42.8213 25.1021Z" fill="#FDCA47"/>
    <path d="M26.9882 37.32C24.1532 36.567 19.9512 37.675 19.9512 37.675C21.5522 39.243 22.7252 41.279 26.9882 41.279C31.8742 41.279 32.7012 38.968 34.0252 37.675C34.0242 37.676 29.8192 36.564 26.9882 37.32Z" fill="#D99025"/>
    <path d="M20.9412 37.7322C23.9532 40.5312 30.0412 40.5502 33.0722 37.7322C29.8592 37.8852 24.1762 37.8872 20.9412 37.7322Z" fill="white"/>
    <path d="M30.5062 32.9411C30.5062 35.2311 23.4692 35.2311 23.4692 32.9411C23.4692 32.4161 30.5062 32.4161 30.5062 32.9411Z" fill="#E6A400"/>
    <path d="M41.2443 26.476C39.2053 31.789 30.9063 31.01 29.3853 27.294C30.5373 21.321 40.1213 20.808 41.2443 26.476Z" fill="#F5F5F5"/>
    <path d="M31.5022 25.907C31.5022 30.595 38.2792 30.595 38.2792 25.907C38.2792 21.558 31.5022 21.558 31.5022 25.907Z" fill="#45332C"/>
    <path d="M41.2443 26.4381C41.2443 20.7311 29.3853 20.7311 29.3853 27.3381C31.0803 21.9171 39.5493 21.9171 41.2443 26.4381Z" fill="#45332C"/>
    <path d="M13.8682 26.022C15.5762 30.47 22.5272 29.819 23.7982 26.708C22.8312 21.706 14.8082 21.276 13.8682 26.022Z" fill="#F5F5F5"/>
    <path d="M22.0243 25.5481C22.0243 29.4721 16.3503 29.4721 16.3503 25.5481C16.3503 21.9071 22.0243 21.9071 22.0243 25.5481Z" fill="#45332C"/>
    <path d="M13.8682 25.991C13.8682 21.212 23.7982 21.212 23.7982 26.745C22.3802 22.206 15.2862 22.206 13.8682 25.991Z" fill="#45332C"/>
    <path d="M31.9042 24.7631C31.9042 25.9411 33.6072 25.9411 33.6072 24.7631C33.6072 23.6711 31.9042 23.6711 31.9042 24.7631ZM18.2922 24.3901C18.2922 25.3741 16.8672 25.3741 16.8672 24.3901C16.8672 23.4761 18.2922 23.4761 18.2922 24.3901Z" fill="#F5F5F5"/>
    <path opacity="0.5" d="M37.5352 36.5531C42.8117 36.5531 47.0892 32.2756 47.0892 26.9991C47.0892 21.7225 42.8117 17.4451 37.5352 17.4451C32.2587 17.4451 27.9812 21.7225 27.9812 26.9991C27.9812 32.2756 32.2587 36.5531 37.5352 36.5531Z" fill="#F5F5F5"/>
    <path opacity="0.5" d="M38.5983 20.018L28.4593 30.083C28.3833 32.154 29.9183 33.292 31.0463 34.947L44.3103 21.682C43.4453 21.091 39.5213 19.986 38.5983 20.018ZM46.3673 24.293L34.7233 35.937C35.7023 36.193 36.6833 36.285 37.6433 36.232L46.6663 27.208C46.7187 26.2267 46.6178 25.2432 46.3673 24.293Z" fill="#F5F5F5"/>
    <path d="M49.3283 60.5H43.2383C43.2383 60.5 44.7713 54.09 45.3903 47.615C49.3733 53.387 49.3283 60.5 49.3283 60.5Z" fill="#1A1626"/>
    <path d="M56.1434 60.5H45.3914V41.656L56.1434 42.031V60.5Z" fill="#302C3B"/>
    <path d="M51.3163 47.0642C48.5953 47.6582 44.7113 43.7732 45.3043 41.0522C47.9363 29.0172 63.3523 44.4372 51.3163 47.0642Z" fill="#FDCA47"/>
    <path d="M48.4942 35.575L46.1072 37.958L43.5562 35.404L45.9432 33.021L48.4942 35.575Z" fill="#BEC3CF"/>
    <path d="M45.0413 34.506C49.1893 30.359 49.1873 23.64 45.0433 19.489C40.8953 15.344 34.1723 15.343 30.0253 19.489C25.8793 23.635 25.8793 30.363 30.0253 34.508C34.1723 38.654 40.8963 38.654 45.0413 34.506ZM31.3613 33.17C27.9513 29.765 27.9533 24.232 31.3633 20.825C32.1736 20.0145 33.1356 19.3715 34.1945 18.9329C35.2533 18.4942 36.3882 18.2684 37.5343 18.2684C38.6804 18.2684 39.8152 18.4942 40.8741 18.9329C41.9329 19.3715 42.895 20.0145 43.7053 20.825C44.5165 21.6354 45.1601 22.5978 45.5992 23.6571C46.0383 24.7164 46.2643 25.8518 46.2643 26.9985C46.2643 28.1452 46.0383 29.2807 45.5992 30.34C45.1601 31.3992 44.5165 32.3616 43.7053 33.172C42.8947 33.9825 41.9323 34.6253 40.8733 35.0638C39.8142 35.5023 38.6791 35.7279 37.5329 35.7278C36.3866 35.7276 35.2516 35.5016 34.1927 35.0627C33.1337 34.6239 32.1716 33.9807 31.3613 33.17Z" fill="#BEC3CF"/>
    <path d="M57.3302 43.616L54.1462 46.799L45.4822 38.13L48.6662 34.949L57.3302 43.616Z" fill="#302C3B"/>
    <path d="M53.8462 47.4201C54.3672 47.9411 58.4792 43.8361 57.9532 43.3091L57.6332 42.9911C57.1082 42.4661 52.9982 46.5731 53.5242 47.0961L53.8462 47.4201Z" fill="#BEC3CF"/>
    <path d="M50.5512 36.1861L48.6742 38.0631C47.4812 39.2561 49.0722 40.8461 50.2642 39.6551L49.4692 40.4481C48.9922 40.9271 49.0732 41.6411 49.4692 42.0401C49.8672 42.4361 50.6622 42.4361 51.0592 42.0401C49.9462 43.1531 51.5362 44.7431 52.6492 43.6301L53.4462 42.8351C52.3312 43.9481 54.0032 45.4581 55.0362 44.4251L57.0002 42.4611C57.6522 41.8631 57.3162 40.3071 56.5102 39.8591C56.1742 39.6711 56.3092 38.2731 55.1602 37.9371C54.8442 37.8471 54.7952 36.6051 53.2242 36.2751C52.9302 36.2151 51.9532 34.7851 50.5512 36.1861Z" fill="#FDCA47"/>
    <path d="M45.4083 40.6251C45.1403 41.8851 48.1383 41.7461 48.2623 41.2051C48.2623 41.2051 48.5123 38.5371 48.3153 37.7601C47.8463 35.9301 46.3033 36.3211 46.2923 36.7831C46.2603 38.1351 45.6003 39.7151 45.4083 40.6251Z" fill="#FDCA47"/>
    <path opacity="0.2" d="M46.8592 21.917C46.8592 21.917 47.0882 22.36 47.3022 22.833C42.3552 23.788 35.0942 24.456 27.0002 24.456C20.1212 24.456 13.8432 23.972 9.0752 23.241C9.0862 22.817 9.1052 22.247 9.1052 22.247L46.8592 21.917Z" fill="black"/>
    <path d="M54.0002 19.0401C54.0002 21.1861 41.9102 23.4561 27.0002 23.4561C12.0882 23.4561 0.000244141 21.1861 0.000244141 19.0401C0.000244141 16.8941 12.0882 15.1531 27.0002 15.1531C41.9102 15.1531 54.0002 16.8941 54.0002 19.0401Z" fill="#4E5E67"/>
    <path d="M44.4823 15.5791C44.4823 19.6901 9.51831 19.6901 9.51831 15.5791C9.51831 -6.43291 17.3453 2.14409 27.0003 2.14409C36.6543 2.14409 44.4823 -6.43291 44.4823 15.5791Z" fill="#4E5E67"/>
    <path opacity="0.4" d="M27.0001 3.56019C22.1551 3.56019 13.7631 0.183192 16.5971 2.93319C20.3171 6.54019 33.8161 6.41019 37.4021 2.93319C40.2381 0.183192 31.8461 3.56019 27.0001 3.56019Z" fill="#302C3B"/>
    <path d="M9.51831 13.823V17.712C16.3503 20.273 37.6503 20.273 44.4823 17.712V13.823C37.6583 16.386 16.3413 16.386 9.51831 13.823Z" fill="#302C3B"/>
</svg>