<svg width="42" height="61" viewBox="0 0 42 61" fill="none" xmlns="http://www.w3.org/2000/svg">
    <path d="M42 18.962C42 8.782 32.578 0.5 21 0.5C9.422 0.5 0 8.782 0 18.962C0 26.89 6.287 33.214 9.58 39.765C10.689 41.974 9.178 43.253 11.086 44.81L21 52.16L30.913 44.81C32.821 43.253 31.31 41.974 32.42 39.765C35.712 33.215 42 26.89 42 18.962Z" fill="#FFE12C"/>
    <path d="M14.0151 46.686H27.9861C27.9861 36.245 37.8061 30.364 37.8061 21.179C37.8061 11.755 30.2901 5.13696 21.0241 5.13696C11.7581 5.13696 4.19507 11.754 4.19507 21.179C4.19407 30.364 14.0151 36.244 14.0151 46.686Z" fill="#FEEC9A"/>
    <path d="M15.172 33.6691C15.322 34.2951 18.243 44.0861 18.917 46.6861H19.539C18.987 44.0471 16.316 34.2191 16.187 33.6361C17.06 33.4441 18.973 32.7931 21 30.6031C23.028 32.7931 24.939 33.4431 25.813 33.6361C25.684 34.2191 23.013 44.0471 22.46 46.6861H23.083C23.757 44.0861 26.678 34.2951 26.828 33.6691C27.622 33.6151 28.381 33.3681 28.974 32.8251C29.581 32.2271 29.897 31.4461 29.755 30.6131C29.692 30.2141 29.393 29.6971 28.814 29.5211C28.5312 29.4269 28.2266 29.4202 27.94 29.5021C27.66 29.6091 27.454 29.7661 27.313 29.9181C26.753 30.5401 26.55 31.1601 26.32 31.7751C26.216 32.0851 26.126 32.3931 26.043 32.7001C26.043 32.7001 25.151 32.7681 23.241 31.4851C22.18 30.7721 21.875 30.2561 21.567 29.9151C21.899 29.5461 22.216 29.1421 22.463 28.6521C22.593 28.3791 22.705 28.0821 22.742 27.7471C22.7819 27.3866 22.7062 27.0228 22.526 26.7081C22.3217 26.3477 22.0012 26.0671 21.617 25.9121C21.4186 25.8433 21.2099 25.8091 21 25.8111C20.786 25.8111 20.572 25.8421 20.383 25.9121C19.9991 26.068 19.6786 26.3484 19.473 26.7081C19.2943 27.0234 19.2191 27.3868 19.258 27.7471C19.297 28.0811 19.407 28.3791 19.537 28.6521C19.783 29.1421 20.102 29.5471 20.434 29.9151C20.125 30.2561 19.819 30.7721 18.758 31.4851C16.849 32.7691 15.956 32.7001 15.956 32.7001C15.8743 32.3887 15.7819 32.0802 15.679 31.7751C15.449 31.1601 15.247 30.5401 14.687 29.9181C14.5126 29.7333 14.2981 29.5909 14.06 29.5021C13.7734 29.4202 13.4688 29.4269 13.186 29.5211C12.607 29.6981 12.309 30.2141 12.246 30.6131C12.103 31.4461 12.419 32.2281 13.027 32.8251C13.621 33.3681 14.379 33.6151 15.172 33.6691ZM27.289 32.0491C27.487 31.4961 27.74 30.8951 28.083 30.5341C28.165 30.4421 28.249 30.4061 28.293 30.3811C28.293 30.3841 28.395 30.3691 28.461 30.4001C28.578 30.4291 28.689 30.5501 28.732 30.7821C28.816 31.2311 28.604 31.8111 28.217 32.1731C27.946 32.4321 27.529 32.6111 27.089 32.6941C27.151 32.4771 27.215 32.2601 27.289 32.0491ZM20.367 27.1101C20.54 26.8501 20.765 26.7031 21 26.7031C21.233 26.7031 21.459 26.8501 21.634 27.1101C21.839 27.4361 21.767 27.8791 21.567 28.3121C21.4096 28.6245 21.2199 28.9194 21.001 29.1921C20.7813 28.9201 20.5919 28.6251 20.436 28.3121C20.232 27.8781 20.161 27.4361 20.367 27.1101ZM13.269 30.7811C13.312 30.5491 13.423 30.4281 13.541 30.3991C13.604 30.3681 13.708 30.3831 13.708 30.3801C13.749 30.4051 13.834 30.4421 13.913 30.5331C14.26 30.8941 14.513 31.4951 14.711 32.0481C14.785 32.2591 14.848 32.4761 14.91 32.6921C14.472 32.6101 14.053 32.4301 13.783 32.1711C13.396 31.8111 13.185 31.2301 13.269 30.7811Z" fill="#EA8800"/>
    <path fill-rule="evenodd" clip-rule="evenodd" d="M4.23997 16.3941C4.52297 19.5631 8.25497 13.3561 12.042 8.02806C14.479 4.59906 3.38997 6.85606 4.23997 16.3941Z" fill="white"/>
    <path d="M33.6961 12.673C34.9471 26.375 26.6561 37.088 30.0101 33.603C39.6971 23.536 33.4601 10.072 33.6961 12.673Z" fill="white"/>
    <path d="M15.7681 56.301C15.7681 58.619 18.1201 60.5 21.0181 60.5C23.9181 60.5 26.2681 58.619 26.2681 56.301H15.7681Z" fill="#302C3B"/>
    <path d="M18.5239 56.301H16.8169C16.8169 58.476 18.8949 60.244 21.5419 60.457C21.829 60.4358 22.1143 60.395 22.3959 60.335C20.1699 59.849 18.5239 58.236 18.5239 56.301Z" fill="#4E5E67"/>
    <path d="M30.9489 44.811C25.1739 47.227 17.0369 47.301 11.0859 44.811C11.0859 44.811 12.3979 52.223 13.1869 54.538C14.9419 59.686 27.0939 59.69 28.8499 54.538C29.6389 52.223 30.9489 44.811 30.9489 44.811Z" fill="#99A8AE"/>
    <path d="M12.658 52.3401C16.979 59.1541 26.193 58.5761 29.631 51.2771C24.993 55.0391 17.727 55.4941 12.658 52.3401Z" fill="#6E8189"/>
    <path d="M12.658 52.3521C16.456 56.8291 26.735 55.7271 29.631 51.2891C24.937 54.1411 17.67 54.5961 12.658 52.3521Z" fill="#CFD8DD"/>
    <path d="M11.946 49.148C12.9823 50.6993 14.4075 51.9514 16.0794 52.7792C17.7512 53.6069 19.611 53.9813 21.4729 53.8648C23.3348 53.7484 25.1335 53.1453 26.6892 52.1157C28.2449 51.0862 29.5031 49.6663 30.338 47.998C25.296 51.785 17.422 52.278 11.946 49.148Z" fill="#6E8189"/>
    <path d="M11.946 49.162C15.923 53.498 27.179 52.459 30.338 48.01C25.238 50.887 17.365 51.38 11.946 49.162Z" fill="#CFD8DD"/>
    <path d="M11.3701 46.1109C16.2701 52.8879 26.8641 52.2239 30.8811 44.8889C25.5201 48.6949 17.1661 49.2199 11.3701 46.1109Z" fill="#6E8189"/>
    <path d="M11.3701 46.1229C15.6271 50.4999 27.2711 49.6899 30.8811 44.8999C25.4641 47.7989 17.1111 48.3219 11.3701 46.1229Z" fill="#CFD8DD"/>
    <path opacity="0.6" d="M26.5271 57.1191C26.5271 57.1191 25.6881 57.6721 23.8671 58.1001C23.8671 58.1001 24.1261 52.9841 23.7451 46.5231C25.1849 46.3989 26.6117 46.1534 28.0101 45.7891C27.7041 54.8791 26.5271 57.1191 26.5271 57.1191Z" fill="white"/>
</svg>