<svg width="60" height="53" viewBox="0 0 60 53" fill="none" xmlns="http://www.w3.org/2000/svg">
    <path d="M27.47 39.6131C28.891 45.8911 41.594 46.6151 42.892 52.5001H48.464C46.583 49.7111 46.779 46.0351 47.234 42.1801C38.55 36.2521 31.264 37.2291 27.47 39.6131Z" fill="#995143"/>
    <path d="M32.6008 37.6151C34.5728 45.4781 53.5478 51.7301 55.2968 36.9061C46.6128 30.9771 36.3948 35.2301 32.6008 37.6151Z" fill="#AD5B4C"/>
    <path d="M13.0799 31.127C-2.12113 38.309 -7.63913 12.203 16.3069 3.17902C21.3169 -1.28998 33.7149 0.814022 34.9889 2.47802C45.6889 1.25102 49.9339 9.57402 49.9339 9.57402C58.3409 12.027 57.9159 21.342 57.9159 21.342C63.0109 29.841 58.2559 43.042 48.1499 36.997C48.1499 36.997 39.7439 35.856 34.3079 39.011C25.3509 44.211 14.6079 43.938 13.0799 31.127Z" fill="#F89987"/>
    <path fill-rule="evenodd" clip-rule="evenodd" d="M3.52182 24.342C4.42682 27.184 3.47882 14.806 14.6908 7.38996C18.7988 4.67296 -1.29018 9.23596 3.52182 24.342ZM26.0608 15.98C26.6118 17.181 25.5318 11.806 30.0458 7.99996C31.6988 6.60496 23.1448 9.60096 26.0608 15.98ZM49.7548 11.247C48.1208 11.16 54.4068 13.248 54.9048 21.267C55.0868 24.205 58.4398 11.693 49.7548 11.247ZM56.7298 24.492C55.6438 23.267 58.5728 29.209 53.2168 35.195C51.2548 37.389 62.5138 30.99 56.7298 24.492ZM47.0858 22.069C47.0158 20.415 45.7108 27.213 38.5808 29.682C35.9678 30.588 47.4628 30.863 47.0858 22.069ZM16.2028 34.313C16.6358 37.256 15.0228 29.983 28.1248 26.543C32.9278 25.283 14.8968 25.455 16.2028 34.313Z" fill="#FFBEAD"/>
    <path d="M13.0798 31.127C2.38979 36.178 -3.51121 24.77 2.25679 14.408C-3.85721 33.047 11.5428 35.686 20.1388 23.768C21.7028 25.436 32.8508 20.337 32.4328 18.232C33.4448 21.339 37.9658 19.098 39.7768 16.183C40.2638 22.445 22.9748 22.656 14.6898 30.582C15.4018 45.58 30.2588 41.561 32.8508 37.461C42.3628 34.107 46.1308 35.936 48.4628 34.498C50.8838 39.498 63.0108 37.186 57.9148 21.341C63.0098 29.84 58.3748 43.312 48.2688 37.267C48.2688 37.267 39.7498 36.156 34.3148 39.31C25.3578 44.512 14.6078 43.938 13.0798 31.127Z" fill="#C96F5E"/>
    <path d="M28.0868 17.316C27.9868 10.203 35.1178 7.72803 34.9878 2.47803C33.6328 8.29803 25.1398 10.306 28.0868 17.316ZM12.3358 12.976L13.0098 12.884C10.5878 8.08703 16.0958 8.22603 16.3068 3.17903C14.6718 7.63803 9.64976 8.08703 12.3358 12.976Z" fill="#C96F5E"/>
    <path d="M5.30695 16.035C9.80495 10.373 11.5139 15.857 16.8669 12.49C11.6989 13.992 8.50195 9.50003 5.30695 16.035ZM33.574 13.184L34.562 13.468C38.542 6.47603 41.584 12.728 47.7739 8.89603C41.4279 10.711 37.502 5.28003 33.574 13.184ZM11.0859 31.605L11.0399 30.769C4.51195 29.632 8.56195 25.578 3.89795 21.877C7.03295 26.254 3.86095 30.764 11.0859 31.605ZM23.7519 24.514L23.489 23.78C18.011 25.434 20.1269 20.124 15.431 18.705C19.096 21.357 17.8009 26.717 23.7519 24.514ZM57.916 21.341C52.961 25.633 49.6269 19.689 44.799 20.396L44.583 21.123C49.93 20.632 53.6049 27.156 57.916 21.341Z" fill="#C96F5E"/>
    <path d="M45.062 16.7811C43.451 20.6031 45.406 22.8881 40.638 25.0491C34.459 27.8521 25.24 27.1621 20.14 32.3811L20.649 33.0471C26.251 28.2951 35.697 28.5371 41.471 25.7171C46.422 23.3001 44.587 20.4101 45.062 16.7811ZM11.084 23.2021C12.254 15.2721 18.069 18.3091 21.56 14.8251L21.398 13.8271C16.936 17.5961 11.355 14.2601 10.261 22.9351L11.084 23.2021ZM27.853 3.89806L27.29 3.71606C27.065 9.61106 23.092 7.48006 20.848 10.8101V11.7921C23.963 8.11306 27.975 10.0871 27.853 3.89806ZM42.49 9.57806L42.348 10.2621C48.911 9.94406 46.997 14.8361 50.942 17.1571L52.033 17.0571C47.602 13.7481 49.34 8.82706 42.49 9.57806ZM26.25 18.6951C26.25 18.6951 23.104 16.0351 21.997 20.3181C23.777 18.0581 26.25 18.6951 26.25 18.6951ZM36.225 16.1601C36.225 16.1601 36.303 11.0821 31.463 13.2261C34.932 13.2641 36.225 16.1601 36.225 16.1601Z" fill="#C96F5E"/>
    <path d="M53.5878 15.4031C53.5878 15.4031 48.9368 15.8381 51.4278 20.2571C51.0798 16.9311 53.5878 15.4031 53.5878 15.4031ZM26.3088 2.11914C26.3088 2.11914 26.6678 5.85114 29.9908 3.86514C27.4798 4.13414 26.3088 2.11914 26.3088 2.11914ZM13.0638 25.4551C13.0638 25.4551 11.8388 20.3431 8.18677 23.9591C11.2048 22.9451 13.0638 25.4551 13.0638 25.4551ZM20.4388 35.1171C20.4388 35.1171 22.5888 31.5531 18.3298 30.9761C20.7318 32.5041 20.4388 35.1171 20.4388 35.1171ZM31.4998 28.0981C31.7728 26.9631 34.0118 28.0241 33.7478 32.2911C32.7118 28.9261 31.2258 29.2341 31.4998 28.0981ZM33.5568 38.1211C33.2148 39.4161 30.6738 38.1411 31.0858 33.2561C32.1888 37.1411 33.8998 36.8241 33.5568 38.1211ZM47.8658 35.9301C46.6038 35.4871 48.0758 33.0551 52.9108 33.8541C48.9518 34.6451 49.1318 36.3771 47.8658 35.9301ZM31.4198 20.5111C31.9338 21.6711 34.1208 20.0701 33.0098 15.5631C32.5548 19.3751 30.9048 19.3541 31.4198 20.5111ZM15.1038 5.74414L14.6908 6.71314C21.9228 7.86714 19.9318 14.7851 22.8778 18.9511L23.6478 18.4591C20.4238 13.2441 22.8708 7.25514 15.1038 5.74414ZM47.1858 31.6621C51.9348 27.4371 54.5048 32.5881 58.6758 32.4101L59.0568 31.7031C54.0638 31.5101 51.8058 26.3071 46.7428 31.0331L47.1858 31.6621Z" fill="#C96F5E"/>
    <path d="M47.4578 34.1661C47.4578 34.1661 49.1318 30.3281 44.7808 30.4941C47.3978 31.5721 47.4578 34.1661 47.4578 34.1661ZM24.3298 34.3241C28.8308 37.3261 22.4308 38.8101 22.2988 41.4471L23.3238 41.8301C23.7518 39.5081 30.0018 36.5411 24.3298 34.3241ZM41.6228 24.9161L41.0368 25.3891C44.5668 29.3321 38.8628 29.4401 39.2538 33.8071C40.3858 29.8571 45.8378 29.0591 41.6228 24.9161ZM36.4408 5.30407C40.0188 4.04007 42.1638 7.36707 45.8118 6.16207C42.6398 6.46907 40.6638 2.40507 36.4408 5.30407Z" fill="#C96F5E"/>
</svg>