<svg width="60" height="61" viewBox="0 0 60 61" fill="none" xmlns="http://www.w3.org/2000/svg">
    <path d="M30 60.5C46.5685 60.5 60 47.0685 60 30.5C60 13.9315 46.5685 0.5 30 0.5C13.4315 0.5 0 13.9315 0 30.5C0 47.0685 13.4315 60.5 30 60.5Z" fill="#FDCA47"/>
    <path d="M49.6539 7.84595C54.3988 13.2942 57.0086 20.2772 56.9999 27.5019C56.9999 44.07 43.5659 57.4999 26.9999 57.4999C19.4789 57.4999 12.6109 54.7249 7.34595 50.1559C12.8449 56.4879 20.9509 60.4999 29.9999 60.4999C46.5689 60.4999 59.9999 47.0699 59.9999 30.5009C59.9999 21.4509 55.9879 13.3459 49.6539 7.84595Z" fill="#F9B700"/>
    <path fill-rule="evenodd" clip-rule="evenodd" d="M4.41688 18.9999C3.29988 22.7399 10.9999 9.49992 22.9999 4.58192C28.8329 2.19292 9.16688 3.08192 4.41688 18.9999Z" fill="#FFE8BB"/>
    <path d="M38.211 45.404C36.027 41.466 23.98 41.451 21.789 45.404C21.31 46.273 21.46 47.009 21.996 47.211C23.785 47.893 25.558 46.873 30 46.873C34.434 46.873 36.213 47.893 38.004 47.211C38.541 47.01 38.691 46.273 38.211 45.404Z" fill="#302C3B"/>
    <path d="M9.38509 16.204C16.9031 12.666 22.8191 18.547 25.5281 16.708C26.2101 16.244 27.0031 17.801 26.3461 18.301C22.8191 20.989 16.2351 15.78 10.6451 19.2C9.87709 19.67 8.55809 16.594 9.38509 16.204ZM33.7421 12.791C43.2501 8.85001 44.2341 2.91601 50.8011 10.988C51.3481 11.66 48.7521 13.174 48.1861 12.515C43.4131 6.96801 43.5901 11.925 34.4671 14.404C33.5511 14.653 33.1541 13.035 33.7421 12.791Z" fill="#917524"/>
    <path d="M54.1411 21.959C53.5471 21.959 53.0121 22.188 52.6001 22.555C51.7581 16.943 46.9341 12.637 41.0881 12.637C34.6521 12.637 29.4331 17.856 29.4331 24.292C29.4331 30.73 34.6521 35.947 41.0881 35.947C46.9341 35.947 51.7581 31.64 52.6001 26.027C53.0121 26.393 53.5471 26.623 54.1411 26.623C54.4473 26.6232 54.7506 26.5631 55.0336 26.4461C55.3166 26.329 55.5737 26.1574 55.7903 25.9409C56.0069 25.7244 56.1787 25.4673 56.2958 25.1844C56.413 24.9015 56.4732 24.5982 56.4731 24.292C56.4735 23.9856 56.4135 23.6821 56.2964 23.3989C56.1794 23.1158 56.0076 22.8585 55.791 22.6418C55.5744 22.4251 55.3172 22.2532 55.0341 22.136C54.7509 22.0189 54.4475 21.9587 54.1411 21.959Z" fill="#CC9200"/>
    <path d="M40.9341 27.7581C43.6961 27.7581 45.9351 25.5191 45.9351 22.7571C45.9351 19.9951 43.6961 17.7561 40.9341 17.7561C38.1721 17.7561 35.9331 19.9951 35.9331 22.7571C35.9331 25.5191 38.1721 27.7581 40.9341 27.7581Z" fill="#302C3B"/>
    <path d="M53.998 22.9509H55V60.4999H53.998V22.9509Z" fill="#99A8AE"/>
    <path d="M54.4981 25.2581C55.8793 25.2581 56.9991 24.1384 56.9991 22.7571C56.9991 21.3758 55.8793 20.2561 54.4981 20.2561C53.1168 20.2561 51.9971 21.3758 51.9971 22.7571C51.9971 24.1384 53.1168 25.2581 54.4981 25.2581Z" fill="#4E5E67"/>
    <path d="M40.9321 11.2561C34.5821 11.2561 29.4331 16.4061 29.4331 22.7581C29.4331 29.1091 34.5821 34.2581 40.9321 34.2581C47.2861 34.2581 52.4341 29.1091 52.4341 22.7581C52.4341 16.4061 47.2851 11.2561 40.9321 11.2561ZM40.9321 32.6021C35.4961 32.6021 31.0901 28.1941 31.0881 22.7561C31.0901 17.3181 35.4961 12.9111 40.9321 12.9111C46.3701 12.9111 50.7781 17.3181 50.7781 22.7561C50.7781 28.1941 46.3691 32.6021 40.9321 32.6021Z" fill="#4E5E67"/>
    <path opacity="0.7" d="M40.93 32.6009C46.3672 32.6009 50.775 28.1931 50.775 22.7559C50.775 17.3186 46.3672 12.9109 40.93 12.9109C35.4927 12.9109 31.085 17.3186 31.085 22.7559C31.085 28.1931 35.4927 32.6009 40.93 32.6009Z" fill="#E6EBEF"/>
    <path opacity="0.7" d="M37.5721 13.502C36.223 13.9948 34.9978 14.7765 33.9823 15.7924C32.9668 16.8082 32.1855 18.0336 31.6931 19.383L37.5721 13.502ZM44.8891 13.734L31.9241 26.698C32.1764 27.2773 32.4853 27.8303 32.8461 28.349L46.5391 14.658C46.0202 14.2974 45.4677 13.988 44.8891 13.734ZM48.1481 16.061L34.2501 29.958C34.6701 30.349 35.1231 30.704 35.6071 31.015L49.2051 17.42C48.8931 16.937 48.5394 16.4823 48.1481 16.061ZM50.6211 21.04L39.2291 32.434C39.7918 32.5356 40.3623 32.5878 40.9341 32.59H40.9811C41.2881 32.59 41.5901 32.57 41.8891 32.543L50.7311 23.701C50.7621 23.387 50.7801 23.068 50.7801 22.747C50.7776 22.1744 50.7244 21.6031 50.6211 21.04Z" fill="white"/>
    <path d="M24.564 22.1969C24.564 28.0349 13.564 28.0349 13.564 22.1969C13.564 20.0349 24.564 20.0349 24.564 22.1969Z" fill="#302C3B"/>
</svg>