<svg width="60" height="61" viewBox="0 0 60 61" fill="none" xmlns="http://www.w3.org/2000/svg">
    <path d="M30 60.5C46.5685 60.5 60 47.0685 60 30.5C60 13.9315 46.5685 0.5 30 0.5C13.4315 0.5 0 13.9315 0 30.5C0 47.0685 13.4315 60.5 30 60.5Z" fill="#FDCA47"/>
    <path d="M49.6539 7.84595C54.3988 13.2934 57.0086 20.2758 56.9999 27.4999C56.9999 44.0679 43.5679 57.4999 26.9999 57.4999C19.7758 57.5086 12.7934 54.8988 7.34595 50.1539C12.8469 56.4899 20.9529 60.4999 29.9999 60.4999C46.5679 60.4999 59.9999 47.0679 59.9999 30.4999C59.9999 21.4529 55.9889 13.3479 49.6539 7.84595Z" fill="#F9B700"/>
    <path fill-rule="evenodd" clip-rule="evenodd" d="M4.41801 19C3.30301 22.742 11.001 9.50002 23.001 4.58402C28.834 2.19302 9.16801 3.08402 4.41801 19Z" fill="#FFE8BB"/>
    <path d="M35.252 47.502C34.053 47.626 32.492 47.748 30 47.748C27.51 47.748 25.947 47.626 24.748 47.502C23.713 47.392 23.795 52.422 24.73 52.903C25.619 53.362 28.537 53.643 29.334 53.424C30.002 53.236 30 52.821 30 52.821C30 52.821 29.996 53.236 30.666 53.424C31.463 53.644 34.381 53.362 35.27 52.903C36.205 52.422 36.289 47.392 35.252 47.502ZM44 17.603C40.025 17.603 36.512 19.542 34.328 22.521C31.539 21.242 28.258 21.369 25.68 22.53C23.496 19.547 19.979 17.603 16 17.603C9.373 17.603 4 22.974 4 29.603C4 36.23 9.373 41.603 16 41.603C22.629 41.603 28 36.23 28 29.603C28 28.326 27.797 27.097 27.428 25.943C28.975 25.494 31.03 25.496 32.574 25.944C32.1933 27.1264 31.9996 28.3609 32 29.603C32 36.23 37.373 41.603 44 41.603C50.627 41.603 56 36.23 56 29.603C56 22.974 50.627 17.603 44 17.603ZM16 38.603C14.8102 38.6155 13.6297 38.3919 12.5269 37.9452C11.424 37.4985 10.4207 36.8376 9.57495 36.0006C8.7292 35.1636 8.05781 34.1672 7.59963 33.0691C7.14145 31.971 6.90557 30.7929 6.90563 29.603C6.9057 28.4131 7.14171 27.2351 7.60002 26.137C8.05832 25.0389 8.72982 24.0426 9.57566 23.2058C10.4215 22.3689 11.4249 21.708 12.5278 21.2614C13.6307 20.8149 14.8112 20.5914 16.001 20.604C18.3714 20.6291 20.6361 21.5884 22.3034 23.2735C23.9707 24.9587 24.9058 27.2335 24.9056 29.604C24.9055 31.9745 23.9701 34.2493 22.3027 35.9342C20.6353 37.6191 18.3704 38.5782 16 38.603ZM44 38.603C42.8102 38.6155 41.6297 38.3919 40.5269 37.9452C39.424 37.4985 38.4207 36.8376 37.5749 36.0006C36.7292 35.1636 36.0578 34.1672 35.5996 33.0691C35.1415 31.971 34.9056 30.7929 34.9056 29.603C34.9057 28.4131 35.1417 27.2351 35.6 26.137C36.0583 25.0389 36.7298 24.0426 37.5757 23.2058C38.4215 22.3689 39.4249 21.708 40.5278 21.2614C41.6307 20.8149 42.8112 20.5914 44.001 20.604C46.3714 20.6291 48.6361 21.5884 50.3034 23.2735C51.9707 24.9587 52.9058 27.2335 52.9056 29.604C52.9055 31.9745 51.9701 34.2493 50.3027 35.9342C48.6353 37.6191 46.3704 38.5782 44 38.603Z" fill="#E8A329"/>
    <path d="M17.5 33C19.433 33 21 30.9853 21 28.5C21 26.0147 19.433 24 17.5 24C15.567 24 14 26.0147 14 28.5C14 30.9853 15.567 33 17.5 33Z" fill="#302C3B"/>
    <path d="M42.5 33C44.433 33 46 30.9853 46 28.5C46 26.0147 44.433 24 42.5 24C40.567 24 39 26.0147 39 28.5C39 30.9853 40.567 33 42.5 33Z" fill="#302C3B"/>
    <path d="M44 16.5C40.025 16.5 36.512 18.439 34.328 21.418C31.539 20.139 28.258 20.266 25.68 21.427C23.496 18.443 19.979 16.5 16 16.5C9.373 16.5 4 21.871 4 28.5C4 35.127 9.373 40.5 16 40.5C22.629 40.5 28 35.127 28 28.5C28 27.223 27.797 25.994 27.428 24.84C28.975 24.391 31.03 24.393 32.574 24.841C32.1934 26.0233 31.9997 27.2579 32 28.5C32 35.127 37.373 40.5 44 40.5C50.627 40.5 56 35.127 56 28.5C56 21.871 50.627 16.5 44 16.5ZM16 37.5C14.8102 37.5125 13.6297 37.2889 12.5269 36.8422C11.424 36.3955 10.4207 35.7345 9.57495 34.8976C8.7292 34.0606 8.05781 33.0642 7.59963 31.9661C7.14145 30.868 6.90557 29.6899 6.90563 28.5C6.9057 27.3101 7.14171 26.1321 7.60002 25.034C8.05832 23.9359 8.72982 22.9396 9.57566 22.1027C10.4215 21.2659 11.4249 20.605 12.5278 20.1584C13.6307 19.7118 14.8112 19.4884 16.001 19.501C18.3714 19.5261 20.6361 20.4854 22.3034 22.1705C23.9707 23.8556 24.9058 26.1305 24.9056 28.501C24.9055 30.8715 23.9701 33.1463 22.3027 34.8312C20.6353 36.5161 18.3704 37.4751 16 37.5ZM44 37.5C42.8102 37.5125 41.6297 37.2889 40.5269 36.8422C39.424 36.3955 38.4207 35.7345 37.5749 34.8976C36.7292 34.0606 36.0578 33.0642 35.5996 31.9661C35.1415 30.868 34.9056 29.6899 34.9056 28.5C34.9057 27.3101 35.1417 26.1321 35.6 25.034C36.0583 23.9359 36.7298 22.9396 37.5757 22.1027C38.4215 21.2659 39.4249 20.605 40.5278 20.1584C41.6307 19.7118 42.8112 19.4884 44.001 19.501C46.3714 19.5261 48.6361 20.4854 50.3034 22.1705C51.9707 23.8556 52.9058 26.1305 52.9056 28.501C52.9055 30.8715 51.9701 33.1463 50.3027 34.8312C48.6353 36.5161 46.3704 37.4751 44 37.5ZM42.584 43.689C36.979 45.25 30 45.254 30 45.254C30 45.254 23.023 45.25 17.416 43.691C16.295 43.378 15.785 44.3 16.324 45.4C17.813 48.43 26.016 50.5 30 50.5C33.986 50.5 42.189 48.43 43.676 45.398C44.217 44.301 43.707 43.379 42.584 43.689Z" fill="#302C3B"/>
    <path d="M35.2519 46.502C34.0529 46.626 32.4919 46.748 29.9999 46.748C27.5099 46.748 25.9469 46.626 24.7479 46.502C23.7129 46.392 23.7949 51.422 24.7299 51.903C25.6189 52.362 28.5369 52.643 29.3339 52.424C30.0019 52.236 29.9999 51.821 29.9999 51.821C29.9999 51.821 29.9959 52.236 30.6659 52.424C31.4629 52.644 34.3809 52.362 35.2699 51.903C36.2049 51.422 36.2889 46.392 35.2519 46.502Z" fill="white"/>
    <path opacity="0.3" d="M43.998 19.5C48.969 19.5 52.998 23.525 52.998 28.5C52.998 33.475 48.969 37.5 43.998 37.5C42.8162 37.5 41.646 37.2672 40.5542 36.8149C39.4623 36.3626 38.4703 35.6996 37.6347 34.8638C36.7992 34.0281 36.1364 33.0359 35.6844 31.944C35.2323 30.8521 34.9997 29.6818 35 28.5C34.9997 27.3182 35.2323 26.1479 35.6844 25.056C36.1364 23.9641 36.7992 22.9719 37.6347 22.1362C38.4703 21.3004 39.4623 20.6374 40.5542 20.1851C41.646 19.7328 42.8162 19.5 43.998 19.5Z" fill="#E6EBEF"/>
    <path opacity="0.3" d="M40.9299 20.0449C39.695 20.4936 38.5736 21.2078 37.6448 22.1373C36.7161 23.0667 36.0027 24.1886 35.5549 25.4239L40.9299 20.0449ZM47.6169 20.2559L35.7659 32.1039C35.9999 32.6309 36.2819 33.1409 36.6079 33.6159L49.1249 21.0999C48.6532 20.7666 48.1477 20.4838 47.6169 20.2559ZM50.5959 22.3829L37.8929 35.0919C38.2779 35.4439 38.6919 35.7599 39.1349 36.0589L51.5629 23.6139C51.2754 23.1774 50.9519 22.7657 50.5959 22.3829ZM52.8549 26.9359L42.4429 37.3419C42.9576 37.4336 43.4792 37.4807 44.0019 37.4829H44.0449C44.3239 37.4829 44.6019 37.4649 44.8749 37.4479L52.9569 29.3619C53.0374 28.5525 53.003 27.7357 52.8549 26.9359Z" fill="white"/>
    <path opacity="0.3" d="M15.998 19.5C20.969 19.5 24.998 23.525 24.998 28.5C24.998 33.475 20.969 37.5 15.998 37.5C14.8162 37.5 13.646 37.2672 12.5542 36.8149C11.4623 36.3626 10.4703 35.6996 9.63475 34.8638C8.79918 34.0281 8.13643 33.0359 7.68436 31.944C7.23228 30.8521 6.99974 29.6818 7 28.5C6.99974 27.3182 7.23228 26.1479 7.68436 25.056C8.13643 23.9641 8.79918 22.9719 9.63475 22.1362C10.4703 21.3004 11.4623 20.6374 12.5542 20.1851C13.646 19.7328 14.8162 19.5 15.998 19.5Z" fill="#E6EBEF"/>
    <path opacity="0.3" d="M12.9299 20.0449C11.695 20.4936 10.5736 21.2078 9.64482 22.1373C8.71608 23.0667 8.00267 24.1886 7.55493 25.4239L12.9299 20.0449ZM19.6169 20.2559L7.76593 32.1039C7.99993 32.6309 8.28193 33.1409 8.60793 33.6159L21.1249 21.0999C20.6532 20.7666 20.1477 20.4838 19.6169 20.2559ZM22.5959 22.3829L9.89293 35.0919C10.2779 35.4439 10.6919 35.7599 11.1349 36.0589L23.5629 23.6139C23.2754 23.1774 22.9519 22.7657 22.5959 22.3829ZM24.8549 26.9359L14.4429 37.3419C14.9576 37.4336 15.4792 37.4807 16.0019 37.4829H16.0449C16.3239 37.4829 16.6019 37.4649 16.8749 37.4479L24.9569 29.3619C25.0374 28.5525 25.003 27.7357 24.8549 26.9359Z" fill="white"/>
    <path d="M52.345 14.4971C48.187 11.2961 42.031 9.68308 38.566 10.6651C37.834 10.8731 37.399 13.5851 38.031 13.4911C42.885 12.7661 48.189 13.6221 52.215 16.3291C52.754 16.6921 52.97 14.9781 52.345 14.4971ZM7.65699 14.5001C11.814 11.2961 17.97 9.68408 21.437 10.6661C22.167 10.8721 22.603 13.5871 21.97 13.4911C17.117 12.7681 11.813 13.6221 7.78799 16.3291C7.24699 16.6951 7.03099 14.9791 7.65699 14.5001Z" fill="#917524"/>
</svg>