<svg width="56" height="61" viewBox="0 0 56 61" fill="none" xmlns="http://www.w3.org/2000/svg">
    <path d="M28 56.4998C43.464 56.4998 56 43.9637 56 28.4998C56 13.0358 43.464 0.499756 28 0.499756C12.536 0.499756 0 13.0358 0 28.4998C0 43.9637 12.536 56.4998 28 56.4998Z" fill="#FDCA47"/>
    <path d="M46.344 7.35571C50.61 12.2707 53.2 18.6817 53.2 25.6997C53.2 41.1627 40.663 53.6997 25.2 53.6997C18.18 53.6997 11.77 51.1097 6.85596 46.8427C11.99 52.7567 19.555 56.4987 28 56.4987C43.464 56.4987 56 43.9637 56 28.4997C56 20.0567 52.257 12.4907 46.344 7.35571Z" fill="#F9B700"/>
    <path fill-rule="evenodd" clip-rule="evenodd" d="M4.124 17.7668C3.082 21.2598 10.267 8.89984 21.467 4.31184C26.911 2.07984 8.557 2.91184 4.124 17.7668Z" fill="#FFE8BB"/>
    <path d="M33.479 33.1628C29.729 29.8368 22.746 27.6428 17.521 30.7488C16.585 31.3058 16.682 32.4288 17.704 32.2368C21.604 31.5138 27.786 32.9358 31.248 35.9788C32.573 37.1418 34.853 34.4048 33.479 33.1628Z" fill="#302C3B"/>
    <path d="M31.778 39.4108C36.955 39.7878 35.967 47.2628 30.548 47.4088C31.251 48.5418 31.126 50.9338 30.157 51.9788C31.055 53.0728 30.594 55.2598 32.346 56.1648C8.97997 59.5518 30.272 39.3018 31.778 39.4108Z" fill="#E8A329"/>
    <path d="M17.694 58.5618C6.46801 61.1438 1.54001 50.8098 4.84601 41.6158C6.03001 38.3268 2.92201 33.4338 6.18401 31.5218C9.53901 29.5558 12.681 32.4968 12.793 38.9128C15.775 38.2368 19.823 35.7178 22.392 35.8948C23.794 35.9928 28.695 38.2038 30.306 38.3208C35.852 38.7248 35.663 45.8208 28.53 45.0608C28.643 46.1428 28.199 48.0728 27.162 49.1918C27.615 50.4458 27.68 52.3028 26.113 53.9728C26.724 58.3248 21.361 60.8968 17.694 58.5618Z" fill="white"/>
    <path d="M17.44 59.4947C5.43397 62.3307 0.738972 50.6417 3.88497 41.9597C5.18897 38.3617 1.73397 32.7647 5.22297 30.6637C8.81197 28.5047 13.271 30.8387 13.39 37.8857C16.581 37.1437 20.071 34.6147 22.816 34.8097C24.319 34.9167 29.567 37.4757 31.291 37.6067C37.222 38.0497 36.757 46.4097 29.126 45.5777C29.246 46.7637 29.028 48.1847 27.921 49.4157C28.403 50.7947 28.472 52.8337 26.797 54.6677C27.45 59.4477 21.362 62.0617 17.44 59.4947ZM19.664 56.1827L18.331 57.6987C23.817 60.4057 27.659 54.0407 21.858 51.7147C23.495 51.7927 24.68 52.4747 25.254 52.9687C26.953 50.3577 26.77 48.6577 23.4 46.3847C25.699 46.9077 26.545 48.0407 26.545 48.0407C28.208 44.7377 27.241 43.3527 24.181 41.6307C26.458 41.7867 27.882 43.1057 29.253 43.4587C32.702 44.3477 34.191 39.7227 31.317 39.5137C27.774 39.2557 24.383 36.8677 22.302 37.0507C19.328 37.3147 17.591 39.1987 11.083 41.1557C11.39 34.7747 9.75597 31.5097 6.89597 32.4757C4.42197 33.3117 7.48697 37.1087 5.95497 42.1257C2.51897 53.3777 10.441 60.8577 19.664 56.1827Z" fill="#99A8AE"/>
    <path d="M16.2679 22.4998C18.4771 22.4998 20.2679 20.2612 20.2679 17.4998C20.2679 14.7383 18.4771 12.4998 16.2679 12.4998C14.0588 12.4998 12.2679 14.7383 12.2679 17.4998C12.2679 20.2612 14.0588 22.4998 16.2679 22.4998Z" fill="#302C3B"/>
    <path d="M35.7321 24.4998C37.9412 24.4998 39.7321 22.2612 39.7321 19.4998C39.7321 16.7383 37.9412 14.4998 35.7321 14.4998C33.5229 14.4998 31.7321 16.7383 31.7321 19.4998C31.7321 22.2612 33.5229 24.4998 35.7321 24.4998Z" fill="#302C3B"/>
    <path d="M43.398 11.7426C39.495 10.1186 34.368 10.1456 31.875 11.6336C31.35 11.9476 31.576 14.1496 32.049 13.9446C35.675 12.3686 39.982 11.9276 43.679 13.1946C44.175 13.3656 43.985 11.9856 43.398 11.7426ZM11.177 7.25664C15.207 5.97764 20.313 6.45164 22.666 8.15164C23.163 8.50964 22.744 10.6856 22.292 10.4386C18.817 8.55264 14.566 7.73864 10.773 8.67864C10.262 8.80664 10.571 7.44864 11.177 7.25664Z" fill="#917524"/>
</svg>