<svg width="49" height="50" viewBox="0 0 49 50" fill="none" xmlns="http://www.w3.org/2000/svg">
    <defs>
        <linearGradient id="paint0_linear" x1="18.1238" y1="20.4121" x2="27.225" y2="32.0251" gradientUnits="userSpaceOnUse">
            <stop stop-color="#414CBE"/>
            <stop offset="1" stop-color="#FF4770"/>
        </linearGradient>
    </defs>
    <circle cx="24.5" cy="26" r="24" fill="black" fill-opacity="0.2"/>
    <circle cx="24.5" cy="24" r="24" fill="white"/>
    <path d="M13.2942 16.9349C13.4503 17.0326 14.0443 17.3941 15.0763 18.0195C16.1082 18.645 17.2182 19.3143 18.4062 20.0277C19.5943 20.741 20.6826 21.4006 21.6712 22.0065C22.6598 22.6124 23.1974 22.9349 23.2841 22.9739C23.4402 23.0717 23.6223 23.145 23.8305 23.1938C24.0386 23.2427 24.2554 23.2671 24.4809 23.2671C24.7063 23.2671 24.9231 23.2427 25.1312 23.1938C25.3394 23.145 25.5215 23.0717 25.6776 22.9739C25.7643 22.9349 26.3019 22.6124 27.2905 22.0065C28.2791 21.4006 29.3674 20.741 30.5555 20.0277C31.7435 19.3143 32.8535 18.645 33.8854 18.0195C34.9174 17.3941 35.5114 17.0326 35.6675 16.9349C35.997 16.7394 36.2442 16.3681 36.4089 15.8208C36.5737 15.2736 36.3526 15 35.7456 15H13.2162C12.6091 15 12.388 15.2736 12.5528 15.8208C12.7175 16.3681 12.9647 16.7394 13.2942 16.9349ZM35.9797 20.2476C35.7889 20.3453 35.1689 20.702 34.1196 21.3176C33.0703 21.9332 31.9386 22.5977 30.7246 23.3111C29.5105 24.0244 28.3962 24.6791 27.3816 25.2752C26.367 25.8713 25.799 26.2085 25.6776 26.2866C25.4521 26.4235 25.2526 26.5065 25.0792 26.5358C24.9058 26.5651 24.7063 26.5798 24.4809 26.5798C24.2554 26.5798 24.0559 26.5651 23.8825 26.5358C23.7091 26.5065 23.5096 26.4235 23.2841 26.2866C23.1627 26.2085 22.5947 25.8713 21.5801 25.2752C20.5655 24.6791 19.4555 24.0244 18.2501 23.3111C17.0448 22.5977 15.9218 21.9332 14.8811 21.3176C13.8405 20.702 13.2248 20.3453 13.034 20.2476C12.7739 20.0912 12.6221 20.0717 12.5788 20.1889C12.5354 20.3062 12.5137 20.4332 12.5137 20.57C12.5137 20.6287 12.5137 21.2345 12.5137 22.3876C12.5137 23.5407 12.5137 24.7915 12.5137 26.1401C12.5137 27.4886 12.5137 28.7199 12.5137 29.8339C12.5137 30.9479 12.5137 31.5049 12.5137 31.5049C12.5137 31.8176 12.6655 32.1449 12.969 32.487C13.2725 32.829 13.563 33 13.8405 33H35.1732C35.4507 33 35.7412 32.829 36.0447 32.487C36.3482 32.1449 36.5 31.8176 36.5 31.5049C36.5 31.5049 36.5 30.9479 36.5 29.8339C36.5 28.7199 36.5 27.4886 36.5 26.1401C36.5 24.7915 36.5 23.5407 36.5 22.3876C36.5 21.2345 36.5 20.6287 36.5 20.57C36.5 20.4332 36.4783 20.3062 36.435 20.1889C36.3916 20.0717 36.2398 20.0912 35.9797 20.2476Z" fill="url(#paint0_linear)"/>
</svg>
