<svg width="49" height="50" viewBox="0 0 49 50" fill="none" xmlns="http://www.w3.org/2000/svg">
    <defs>
        <linearGradient id="paint0_linear" x1="18.1238" y1="19.2161" x2="30.6089" y2="31.1642" gradientUnits="userSpaceOnUse">
            <stop stop-color="#414CBE"/>
            <stop offset="1" stop-color="#FF4770"/>
        </linearGradient>
    </defs>
    <circle cx="24.5" cy="26" r="24" fill="black" fill-opacity="0.2"/>
    <circle cx="24.5" cy="24" r="24" fill="white"/>
    <path d="M35.1759 12H13.8241C13.473 12 13.1362 12.1395 12.8878 12.3878C12.6395 12.6362 12.5 12.973 12.5 13.3241V34.6759C12.5 35.027 12.6395 35.3638 12.8878 35.6122C13.1362 35.8605 13.473 36 13.8241 36H25.3276V26.7186H22.2034V23.0855H25.3276V20.4124C25.3276 17.3131 27.2228 15.6248 29.9869 15.6248C30.9184 15.6228 31.8493 15.6698 32.7759 15.7655V19.0055H30.8724C29.3662 19.0055 29.0724 19.7172 29.0724 20.7683V23.0814H32.6724L32.2048 26.7145H29.0517V36H35.1759C35.527 36 35.8638 35.8605 36.1122 35.6122C36.3605 35.3638 36.5 35.027 36.5 34.6759V13.3241C36.5 12.973 36.3605 12.6362 36.1122 12.3878C35.8638 12.1395 35.527 12 35.1759 12V12Z" fill="url(#paint0_linear)"/>
</svg>
