<svg width="65" height="64" viewBox="0 0 65 64" fill="none" xmlns="http://www.w3.org/2000/svg">
    <defs>
        <linearGradient id="paint0_linear" x1="7.70011" y1="32.0546" x2="57.3001" y2="32.0546" gradientUnits="userSpaceOnUse">
            <stop stop-color="#00FFFF"/>
            <stop offset="1" stop-color="#00BEFF"/>
        </linearGradient>
        <linearGradient id="paint1_linear" x1="44.3278" y1="46.3716" x2="27.7944" y2="22.105" gradientUnits="userSpaceOnUse">
            <stop stop-color="#414CBE" stop-opacity="0.4"/>
            <stop offset="1" stop-color="#00BEFF"/>
        </linearGradient>
        <linearGradient id="paint2_linear" x1="10.954" y1="20.8609" x2="27.4345" y2="20.8609" gradientUnits="userSpaceOnUse">
            <stop stop-color="white" stop-opacity="0.4"/>
            <stop offset="1" stop-color="white"/>
        </linearGradient>
    </defs>
    <path d="M44.5801 10.96L28.3401 8.16001C25.3001 7.60001 22.2601 8.72001 20.3401 11.04L9.70011 23.68C7.70011 26 7.14011 29.2 8.18011 32.08L13.8601 47.6C14.9001 50.48 17.3801 52.56 20.4201 53.12L36.6601 56C39.7001 56.56 42.7401 55.44 44.6601 53.12L55.3001 40.48C57.2201 38.16 57.8601 34.96 56.8201 32.08L51.1401 16.56C50.1001 13.6 47.6201 11.52 44.5801 10.96Z" fill="url(#paint0_linear)"/>
    <path d="M30.58 36.32C30.34 35.84 30.26 35.28 30.34 34.64C30.58 33.28 31.06 32.24 31.7 31.36C32.34 30.56 33.2201 29.68 34.4201 28.72C35.3001 28 35.94 27.44 36.34 26.96C36.74 26.48 37.06 25.92 37.14 25.2C37.3 24.48 37.14 23.84 36.66 23.28C36.18 22.72 35.46 22.4 34.58 22.24C33.7 22.08 32.9 22.16 32.1 22.32C31.3 22.56 30.26 22.88 28.9 23.36C28.02 23.68 27.38 23.76 26.9 23.68C26.34 23.6 25.94 23.28 25.62 22.72C25.3 22.16 25.22 21.52 25.38 20.88C25.46 20.4 25.62 20 25.86 19.68C26.1 19.36 26.42 19.12 26.82 18.88C28.18 18.16 29.62 17.68 31.22 17.44C32.82 17.2 34.42 17.2 35.94 17.44C37.62 17.76 38.98 18.32 40.18 19.12C41.38 19.92 42.2601 20.88 42.8201 22.08C43.3801 23.2 43.54 24.4 43.3 25.68C43.14 26.64 42.74 27.52 42.26 28.24C41.7 28.96 41.14 29.6 40.5 30.08C39.86 30.56 38.98 31.2 37.94 31.92C36.74 32.64 35.86 33.28 35.3 33.84C34.66 34.4 34.26 35.04 33.94 35.76C33.78 36.24 33.46 36.56 33.06 36.8C32.66 37.04 32.26 37.12 31.78 37.04C31.3 37.12 30.82 36.8 30.58 36.32ZM28.1 44.72C27.54 43.92 27.38 43.12 27.54 42.08C27.7 41.12 28.18 40.32 28.9 39.84C29.62 39.28 30.5 39.12 31.46 39.28C32.42 39.44 33.14 39.92 33.7 40.64C34.26 41.44 34.42 42.24 34.26 43.28C34.1 44.24 33.62 45.04 32.9 45.52C32.18 46.08 31.3 46.24 30.34 46.08C29.38 45.92 28.66 45.44 28.1 44.72Z" fill="url(#paint1_linear)"/>
    <path opacity="0.7" d="M11.3001 30.5601C10.5801 28.6401 10.9801 26.5601 12.2601 25.0401L22.1001 13.2001C23.3801 11.6801 25.4601 10.9601 27.3801 11.2801L27.3001 11.6001C27.2201 12.7201 26.3401 13.6001 25.3001 14.0801C24.9001 14.2401 24.5001 14.5601 24.1801 14.8801L14.2601 26.6401C13.9401 27.0401 13.7801 27.4401 13.6201 27.8401C13.3801 28.9601 12.5801 29.9201 11.5401 30.4001L11.3001 30.5601Z" fill="url(#paint2_linear)"/>
</svg>
