<svg width="65" height="64" viewBox="0 0 65 64" fill="none" xmlns="http://www.w3.org/2000/svg">
    <defs>
        <linearGradient id="paint0_linear" x1="6.8999" y1="32" x2="58.0999" y2="32" gradientUnits="userSpaceOnUse">
            <stop stop-color="#F9EB74"/>
            <stop offset="1" stop-color="#F9D100"/>
        </linearGradient>
        <linearGradient id="paint1_linear" x1="9.68531" y1="20.8938" x2="32.5" y2="20.8938" gradientUnits="userSpaceOnUse">
            <stop stop-color="white" stop-opacity="0.4"/>
            <stop offset="1" stop-color="white"/>
        </linearGradient>
        <linearGradient id="paint2_linear" x1="39.1094" y1="40.825" x2="24.4427" y2="24.9583" gradientUnits="userSpaceOnUse">
            <stop stop-color="#FF4770"/>
            <stop offset="1" stop-color="#414CBE"/>
        </linearGradient>
    </defs>
    <path d="M32.4999 57.6C46.6384 57.6 58.0999 46.1385 58.0999 32C58.0999 17.8615 46.6384 6.40002 32.4999 6.40002C18.3614 6.40002 6.8999 17.8615 6.8999 32C6.8999 46.1385 18.3614 57.6 32.4999 57.6Z" fill="url(#paint0_linear)"/>
    <path opacity="0.7" d="M9.69995 32.4C9.77995 19.84 20.02 9.51999 32.5 9.35999C32.5 10.96 31.3 12.32 29.78 12.56C21.06 13.92 14.18 20.88 12.9 29.68C12.66 31.2 11.3 32.4 9.69995 32.4Z" fill="url(#paint1_linear)"/>
    <path d="M26.1001 25.92V38.08C26.1001 39.68 27.7801 40.64 29.1401 39.92L40.3401 33.84C41.7801 33.04 41.7801 30.96 40.3401 30.16L29.1401 24.08C27.7801 23.36 26.1001 24.32 26.1001 25.92Z" fill="url(#paint2_linear)"/>
</svg>
