<svg width="49" height="50" viewBox="0 0 49 50" fill="none" xmlns="http://www.w3.org/2000/svg">
    <defs>
        <linearGradient id="paint0_linear" x1="17.5925" y1="18.8175" x2="31.118" y2="31.7612" gradientUnits="userSpaceOnUse">
            <stop stop-color="#414CBE"/>
            <stop offset="1" stop-color="#FF4770"/>
        </linearGradient>
    </defs>
    <circle cx="24.5" cy="26" r="24" fill="black" fill-opacity="0.2"/>
    <circle cx="24.5" cy="24" r="24" fill="white"/>
    <path fill-rule="evenodd" clip-rule="evenodd" d="M24.4948 13.3425C27.9667 13.3425 28.3742 13.358 29.7464 13.4199C31.0155 13.4767 31.7016 13.6882 32.1607 13.8688C32.7694 14.1062 33.2028 14.3848 33.6567 14.8389C34.1107 15.2929 34.3944 15.7263 34.6266 16.3352C34.802 16.7944 35.0187 17.4807 35.0754 18.75C35.1373 20.1224 35.1528 20.5301 35.1528 24.0026C35.1528 27.4751 35.1373 27.8827 35.0754 29.2552C35.0187 30.5245 34.8071 31.2108 34.6266 31.67C34.3893 32.2788 34.1107 32.7122 33.6567 33.1663C33.2028 33.6204 32.7694 33.9041 32.1607 34.1363C31.7016 34.3118 31.0155 34.5285 29.7464 34.5852C28.3742 34.6472 27.9667 34.6626 24.4948 34.6626C21.023 34.6626 20.6155 34.6472 19.2433 34.5852C17.9742 34.5285 17.2881 34.3169 16.829 34.1363C16.2202 33.899 15.7869 33.6204 15.3329 33.1663C14.879 32.7122 14.5952 32.2788 14.3631 31.67C14.1877 31.2108 13.971 30.5245 13.9143 29.2552C13.8524 27.8827 13.8369 27.4751 13.8369 24.0026C13.8369 20.5301 13.8524 20.1224 13.9143 18.75C13.971 17.4807 14.1825 16.7944 14.3631 16.3352C14.6004 15.7263 14.879 15.2929 15.3329 14.8389C15.7869 14.3848 16.2202 14.101 16.829 13.8688C17.2881 13.6934 17.9742 13.4767 19.2433 13.4199C20.6155 13.3528 21.0282 13.3425 24.4948 13.3425ZM24.4948 11C20.9663 11 20.5226 11.0155 19.1349 11.0774C17.7524 11.1393 16.8083 11.3612 15.9829 11.6811C15.1266 12.0113 14.4044 12.4602 13.6821 13.1826C12.9599 13.9049 12.5163 14.6325 12.181 15.4838C11.8611 16.3094 11.6393 17.2536 11.5774 18.6416C11.5155 20.0244 11.5 20.4681 11.5 23.9974C11.5 27.5267 11.5155 27.9704 11.5774 29.3584C11.6393 30.7412 11.8611 31.6855 12.181 32.5162C12.5111 33.3727 12.9599 34.0951 13.6821 34.8174C14.4044 35.5398 15.1317 35.9835 15.9829 36.3189C16.8083 36.6388 17.7524 36.8607 19.1401 36.9226C20.5278 36.9845 20.9663 37 24.5 37C28.0337 37 28.4722 36.9845 29.8599 36.9226C31.2425 36.8607 32.1865 36.6388 33.0171 36.3189C33.8734 35.9887 34.5956 35.5398 35.3179 34.8174C36.0401 34.0951 36.4837 33.3675 36.819 32.5162C37.1389 31.6906 37.3607 30.7464 37.4226 29.3584C37.4845 27.9704 37.5 27.5319 37.5 23.9974C37.5 20.463 37.4845 20.0244 37.4226 18.6364C37.3607 17.2536 37.1389 16.3094 36.819 15.4787C36.4889 14.6221 36.0401 13.8998 35.3179 13.1774C34.5956 12.4551 33.8683 12.0113 33.0171 11.6759C32.1917 11.356 31.2476 11.1342 29.8599 11.0722C28.4671 11.0155 28.0234 11 24.4948 11ZM24.4948 17.3258C20.8115 17.3258 17.8194 20.3133 17.8194 24.0025C17.8194 27.6917 20.8063 30.6792 24.4948 30.6792C28.1833 30.6792 31.1702 27.6917 31.1702 24.0025C31.1702 20.3133 28.1833 17.3258 24.4948 17.3258ZM24.4948 28.3316C22.1011 28.3316 20.1615 26.3915 20.1615 23.9974C20.1615 21.6032 22.1011 19.6632 24.4948 19.6632C26.8884 19.6632 28.8281 21.6032 28.8281 23.9974C28.8281 26.3915 26.8884 28.3316 24.4948 28.3316ZM32.9913 17.0575C32.9913 17.9181 32.2938 18.6158 31.4334 18.6158C30.5729 18.6158 29.8754 17.9181 29.8754 17.0575C29.8754 16.1969 30.5729 15.4993 31.4334 15.4993C32.2938 15.4993 32.9913 16.1969 32.9913 17.0575Z" fill="url(#paint0_linear)"/>
</svg>
