<svg width="65" height="64" viewBox="0 0 65 64" fill="none" xmlns="http://www.w3.org/2000/svg">
    <defs>
        <linearGradient id="paint0_linear" x1="40.1666" y1="48.8189" x2="57.1178" y2="45.8307" gradientUnits="userSpaceOnUse">
            <stop stop-color="#F9EB74"/>
            <stop offset="1" stop-color="#F9D100"/>
        </linearGradient>
        <linearGradient id="paint1_linear" x1="41.4464" y1="45.449" x2="48.8164" y2="44.1499" gradientUnits="userSpaceOnUse">
            <stop stop-color="white" stop-opacity="0.4"/>
            <stop offset="1" stop-color="white"/>
        </linearGradient>
        <linearGradient id="paint2_linear" x1="8.03163" y1="45.9459" x2="24.983" y2="48.9341" gradientUnits="userSpaceOnUse">
            <stop stop-color="#F9EB74"/>
            <stop offset="1" stop-color="#F9D100"/>
        </linearGradient>
        <linearGradient id="paint3_linear" x1="10.3868" y1="43.2169" x2="17.7566" y2="44.516" gradientUnits="userSpaceOnUse">
            <stop stop-color="white" stop-opacity="0.4"/>
            <stop offset="1" stop-color="white"/>
        </linearGradient>
        <linearGradient id="paint4_linear" x1="39.5358" y1="14.3072" x2="56.4871" y2="17.2953" gradientUnits="userSpaceOnUse">
            <stop stop-color="#F9EB74"/>
            <stop offset="1" stop-color="#F9D100"/>
        </linearGradient>
        <linearGradient id="paint5_linear" x1="41.8909" y1="11.578" x2="49.2607" y2="12.8772" gradientUnits="userSpaceOnUse">
            <stop stop-color="white" stop-opacity="0.4"/>
            <stop offset="1" stop-color="white"/>
        </linearGradient>
        <linearGradient id="paint6_linear" x1="23.9139" y1="31.9109" x2="41.1268" y2="31.9109" gradientUnits="userSpaceOnUse">
            <stop stop-color="#F9EB74"/>
            <stop offset="1" stop-color="#F9D100"/>
        </linearGradient>
        <linearGradient id="paint7_linear" x1="25.7595" y1="28.8143" x2="33.2431" y2="28.8143" gradientUnits="userSpaceOnUse">
            <stop stop-color="white" stop-opacity="0.4"/>
            <stop offset="1" stop-color="white"/>
        </linearGradient>
        <linearGradient id="paint8_linear" x1="8.64774" y1="17.2906" x2="25.5991" y2="14.3025" gradientUnits="userSpaceOnUse">
            <stop stop-color="#F9EB74"/>
            <stop offset="1" stop-color="#F9D100"/>
        </linearGradient>
        <linearGradient id="paint9_linear" x1="9.83257" y1="13.9209" x2="17.2024" y2="12.6217" gradientUnits="userSpaceOnUse">
            <stop stop-color="white" stop-opacity="0.4"/>
            <stop offset="1" stop-color="white"/>
        </linearGradient>
    </defs>
    <path d="M48.6598 38.64L50.8998 41.76C51.2198 42.24 51.7798 42.48 52.3398 42.48L56.1798 42.4C57.6198 42.32 58.4998 44 57.6998 45.2L55.4598 48.32C55.1398 48.8 55.0598 49.36 55.2198 49.92L56.4998 53.52C56.9798 54.88 55.6998 56.24 54.3398 55.76L50.6598 54.56C50.0998 54.4 49.5398 54.48 49.0598 54.88L46.0998 57.2C44.9798 58.08 43.2998 57.28 43.2998 55.84V52C43.2998 51.44 42.9798 50.88 42.4998 50.56L39.2998 48.4C38.0998 47.6 38.3398 45.76 39.6998 45.28L43.3798 44.08C43.9398 43.92 44.3398 43.44 44.4998 42.88L45.5398 39.2C46.0198 37.76 47.8598 37.44 48.6598 38.64Z" fill="url(#paint0_linear)"/>
    <path opacity="0.7" d="M41.6998 46.72L41.5398 46.32L43.7798 45.6C44.7398 45.28 45.5398 44.48 45.8598 43.44L46.4998 41.2L46.8998 41.36C48.1798 41.76 48.8998 43.04 48.4998 44.32C47.9398 46.24 46.4998 47.68 44.6598 48.32C43.4598 48.64 42.1798 47.92 41.6998 46.72Z" fill="url(#paint1_linear)"/>
    <path d="M19.4899 39.28L20.5299 42.96C20.6899 43.52 21.0899 43.92 21.6499 44.16L25.3299 45.36C26.6899 45.84 27.0099 47.68 25.7299 48.48L22.5299 50.64C22.0499 50.96 21.7299 51.52 21.7299 52.08V55.92C21.7299 57.36 20.0499 58.16 18.9299 57.28L15.8899 54.96C15.4099 54.64 14.8499 54.48 14.2899 54.64L10.6099 55.84C9.2499 56.32 7.8899 54.96 8.4499 53.6L9.7299 50C9.8899 49.44 9.8099 48.88 9.4899 48.4L7.2499 45.28C6.3699 44.08 7.2499 42.48 8.7699 42.48L12.6099 42.56C13.1699 42.56 13.7299 42.32 14.0499 41.84L16.2899 38.72C17.2499 37.6 19.0899 37.92 19.4899 39.28Z" fill="url(#paint2_linear)"/>
    <path opacity="0.7" d="M10.21 44.48V44L12.61 44.08C13.65 44.08 14.61 43.6 15.25 42.8L16.61 40.88L16.93 41.12C17.97 41.92 18.21 43.36 17.41 44.4C16.21 46 14.37 46.88 12.37 46.88C11.17 46.88 10.21 45.84 10.21 44.48Z" fill="url(#paint3_linear)"/>
    <path d="M51.06 7.68001L52.1 11.36C52.26 11.92 52.66 12.32 53.22 12.56L56.9 13.76C58.26 14.24 58.58 16.08 57.3 16.88L54.1 19.04C53.62 19.36 53.3 19.92 53.3 20.48V24.32C53.3 25.76 51.62 26.56 50.5 25.68L47.46 23.36C46.98 23.04 46.42 22.88 45.86 23.04L42.18 24.24C40.82 24.72 39.46 23.36 40.02 22L41.3 18.4C41.46 17.84 41.38 17.28 41.06 16.8L38.82 13.6C37.94 12.4 38.82 10.8 40.34 10.8L44.18 10.88C44.74 10.88 45.3 10.64 45.62 10.16L47.86 7.04001C48.82 5.92001 50.58 6.24001 51.06 7.68001Z" fill="url(#paint4_linear)"/>
    <path opacity="0.7" d="M41.7 12.88V12.4L44.1 12.48C45.14 12.48 46.1 12 46.74 11.2L48.1 9.27997L48.5 9.59997C49.54 10.4 49.78 11.84 48.98 12.88C47.78 14.48 45.94 15.36 43.94 15.36C42.74 15.28 41.7 14.16 41.7 12.88Z" fill="url(#paint5_linear)"/>
    <path d="M34.1 23.36L35.78 26.8C36.02 27.28 36.5 27.68 37.14 27.76L40.98 28.32C42.42 28.56 42.98 30.32 41.94 31.36L39.22 34.08C38.82 34.48 38.58 35.04 38.74 35.6L39.38 39.36C39.62 40.8 38.1 41.92 36.82 41.2L33.3 39.44C32.82 39.2 32.18 39.2 31.7 39.44L28.34 41.2C27.06 41.84 25.54 40.8 25.78 39.36L26.42 35.6C26.5 35.04 26.34 34.48 25.94 34.08L23.22 31.36C22.18 30.32 22.74 28.56 24.18 28.32L28.02 27.76C28.58 27.68 29.06 27.28 29.38 26.8L31.06 23.36C31.54 22.08 33.46 22.08 34.1 23.36Z" fill="url(#paint6_linear)"/>
    <path opacity="0.7" d="M25.86 30.16L25.78 29.76L28.1 29.44C29.14 29.28 30.02 28.64 30.5 27.68L31.54 25.6L31.94 25.76C33.14 26.32 33.62 27.76 32.98 28.88C32.1 30.64 30.42 31.84 28.5 32.16C27.22 32.32 26.02 31.44 25.86 30.16Z" fill="url(#paint7_linear)"/>
    <path d="M17.1551 7.11996L19.3951 10.24C19.7151 10.72 20.2751 10.96 20.8351 10.96L24.6751 10.88C26.1151 10.8 26.9951 12.48 26.1951 13.68L23.9551 16.8C23.6351 17.28 23.5551 17.84 23.7151 18.4L24.9951 22C25.4751 23.36 24.1951 24.72 22.8351 24.24L19.1551 23.04C18.5951 22.88 18.0351 22.96 17.5551 23.36L14.5151 25.68C13.3951 26.56 11.7151 25.76 11.7151 24.32V20.48C11.7151 19.92 11.3951 19.36 10.9151 19.04L7.71511 16.88C6.51511 16.08 6.75511 14.24 8.11511 13.76L11.7951 12.56C12.3551 12.4 12.7551 11.92 12.9151 11.36L13.9551 7.67996C14.5151 6.23996 16.2751 5.91996 17.1551 7.11996Z" fill="url(#paint8_linear)"/>
    <path opacity="0.7" d="M10.0999 15.2L9.93994 14.8L12.1799 14.08C13.1399 13.76 13.9399 12.96 14.2599 11.92L14.8999 9.67999L15.2999 9.83999C16.5799 10.24 17.2999 11.52 16.8999 12.8C16.3399 14.72 14.8999 16.16 13.0599 16.8C11.8599 17.12 10.4999 16.4 10.0999 15.2Z" fill="url(#paint9_linear)"/>
</svg>
