<svg width="65" height="64" viewBox="0 0 65 64" fill="none" xmlns="http://www.w3.org/2000/svg">
    <defs>
        <linearGradient id="paint0_linear" x1="6.8999" y1="6.40002" x2="58.0999" y2="57.6" gradientUnits="userSpaceOnUse">
            <stop stop-color="#5A5B63"/>
            <stop offset="1"/>
        </linearGradient>
        <linearGradient id="paint1_linear" x1="9.68531" y1="20.8938" x2="32.5" y2="20.8938" gradientUnits="userSpaceOnUse">
            <stop stop-color="white" stop-opacity="0.2"/>
            <stop offset="1" stop-color="white"/>
        </linearGradient>
    </defs>
    <path d="M32.4999 57.6C18.4199 57.6 6.8999 46.08 6.8999 32C6.8999 17.92 18.4199 6.40002 32.4999 6.40002C46.5799 6.40002 58.0999 17.92 58.0999 32C58.0999 46.08 46.5799 57.6 32.4999 57.6Z" fill="url(#paint0_linear)"/>
    <path fill-rule="evenodd" clip-rule="evenodd" d="M39.874 23.3253C42.1905 23.3253 44.3748 24.2574 45.9957 25.8783C47.6166 27.4992 48.5 29.6835 48.5 32C48.5 34.3166 47.5748 36.5009 45.954 38.1148C42.5661 41.5026 37.0983 41.5026 33.7105 38.1148L29.2096 33.6139C28.6044 35.2348 26.9835 36.3966 25.1261 36.3966C22.7192 36.3966 20.7227 34.4487 20.7227 31.9931C20.7227 29.5861 22.6705 27.5896 25.1261 27.5896C26.4757 27.5896 27.7279 28.1948 28.514 29.1687L35.6513 36.3061C37.9679 38.6713 41.7731 38.6713 44.1383 36.3061C45.2513 35.1513 45.8983 33.6626 45.8983 32.0418C45.8983 30.4209 45.3 28.9392 44.1383 27.7774C42.9835 26.6644 41.4948 26.0174 39.874 26.0174C38.2531 26.0174 36.7227 26.6226 35.6096 27.7357L35.3313 28.014L33.474 26.1566L33.7522 25.8783C35.3731 24.2087 37.5574 23.3253 39.874 23.3253ZM25.1261 38.0246C26.747 38.0246 28.2774 37.3777 29.3904 36.2646L29.7174 35.9864L31.5748 37.8438L31.2965 38.122C29.6756 39.7916 27.4913 40.6751 25.1748 40.6751C22.8583 40.6751 20.6739 39.7429 19.053 38.122C17.3835 36.5012 16.5 34.3168 16.5 32.0003C16.5 29.6838 17.4252 27.4994 19.053 25.8855C22.4409 22.4977 27.9087 22.4977 31.2965 25.8855L35.7974 30.3864C36.4026 28.7655 38.0235 27.6038 39.8809 27.6038C42.2878 27.6038 44.2843 29.5516 44.2843 32.0072C44.2843 34.4142 42.3365 36.4107 39.8809 36.4107C38.5313 36.4107 37.2791 35.8055 36.493 34.8316L29.3487 27.7359C27.0322 25.3707 23.227 25.3707 20.8617 27.7359C19.7487 28.8907 19.1017 30.3794 19.1017 32.0003C19.1017 33.6212 19.7 35.1029 20.8617 36.2646C22.0165 37.3777 23.5052 38.0246 25.1261 38.0246Z" fill="white"/>
    <path opacity="0.2" d="M9.69995 32.4C9.77995 19.84 20.02 9.51999 32.5 9.35999C32.5 10.96 31.3 12.32 29.78 12.56C21.06 13.92 14.18 20.88 12.9 29.68C12.66 31.2 11.3 32.4 9.69995 32.4Z" fill="url(#paint1_linear)"/>
</svg>
