<svg width="111" height="110" viewBox="0 0 111 110" fill="none" xmlns="http://www.w3.org/2000/svg">
    <defs>
        <linearGradient id="paint0_linear" x1="55.7199" y1="28.16" x2="55.7199" y2="34.32" gradientUnits="userSpaceOnUse">
            <stop offset="0.348066" stop-color="#FFCC00"/>
            <stop offset="1" stop-color="#FF5D47"/>
        </linearGradient>
        <linearGradient id="paint1_linear" x1="55.7199" y1="75.68" x2="55.7199" y2="81.84" gradientUnits="userSpaceOnUse">
            <stop offset="0.348066" stop-color="#FFCC00"/>
            <stop offset="1" stop-color="#FF5D47"/>
        </linearGradient>
        <linearGradient id="paint2_linear" x1="79.2599" y1="51.92" x2="79.2599" y2="58.08" gradientUnits="userSpaceOnUse">
            <stop offset="0.348066" stop-color="#FFCC00"/>
            <stop offset="1" stop-color="#FF5D47"/>
        </linearGradient>
        <linearGradient id="paint3_linear" x1="31.7399" y1="51.92" x2="31.7399" y2="58.08" gradientUnits="userSpaceOnUse">
            <stop offset="0.348066" stop-color="#FFCC00"/>
            <stop offset="1" stop-color="#FF5D47"/>
        </linearGradient>
        <linearGradient id="paint4_linear" x1="35.2599" y1="40.04" x2="35.2599" y2="45.76" gradientUnits="userSpaceOnUse">
            <stop offset="0.348066" stop-color="#FFCC00"/>
            <stop offset="1" stop-color="#FF5D47"/>
        </linearGradient>
        <linearGradient id="paint5_linear" x1="43.62" y1="31.68" x2="43.62" y2="37.4" gradientUnits="userSpaceOnUse">
            <stop offset="0.348066" stop-color="#FFCC00"/>
            <stop offset="1" stop-color="#FF5D47"/>
        </linearGradient>
        <linearGradient id="paint6_linear" x1="75.7399" y1="40.04" x2="75.7399" y2="45.76" gradientUnits="userSpaceOnUse">
            <stop offset="0.348066" stop-color="#FFCC00"/>
            <stop offset="1" stop-color="#FF5D47"/>
        </linearGradient>
        <linearGradient id="paint7_linear" x1="67.38" y1="31.68" x2="67.38" y2="37.4" gradientUnits="userSpaceOnUse">
            <stop offset="0.348066" stop-color="#FFCC00"/>
            <stop offset="1" stop-color="#FF5D47"/>
        </linearGradient>
        <linearGradient id="paint8_linear" x1="35.2599" y1="63.8" x2="35.2599" y2="69.96" gradientUnits="userSpaceOnUse">
            <stop offset="0.348066" stop-color="#FFCC00"/>
            <stop offset="1" stop-color="#FF5D47"/>
        </linearGradient>
        <linearGradient id="paint9_linear" x1="43.62" y1="72.16" x2="43.62" y2="77.88" gradientUnits="userSpaceOnUse">
            <stop offset="0.348066" stop-color="#FFCC00"/>
            <stop offset="1" stop-color="#FF5D47"/>
        </linearGradient>
        <linearGradient id="paint10_linear" x1="75.7399" y1="63.8" x2="75.7399" y2="69.96" gradientUnits="userSpaceOnUse">
            <stop offset="0.348066" stop-color="#FFCC00"/>
            <stop offset="1" stop-color="#FF5D47"/>
        </linearGradient>
        <linearGradient id="paint11_linear" x1="67.38" y1="72.16" x2="67.38" y2="77.88" gradientUnits="userSpaceOnUse">
            <stop offset="0.348066" stop-color="#FFCC00"/>
            <stop offset="1" stop-color="#FF5D47"/>
        </linearGradient>
    </defs>
    <path d="M85.4201 55C85.4201 71.5059 72.0059 84.92 55.5001 84.92C38.9942 84.92 25.5801 71.5059 25.5801 55C25.5801 38.4942 38.9942 25.08 55.5001 25.08C72.0059 25.08 85.4201 38.4942 85.4201 55Z" fill="#414CBE"/>
    <path d="M56.3061 28.5582L56.6714 29.6791C56.7323 29.915 56.9759 30.092 57.2195 30.092H58.4375C58.9855 30.092 59.2291 30.8 58.8028 31.0949L57.7676 31.8029C57.5849 31.9208 57.4631 32.2158 57.5849 32.4518L57.9503 33.5727C58.133 34.1036 57.524 34.5166 57.0368 34.2216L56.0016 33.5137C55.8189 33.3957 55.5144 33.3957 55.3317 33.5137L54.4183 34.2216C53.992 34.5166 53.3221 34.1036 53.5048 33.5727L53.8702 32.4518C53.9311 32.2158 53.8702 31.9798 53.6875 31.8029L52.6522 31.0949C52.226 30.8 52.4087 30.092 53.0176 30.092H54.2356C54.4792 30.092 54.7227 29.915 54.7836 29.6791L55.149 28.5582C55.3926 28.0272 56.1843 28.0272 56.3061 28.5582Z" fill="url(#paint0_linear)"/>
    <path d="M56.3552 76.0365L56.714 77.1655C56.7738 77.4032 57.013 77.5815 57.2521 77.5815H58.448C58.9861 77.5815 59.2253 78.2945 58.8068 78.5916L57.7903 79.3047C57.6109 79.4235 57.4913 79.7206 57.6109 79.9583L57.9697 81.0873C58.149 81.6221 57.5511 82.038 57.0728 81.7409L56.0563 81.0279C55.8769 80.909 55.5779 80.909 55.3985 81.0279L54.382 81.7409C53.9635 82.038 53.3058 81.6221 53.4851 81.0873L53.8439 79.9583C53.9037 79.7206 53.8439 79.4829 53.6645 79.3047L52.648 78.5916C52.2295 78.2945 52.4089 77.5815 53.0068 77.5815H54.2027C54.4418 77.5815 54.681 77.4032 54.7408 77.1655L55.0996 76.0365C55.4583 75.5612 56.2356 75.5612 56.3552 76.0365Z" fill="url(#paint1_linear)"/>
    <path d="M79.8529 52.2765L80.1877 53.4055C80.2435 53.6432 80.4668 53.8215 80.69 53.8215H81.8061C82.3084 53.8215 82.5316 54.5345 82.141 54.8316L81.1923 55.5447C81.0248 55.6635 80.9132 55.9606 81.0248 56.1983L81.3597 57.3273C81.5271 57.8621 80.969 58.278 80.5226 57.9809L79.5739 57.2679C79.4064 57.149 79.1274 57.149 78.96 57.2679L78.0112 57.9809C77.6206 58.278 77.0067 57.8621 77.1741 57.3273L77.509 56.1983C77.5648 55.9606 77.509 55.7229 77.3416 55.5447L76.3928 54.8316C76.0022 54.5345 76.1696 53.8215 76.7277 53.8215H77.8438C78.0671 53.8215 78.2903 53.6432 78.3461 53.4055L78.6809 52.2765C78.96 51.8011 79.6855 51.8011 79.8529 52.2765Z" fill="url(#paint2_linear)"/>
    <path d="M32.3329 52.2765L32.6677 53.4055C32.7235 53.6432 32.9467 53.8215 33.17 53.8215H34.2861C34.7884 53.8215 35.0116 54.5345 34.621 54.8316L33.6722 55.5447C33.5048 55.6635 33.3932 55.9606 33.5048 56.1983L33.8397 57.3273C34.0071 57.8621 33.449 58.278 33.0026 57.9809L32.0538 57.2679C31.8864 57.149 31.6074 57.149 31.4399 57.2679L30.4912 57.9809C30.1006 58.278 29.4867 57.8621 29.6541 57.3273L29.989 56.1983C30.0448 55.9606 29.989 55.7229 29.8215 55.5447L28.8728 54.8316C28.4822 54.5345 28.6496 53.8215 29.2077 53.8215H30.3238C30.547 53.8215 30.7703 53.6432 30.8261 53.4055L31.1609 52.2765C31.4399 51.8011 32.1654 51.8011 32.3329 52.2765Z" fill="url(#paint3_linear)"/>
    <path d="M35.8301 40.4097L36.1681 41.4506C36.2244 41.6697 36.4496 41.834 36.6749 41.834H37.8013C38.3081 41.834 38.5334 42.4914 38.1392 42.7653L37.1818 43.4227C37.0128 43.5322 36.9002 43.8061 37.0128 44.0252L37.3507 45.0661C37.5197 45.5591 36.9565 45.9425 36.506 45.6686L35.6049 45.0113C35.4359 44.9017 35.1543 44.9017 34.9854 45.0113L34.028 45.6686C33.6338 45.9425 33.0143 45.5591 33.1832 45.0661L33.5211 44.0252C33.5774 43.8061 33.5211 43.587 33.3522 43.4227L32.3948 42.7653C32.0006 42.4914 32.1695 41.834 32.7327 41.834H33.859C34.0843 41.834 34.3096 41.6697 34.3659 41.4506L34.7038 40.4097C34.9854 39.9167 35.6612 39.9167 35.8301 40.4097Z" fill="url(#paint4_linear)"/>
    <path d="M44.1435 32.0048L44.4877 33.0544C44.5451 33.2754 44.7745 33.4411 45.004 33.4411H46.1513C46.6676 33.4411 46.8971 34.104 46.4955 34.3802L45.5203 35.043C45.3482 35.1535 45.2335 35.4297 45.3482 35.6507L45.6924 36.7002C45.8645 37.1974 45.2908 37.5841 44.8319 37.3079L43.8567 36.645C43.6846 36.5345 43.3977 36.5345 43.2256 36.645L42.2504 37.3079C41.8489 37.5841 41.2178 37.1974 41.3899 36.7002L41.7341 35.6507C41.7915 35.4297 41.7341 35.2088 41.562 35.043L40.7589 34.4354C40.3573 34.1592 40.5294 33.4963 41.1031 33.4963H42.2504C42.4799 33.4963 42.7094 33.3306 42.7667 33.1096L43.1109 32.0601C43.283 31.5629 43.9714 31.5629 44.1435 32.0048Z" fill="url(#paint5_linear)"/>
    <path d="M76.3101 40.4097L76.648 41.4506C76.7044 41.6697 76.9296 41.834 77.1549 41.834H78.2812C78.7881 41.834 79.0134 42.4914 78.6191 42.7653L77.6617 43.4227C77.4928 43.5322 77.3802 43.8061 77.4928 44.0252L77.8307 45.0661C77.9997 45.5591 77.4365 45.9425 76.9859 45.6686L76.0285 45.0113C75.8596 44.9017 75.578 44.9017 75.409 45.0113L74.508 45.6686C74.1137 45.9425 73.4943 45.5591 73.6632 45.0661L74.0011 44.0252C74.0574 43.8061 74.0011 43.587 73.8322 43.4227L72.8748 42.7653C72.4805 42.4914 72.6495 41.834 73.2127 41.834H74.339C74.5643 41.834 74.7896 41.6697 74.8459 41.4506L75.1838 40.4097C75.409 39.9167 76.1412 39.9167 76.3101 40.4097Z" fill="url(#paint6_linear)"/>
    <path d="M67.9503 32.0017L68.2882 33.0413C68.3445 33.2601 68.5698 33.4242 68.795 33.4242H69.9214C70.4282 33.4242 70.6535 34.0808 70.2593 34.3543L69.3582 35.0656C69.1893 35.175 69.0766 35.4486 69.1893 35.6674L69.5272 36.7069C69.6961 37.1993 69.1329 37.5823 68.6824 37.3088L67.725 36.6522C67.556 36.5428 67.2745 36.5428 67.1055 36.6522L66.1481 37.3088C65.7539 37.5823 65.1344 37.1993 65.3033 36.7069L65.6412 35.6674C65.6976 35.4486 65.6412 35.2297 65.4723 35.0656L64.5149 34.409C64.1207 34.1355 64.2896 33.4789 64.8528 33.4789H65.9792C66.2044 33.4789 66.4297 33.3148 66.486 33.096L66.8239 32.0564C67.1055 31.564 67.7813 31.564 67.9503 32.0017Z" fill="url(#paint7_linear)"/>
    <path d="M35.8301 64.1982L36.1681 65.3191C36.2244 65.5551 36.4496 65.732 36.6749 65.732H37.8013C38.3081 65.732 38.5334 66.44 38.1392 66.7349L37.1818 67.4429C37.0128 67.5609 36.9002 67.8558 37.0128 68.0918L37.3507 69.2127C37.5197 69.7436 36.9565 70.1566 36.506 69.8616L35.6049 69.1537C35.4359 69.0357 35.1543 69.0357 34.9854 69.1537L34.028 69.8616C33.6338 70.1566 33.0143 69.7436 33.1832 69.2127L33.5211 68.0918C33.5774 67.8558 33.5211 67.6199 33.3522 67.4429L32.3948 66.7349C32.0006 66.44 32.1695 65.732 32.7327 65.732H33.859C34.0843 65.732 34.3096 65.5551 34.3659 65.3191L34.7038 64.1982C34.9854 63.6673 35.6612 63.6673 35.8301 64.1982Z" fill="url(#paint8_linear)"/>
    <path d="M44.1435 72.5297L44.4877 73.5706C44.5451 73.7897 44.7745 73.954 45.004 73.954H46.1513C46.6676 73.954 46.8971 74.6114 46.4955 74.8853L45.5203 75.5427C45.3482 75.6522 45.2335 75.9261 45.3482 76.1452L45.6924 77.1861C45.8645 77.6791 45.2908 78.0625 44.8319 77.7886L43.8567 77.1313C43.6846 77.0217 43.3977 77.0217 43.2256 77.1313L42.2504 77.7886C41.8489 78.0625 41.2178 77.6791 41.3899 77.1861L41.9062 76.1452C41.9636 75.9261 41.9062 75.707 41.7341 75.5427L40.7589 74.8853C40.3573 74.6114 40.5294 73.954 41.1031 73.954H42.2504C42.4799 73.954 42.7094 73.7897 42.7667 73.5706L43.1109 72.5297C43.283 72.0367 43.9714 72.0367 44.1435 72.5297Z" fill="url(#paint9_linear)"/>
    <path d="M76.3101 64.1982L76.648 65.3191C76.7044 65.5551 76.9296 65.732 77.1549 65.732H78.2812C78.7881 65.732 79.0134 66.44 78.6191 66.7349L77.6617 67.4429C77.4928 67.5609 77.3802 67.8558 77.4928 68.0918L77.8307 69.2127C77.9997 69.7436 77.4365 70.1566 76.9859 69.8616L76.0285 69.1537C75.8596 69.0357 75.578 69.0357 75.409 69.1537L74.508 69.8616C74.1137 70.1566 73.4943 69.7436 73.6632 69.2127L74.0011 68.0918C74.0574 67.8558 74.0011 67.6199 73.8322 67.4429L72.8748 66.7349C72.4805 66.44 72.6495 65.732 73.2127 65.732H74.339C74.5643 65.732 74.7896 65.5551 74.8459 65.3191L75.1838 64.1982C75.409 63.6673 76.1412 63.6673 76.3101 64.1982Z" fill="url(#paint10_linear)"/>
    <path d="M67.9503 72.5297L68.2882 73.5706C68.3445 73.7897 68.5698 73.954 68.795 73.954H69.9214C70.4282 73.954 70.6535 74.6114 70.2593 74.8853L69.3582 75.5427C69.1893 75.6522 69.0766 75.9261 69.1893 76.1452L69.5272 77.1861C69.6961 77.6791 69.1329 78.0625 68.6824 77.7886L67.725 77.1313C67.556 77.0217 67.2745 77.0217 67.1055 77.1313L66.1481 77.7886C65.7539 78.0625 65.1344 77.6791 65.3033 77.1861L65.6412 76.1452C65.6976 75.9261 65.6412 75.707 65.4723 75.5427L64.5149 74.8853C64.1207 74.6114 64.2896 73.954 64.8528 73.954H65.9792C66.2044 73.954 66.4297 73.7897 66.486 73.5706L66.8239 72.5297C67.1055 72.0367 67.7813 72.0367 67.9503 72.5297Z" fill="url(#paint11_linear)"/>
    <path d="M47.1884 56.8199H45.71L45.9423 55.2992H47.4207L47.1884 56.8199ZM46.7132 59.84H48.5506L48.7724 58.4144H50.6626V56.8199H49.0258L49.2581 55.2992H51.0111V53.6941H49.5116L49.7333 52.2685H47.8959L47.6741 53.6941H46.1957L46.4175 52.2685H44.5589L44.3372 53.6941H42.4892V55.2992H44.0837L43.8514 56.8199H42.1301V58.4144H43.598L43.3762 59.84H45.2348L45.4565 58.4144H46.9349L46.7132 59.84Z" fill="white"/>
    <path d="M66.3834 65.56V61.6792H62.0098V43.5996H58.6834C58.4986 44.7495 58.1084 45.6016 57.513 46.156C56.9175 46.6899 55.9524 47.0081 54.6178 47.1108V50.2216H57.975V61.6792H53.4782V65.56H66.3834Z" fill="white"/>
</svg>
