<svg width="111" height="110" viewBox="0 0 111 110" fill="none" xmlns="http://www.w3.org/2000/svg">
    <defs>
        <linearGradient id="paint0_linear" x1="14.7999" y1="31.02" x2="57.0399" y2="60.72" gradientUnits="userSpaceOnUse">
            <stop stop-color="#F9D100"/>
            <stop offset="0.491713" stop-color="#FF4770"/>
            <stop offset="1" stop-color="#414CBE"/>
        </linearGradient>
        <linearGradient id="paint1_linear" x1="95.98" y1="31.02" x2="53.0794" y2="61.1591" gradientUnits="userSpaceOnUse">
            <stop stop-color="#F9D100"/>
            <stop offset="0.491713" stop-color="#FF4770"/>
            <stop offset="1" stop-color="#414CBE"/>
        </linearGradient>
    </defs>
    <path d="M55.5 84.7C71.9029 84.7 85.2001 71.4028 85.2001 55C85.2001 38.5971 71.9029 25.3 55.5 25.3C39.0972 25.3 25.8 38.5971 25.8 55C25.8 71.4028 39.0972 84.7 55.5 84.7Z" fill="#FDCA47"/>
    <path d="M74.9574 32.5725C79.6548 37.9654 82.2385 44.8781 82.23 52.03C82.23 68.4323 68.9323 81.73 52.53 81.73C45.3781 81.7387 38.4654 79.155 33.0725 74.4574C38.5175 80.7301 46.5424 84.7 55.5 84.7C71.9023 84.7 85.2 71.4023 85.2 55C85.2 46.0434 81.2281 38.0195 74.9574 32.5725V32.5725Z" fill="#F9B700"/>
    <path fill-rule="evenodd" clip-rule="evenodd" d="M30.1737 43.615C29.0689 47.3196 36.6899 34.21 48.5699 29.3432C54.3455 26.9761 34.8762 27.8582 30.1737 43.615V43.615Z" fill="#FFE8BB"/>
    <path d="M27.7998 44.2645C27.7998 44.2645 27.676 44.5892 27.5483 44.8714C29.7778 48.2819 34.6674 50.6401 43.0834 55.3159C51.0727 46.1079 54.9129 42.0519 54.0081 36.9237C52.6617 29.2858 27.7998 44.2645 27.7998 44.2645V44.2645Z" fill="#C7891C"/>
    <path d="M39.3312 33.9545C34.5179 28.5343 24.5773 32.7368 25.9247 40.3737C26.8285 45.4999 32.2102 48.0898 42.8675 54.01C50.8568 44.802 55.0297 40.5291 54.1248 35.4009C52.7794 27.7631 42.0003 27.2146 39.3312 33.9545Z" fill="#E81C27"/>
    <path d="M39.3312 33.9545C34.5179 28.5343 24.5773 32.7368 25.9247 40.3737C26.8285 45.4999 32.2102 48.0898 42.8675 54.01C50.8568 44.802 55.0297 40.5291 54.1248 35.4009C52.7794 27.7631 42.0003 27.2146 39.3312 33.9545Z" fill="url(#paint0_linear)"/>
    <path d="M39.0471 34.7862C39.1333 34.4169 39.3313 33.9546 39.3313 33.9546C38.0096 32.423 36.3831 31.9458 36.3831 31.9458C38.2165 33.1269 39.0471 34.7862 39.0471 34.7862ZM46.9582 29.2758C49.2115 30.1262 51.0648 31.9983 51.5736 34.8832C52.3973 39.553 47.9482 45.9276 43.7388 51.4271C42.4201 53.1477 42.6755 52.916 37.7403 51.1697C38.3937 51.529 42.1696 53.6219 42.8685 54.01C50.8578 44.802 55.0307 40.5291 54.1258 35.4009C53.4328 31.4756 50.25 29.4303 46.9582 29.2758V29.2758Z" fill="black" fill-opacity="0.2"/>
    <path fill-rule="evenodd" clip-rule="evenodd" d="M27.4107 38.965C27.9265 40.5431 30.3985 36.8415 32.9873 33.5764C34.6594 31.4757 25.8603 34.216 27.4107 38.965ZM40.6341 34.3417C40.936 35.2664 42.3814 33.1002 43.8961 31.1895C44.8743 29.9619 39.7263 31.5648 40.6341 34.3417V34.3417Z" fill="white" fill-opacity="0.72"/>
    <path d="M83.2 44.2645L83.4366 44.906C81.2072 48.3166 76.3324 50.6401 67.9164 55.3159C59.9271 46.1079 56.0869 42.0519 56.9918 36.9237C58.3382 29.2858 83.2 44.2645 83.2 44.2645V44.2645Z" fill="#C7891C"/>
    <path d="M71.6686 33.9545C76.481 28.5343 86.4216 32.7368 85.0762 40.3737C84.1713 45.4999 78.7897 48.0898 68.1323 54.01C60.143 44.802 55.9702 40.5291 56.875 35.4009C58.2204 27.7631 68.9995 27.2146 71.6686 33.9545V33.9545Z" fill="#E81C27"/>
    <path d="M71.6686 33.9545C76.481 28.5343 86.4216 32.7368 85.0762 40.3737C84.1713 45.4999 78.7897 48.0898 68.1323 54.01C60.143 44.802 55.9702 40.5291 56.875 35.4009C58.2204 27.7631 68.9995 27.2146 71.6686 33.9545V33.9545Z" fill="url(#paint1_linear)"/>
    <path d="M71.9527 34.7862C71.8666 34.4169 71.6686 33.9546 71.6686 33.9546C72.9912 32.423 74.6178 31.9458 74.6178 31.9458C72.7833 33.1269 71.9527 34.7862 71.9527 34.7862ZM64.0426 29.2758C61.7884 30.1262 59.9361 31.9983 59.4272 34.8832C58.6036 39.553 63.0526 45.9276 67.2621 51.4271C68.5808 53.1477 68.3254 52.916 73.2605 51.1697C72.6071 51.529 68.8312 53.6219 68.1323 54.01C60.143 44.802 55.9702 40.5291 56.875 35.4009C57.567 31.4756 60.7499 29.4303 64.0426 29.2758V29.2758Z" fill="black" fill-opacity="0.2"/>
    <path fill-rule="evenodd" clip-rule="evenodd" d="M83.5892 38.965C83.0734 40.5431 80.6004 36.8415 78.0125 33.5764C76.3404 31.4757 85.1395 34.216 83.5892 38.965ZM70.3657 34.3417C70.0638 35.2664 68.6184 33.1002 67.1037 31.1895C66.1256 29.9619 71.2736 31.5648 70.3657 34.3417Z" fill="white" fill-opacity="0.72"/>
    <path d="M74.3099 60.7311C74.3099 59.847 73.7862 58.7412 72.2933 58.4571C68.461 57.7284 62.7992 56.98 55.4999 56.98H55.498C48.2027 56.98 42.5379 57.7284 38.7066 58.4571C37.2137 58.7412 36.6899 59.847 36.6899 60.7311C36.6899 68.7283 42.8982 76.78 55.498 76.78H55.4999C68.1016 76.78 74.3099 68.7283 74.3099 60.7311Z" fill="#302C3B"/>
    <path d="M57.3266 64.9C56.7534 64.8881 55.8693 65.3505 56.1931 66.5711C56.3544 67.1859 57.3722 67.9324 57.3722 68.9283C57.3722 70.9529 53.627 70.9529 53.627 68.9283C53.627 67.9324 54.6427 67.1859 54.8081 66.5711C55.1318 65.3514 54.2467 64.8891 53.6735 64.9C52.1153 64.9366 49.5591 66.383 49.5591 68.8293C49.5591 71.5805 52.2202 73.81 55.5001 73.81C58.779 73.81 61.4391 71.5805 61.4391 68.8293C61.4391 66.383 58.8829 64.9366 57.3266 64.9Z" fill="#1A1626"/>
    <path d="M47.5801 72.9012C49.8699 73.9417 52.5093 74.5525 55.5001 74.5525C58.4909 74.5525 61.1312 73.9417 63.4201 72.9012C61.2124 71.7736 58.5819 71.0875 55.5001 71.0875C52.4172 71.0875 49.7898 71.7736 47.5801 72.9012Z" fill="#F46C60"/>
    <path d="M69.859 60.9766C67.376 60.6034 62.1211 59.95 55.499 59.95C48.8769 59.95 43.6249 60.6034 41.14 60.9766C39.6758 61.1954 39.5877 61.729 39.6887 62.4814C39.7501 62.9279 39.8431 63.4714 39.9877 64.0536C40.1481 64.699 40.2758 64.8693 41.4202 64.8812C43.619 64.9079 67.38 64.9079 69.5798 64.8812C70.7242 64.8693 70.848 64.699 71.0103 64.0536C71.1539 63.4714 71.2499 62.9279 71.3083 62.4814C71.4133 61.729 71.3202 61.1954 69.859 60.9766Z" fill="white"/>
</svg>
