<svg width="111" height="110" viewBox="0 0 111 110" fill="none" xmlns="http://www.w3.org/2000/svg">
    <defs>
        <radialGradient id="paint0_diamond" cx="0" cy="0" r="1" gradientUnits="userSpaceOnUse" gradientTransform="translate(55.5068 62.4916) scale(29.9131)">
            <stop offset="0.342541" stop-color="#F9D100"/>
            <stop offset="1" stop-color="#FFAA47"/>
        </radialGradient>
        <radialGradient id="paint1_diamond" cx="0" cy="0" r="1" gradientUnits="userSpaceOnUse" gradientTransform="translate(55.5068 62.4916) scale(29.9131)">
            <stop offset="0.342541" stop-color="#F9D100"/>
            <stop offset="1" stop-color="#FFAA47"/>
        </radialGradient>
        <radialGradient id="paint2_diamond" cx="0" cy="0" r="1" gradientUnits="userSpaceOnUse" gradientTransform="translate(55.5068 62.4916) scale(29.9131)">
            <stop offset="0.342541" stop-color="#F9D100"/>
            <stop offset="1" stop-color="#FFAA47"/>
        </radialGradient>
        <radialGradient id="paint3_diamond" cx="0" cy="0" r="1" gradientUnits="userSpaceOnUse" gradientTransform="translate(55.5068 62.4916) scale(29.9131)">
            <stop offset="0.342541" stop-color="#F9D100"/>
            <stop offset="1" stop-color="#FFAA47"/>
        </radialGradient>
        <radialGradient id="paint4_diamond" cx="0" cy="0" r="1" gradientUnits="userSpaceOnUse" gradientTransform="translate(55.5068 62.4916) scale(29.9131)">
            <stop offset="0.342541" stop-color="#F9D100"/>
            <stop offset="1" stop-color="#FFAA47"/>
        </radialGradient>
        <radialGradient id="paint5_diamond" cx="0" cy="0" r="1" gradientUnits="userSpaceOnUse" gradientTransform="translate(55.5068 62.4916) scale(29.9131)">
            <stop offset="0.342541" stop-color="#F9D100"/>
            <stop offset="1" stop-color="#FFAA47"/>
        </radialGradient>
        <radialGradient id="paint6_diamond" cx="0" cy="0" r="1" gradientUnits="userSpaceOnUse" gradientTransform="translate(55.5068 62.4916) scale(29.9131)">
            <stop offset="0.342541" stop-color="#F9D100"/>
            <stop offset="1" stop-color="#FFAA47"/>
        </radialGradient>
        <radialGradient id="paint7_diamond" cx="0" cy="0" r="1" gradientUnits="userSpaceOnUse" gradientTransform="translate(55.5068 62.4916) scale(29.9131)">
            <stop offset="0.342541" stop-color="#F9D100"/>
            <stop offset="1" stop-color="#FFAA47"/>
        </radialGradient>
        <radialGradient id="paint8_diamond" cx="0" cy="0" r="1" gradientUnits="userSpaceOnUse" gradientTransform="translate(55.5068 62.4916) scale(29.9131)">
            <stop offset="0.342541" stop-color="#F9D100"/>
            <stop offset="1" stop-color="#FFAA47"/>
        </radialGradient>
        <linearGradient id="paint9_linear" x1="54.84" y1="26.18" x2="54.84" y2="116.6" gradientUnits="userSpaceOnUse">
            <stop stop-color="#AE47FF"/>
            <stop offset="1" stop-color="#F9DD34"/>
        </linearGradient>
        <linearGradient id="paint10_linear" x1="54.84" y1="26.18" x2="54.84" y2="116.6" gradientUnits="userSpaceOnUse">
            <stop stop-color="#AE47FF"/>
            <stop offset="1" stop-color="#F9DD34"/>
        </linearGradient>
        <linearGradient id="paint11_linear" x1="54.84" y1="26.18" x2="54.84" y2="116.6" gradientUnits="userSpaceOnUse">
            <stop stop-color="#AE47FF"/>
            <stop offset="1" stop-color="#F9DD34"/>
        </linearGradient>
        <linearGradient id="paint12_linear" x1="54.84" y1="26.18" x2="54.84" y2="116.6" gradientUnits="userSpaceOnUse">
            <stop stop-color="#AE47FF"/>
            <stop offset="1" stop-color="#F9DD34"/>
        </linearGradient>
        <linearGradient id="paint13_linear" x1="54.84" y1="26.18" x2="54.84" y2="116.6" gradientUnits="userSpaceOnUse">
            <stop stop-color="#AE47FF"/>
            <stop offset="1" stop-color="#F9DD34"/>
        </linearGradient>
        <linearGradient id="paint14_linear" x1="54.84" y1="26.18" x2="54.84" y2="116.6" gradientUnits="userSpaceOnUse">
            <stop stop-color="#AE47FF"/>
            <stop offset="1" stop-color="#F9DD34"/>
        </linearGradient>
        <linearGradient id="paint15_linear" x1="54.84" y1="26.18" x2="54.84" y2="116.6" gradientUnits="userSpaceOnUse">
            <stop stop-color="#AE47FF"/>
            <stop offset="1" stop-color="#F9DD34"/>
        </linearGradient>
        <linearGradient id="paint16_linear" x1="54.84" y1="26.18" x2="54.84" y2="116.6" gradientUnits="userSpaceOnUse">
            <stop stop-color="#AE47FF"/>
            <stop offset="1" stop-color="#F9DD34"/>
        </linearGradient>
        <linearGradient id="paint17_linear" x1="54.84" y1="26.18" x2="54.84" y2="116.6" gradientUnits="userSpaceOnUse">
            <stop stop-color="#AE47FF"/>
            <stop offset="1" stop-color="#F9DD34"/>
        </linearGradient>
        <linearGradient id="paint18_linear" x1="54.84" y1="26.18" x2="54.84" y2="116.6" gradientUnits="userSpaceOnUse">
            <stop stop-color="#AE47FF"/>
            <stop offset="1" stop-color="#F9DD34"/>
        </linearGradient>
        <linearGradient id="paint19_linear" x1="54.84" y1="26.18" x2="54.84" y2="116.6" gradientUnits="userSpaceOnUse">
            <stop stop-color="#AE47FF"/>
            <stop offset="1" stop-color="#F9DD34"/>
        </linearGradient>
        <linearGradient id="paint20_linear" x1="54.84" y1="26.18" x2="54.84" y2="116.6" gradientUnits="userSpaceOnUse">
            <stop stop-color="#AE47FF"/>
            <stop offset="1" stop-color="#F9DD34"/>
        </linearGradient>
        <linearGradient id="paint21_linear" x1="54.84" y1="26.18" x2="54.84" y2="116.6" gradientUnits="userSpaceOnUse">
            <stop stop-color="#AE47FF"/>
            <stop offset="1" stop-color="#F9DD34"/>
        </linearGradient>
        <linearGradient id="paint22_linear" x1="54.84" y1="26.18" x2="54.84" y2="116.6" gradientUnits="userSpaceOnUse">
            <stop stop-color="#AE47FF"/>
            <stop offset="1" stop-color="#F9DD34"/>
        </linearGradient>
        <linearGradient id="paint23_linear" x1="54.84" y1="26.18" x2="54.84" y2="116.6" gradientUnits="userSpaceOnUse">
            <stop stop-color="#AE47FF"/>
            <stop offset="1" stop-color="#F9DD34"/>
        </linearGradient>
        <linearGradient id="paint24_linear" x1="54.84" y1="26.18" x2="54.84" y2="116.6" gradientUnits="userSpaceOnUse">
            <stop stop-color="#AE47FF"/>
            <stop offset="1" stop-color="#F9DD34"/>
        </linearGradient>
        <linearGradient id="paint25_linear" x1="54.84" y1="26.18" x2="54.84" y2="116.6" gradientUnits="userSpaceOnUse">
            <stop stop-color="#AE47FF"/>
            <stop offset="1" stop-color="#F9DD34"/>
        </linearGradient>
        <linearGradient id="paint26_linear" x1="54.84" y1="26.18" x2="54.84" y2="116.6" gradientUnits="userSpaceOnUse">
            <stop stop-color="#AE47FF"/>
            <stop offset="1" stop-color="#F9DD34"/>
        </linearGradient>
        <linearGradient id="paint27_linear" x1="54.84" y1="26.18" x2="54.84" y2="116.6" gradientUnits="userSpaceOnUse">
            <stop stop-color="#AE47FF"/>
            <stop offset="1" stop-color="#F9DD34"/>
        </linearGradient>
        <linearGradient id="paint28_linear" x1="54.84" y1="26.18" x2="54.84" y2="116.6" gradientUnits="userSpaceOnUse">
            <stop stop-color="#AE47FF"/>
            <stop offset="1" stop-color="#F9DD34"/>
        </linearGradient>
    </defs>
    <circle cx="55.5001" cy="55" r="29.92" fill="#2833A4"/>
    <path fill-rule="evenodd" clip-rule="evenodd" d="M60.4545 43.8201L56.478 40.4002C56.2078 40.1678 55.8632 40.04 55.5068 40.04C55.1505 40.04 54.8059 40.1678 54.5358 40.4002L51.4111 43.0874V84.643C52.1462 84.7434 52.8897 84.8172 53.6407 84.8632V76.7649C53.6407 76.3682 53.7984 75.9877 54.0789 75.7071C54.3595 75.4266 54.74 75.2689 55.1367 75.2689H55.9221C56.3189 75.2689 56.6994 75.4266 56.98 75.7071C57.2605 75.9877 57.4181 76.3682 57.4181 76.7649V84.8595C58.4452 84.7946 59.4581 84.6778 60.4545 84.5117V43.8201ZM55.5066 49.3877C54.9329 49.7185 54.4564 50.1946 54.125 50.768C53.7937 51.3414 53.6192 51.992 53.6191 52.6543V56.9223C53.6191 57.1696 53.7173 57.4067 53.892 57.5815C54.0668 57.7564 54.3039 57.8546 54.5511 57.8547H56.4626C56.7098 57.8546 56.9469 57.7564 57.1216 57.5815C57.2964 57.4067 57.3946 57.1696 57.3946 56.9223V52.6543C57.3945 51.9919 57.2199 51.3414 56.8885 50.7679C56.5571 50.1945 56.0805 49.7185 55.5066 49.3877Z" fill="url(#paint0_diamond)"/>
    <path d="M61.9437 84.2244V45.1009L63.7135 46.6229V83.7786C63.1306 83.9446 62.5405 84.0934 61.9437 84.2244Z" fill="url(#paint1_diamond)"/>
    <path fill-rule="evenodd" clip-rule="evenodd" d="M65.2027 83.3117C65.8038 83.1057 66.3963 82.8812 66.9795 82.6387V79.825C66.9795 79.4763 67.118 79.1418 67.3646 78.8952C67.6112 78.6486 67.9456 78.5101 68.2943 78.51C68.4669 78.5101 68.6378 78.5441 68.7973 78.6101C68.9568 78.6762 69.1018 78.7731 69.2239 78.8952C69.346 79.0173 69.4429 79.1622 69.509 79.3218C69.5751 79.4813 69.6091 79.6523 69.6091 79.825V81.3911C70.536 80.8945 71.4337 80.3505 72.299 79.7624V54.0067L65.2027 47.9037V83.3117ZM68.294 61.2406C67.7202 61.5712 67.2436 62.0472 66.9122 62.6205C66.5807 63.1939 66.4062 63.8444 66.4061 64.5067V65.7832C66.4061 66.0303 66.5043 66.2674 66.6791 66.4422C66.8538 66.617 67.0909 66.7152 67.3381 66.7152H69.2496C69.4968 66.7152 69.7339 66.617 69.9087 66.4422C70.0834 66.2674 70.1816 66.0303 70.1816 65.7832V64.5067C70.1815 63.8445 70.0069 63.194 69.6756 62.6206C69.3442 62.0473 68.8677 61.5713 68.294 61.2406Z" fill="url(#paint2_diamond)"/>
    <path d="M73.7879 55.2872V78.6821C76.6979 76.4317 79.1817 73.6567 81.0978 70.499V61.5739L73.7879 55.2872Z" fill="url(#paint3_diamond)"/>
    <path d="M82.5867 62.8544V67.7255C83.1393 66.5513 83.6178 65.3354 84.0161 64.0837L82.5867 62.8544Z" fill="url(#paint4_diamond)"/>
    <path d="M49.9222 84.4011V44.3679L48.1521 45.8903V84.0111C48.7355 84.1584 49.3258 84.2886 49.9222 84.4011Z" fill="url(#paint5_diamond)"/>
    <path fill-rule="evenodd" clip-rule="evenodd" d="M46.6628 83.5935V47.1711L39.5669 53.2738V80.3294C40.1656 80.7069 40.7786 81.0636 41.405 81.3987V79.825C41.405 79.4763 41.5435 79.1419 41.79 78.8953C42.0365 78.6487 42.3709 78.5101 42.7196 78.51C43.0683 78.51 43.4028 78.6486 43.6494 78.8952C43.896 79.1418 44.0346 79.4763 44.0346 79.825V82.6446C44.8913 83.0003 45.7681 83.3173 46.6628 83.5935ZM42.7181 61.2406C42.1442 61.5712 41.6676 62.0472 41.3362 62.6205C41.0048 63.1939 40.8302 63.8444 40.8301 64.5067V65.7832C40.8301 66.0303 40.9283 66.2674 41.1031 66.4422C41.2779 66.617 41.5149 66.7152 41.7621 66.7152H43.6736C43.9208 66.7152 44.1579 66.617 44.3328 66.4422C44.5076 66.2675 44.6059 66.0304 44.606 65.7832V64.5067C44.6058 63.8445 44.4312 63.1939 44.0998 62.6206C43.7684 62.0472 43.2918 61.5713 42.7181 61.2406Z" fill="url(#paint6_diamond)"/>
    <path d="M38.078 79.3274V54.5543L30.7678 60.8412V71.8435C32.748 74.7455 35.2257 77.2811 38.078 79.3274Z" fill="url(#paint7_diamond)"/>
    <path d="M29.2789 69.4222V62.1217L27.5088 63.6441V65.5919C28.0101 66.9161 28.6027 68.1954 29.2789 69.4222Z" fill="url(#paint8_diamond)"/>
    <path d="M27.0689 64.3468C26.2881 61.9705 25.797 59.4628 25.6372 56.8655C25.6742 56.7766 25.7285 56.6948 25.798 56.6253C25.9375 56.4857 26.1268 56.4072 26.3243 56.4071C26.5218 56.4071 26.7112 56.4856 26.8508 56.6252C26.9904 56.7648 27.0689 56.9542 27.0689 57.1517V64.3468Z" fill="url(#paint9_linear)"/>
    <path d="M30.3279 71.1799C29.7903 70.3453 29.2931 69.4822 28.839 68.5934V57.1517C28.839 56.9542 28.9175 56.7648 29.0571 56.6252C29.1968 56.4856 29.3862 56.4071 29.5837 56.4071C29.7811 56.4072 29.9704 56.4857 30.11 56.6253C30.2495 56.765 30.3279 56.9543 30.3279 57.1517V71.1799Z" fill="url(#paint10_linear)"/>
    <path d="M37.6381 79.0056V48.9592C37.6381 48.7617 37.7166 48.5723 37.8562 48.4327C37.9959 48.2931 38.1849 48.2146 38.3824 48.2146C38.5799 48.2146 38.7693 48.2931 38.9089 48.4327C39.0486 48.5723 39.127 48.7617 39.127 48.9592V80.0466C38.6198 79.7144 38.1233 79.3672 37.6381 79.0056Z" fill="url(#paint11_linear)"/>
    <path d="M46.2229 83.4539V42.6192C46.2229 42.4217 46.3014 42.2323 46.441 42.0927C46.5807 41.953 46.7701 41.8746 46.9676 41.8746C47.0654 41.8745 47.1622 41.8937 47.2526 41.9312C47.3429 41.9686 47.425 42.0234 47.4942 42.0926C47.5634 42.1617 47.6182 42.2438 47.6556 42.3342C47.693 42.4246 47.7122 42.5214 47.7122 42.6192V83.8964C47.2104 83.7615 46.7139 83.6139 46.2229 83.4539Z" fill="url(#paint12_linear)"/>
    <path d="M49.4823 84.3146V42.6192C49.4823 42.5214 49.5015 42.4246 49.5389 42.3343C49.5763 42.2439 49.6311 42.1618 49.7002 42.0927C49.7693 42.0235 49.8514 41.9687 49.9417 41.9313C50.032 41.8938 50.1288 41.8746 50.2266 41.8746C50.3244 41.8745 50.4212 41.8937 50.5116 41.9312C50.602 41.9686 50.6841 42.0234 50.7532 42.0926C50.8224 42.1617 50.8772 42.2438 50.9146 42.3342C50.952 42.4246 50.9713 42.5214 50.9712 42.6192V84.5794C50.4708 84.5035 49.9743 84.4151 49.4823 84.3146Z" fill="url(#paint13_linear)"/>
    <path d="M60.0146 84.5816V42.6192C60.0145 42.5214 60.0337 42.4246 60.0711 42.3342C60.1085 42.2438 60.1634 42.1617 60.2326 42.0926C60.3017 42.0234 60.3838 41.9686 60.4742 41.9312C60.5645 41.8937 60.6614 41.8745 60.7592 41.8746C60.9567 41.8746 61.1461 41.953 61.2857 42.0927C61.4254 42.2323 61.5038 42.4217 61.5038 42.6192V84.3174C61.0117 84.4177 60.5152 84.5058 60.0146 84.5816Z" fill="url(#paint14_linear)"/>
    <path d="M63.2736 83.9002V42.6192C63.2736 42.4217 63.3521 42.2323 63.4917 42.0927C63.6314 41.953 63.8207 41.8746 64.0182 41.8746C64.116 41.8745 64.2129 41.8937 64.3033 41.9312C64.3936 41.9686 64.4757 42.0234 64.5449 42.0926C64.6141 42.1617 64.6689 42.2438 64.7063 42.3342C64.7437 42.4246 64.7629 42.5214 64.7629 42.6192V83.4585C64.2719 83.6182 63.7754 83.7655 63.2736 83.9002Z" fill="url(#paint15_linear)"/>
    <path d="M71.8591 80.0557V48.9592C71.8591 48.7617 71.9376 48.5723 72.0772 48.4327C72.2169 48.2931 72.4059 48.2146 72.6034 48.2146C72.7012 48.2146 72.798 48.2339 72.8884 48.2713C72.9787 48.3087 73.0608 48.3636 73.1299 48.4327C73.1991 48.5018 73.2539 48.5839 73.2913 48.6743C73.3288 48.7646 73.348 48.8614 73.348 48.9592V79.0159C72.8628 79.3771 72.3663 79.7239 71.8591 80.0557Z" fill="url(#paint16_linear)"/>
    <path d="M82.1468 68.621C81.6925 69.5079 81.1953 70.3691 80.6579 71.2019V57.1517C80.6579 56.9542 80.7364 56.7648 80.876 56.6252C81.0156 56.4856 81.205 56.4071 81.4025 56.4071C81.6 56.4072 81.7893 56.4857 81.9288 56.6253C82.0684 56.765 82.1468 56.9543 82.1468 57.1517V68.621Z" fill="url(#paint17_linear)"/>
    <path d="M85.3609 56.8962C85.1981 59.4982 84.7028 62.0101 83.9169 64.3898V57.1517C83.9169 56.9542 83.9954 56.7648 84.135 56.6252C84.2747 56.4856 84.4641 56.4071 84.6616 56.4071C84.859 56.4072 85.0484 56.4857 85.188 56.6253C85.2654 56.7027 85.324 56.7954 85.3609 56.8962Z" fill="url(#paint18_linear)"/>
    <path d="M60.7592 41.2335C60.8532 41.2335 60.9461 41.2138 61.0319 41.1755C61.1177 41.1373 61.1946 41.0815 61.2574 41.0117C61.3203 40.9419 61.3678 40.8596 61.3969 40.7703C61.4259 40.6809 61.4359 40.5865 61.4261 40.493L60.9859 36.2851C60.9802 36.2289 60.954 36.1768 60.9121 36.1389C60.8702 36.101 60.8157 36.08 60.7592 36.08C60.7027 36.08 60.6482 36.101 60.6064 36.1389C60.5645 36.1768 60.5382 36.2289 60.5326 36.2851L60.092 40.493C60.0822 40.5865 60.0923 40.6809 60.1213 40.7703C60.1504 40.8596 60.198 40.9419 60.2609 41.0117C60.3238 41.0815 60.4006 41.1373 60.4865 41.1755C60.5723 41.2138 60.6652 41.2335 60.7592 41.2335Z" fill="url(#paint19_linear)"/>
    <path d="M64.0182 41.2335C64.1122 41.2335 64.2051 41.2138 64.291 41.1755C64.3768 41.1373 64.4537 41.0815 64.5166 41.0117C64.5795 40.9419 64.627 40.8596 64.6561 40.7703C64.6852 40.6809 64.6952 40.5865 64.6855 40.493L64.2449 36.2851C64.2389 36.2293 64.2124 36.1776 64.1706 36.1401C64.1288 36.1025 64.0746 36.0818 64.0184 36.0818C63.9623 36.0818 63.9081 36.1025 63.8663 36.1401C63.8244 36.1776 63.798 36.2293 63.792 36.2851L63.3514 40.493C63.3416 40.5865 63.3516 40.6809 63.3806 40.7703C63.4096 40.8596 63.4571 40.9419 63.52 41.0117C63.5829 41.0815 63.6597 41.1373 63.7456 41.1755C63.8314 41.2138 63.9243 41.2335 64.0182 41.2335Z" fill="url(#paint20_linear)"/>
    <path d="M26.5971 55.7082C26.5112 55.7464 26.4183 55.7661 26.3243 55.7661C26.2304 55.766 26.1375 55.7463 26.0517 55.7081C25.9659 55.6699 25.889 55.6141 25.8262 55.5443C25.7633 55.4746 25.7158 55.3924 25.6867 55.303C25.6577 55.2137 25.6477 55.1193 25.6574 55.0259L26.098 50.818C26.104 50.7622 26.1305 50.7105 26.1723 50.673C26.2141 50.6354 26.2683 50.6146 26.3245 50.6146C26.3806 50.6146 26.4348 50.6354 26.4766 50.673C26.5184 50.7105 26.5449 50.7622 26.5509 50.818L26.9915 55.0255C27.0013 55.119 26.9913 55.2135 26.9622 55.3029C26.9332 55.3923 26.8857 55.4745 26.8227 55.5444C26.7598 55.6142 26.6829 55.67 26.5971 55.7082Z" fill="url(#paint21_linear)"/>
    <path d="M29.8564 55.7081C29.7705 55.7463 29.6776 55.766 29.5837 55.7661C29.4898 55.7659 29.397 55.746 29.3113 55.7077C29.2256 55.6694 29.1489 55.6136 29.0861 55.5438C29.0233 55.474 28.9759 55.3918 28.9468 55.3025C28.9178 55.2133 28.9078 55.1189 28.9176 55.0255L29.357 50.818C29.363 50.7622 29.3895 50.7105 29.4313 50.673C29.4731 50.6354 29.5273 50.6146 29.5835 50.6146C29.6397 50.6146 29.6939 50.6354 29.7357 50.673C29.7775 50.7105 29.8039 50.7622 29.8099 50.818L30.2505 55.0255C30.2603 55.119 30.2504 55.2134 30.2213 55.3028C30.1923 55.3921 30.1448 55.4744 30.0819 55.5442C30.019 55.614 29.9422 55.6699 29.8564 55.7081Z" fill="url(#paint22_linear)"/>
    <path d="M81.6752 55.7081C81.5894 55.7463 81.4965 55.766 81.4025 55.7661C81.3086 55.7661 81.2156 55.7464 81.1298 55.7082C81.0439 55.67 80.9671 55.6143 80.9042 55.5445C80.8413 55.4747 80.7937 55.3925 80.7646 55.3031C80.7356 55.2138 80.7255 55.1193 80.7353 55.0259L81.1759 50.818C81.1819 50.7622 81.2083 50.7105 81.2501 50.673C81.2919 50.6354 81.3462 50.6146 81.4023 50.6146C81.4585 50.6146 81.5127 50.6354 81.5545 50.673C81.5963 50.7105 81.6228 50.7622 81.6288 50.818L82.0694 55.0255C82.0792 55.119 82.0692 55.2134 82.0402 55.3028C82.0111 55.3921 81.9636 55.4744 81.9008 55.5442C81.8379 55.614 81.7611 55.6699 81.6752 55.7081Z" fill="url(#paint23_linear)"/>
    <path d="M84.9342 55.7081C84.8484 55.7463 84.7555 55.766 84.6616 55.7661C84.5676 55.766 84.4747 55.7463 84.3889 55.7081C84.3031 55.6699 84.2263 55.6141 84.1634 55.5444C84.1005 55.4746 84.0529 55.3924 84.0238 55.3031C83.9947 55.2138 83.9846 55.1193 83.9943 55.0259L84.4349 50.818C84.4409 50.7622 84.4674 50.7105 84.5092 50.673C84.551 50.6354 84.6052 50.6146 84.6614 50.6146C84.7176 50.6146 84.7717 50.6354 84.8135 50.673C84.8553 50.7105 84.8818 50.7622 84.8878 50.818L85.3284 55.0255C85.3382 55.119 85.3283 55.2134 85.2992 55.3028C85.2702 55.3921 85.2227 55.4744 85.1598 55.5442C85.0969 55.614 85.0201 55.6699 84.9342 55.7081Z" fill="url(#paint24_linear)"/>
    <path d="M47.2403 41.1755C47.1544 41.2138 47.0615 41.2335 46.9676 41.2335C46.8736 41.2335 46.7807 41.2138 46.6949 41.1755C46.609 41.1373 46.5322 41.0815 46.4693 41.0117C46.4065 40.9419 46.3589 40.8596 46.3299 40.7703C46.3009 40.6809 46.2909 40.5865 46.3007 40.493L46.7409 36.2851C46.7465 36.2289 46.7728 36.1768 46.8147 36.1389C46.8566 36.101 46.9111 36.08 46.9676 36.08C47.0241 36.08 47.0785 36.101 47.1204 36.1389C47.1623 36.1768 47.1886 36.2289 47.1942 36.2851L47.6348 40.493C47.6445 40.5865 47.6345 40.6809 47.6054 40.7703C47.5763 40.8596 47.5288 40.9419 47.4659 41.0117C47.403 41.0815 47.3261 41.1373 47.2403 41.1755Z" fill="url(#paint25_linear)"/>
    <path d="M50.4994 41.1757C50.4135 41.2139 50.3206 41.2336 50.2266 41.2335C50.1326 41.2335 50.0397 41.2138 49.9539 41.1755C49.8681 41.1373 49.7912 41.0815 49.7284 41.0117C49.6655 40.9419 49.618 40.8596 49.5889 40.7703C49.5599 40.6809 49.5499 40.5865 49.5597 40.493L50.0003 36.2851C50.0063 36.2293 50.0328 36.1776 50.0746 36.1401C50.1164 36.1025 50.1706 36.0818 50.2268 36.0818C50.283 36.0818 50.3372 36.1025 50.379 36.1401C50.4208 36.1776 50.4472 36.2293 50.4532 36.2851L50.8938 40.493C50.9036 40.5865 50.8937 40.681 50.8646 40.7704C50.8355 40.8597 50.788 40.942 50.7251 41.0118C50.6622 41.0817 50.5853 41.1375 50.4994 41.1757Z" fill="url(#paint26_linear)"/>
    <path d="M71.9362 46.833L72.3764 42.6252C72.382 42.5689 72.4083 42.5168 72.4502 42.4789C72.492 42.441 72.5465 42.42 72.603 42.42C72.6595 42.42 72.714 42.441 72.7559 42.4789C72.7978 42.5168 72.8241 42.5689 72.8297 42.6252L73.2703 46.833C73.28 46.9265 73.27 47.021 73.2409 47.1103C73.2118 47.1997 73.1643 47.2819 73.1014 47.3517C73.0385 47.4215 72.9616 47.4774 72.8758 47.5156C72.7899 47.5538 72.697 47.5736 72.603 47.5736C72.5091 47.5736 72.4162 47.5538 72.3303 47.5156C72.2445 47.4774 72.1677 47.4215 72.1048 47.3517C72.0419 47.2819 71.9944 47.1996 71.9654 47.1103C71.9363 47.0209 71.9264 46.9265 71.9362 46.833Z" fill="url(#paint27_linear)"/>
    <path d="M37.7152 46.833L38.1554 42.6252C38.161 42.5689 38.1873 42.5168 38.2291 42.4789C38.271 42.441 38.3255 42.42 38.382 42.42C38.4385 42.42 38.493 42.441 38.5349 42.4789C38.5768 42.5168 38.603 42.5689 38.6086 42.6252L39.0492 46.833C39.059 46.9265 39.049 47.021 39.0199 47.1103C38.9908 47.1997 38.9433 47.2819 38.8804 47.3517C38.8175 47.4215 38.7406 47.4774 38.6547 47.5156C38.5689 47.5538 38.476 47.5736 38.382 47.5736C38.2881 47.5736 38.1952 47.5538 38.1093 47.5156C38.0235 47.4774 37.9466 47.4215 37.8838 47.3517C37.8209 47.2819 37.7734 47.1996 37.7444 47.1103C37.7153 47.0209 37.7054 46.9265 37.7152 46.833Z" fill="url(#paint28_linear)"/>
</svg>
