<svg width="189" height="16" viewBox="0 0 189 16" fill="none" xmlns="http://www.w3.org/2000/svg">
    <defs>
        <clipPath id="clip0">
            <rect width="188" height="16" fill="white" transform="translate(0.5)"/>
        </clipPath>
    </defs>
    <g clip-path="url(#clip0)">
        <path d="M157.27 2.7647C155.795 1.29411 153.848 0.470581 151.783 0.470581C149.718 0.470581 147.771 1.29411 146.296 2.70587L146.001 2.99999L147.653 4.64705L147.948 4.35293C148.951 3.35293 150.308 2.7647 151.783 2.7647C153.199 2.7647 154.556 3.35293 155.618 4.35293C156.621 5.35293 157.211 6.70587 157.211 8.17646C157.211 9.58823 156.621 10.9412 155.618 12C153.494 14.1176 150.072 14.1176 148.007 12L141.635 5.70587C140.927 4.82352 139.806 4.29411 138.566 4.29411C136.383 4.29411 134.613 6.05882 134.613 8.23529C134.613 10.4118 136.383 12.1765 138.566 12.1765C140.219 12.1765 141.694 11.1176 142.225 9.70587L146.237 13.7059C149.246 16.7059 154.202 16.7059 157.211 13.7059C158.686 12.2353 159.512 10.2941 159.512 8.23529C159.572 6.17646 158.745 4.23529 157.27 2.7647Z" fill="white"/>
        <path d="M142.402 12C141.399 13 140.042 13.5883 138.567 13.5883C137.151 13.5883 135.794 13 134.732 12C133.729 11 133.139 9.64709 133.139 8.17651C133.139 6.76474 133.729 5.4118 134.732 4.35298C136.856 2.23533 140.278 2.23533 142.343 4.35298L148.715 10.6471C149.423 11.5294 150.544 12.0589 151.783 12.0589C153.967 12.0589 155.737 10.2942 155.737 8.11768C155.737 5.94121 153.967 4.17651 151.783 4.17651C150.131 4.17651 148.656 5.23533 148.125 6.64709L144.113 2.64709C141.104 -0.352905 136.148 -0.352905 133.139 2.64709C131.663 4.11768 130.837 6.05886 130.837 8.11768C130.837 10.1765 131.663 12.1177 133.139 13.5883C134.614 15.0589 136.561 15.8824 138.626 15.8824C140.691 15.8824 142.638 15.0589 144.113 13.6471L144.408 13.353L142.756 11.7059L142.402 12Z" fill="white"/>
        <path d="M7.22633 15.8235H0.5V0.470581H6.51829C7.58034 0.470581 8.46539 0.588228 9.23242 0.823522C9.99946 1.05882 10.5895 1.41176 10.9435 1.82352C11.6515 2.58823 12.0056 3.5294 12.0056 4.5294C12.0056 5.70588 11.5925 6.64705 10.8255 7.23529C10.5895 7.41176 10.3535 7.58823 10.2945 7.64705C10.1765 7.70588 9.99946 7.7647 9.76345 7.88235C10.7075 8.05882 11.4745 8.5294 12.0646 9.17646C12.6546 9.82352 12.8906 10.6471 12.8906 11.5882C12.8906 12.6471 12.5366 13.5882 11.7695 14.4118C10.8845 15.3529 9.35043 15.8235 7.22633 15.8235ZM3.92217 6.70587H5.57425C6.51829 6.70587 7.22633 6.58823 7.69835 6.41176C8.17037 6.23529 8.40638 5.7647 8.40638 5.05882C8.40638 4.35293 8.17037 3.94117 7.75735 3.70588C7.34433 3.47058 6.6363 3.35293 5.57425 3.35293H3.92217V6.70587ZM3.92217 12.9412H6.28228C7.28533 12.9412 7.99336 12.8235 8.52439 12.5882C8.99641 12.3529 9.29143 11.8823 9.29143 11.1765C9.29143 10.4706 9.05542 9.99999 8.52439 9.7647C7.99336 9.5294 7.16732 9.41176 6.04627 9.41176H4.04017V12.9412H3.92217Z" fill="white"/>
        <path d="M25.5173 0.470581V3.5294H17.8469V6.70587H24.7502V9.64705H17.8469V12.8235H25.7533V15.8823H14.3657V0.470581H25.5173Z" fill="white"/>
        <path d="M38.321 0.470581H41.7431V15.8235H38.321L30.9456 6.23529V15.8823H27.5234V0.470581H30.7686L38.321 10.3529V0.470581Z" fill="white"/>
        <path d="M56.0218 2.47058C57.4969 3.82352 58.205 5.64705 58.205 8.05882C58.205 10.4706 57.4969 12.3529 56.0808 13.7059C54.6648 15.1176 52.4817 15.7647 49.5315 15.7647H44.2803V0.470581H49.7085C52.4227 0.470581 54.5468 1.17646 56.0218 2.47058ZM53.4847 11.5882C54.3108 10.8235 54.7828 9.64705 54.7828 8.11764C54.7828 6.58823 54.3698 5.47058 53.4847 4.64705C52.6587 3.82352 51.3606 3.41176 49.5905 3.41176H47.6434V12.8235H49.8265C51.4196 12.8235 52.5997 12.4118 53.4847 11.5882Z" fill="white"/>
        <path d="M59.8569 0.470581H63.2791V15.8235H59.8569V0.470581Z" fill="white"/>
        <path d="M76.5548 0.470581H79.977V15.8235H76.5548L69.1795 6.17646V15.8235H65.7573V0.470581H69.0025L76.5548 10.3529V0.470581Z" fill="white"/>
        <path d="M92.4854 8.00003H95.9665V13.4706C94.4325 15.1765 92.3084 16 89.5942 16C87.3521 16 85.405 15.2353 83.8709 13.7647C82.3369 12.2941 81.5698 10.4118 81.5698 8.11768C81.5698 5.82356 82.3369 3.94121 83.9299 2.41179C85.523 0.882382 87.4111 0.117676 89.5942 0.117676C91.8363 0.117676 93.7244 0.823558 95.3765 2.29415L93.6064 4.88238C92.8984 4.29415 92.2494 3.88238 91.7183 3.64709C91.1283 3.41179 90.4793 3.29415 89.8302 3.29415C88.5322 3.29415 87.4111 3.76473 86.5261 4.64709C85.641 5.52944 85.169 6.70591 85.169 8.1765C85.169 9.64709 85.582 10.7647 86.4671 11.6471C87.3521 12.5294 88.3552 12.9412 89.5352 12.9412C90.7153 12.9412 91.7183 12.7059 92.5444 12.2353V8.00003H92.4854Z" fill="white"/>
        <path d="M108.534 3.52941C108.18 3.82353 108.062 4.17647 108.062 4.58823C108.062 5.05882 108.239 5.41176 108.652 5.64706C109.065 5.88235 110.009 6.23529 111.484 6.58823C112.96 6.94118 114.081 7.47059 114.907 8.17647C115.733 8.88235 116.146 9.94118 116.146 11.2941C116.146 12.6471 115.615 13.7647 114.612 14.6471C113.55 15.5294 112.193 15.9412 110.54 15.9412C108.121 15.9412 105.879 15.0588 103.932 13.2353L105.997 10.7059C107.649 12.1765 109.183 12.8824 110.599 12.8824C111.248 12.8824 111.721 12.7647 112.075 12.4706C112.429 12.1765 112.606 11.8235 112.606 11.3529C112.606 10.8824 112.429 10.5294 112.016 10.2353C111.661 9.94118 110.894 9.70588 109.714 9.41176C107.944 9 106.587 8.41176 105.761 7.76471C104.935 7.05882 104.522 6 104.522 4.52941C104.522 3.05882 105.053 1.94118 106.115 1.17647C107.177 0.411765 108.475 0 110.068 0C111.071 0 112.134 0.176471 113.137 0.529412C114.14 0.882353 115.084 1.35294 115.851 2L114.081 4.52941C112.724 3.52941 111.366 3 109.95 3C109.36 3.11765 108.888 3.29412 108.534 3.52941Z" fill="white"/>
        <path d="M128.359 1.88235C129.421 2.82352 130.011 4.17646 130.011 6.11764C130.011 7.99999 129.48 9.41176 128.359 10.2941C127.238 11.1765 125.527 11.5882 123.285 11.5882H121.22V15.8823H117.68V0.470581H123.108C125.527 0.470581 127.238 0.941169 128.359 1.88235ZM125.822 7.88235C126.235 7.41176 126.412 6.7647 126.412 5.88235C126.412 4.99999 126.117 4.35293 125.586 3.99999C125.055 3.64705 124.229 3.41176 123.108 3.41176H121.161V8.58823H123.462C124.642 8.58823 125.409 8.35293 125.822 7.88235Z" fill="white"/>
        <path d="M171.431 0.470581H174.853V15.8235H171.431L164.056 6.17646V15.8235H160.634V0.470581H163.879L171.431 10.3529V0.470581Z" fill="white"/>
        <path d="M180.931 3.52941C180.577 3.82353 180.459 4.17647 180.459 4.58823C180.459 5.05882 180.636 5.41176 181.049 5.64706C181.462 5.88235 182.406 6.23529 183.881 6.58823C185.356 6.94118 186.477 7.47059 187.303 8.17647C188.129 8.88235 188.542 9.94118 188.542 11.2941C188.542 12.6471 188.011 13.7647 187.008 14.6471C185.946 15.5294 184.589 15.9412 182.937 15.9412C180.518 15.9412 178.276 15.0588 176.329 13.2353L178.394 10.7059C180.046 12.1765 181.58 12.8824 182.996 12.8824C183.645 12.8824 184.117 12.7647 184.471 12.4706C184.825 12.1765 185.002 11.8235 185.002 11.3529C185.002 10.8824 184.825 10.5294 184.412 10.2353C184.058 9.94118 183.291 9.70588 182.111 9.41176C180.341 9 178.984 8.41176 178.158 7.76471C177.332 7.05882 176.919 6 176.919 4.52941C176.919 3.05882 177.45 1.94118 178.512 1.17647C179.574 0.411765 180.872 0 182.465 0C183.468 0 184.53 0.176471 185.533 0.529412C186.536 0.882353 187.48 1.35294 188.247 2L186.477 4.52941C185.12 3.52941 183.763 3 182.347 3C181.757 3.11765 181.285 3.29412 180.931 3.52941Z" fill="white"/>
    </g>
</svg>
