<svg width="144" height="86" viewBox="0 0 144 86" fill="none" xmlns="http://www.w3.org/2000/svg">
<defs>
<linearGradient id="paint0_linear" x1="71.8801" y1="0" x2="71.8801" y2="19.2108" gradientUnits="userSpaceOnUse">
<stop stop-color="white"/>
<stop offset="1" stop-color="#C8F0FF"/>
</linearGradient>
<linearGradient id="paint1_linear" x1="125.052" y1="59.6696" x2="125.052" y2="80.2521" gradientUnits="userSpaceOnUse">
<stop stop-color="white"/>
<stop offset="1" stop-color="#C8F0FF"/>
</linearGradient>
<linearGradient id="paint2_linear" x1="186.153" y1="66.7755" x2="182.219" y2="-4.10024" gradientUnits="userSpaceOnUse">
<stop stop-color="#D74C14"/>
<stop offset="1" stop-color="#FC8042"/>
</linearGradient>
<linearGradient id="paint3_linear" x1="0.304205" y1="28.9416" x2="7.6624" y2="72.6754" gradientUnits="userSpaceOnUse">
<stop stop-color="#FF0000" stop-opacity="0.01"/>
<stop offset="0.484256" stop-color="#FFD100" stop-opacity="0.5"/>
<stop offset="1" stop-color="#FF0000" stop-opacity="0.01"/>
</linearGradient>
<linearGradient id="paint4_linear" x1="-3.09198" y1="24.6146" x2="2.88652" y2="68.4611" gradientUnits="userSpaceOnUse">
<stop stop-color="#FFFD00" stop-opacity="0.01"/>
<stop offset="0.484256" stop-color="#FFD100" stop-opacity="0.5"/>
<stop offset="1" stop-color="#FFFA00" stop-opacity="0.01"/>
</linearGradient>
<linearGradient id="paint5_linear" x1="28.1102" y1="23.9737" x2="18.45" y2="55.017" gradientUnits="userSpaceOnUse">
<stop offset="0.325967" stop-color="#E8F9FF"/>
<stop offset="0.640884" stop-color="#2B86A4"/>
<stop offset="0.895028" stop-color="#207C9A"/>
<stop offset="1" stop-color="#005D7A"/>
</linearGradient>
<linearGradient id="paint6_linear" x1="17.6105" y1="40.7846" x2="3.43501" y2="51.2193" gradientUnits="userSpaceOnUse">
<stop stop-color="#35CCFC"/>
<stop offset="1" stop-color="#414CBE"/>
</linearGradient>
<linearGradient id="paint7_linear" x1="13.1146" y1="33.4221" x2="23.7463" y2="41.2482" gradientUnits="userSpaceOnUse">
<stop stop-color="white"/>
<stop offset="1" stop-color="white" stop-opacity="0"/>
</linearGradient>
<linearGradient id="paint8_linear" x1="18.7741" y1="34.8462" x2="18.7741" y2="46.723" gradientUnits="userSpaceOnUse">
<stop stop-opacity="0.1"/>
<stop offset="1" stop-opacity="0.3"/>
</linearGradient>
<linearGradient id="paint9_linear" x1="17.6502" y1="38.3968" x2="17.6502" y2="46.723" gradientUnits="userSpaceOnUse">
<stop stop-color="#C4E9F5"/>
<stop offset="0.430939" stop-color="#71C8E4"/>
<stop offset="0.480663" stop-color="#5FC2E1"/>
<stop offset="1" stop-color="#78CFEB"/>
</linearGradient>
<linearGradient id="paint10_linear" x1="19.4749" y1="43.446" x2="18.5019" y2="39.2357" gradientUnits="userSpaceOnUse">
<stop stop-color="#B7E9F9"/>
<stop offset="1" stop-color="white"/>
</linearGradient>
<linearGradient id="paint11_linear" x1="116.14" y1="23.9737" x2="125.8" y2="55.017" gradientUnits="userSpaceOnUse">
<stop offset="0.325967" stop-color="#E8F9FF"/>
<stop offset="0.640884" stop-color="#2B86A4"/>
<stop offset="0.895028" stop-color="#207C9A"/>
<stop offset="1" stop-color="#005D7A"/>
</linearGradient>
<linearGradient id="paint12_linear" x1="126.64" y1="40.7846" x2="140.815" y2="51.2193" gradientUnits="userSpaceOnUse">
<stop stop-color="#35CCFC"/>
<stop offset="1" stop-color="#414CBE"/>
</linearGradient>
<linearGradient id="paint13_linear" x1="122.573" y1="33.4221" x2="133.205" y2="41.2482" gradientUnits="userSpaceOnUse">
<stop stop-color="white"/>
<stop offset="1" stop-color="white" stop-opacity="0"/>
</linearGradient>
<linearGradient id="paint14_linear" x1="125.476" y1="34.8462" x2="125.476" y2="46.723" gradientUnits="userSpaceOnUse">
<stop stop-opacity="0.1"/>
<stop offset="1" stop-opacity="0.3"/>
</linearGradient>
<linearGradient id="paint15_linear" x1="126.6" y1="38.3968" x2="126.6" y2="46.723" gradientUnits="userSpaceOnUse">
<stop stop-color="#C4E9F5"/>
<stop offset="0.430939" stop-color="#71C8E4"/>
<stop offset="0.480663" stop-color="#5FC2E1"/>
<stop offset="1" stop-color="#78CFEB"/>
</linearGradient>
<linearGradient id="paint16_linear" x1="129.605" y1="43.7974" x2="126.075" y2="40.637" gradientUnits="userSpaceOnUse">
<stop stop-color="#B7E9F9"/>
<stop offset="1" stop-color="white"/>
</linearGradient>
</defs>
<path d="M62.6995 15.6297C62.5424 15.4815 62.4162 15.3009 62.329 15.0993C62.2417 14.8977 62.1954 14.6795 62.1928 14.4582C62.0296 12.4817 61.9023 10.9806 61.776 9.49387L61.7724 9.45112C61.6386 7.8744 61.5058 6.30885 61.3327 4.20408C61.3044 3.98124 61.3212 3.75468 61.3821 3.53904C61.4429 3.32343 61.5464 3.12357 61.686 2.95243C62.0292 2.62025 62.4775 2.43174 62.9452 2.42286C65.8172 2.19819 67.2454 2.13401 70.1172 2.00562C70.59 1.97202 71.0614 2.08958 71.4687 2.34263C71.62 2.45399 71.7417 2.60374 71.8223 2.77781C71.9029 2.95185 71.9397 3.14448 71.9295 3.33756C71.9295 4.26829 71.3459 4.7176 70.1634 4.7497C68.3301 4.7497 67.3138 4.8144 65.648 4.92033L65.6469 4.92042L65.644 4.9206L65.6429 4.92069L65.0492 4.95832L65.2028 7.52586C67.0457 7.41352 67.9672 7.38142 69.8101 7.33329C70.962 7.33329 71.5456 7.76655 71.5608 8.68125C71.5733 8.87128 71.5404 9.06153 71.4654 9.23512C71.3904 9.4087 71.2754 9.56022 71.1309 9.67619C70.7612 9.9401 70.3186 10.0698 69.8715 10.0453C68.0594 10.0453 67.1532 10.0453 65.3564 10.2378L65.5099 13.0461C67.4297 12.9338 68.3819 12.8856 70.3016 12.8535C71.4073 12.8535 71.9601 13.2868 71.9755 14.2175C71.9858 14.4081 71.9538 14.5985 71.8818 14.7739C71.8099 14.9493 71.7 15.1049 71.5608 15.2285C71.2112 15.4842 70.789 15.6086 70.363 15.5815C67.8766 15.5815 66.5883 15.6858 64.189 15.8801L63.9128 15.9025C63.4899 15.974 63.0568 15.8767 62.6995 15.6297Z" fill="#003648" fill-opacity="0.4"/>
<path fill-rule="evenodd" clip-rule="evenodd" d="M60.0658 15.6289C60.1325 15.4395 60.1559 15.2365 60.1346 15.0359C60.0704 14.7031 59.9157 14.3967 59.6891 14.1533C59.1517 13.4793 58.8752 13.1584 58.3223 12.5486C58.0301 12.1931 57.6756 11.899 57.278 11.6821C56.9187 11.5032 56.5241 11.4152 56.1261 11.4253C57.0295 11.1081 57.8105 10.4947 58.3531 9.67619C58.8642 8.88551 59.0774 7.92533 58.9519 6.98026C58.9049 6.40733 58.7287 5.8542 58.4377 5.3661C58.1468 4.878 57.7493 4.46882 57.278 4.17201C56.0093 3.52821 54.5693 3.35282 53.1929 3.67454C51.1197 3.99549 50.106 4.18806 48.0481 4.60529C47.5826 4.6667 47.1556 4.90693 46.8503 5.27927C46.7248 5.46284 46.6404 5.67347 46.6032 5.89564C46.566 6.11781 46.5769 6.34586 46.6352 6.56303L48.6318 16.6567C48.6663 16.89 48.747 17.1131 48.8686 17.3121C48.9902 17.511 49.1502 17.6813 49.3382 17.8121C49.5308 17.9375 49.7459 18.0207 49.9704 18.0566C50.1947 18.0924 50.4237 18.0802 50.6436 18.0207C50.871 18.0035 51.092 17.9336 51.2903 17.816C51.4887 17.6985 51.6596 17.5363 51.7904 17.3411C51.9213 17.1459 52.009 16.9228 52.047 16.6878C52.0851 16.4529 52.0726 16.212 52.0104 15.9827L51.4268 12.5807L52.6861 12.3561C52.9226 12.2907 53.1713 12.2907 53.4079 12.3561C53.6497 12.4662 53.8687 12.6242 54.0529 12.8214C55.2662 14.057 55.8652 14.715 57.0169 16.0309C57.2127 16.2734 57.4673 16.4563 57.7541 16.5604C58.0375 16.6746 58.3435 16.7132 58.6448 16.6727C59.0596 16.6183 59.4469 16.4272 59.7505 16.1271C59.8913 15.9889 59.9992 15.8183 60.0658 15.6289ZM55.5072 8.22056C55.4423 8.4408 55.3219 8.63871 55.1587 8.79359C54.6707 9.1562 54.0972 9.3726 53.5 9.41944L50.9814 9.86875L50.9781 9.85001L50.9695 9.80006C50.7625 8.59376 50.6552 7.96842 50.4593 6.75559L50.5852 6.73203C51.5313 6.55491 52.0379 6.46006 53.024 6.30628C53.6248 6.16093 54.2526 6.19425 54.8361 6.40257C55.039 6.50965 55.2104 6.6721 55.3321 6.87266C55.4538 7.07325 55.5212 7.30451 55.5273 7.54191C55.579 7.76591 55.5721 8.00031 55.5072 8.22056Z" fill="#003648" fill-opacity="0.4"/>
<path fill-rule="evenodd" clip-rule="evenodd" d="M36.4561 20.6345C36.5967 20.8175 36.7741 20.966 36.9756 21.0696C37.1871 21.1628 37.4142 21.2108 37.6437 21.2108C37.8731 21.2108 38.1003 21.1628 38.3117 21.0696C38.7646 20.9488 39.1552 20.6499 39.4021 20.2352C39.5126 20.0263 39.5793 19.7952 39.5978 19.5573C39.6164 19.3193 39.5862 19.08 39.5096 18.8551L38.6342 15.726C39.8168 15.3569 40.4157 15.1803 41.5982 14.8594C42.8538 14.5892 43.982 13.8752 44.7926 12.8375C45.1264 12.3517 45.352 11.7941 45.453 11.2055C45.554 10.6169 45.5278 10.0121 45.3761 9.43546C45.2836 8.8386 45.0573 8.27308 44.7156 7.78501C44.3739 7.29697 43.9268 6.90025 43.4104 6.62721C42.1593 6.08579 40.7632 6.03452 39.4789 6.4828C37.3903 7.10862 36.3766 7.42957 34.3188 8.0875C33.8571 8.20646 33.453 8.49751 33.1823 8.90592C33.0807 9.10377 33.0201 9.32169 33.0042 9.5456C32.9883 9.76951 33.0176 9.99439 33.0901 10.2057C33.8467 12.5867 34.3645 14.2497 34.9305 16.0678L34.9371 16.0891L34.9532 16.1406L34.9543 16.1442C35.3121 17.2934 35.6906 18.5093 36.1617 20.0105C36.215 20.2385 36.3155 20.4515 36.4561 20.6345ZM41.8287 11.6339C41.4737 12.0652 40.9938 12.3637 40.4618 12.4844L40.4604 12.4848L40.4593 12.4852C39.4472 12.7735 38.9405 12.9179 37.9278 13.1744L37.0216 9.96503C38.0967 9.64408 38.5882 9.49964 39.6325 9.21079C40.9532 8.84171 41.7519 9.21079 42.0129 10.286C42.0787 10.511 42.0962 10.7485 42.0644 10.9814C42.0325 11.2143 41.9521 11.4371 41.8287 11.6339Z" fill="#003648" fill-opacity="0.4"/>
<path d="M88.601 4.07093C88.5428 3.84449 88.4405 3.63306 88.3005 3.4499C87.9904 3.09168 87.5628 2.86832 87.1026 2.82404C86.7406 2.77934 86.3742 2.84492 86.0472 3.01292C85.7203 3.18089 85.4467 3.4441 85.2597 3.77082C83.5088 6.27418 82.6642 7.54191 81.0517 10.0934C79.8077 7.31727 79.132 5.95326 77.719 3.22523C77.5469 2.86698 77.2873 2.56254 76.9666 2.34263C76.6654 2.13358 76.3144 2.01682 75.9529 2.00565C75.4793 1.97883 75.0132 2.13923 74.6475 2.45496C74.4778 2.61063 74.3429 2.80354 74.2527 3.01988C74.1625 3.23624 74.1189 3.47071 74.1254 3.70664C74.1083 5.26057 74.0871 6.52512 74.0671 7.71503C74.033 9.73231 74.0026 11.535 74.0026 14.1694C73.9911 14.3826 74.0207 14.596 74.0892 14.7972C74.1578 14.9983 74.2641 15.1831 74.4019 15.3408C74.6903 15.6314 75.0761 15.7927 75.4768 15.7901C75.8816 15.8142 76.2792 15.67 76.5826 15.389C76.872 15.0927 77.0375 14.6889 77.0434 14.2657C77.0715 13.4491 77.1058 12.783 77.138 12.1581C77.1936 11.076 77.243 10.1171 77.243 8.71336C78.0723 10.3181 78.487 11.1525 79.2548 12.7572C79.4007 13.1191 79.6148 13.4466 79.8844 13.7201C80.132 13.907 80.4245 14.0181 80.7292 14.041C81.0292 14.0609 81.3283 13.9884 81.5892 13.8324C81.8986 13.6327 82.1569 13.3573 82.3417 13.03C82.6484 12.571 82.9073 12.1803 83.1473 11.8181L83.1524 11.8102C83.7156 10.9606 84.1755 10.2665 84.9064 9.21082L84.3689 14.8434C84.3433 15.0458 84.3576 15.2515 84.4111 15.4478C84.4646 15.6442 84.5561 15.8269 84.6799 15.9849C84.8036 16.1428 84.9572 16.2725 85.1308 16.366C85.3045 16.4595 85.4947 16.5147 85.6896 16.5283C85.8854 16.5675 86.087 16.5619 86.2804 16.5121C86.4739 16.4622 86.6548 16.3692 86.8107 16.2395C86.9673 16.1047 87.0967 15.9389 87.1917 15.7517C87.2865 15.5644 87.345 15.3593 87.3636 15.1483C87.617 13.0701 87.809 11.5136 88.001 9.95701L88.2734 7.74668C88.3836 6.84977 88.502 5.88316 88.6383 4.76576C88.6718 4.53394 88.6591 4.29737 88.601 4.07093Z" fill="#003648" fill-opacity="0.4"/>
<path d="M90.4353 16.7209C90.303 16.5312 90.2101 16.3148 90.1625 16.0854C90.1149 15.8561 90.1137 15.6188 90.159 15.389L90.3782 13.8954C90.8395 10.7494 91.1335 8.74574 91.6947 5.19901C91.7178 4.96378 91.7903 4.73679 91.9071 4.53428C92.024 4.33176 92.1822 4.15873 92.3704 4.02757C92.8078 3.76649 93.3229 3.68632 93.814 3.8029C94.3193 3.85624 94.7861 4.10871 95.1194 4.50898C95.2612 4.69675 95.3609 4.91523 95.4113 5.14845C95.4618 5.38166 95.4618 5.62373 95.4112 5.85694L93.599 15.9827C93.5701 16.2162 93.4952 16.4409 93.3788 16.6425C93.2625 16.8442 93.1073 17.0184 92.9233 17.1541C92.7267 17.2842 92.5075 17.3725 92.2782 17.4138C92.049 17.4551 91.8141 17.4486 91.5872 17.3948C91.3593 17.379 91.1377 17.3104 90.9384 17.1938C90.7392 17.0772 90.5673 16.9156 90.4353 16.7209Z" fill="#003648" fill-opacity="0.4"/>
<path fill-rule="evenodd" clip-rule="evenodd" d="M96.9468 15.1643C97.2696 16.2827 97.8869 17.2837 98.7283 18.0528C99.6729 18.8572 100.772 19.4399 101.951 19.761C103.131 20.0822 104.362 20.1345 105.562 19.9143C106.657 19.6672 107.666 19.1123 108.48 18.3095C109.355 17.4197 110.004 16.3168 110.369 15.1001C110.778 13.8847 110.868 12.5771 110.63 11.313C110.372 10.1225 109.766 9.04557 108.895 8.23194C107.863 7.31989 106.649 6.66062 105.341 6.30244C104.034 5.94425 102.667 5.89622 101.339 6.16187C100.196 6.42399 99.16 7.05228 98.375 7.95915C97.5763 8.93214 97.0455 10.1135 96.8393 11.3772C96.5634 12.6283 96.6004 13.9325 96.9468 15.1643ZM106.898 13.9768C106.668 15.0866 106.07 16.0756 105.209 16.769C104.844 17.0207 104.432 17.1881 104.001 17.2601C103.569 17.332 103.127 17.3069 102.706 17.1863C102.267 17.0941 101.852 16.9026 101.492 16.6254C101.131 16.3482 100.832 15.992 100.617 15.5816C100.206 14.5303 100.152 13.3637 100.464 12.2758C100.621 11.1539 101.168 10.1316 101.999 9.40339C102.406 9.15376 102.856 8.99094 103.323 8.92445C103.791 8.85792 104.266 8.88899 104.722 9.01588C105.177 9.14277 105.605 9.36292 105.978 9.66358C106.352 9.96424 106.665 10.3394 106.898 10.7674C107.278 11.8005 107.278 12.9438 106.898 13.9768Z" fill="#003648" fill-opacity="0.4"/>
<path fill-rule="evenodd" clip-rule="evenodd" d="M62.6995 13.6297C62.5424 13.4815 62.4162 13.3009 62.329 13.0993C62.2417 12.8977 62.1954 12.6795 62.1928 12.4582C62.0296 10.4817 61.9023 8.9806 61.776 7.49387L61.7724 7.45112C61.6386 5.8744 61.5058 4.30885 61.3327 2.20408C61.3044 1.98124 61.3212 1.75468 61.3821 1.53904C61.4429 1.32343 61.5464 1.12357 61.686 0.952431C62.0292 0.620247 62.4775 0.43174 62.9452 0.42286C65.8172 0.198189 67.2454 0.134011 70.1172 0.00562335C70.59 -0.0279765 71.0614 0.0895772 71.4687 0.342629C71.62 0.453988 71.7417 0.603737 71.8223 0.77781C71.9029 0.951851 71.9397 1.14448 71.9295 1.33756C71.9295 2.26829 71.3459 2.7176 70.1634 2.7497C68.3301 2.7497 67.3138 2.8144 65.648 2.92033L65.6469 2.92042L65.644 2.9206L65.6429 2.92069L65.0492 2.95832L65.2028 5.52586C67.0457 5.41352 67.9672 5.38142 69.8101 5.33329C70.962 5.33329 71.5456 5.76655 71.5608 6.68125C71.5733 6.87128 71.5404 7.06153 71.4654 7.23512C71.3904 7.4087 71.2754 7.56022 71.1309 7.67619C70.7612 7.9401 70.3186 8.06977 69.8715 8.04527C68.0594 8.04527 67.1532 8.04527 65.3564 8.23783L65.5099 11.0461C67.4297 10.9338 68.3819 10.8856 70.3016 10.8535C71.4073 10.8535 71.9601 11.2868 71.9755 12.2175C71.9858 12.4081 71.9538 12.5985 71.8818 12.7739C71.8099 12.9493 71.7 13.1049 71.5608 13.2285C71.2112 13.4842 70.789 13.6086 70.363 13.5815C67.8766 13.5815 66.5883 13.6858 64.189 13.8801L63.9128 13.9025C63.4899 13.974 63.0568 13.8767 62.6995 13.6297ZM60.0658 13.6289C60.1325 13.4395 60.1559 13.2365 60.1346 13.0359C60.0704 12.7031 59.9157 12.3967 59.6891 12.1533C59.1517 11.4793 58.8752 11.1584 58.3223 10.5486C58.0301 10.1931 57.6756 9.89903 57.278 9.68208C56.9187 9.50315 56.5241 9.4152 56.1261 9.42533C57.0295 9.10813 57.8105 8.49467 58.3531 7.67619C58.8642 6.88551 59.0774 5.92533 58.9519 4.98026C58.9049 4.40733 58.7287 3.8542 58.4377 3.3661C58.1468 2.878 57.7493 2.46882 57.278 2.17201C56.0093 1.52821 54.5693 1.35282 53.1929 1.67454C51.1197 1.99549 50.106 2.18806 48.0481 2.60529C47.5826 2.6667 47.1556 2.90693 46.8503 3.27927C46.7248 3.46284 46.6404 3.67347 46.6032 3.89564C46.566 4.11781 46.5769 4.34586 46.6352 4.56303L48.6318 14.6567C48.6379 14.6983 48.6455 14.7396 48.6546 14.7805C48.6619 14.8135 48.6702 14.8461 48.6794 14.8785C48.6842 14.8957 48.6894 14.9128 48.6947 14.9298C48.7015 14.9513 48.7087 14.9727 48.7164 14.9939C48.7561 15.1049 48.8072 15.2116 48.8686 15.3121C48.9902 15.511 49.1502 15.6813 49.3382 15.8121C49.5308 15.9375 49.7459 16.0207 49.9704 16.0566C50.1947 16.0924 50.4237 16.0802 50.6436 16.0207C50.871 16.0035 51.092 15.9336 51.2903 15.816C51.4887 15.6985 51.6596 15.5363 51.7904 15.3411C51.9213 15.1459 52.009 14.9228 52.047 14.6878C52.0851 14.4529 52.0726 14.212 52.0104 13.9827L51.4268 10.5807L52.6861 10.3561C52.9226 10.2907 53.1713 10.2907 53.4079 10.3561C53.6497 10.4662 53.8687 10.6242 54.0529 10.8214C55.2662 12.057 55.8652 12.715 57.0169 14.0309C57.2127 14.2734 57.4673 14.4563 57.7541 14.5604C58.0375 14.6746 58.3435 14.7132 58.6448 14.6727C59.0596 14.6183 59.4469 14.4272 59.7505 14.1271C59.8913 13.9889 59.9992 13.8183 60.0658 13.6289ZM55.5072 6.22056C55.4423 6.4408 55.3219 6.63871 55.1587 6.79359C54.6707 7.1562 54.0972 7.3726 53.5 7.41944L50.9814 7.86875L50.9781 7.85001L50.9695 7.80006C50.7625 6.59376 50.6552 5.96842 50.4593 4.75559L50.5852 4.73203C51.5313 4.55491 52.0379 4.46006 53.024 4.30628C53.6248 4.16093 54.2526 4.19425 54.8361 4.40257C55.039 4.50965 55.2104 4.6721 55.3321 4.87266C55.4538 5.07325 55.5212 5.30451 55.5273 5.54191C55.579 5.76591 55.5721 6.00031 55.5072 6.22056ZM36.4561 18.6345C36.5967 18.8175 36.7741 18.966 36.9756 19.0696C37.1871 19.1628 37.4142 19.2108 37.6437 19.2108C37.8731 19.2108 38.1003 19.1628 38.3117 19.0696C38.7646 18.9488 39.1552 18.6499 39.4021 18.2352C39.5126 18.0263 39.5793 17.7952 39.5978 17.5573C39.6164 17.3193 39.5862 17.08 39.5096 16.8551L38.6342 13.726C39.8168 13.3569 40.4157 13.1803 41.5982 12.8594C42.8538 12.5892 43.982 11.8752 44.7926 10.8375C45.1264 10.3517 45.352 9.79411 45.453 9.20551C45.554 8.61689 45.5278 8.01212 45.3761 7.43546C45.2836 6.8386 45.0573 6.27308 44.7156 5.78501C44.3739 5.29697 43.9268 4.90025 43.4104 4.62721C42.1593 4.08579 40.7632 4.03452 39.4789 4.4828C37.3903 5.10862 36.3766 5.42957 34.3188 6.0875C33.8571 6.20646 33.453 6.49751 33.1823 6.90592C33.0807 7.10377 33.0201 7.32169 33.0042 7.5456C32.9883 7.76951 33.0176 7.99439 33.0901 8.20573C33.8467 10.5867 34.3645 12.2497 34.9305 14.0678L34.9371 14.0891L34.9532 14.1406L34.9543 14.1442C35.3121 15.2934 35.6906 16.5093 36.1617 18.0105C36.215 18.2385 36.3155 18.4515 36.4561 18.6345ZM41.8287 9.63392C41.4737 10.0652 40.9938 10.3637 40.4618 10.4844L40.4604 10.4848L40.4593 10.4852C39.4472 10.7735 38.9405 10.9179 37.9278 11.1744L37.0216 7.96503C38.0967 7.64408 38.5882 7.49964 39.6325 7.21079C40.9532 6.84171 41.7519 7.21079 42.0129 8.28596C42.0787 8.51103 42.0962 8.74845 42.0644 8.98139C42.0325 9.21433 41.9521 9.43711 41.8287 9.63392ZM88.601 2.07093C88.5428 1.84449 88.4405 1.63306 88.3005 1.4499C87.9904 1.09168 87.5628 0.868325 87.1026 0.824044C86.7406 0.779335 86.3742 0.844918 86.0472 1.01292C85.7203 1.18089 85.4467 1.4441 85.2597 1.77082C83.5088 4.27418 82.6642 5.54191 81.0517 8.09342C79.8077 5.31727 79.132 3.95326 77.719 1.22523C77.5469 0.866982 77.2873 0.562539 76.9666 0.342629C76.6654 0.133584 76.3144 0.0168233 75.9529 0.00565387C75.4793 -0.0211711 75.0132 0.139229 74.6475 0.454964C74.4778 0.610634 74.3429 0.803536 74.2527 1.01988C74.1625 1.23624 74.1189 1.47071 74.1254 1.70664C74.1083 3.26057 74.0871 4.52512 74.0671 5.71503C74.033 7.73231 74.0026 9.53501 74.0026 12.1694C73.9911 12.3826 74.0207 12.596 74.0892 12.7972C74.1578 12.9983 74.2641 13.1831 74.4019 13.3408C74.6903 13.6314 75.0761 13.7927 75.4768 13.7901C75.8816 13.8142 76.2792 13.67 76.5826 13.389C76.872 13.0927 77.0375 12.6889 77.0434 12.2657C77.0715 11.4491 77.1058 10.783 77.138 10.1581C77.1936 9.076 77.243 8.11714 77.243 6.71336C78.0723 8.31806 78.487 9.15254 79.2548 10.7572C79.4007 11.1191 79.6148 11.4466 79.8844 11.7201C80.132 11.907 80.4245 12.0181 80.7292 12.041C81.0292 12.0609 81.3283 11.9884 81.5892 11.8324C81.8986 11.6327 82.1569 11.3573 82.3417 11.03C82.6484 10.571 82.9073 10.1803 83.1473 9.81806L83.1524 9.81019L83.1681 9.78642C83.7242 8.94755 84.1823 8.2566 84.9064 7.21082L84.3689 12.8434C84.3433 13.0458 84.3576 13.2515 84.4111 13.4478C84.4646 13.6442 84.5561 13.8269 84.6799 13.9849C84.8036 14.1428 84.9572 14.2725 85.1308 14.366C85.3045 14.4595 85.4947 14.5147 85.6896 14.5283C85.8854 14.5675 86.087 14.5619 86.2804 14.5121C86.4739 14.4622 86.6548 14.3692 86.8107 14.2395C86.9673 14.1047 87.0967 13.9389 87.1917 13.7517C87.2865 13.5644 87.345 13.3593 87.3636 13.1483C87.617 11.0701 87.809 9.51356 88.001 7.95701C88.1143 7.03764 88.2277 6.11826 88.3538 5.09144C88.4412 4.37977 88.5346 3.61646 88.6383 2.76576C88.6718 2.53394 88.6591 2.29737 88.601 2.07093ZM90.4353 14.7209C90.303 14.5312 90.2101 14.3148 90.1625 14.0854C90.1149 13.8561 90.1137 13.6188 90.159 13.389L90.3782 11.8954C90.8395 8.74937 91.1335 6.74574 91.6947 3.19901C91.7178 2.96378 91.7903 2.73679 91.9071 2.53428C92.024 2.33176 92.1822 2.15873 92.3704 2.02757C92.8078 1.76649 93.3229 1.68632 93.814 1.8029C94.3193 1.85624 94.7861 2.10871 95.1194 2.50898C95.2612 2.69675 95.3609 2.91523 95.4113 3.14845C95.4618 3.38166 95.4618 3.62373 95.4112 3.85694L93.599 13.9827C93.5701 14.2162 93.4952 14.4409 93.3788 14.6425C93.2625 14.8442 93.1073 15.0184 92.9233 15.1541C92.7267 15.2842 92.5075 15.3725 92.2782 15.4138C92.049 15.4551 91.8141 15.4486 91.5872 15.3948C91.3593 15.379 91.1377 15.3104 90.9384 15.1938C90.7392 15.0772 90.5673 14.9156 90.4353 14.7209ZM96.9468 13.1643C97.2696 14.2827 97.8869 15.2837 98.7283 16.0528C99.6729 16.8572 100.772 17.4399 101.951 17.761C103.131 18.0822 104.362 18.1345 105.562 17.9143C106.657 17.6672 107.666 17.1123 108.48 16.3095C109.355 15.4197 110.004 14.3168 110.369 13.1001C110.778 11.8847 110.868 10.5771 110.63 9.313C110.372 8.12251 109.766 7.04557 108.895 6.23194C107.863 5.31989 106.649 4.66062 105.341 4.30244C104.034 3.94425 102.667 3.89622 101.339 4.16187C100.196 4.42399 99.16 5.05228 98.375 5.95915C97.5763 6.93214 97.0455 8.11353 96.8393 9.37721C96.5634 10.6283 96.6004 11.9325 96.9468 13.1643ZM106.898 11.9768C106.668 13.0866 106.07 14.0756 105.209 14.769C104.844 15.0207 104.432 15.1881 104.001 15.2601C103.569 15.332 103.127 15.3069 102.706 15.1863C102.267 15.0941 101.852 14.9026 101.492 14.6254C101.131 14.3482 100.832 13.992 100.617 13.5816C100.206 12.5303 100.152 11.3637 100.464 10.2758C100.621 9.15391 101.168 8.1316 101.999 7.40339C102.406 7.15376 102.856 6.99094 103.323 6.92445C103.791 6.85792 104.266 6.88899 104.722 7.01588C105.177 7.14277 105.605 7.36292 105.978 7.66358C106.352 7.96424 106.665 8.33943 106.898 8.7674C107.278 9.80045 107.278 10.9438 106.898 11.9768Z" fill="url(#paint0_linear)"/>
<path d="M134.013 76.3037C134.14 76.4861 134.303 76.6393 134.491 76.7534C134.91 76.9702 135.395 77.0106 135.843 76.8658C138.576 76.0795 139.927 75.6622 142.63 74.7796C143.087 74.6739 143.497 74.4139 143.792 74.0415C143.902 73.8851 143.97 73.7031 143.992 73.5124C144.014 73.3216 143.989 73.1282 143.918 72.9503C143.635 72.0677 142.944 71.8109 141.828 72.18C139.88 72.8058 138.906 73.1107 136.942 73.7045L136.172 70.9925C137.948 70.463 138.843 70.1901 140.603 69.6285C141.052 69.5119 141.453 69.2536 141.75 68.8903C141.854 68.7314 141.918 68.5489 141.938 68.3587C141.957 68.1685 141.93 67.9764 141.86 67.7991C141.593 66.9326 140.901 66.6758 139.817 67.0289C138.058 67.5905 137.178 67.8633 135.418 68.3929L134.711 65.9216C136.612 65.3439 137.555 65.0551 139.425 64.4453C140.509 64.1083 140.901 63.4824 140.634 62.5998C140.586 62.4172 140.497 62.2485 140.374 62.1066C140.252 61.9647 140.099 61.8534 139.927 61.7814C139.505 61.6323 139.046 61.6323 138.623 61.7814C136.062 62.5998 134.79 63.001 132.229 63.7392C131.792 63.8336 131.409 64.0985 131.161 64.4774C131.059 64.6731 130.998 64.8882 130.982 65.1092C130.966 65.3301 130.995 65.5521 131.067 65.7611C131.818 68.443 132.292 70.2212 132.847 72.3087C133.116 73.319 133.405 74.4017 133.753 75.6943C133.797 75.9137 133.885 76.1213 134.013 76.3037Z" fill="#003648" fill-opacity="0.4"/>
<path d="M2.3009 74.9241C1.5719 74.5124 0.922485 73.9686 0.384155 73.3194C0.227783 73.1314 0.110107 72.9131 0.0384521 72.6775C-0.0128174 72.445 -0.0128174 72.2038 0.0384521 71.9714C0.158203 71.6242 0.391235 71.3296 0.698364 71.1369C0.832886 71.0446 0.985718 70.9837 1.146 70.9588C1.30627 70.9338 1.46985 70.9453 1.62524 70.9925C1.78955 71.0378 1.94409 71.114 2.08093 71.2172C2.26489 71.3527 2.43359 71.5088 2.58362 71.6826C2.99536 72.1115 3.46008 72.4838 3.96619 72.7898C4.51111 73.102 5.09155 73.3445 5.69434 73.5119C6.276 73.733 6.90173 73.8046 7.51685 73.7205C7.7196 73.6881 7.90894 73.5967 8.06213 73.4572C8.21533 73.3178 8.32605 73.1362 8.38098 72.9342C8.40808 72.7689 8.39014 72.5991 8.32922 72.4435C8.26819 72.2878 8.1665 72.1523 8.03528 72.0516C7.47839 71.5412 6.86084 71.1045 6.19714 70.7518C5.22815 70.2563 4.32532 69.6361 3.51062 68.9064C2.99255 68.4451 2.61157 67.8446 2.41077 67.1733C2.28564 66.4545 2.36743 65.714 2.64636 65.0417C2.92529 64.3694 3.38916 63.7943 3.98193 63.3862C4.68616 62.9244 5.48926 62.6436 6.32275 62.5678C7.30811 62.4723 8.30212 62.5815 9.245 62.8887C10.0582 63.1184 10.8395 63.4527 11.5702 63.8836C12.2102 64.2789 12.7789 64.7838 13.2512 65.376C13.4135 65.5599 13.5317 65.7796 13.5969 66.0179C13.6509 66.2446 13.6509 66.4812 13.5969 66.7079C13.5029 67.0634 13.2921 67.375 12.9999 67.5905C12.8774 67.6891 12.7344 67.7577 12.5819 67.7911C12.4293 67.8245 12.2714 67.8217 12.1201 67.7831C11.9508 67.7305 11.7915 67.6492 11.6488 67.5424C11.4677 67.4033 11.2993 67.2475 11.146 67.077L10.6904 66.6438C10.4056 66.3789 10.0889 66.1524 9.7478 65.9698C9.35474 65.7464 8.93835 65.5688 8.50659 65.4402C8.00098 65.2644 7.45813 65.2311 6.93555 65.3439C6.7373 65.3756 6.55151 65.4629 6.39893 65.5961C6.24634 65.7292 6.13306 65.903 6.07141 66.0981C6.0498 66.1486 6.03345 66.2011 6.02246 66.2548C6.01147 66.3087 6.00586 66.3637 6.00586 66.4191C6.00586 66.4447 6.00708 66.4703 6.0094 66.4957C6.01221 66.5259 6.01672 66.556 6.02295 66.5856C6.03394 66.6385 6.05017 66.6902 6.07141 66.74C6.23792 67.0081 6.45728 67.2376 6.71558 67.414C7.22058 67.7608 7.74524 68.077 8.28662 68.3608C9.22876 68.8371 10.11 69.4299 10.9104 70.126C11.4342 70.5784 11.8302 71.1657 12.0573 71.827C12.231 72.4239 12.231 73.0595 12.0573 73.6564C11.8689 74.4444 11.4122 75.1383 10.7689 75.6141C10.0581 76.1315 9.22046 76.437 8.34949 76.4967C7.28796 76.5606 6.22388 76.4301 5.2074 76.1116C4.19336 75.8425 3.2168 75.4435 2.3009 74.9241Z" fill="#003648" fill-opacity="0.4"/>
<path d="M13.7699 77.973C13.6573 77.7818 13.5876 77.5675 13.5659 77.3455C13.5442 77.1236 13.5709 76.8994 13.6443 76.6892L16.158 66.7079C16.1982 66.4912 16.2817 66.2853 16.4034 66.1031C16.525 65.9209 16.6821 65.7662 16.865 65.6488C17.0618 65.5441 17.277 65.4803 17.498 65.4611C17.7192 65.4418 17.9419 65.4674 18.1532 65.5365C20.3539 66.1121 21.6261 66.4185 23.5656 66.8856L24.6261 67.1412C25.063 67.2122 25.4655 67.4262 25.7729 67.751C25.8883 67.9007 25.9681 68.0757 26.0063 68.2622C26.0446 68.4487 26.0399 68.6417 25.9929 68.8261C25.8044 69.7248 25.1603 70.0618 24.0448 69.821L19.3315 68.6978L18.7502 71.2011C20.5255 71.6344 21.4054 71.843 23.1964 72.2442C24.3119 72.5009 24.7675 73.0626 24.579 73.9612C24.5522 74.1494 24.481 74.3281 24.3715 74.4818C24.262 74.6356 24.1176 74.7598 23.9506 74.8438C23.5165 74.9873 23.0492 74.9873 22.6151 74.8438C20.8083 74.4266 19.9128 74.218 18.1218 73.7686C17.8547 74.8599 17.729 75.3734 17.4777 76.5127C19.4415 76.9941 20.4313 77.2348 22.4265 77.6681C23.5577 77.9249 23.9977 78.5026 23.8562 79.4012C23.8292 79.5914 23.7562 79.7718 23.6437 79.9259C23.5312 80.08 23.3829 80.203 23.2122 80.2838C22.7684 80.4343 22.2889 80.4343 21.8452 80.2838C19.0958 79.658 17.7134 79.337 14.9796 78.6791C14.5018 78.6133 14.068 78.3601 13.7699 77.973Z" fill="#003648" fill-opacity="0.4"/>
<path d="M29.3507 80.9498C29.3995 81.18 29.4974 81.3964 29.6375 81.5836C29.9515 81.9784 30.4009 82.2365 30.8943 82.3057C31.3817 82.4115 31.8901 82.3316 32.324 82.0811C32.5176 81.9533 32.6813 81.7835 32.8035 81.5838C32.9257 81.3842 33.0033 81.1595 33.031 80.9257L34.4921 72.0516C34.8154 72.1067 35.0862 72.1538 35.3333 72.1969C35.9504 72.3045 36.4202 72.3863 37.1943 72.5009C37.632 72.6123 38.0942 72.5611 38.4983 72.3565C38.6631 72.2445 38.7999 72.0948 38.8981 71.9193C38.9963 71.7438 39.0531 71.5474 39.0638 71.3455C39.1095 71.1486 39.1106 70.9436 39.067 70.7462C39.0234 70.5488 38.9364 70.3641 38.8125 70.2062C38.4886 69.8905 38.0654 69.7028 37.6185 69.6766C34.0836 69.0989 32.3082 68.794 28.7891 68.0719C28.3661 67.9264 27.908 67.9264 27.485 68.0719C27.3171 68.1772 27.1748 68.32 27.0687 68.4895C26.9625 68.6591 26.8954 68.851 26.8723 69.0508C26.8177 69.2456 26.8064 69.4504 26.839 69.6502C26.8716 69.8501 26.9474 70.04 27.0608 70.2062C27.3721 70.5409 27.7898 70.7514 28.2391 70.7999C28.5385 70.8602 28.7936 70.9124 29.0275 70.9602C29.6652 71.0907 30.144 71.1886 30.9257 71.3295C30.4044 74.4547 30.0868 76.2091 29.5857 78.9764L29.5835 78.9877L29.3546 80.2517C29.3032 80.4813 29.3019 80.7197 29.3507 80.9498Z" fill="#003648" fill-opacity="0.4"/>
<path d="M43.3062 83.7179C43.1548 83.5393 43.0439 83.3287 42.9814 83.1012C42.9189 82.8738 42.9065 82.635 42.9447 82.402L44.0446 73.4156L41.3423 73.0465C40.8907 73.0201 40.4626 72.8326 40.1326 72.517C39.9094 72.1856 39.8163 71.7807 39.8715 71.3824C39.9268 70.9842 40.1265 70.6217 40.431 70.3667C40.8298 70.1644 41.2845 70.1077 41.7194 70.2062C45.27 70.7037 47.061 70.9123 50.6116 71.2653C51.0609 71.2689 51.4946 71.4337 51.837 71.7307C52.0964 72.0543 52.2218 72.4685 52.1865 72.8851C52.1514 73.3017 51.9583 73.6878 51.6486 73.9612C51.2557 74.1973 50.7935 74.2826 50.3446 74.2019L47.6266 73.9131C47.2495 77.5237 47.061 79.321 46.6682 82.9316C46.6545 83.1684 46.5897 83.3991 46.4784 83.6072C46.3671 83.8153 46.2118 83.9956 46.024 84.1351C45.6072 84.4151 45.1022 84.524 44.6101 84.44C44.3562 84.416 44.1097 84.3396 43.8856 84.2155C43.6615 84.0913 43.4644 83.9221 43.3062 83.7179Z" fill="#003648" fill-opacity="0.4"/>
<path d="M52.7837 84.1482C52.8517 84.3758 52.9683 84.5851 53.1251 84.761C53.4703 85.1185 53.9377 85.3256 54.4292 85.3387C54.9294 85.4057 55.4358 85.2736 55.8431 84.9696C56.0233 84.8203 56.1689 84.632 56.2695 84.4184C56.37 84.2047 56.4229 83.971 56.4244 83.7339C56.5538 81.7354 56.6539 80.2229 56.7528 78.7273L56.7773 78.3565C56.8745 76.889 56.973 75.4004 57.1 73.4477C57.1235 73.214 57.0994 72.9778 57.0291 72.7541C56.9587 72.5304 56.8439 72.324 56.6915 72.1479C56.3593 71.802 55.9089 71.6008 55.4347 71.5862C54.9694 71.5286 54.5006 71.6613 54.1306 71.9553C53.96 72.1085 53.8217 72.2957 53.7244 72.5054C53.6272 72.7151 53.5729 72.943 53.5651 73.1749C53.4001 75.2289 53.2744 76.7695 53.1487 78.31C53.0903 79.0254 53.032 79.7409 52.9697 80.5077C52.8978 81.3922 52.8208 82.345 52.7324 83.4451C52.6982 83.6805 52.7158 83.9206 52.7837 84.1482Z" fill="#003648" fill-opacity="0.4"/>
<path d="M73.0936 72.6935C73.2512 72.8586 73.3741 73.0547 73.4552 73.2699C73.485 73.3489 73.5088 73.4298 73.5266 73.5121C73.5575 73.6538 73.5704 73.7994 73.5649 73.9452L73.6436 84.424C73.6545 84.6374 73.621 84.8508 73.5452 85.0499C73.4694 85.2491 73.3529 85.4296 73.2036 85.5794C73.0474 85.7253 72.8639 85.8376 72.6641 85.9093C72.4642 85.9809 72.2523 86.0107 72.041 85.9966C71.8297 86.0107 71.6178 85.9809 71.418 85.9093C71.2183 85.8376 71.0347 85.7253 70.8784 85.5794C70.7238 85.433 70.6028 85.2535 70.5239 85.0538C70.4452 84.854 70.4106 84.6389 70.4229 84.424V78.7593C69.6852 80.0812 69.2354 80.8586 68.5814 81.9886L68.129 82.7711C67.954 83.1159 67.7008 83.413 67.3906 83.6376C67.1207 83.8172 66.8008 83.9018 66.4794 83.8784C66.1577 83.8866 65.8427 83.7849 65.5839 83.5895C65.2845 83.3593 65.0469 83.0557 64.8926 82.7069C64.0286 81.1022 63.6044 80.2998 62.7874 78.6951C62.6931 80.9096 62.646 82.0169 62.5674 84.2314C62.5691 84.4448 62.5249 84.6559 62.438 84.85C62.3512 85.0441 62.2238 85.2163 62.0647 85.3547C61.9021 85.4991 61.7123 85.6078 61.5068 85.674C61.3014 85.7403 61.0848 85.7627 60.8706 85.7398C60.6555 85.7328 60.4442 85.6808 60.2496 85.587C60.0551 85.4931 59.8813 85.3594 59.7395 85.1942C59.5922 85.0416 59.4803 84.857 59.4124 84.6542C59.3444 84.4514 59.3219 84.2356 59.3467 84.0228L59.8966 73.56C59.9001 73.328 59.9492 73.0991 60.041 72.8869C60.1327 72.6746 60.2653 72.4834 60.4308 72.3244C60.5925 72.1722 60.7838 72.0565 60.9923 71.9846C61.2007 71.9127 61.4215 71.8864 61.6405 71.9072C61.9768 71.9152 62.3018 72.0334 62.5674 72.2442C62.8607 72.4832 63.0927 72.7917 63.243 73.1428C64.547 75.8548 65.2225 77.2027 66.6208 79.9147C67.9413 77.7027 68.6292 76.409 69.6545 74.4803L69.9763 73.8755C70.0743 73.6913 70.1758 73.501 70.2814 73.3033C70.4106 72.9794 70.6265 72.6992 70.9043 72.4949C71.1823 72.2905 71.5109 72.1703 71.8525 72.1479C72.0861 72.1388 72.3187 72.183 72.5334 72.2774C72.7482 72.3718 72.9396 72.514 73.0936 72.6935Z" fill="#003648" fill-opacity="0.4"/>
<path fill-rule="evenodd" clip-rule="evenodd" d="M90.0432 84.3029C90.1223 84.1078 90.1554 83.8964 90.1399 83.6858C90.1144 83.4403 90.0337 83.2042 89.9043 82.9958C87.4691 79 86.3065 76.9941 84.0598 72.9342C83.8784 72.6018 83.5977 72.3375 83.2585 72.18C82.9285 72.0091 82.5596 71.9315 82.1903 71.9553C81.813 71.9662 81.4449 72.0768 81.1219 72.2763C80.8036 72.4683 80.5553 72.7613 80.4149 73.1107C78.5453 77.3632 77.5555 79.4654 75.5132 83.6858C75.3988 83.9027 75.3394 84.1455 75.3403 84.3919C75.3412 84.6047 75.3933 84.814 75.4919 85.0015C75.5906 85.1889 75.7327 85.3488 75.9059 85.467C76.2645 85.7514 76.709 85.899 77.1628 85.8842C77.4639 85.8835 77.7583 85.7943 78.0112 85.6275C78.2743 85.4577 78.4821 85.212 78.6082 84.9214C78.9695 84.1351 79.1423 83.7339 79.4723 82.9476C82.0646 82.8674 83.3685 82.8032 85.9608 82.6427L86.9821 84.5202C87.1284 84.7997 87.3525 85.0287 87.6262 85.1782C87.8934 85.3145 88.1931 85.3701 88.4902 85.3387C88.9373 85.3125 89.3605 85.1248 89.6843 84.8091C89.8411 84.6714 89.964 84.498 90.0432 84.3029ZM83.442 80.1347C82.5068 80.2001 81.7693 80.2517 80.6191 80.2517C80.8014 79.8106 80.9626 79.4246 81.1125 79.066L81.1158 79.0585L81.1166 79.0571L81.1228 79.0422C81.562 77.99 81.9048 77.1691 82.3945 75.8708L82.6548 76.3795L82.9249 76.9093L82.9279 76.9149C83.4812 78.0005 83.8984 78.819 84.5782 80.0591C84.1541 80.0849 83.786 80.1106 83.4442 80.1345L83.442 80.1347Z" fill="#003648" fill-opacity="0.4"/>
<path d="M102.347 70.5432C102.523 70.6857 102.67 70.8627 102.778 71.0639C102.886 71.2651 102.953 71.4864 102.976 71.7146L104.39 81.9206C104.43 82.1528 104.422 82.3908 104.368 82.62C104.314 82.8491 104.215 83.0644 104.076 83.2525C103.749 83.6232 103.298 83.8553 102.813 83.9029C102.327 83.9504 101.841 83.81 101.452 83.5093C98.6553 80.9257 97.2885 79.6259 94.6177 76.962C94.7434 78.1816 94.8337 79.0963 94.9241 80.011C95.0144 80.9257 95.1047 81.8404 95.2303 83.06C95.2615 83.2892 95.2469 83.5226 95.1875 83.7459C95.1282 83.9693 95.0251 84.1781 94.8848 84.3598C94.7401 84.5468 94.5564 84.6986 94.3472 84.804C94.1379 84.9095 93.9083 84.9661 93.6749 84.9696C93.447 84.9986 93.2157 84.9809 92.9945 84.9175C92.7732 84.8542 92.5667 84.7464 92.3867 84.6005C92.2085 84.4529 92.0641 84.2672 91.9637 84.0565C91.8633 83.8458 91.8092 83.6152 91.8054 83.3809L90.9413 73.1107C90.9056 72.8839 90.918 72.652 90.9777 72.4305C91.0372 72.209 91.1427 72.0032 91.287 71.827C91.4263 71.651 91.6006 71.5071 91.7982 71.4047C91.9958 71.3024 92.2125 71.244 92.4338 71.2332C92.6729 71.1996 92.9161 71.2226 93.145 71.3005C93.3739 71.3785 93.5822 71.5092 93.7535 71.6825C96.3616 74.3463 97.6969 75.6622 100.446 78.2458C100.297 77.0262 100.183 76.1155 100.069 75.2049L99.6923 72.1639C99.6477 71.9381 99.6514 71.7051 99.7029 71.4808C99.7544 71.2565 99.8525 71.0462 99.9907 70.8641C100.122 70.688 100.287 70.5415 100.477 70.4338C100.666 70.3261 100.875 70.2595 101.09 70.2383C101.309 70.2001 101.533 70.2074 101.749 70.2598C101.965 70.3122 102.169 70.4086 102.347 70.5432Z" fill="#003648" fill-opacity="0.4"/>
<path fill-rule="evenodd" clip-rule="evenodd" d="M120.684 79.7664C120.736 79.563 120.741 79.35 120.698 79.1445C120.658 78.9075 120.567 78.6827 120.43 78.4866C117.492 74.8599 116.063 73.0145 113.298 69.3076C113.088 68.994 112.776 68.7666 112.418 68.6657C112.066 68.5348 111.685 68.507 111.318 68.5855C110.943 68.6429 110.59 68.8038 110.297 69.0508C110.014 69.2887 109.806 69.607 109.7 69.9655C108.396 74.4427 107.689 76.6732 106.196 81.1183C106.11 81.3482 106.083 81.5968 106.118 81.8404C106.149 82.0521 106.229 82.253 106.352 82.4262C106.475 82.5993 106.637 82.7397 106.825 82.8353C107.222 83.058 107.68 83.1424 108.129 83.076C108.428 83.0275 108.709 82.9003 108.946 82.707C109.186 82.5019 109.361 82.2281 109.448 81.9206C109.536 81.6178 109.608 81.3699 109.676 81.1355C109.792 80.7364 109.897 80.3763 110.046 79.8506C112.606 79.4173 113.895 79.1766 116.456 78.6631L117.712 80.3962C117.891 80.6393 118.133 80.8257 118.411 80.9337C118.69 81.0416 118.992 81.0667 119.283 81.006C119.721 80.9124 120.115 80.669 120.399 80.3159C120.535 80.158 120.632 79.9698 120.684 79.7664ZM114.727 76.2881L110.784 77.0263C110.953 76.4066 111.099 75.8918 111.234 75.4121L111.235 75.4099L111.24 75.3926C111.506 74.4522 111.735 73.6435 112.025 72.4368C113.13 73.9566 113.605 74.6503 114.65 76.176L114.727 76.2881Z" fill="#003648" fill-opacity="0.4"/>
<path d="M123.007 79.6901C122.822 79.5658 122.665 79.4028 122.545 79.212C122.426 79.0211 122.348 78.8067 122.316 78.5828L122.308 78.547C121.433 74.5591 120.993 72.5531 120.132 68.5373C120.074 68.3138 120.061 68.0806 120.093 67.8517C120.125 67.6228 120.203 67.403 120.32 67.2054C120.593 66.8154 121.005 66.5503 121.467 66.4672C121.929 66.3304 122.425 66.3822 122.85 66.6116C123.043 66.7379 123.209 66.9023 123.338 67.0952C123.468 67.2882 123.558 67.5057 123.604 67.735C124.012 69.4992 124.323 70.8186 124.633 72.1377L124.633 72.142C124.944 73.4612 125.254 74.7806 125.662 76.5448C127.469 76.1116 128.364 75.8869 130.171 75.4055C131.302 75.1006 131.978 75.4055 132.229 76.3362C132.298 76.5298 132.32 76.7377 132.293 76.9418C132.265 77.1459 132.19 77.3401 132.072 77.5077C131.752 77.8533 131.335 78.0888 130.878 78.1816C128.27 78.8717 126.966 79.1926 124.358 79.7864C123.912 79.9327 123.428 79.8983 123.007 79.6901Z" fill="#003648" fill-opacity="0.4"/>
<path fill-rule="evenodd" clip-rule="evenodd" d="M134.013 74.3037C134.14 74.4861 134.303 74.6393 134.491 74.7534C134.91 74.9702 135.395 75.0106 135.843 74.8658C138.576 74.0795 139.927 73.6622 142.63 72.7796C143.087 72.6739 143.497 72.4139 143.792 72.0415C143.902 71.8851 143.97 71.7031 143.992 71.5124C144.014 71.3216 143.989 71.1282 143.918 70.9503C143.635 70.0677 142.944 69.8109 141.828 70.18C139.88 70.8058 138.906 71.1107 136.942 71.7045L136.172 68.9925C137.948 68.463 138.843 68.1901 140.603 67.6285C141.052 67.5119 141.453 67.2536 141.75 66.8903C141.854 66.7314 141.918 66.5489 141.938 66.3587C141.957 66.1685 141.93 65.9764 141.86 65.7991C141.593 64.9326 140.901 64.6758 139.817 65.0289C138.058 65.5905 137.178 65.8633 135.418 66.3929L134.711 63.9216C136.612 63.3439 137.555 63.0551 139.425 62.4453C140.509 62.1083 140.901 61.4824 140.634 60.5998C140.586 60.4172 140.497 60.2485 140.374 60.1066C140.252 59.9647 140.099 59.8534 139.927 59.7814C139.505 59.6323 139.046 59.6323 138.623 59.7814C136.062 60.5998 134.79 61.001 132.229 61.7392C131.792 61.8336 131.409 62.0985 131.161 62.4774C131.059 62.6731 130.998 62.8882 130.982 63.1092C130.966 63.3301 130.995 63.5521 131.067 63.7611C131.818 66.443 132.292 68.2212 132.847 70.3087C133.116 71.319 133.405 72.4017 133.753 73.6943C133.797 73.9137 133.885 74.1213 134.013 74.3037ZM2.3009 72.9241C1.5719 72.5124 0.922485 71.9686 0.384155 71.3194C0.227783 71.1314 0.110107 70.9131 0.0384521 70.6775C-0.0128174 70.445 -0.0128174 70.2038 0.0384521 69.9714C0.158203 69.6242 0.391235 69.3296 0.698364 69.1369C0.832886 69.0446 0.985718 68.9837 1.146 68.9588C1.30627 68.9338 1.46985 68.9453 1.62524 68.9925C1.78955 69.0378 1.94409 69.114 2.08093 69.2172C2.26489 69.3527 2.43359 69.5088 2.58362 69.6826C2.99536 70.1115 3.46008 70.4838 3.96619 70.7898C4.51111 71.102 5.09155 71.3445 5.69434 71.5119C6.276 71.733 6.90173 71.8046 7.51685 71.7205C7.7196 71.6881 7.90894 71.5967 8.06213 71.4572C8.21533 71.3178 8.32605 71.1362 8.38098 70.9342C8.40808 70.7689 8.39014 70.5991 8.32922 70.4435C8.26819 70.2878 8.1665 70.1523 8.03528 70.0516C7.47839 69.5412 6.86084 69.1045 6.19714 68.7518C5.22815 68.2563 4.32532 67.6361 3.51062 66.9064C2.99255 66.4451 2.61157 65.8446 2.41077 65.1733C2.28564 64.4545 2.36743 63.714 2.64636 63.0417C2.92529 62.3694 3.38916 61.7943 3.98193 61.3862C4.68616 60.9244 5.48926 60.6436 6.32275 60.5678C7.30811 60.4723 8.30212 60.5815 9.245 60.8887C10.0582 61.1184 10.8395 61.4527 11.5702 61.8836C12.2102 62.2789 12.7789 62.7838 13.2512 63.376C13.4135 63.5599 13.5317 63.7796 13.5969 64.0179C13.6509 64.2446 13.6509 64.4812 13.5969 64.7079C13.5029 65.0634 13.2921 65.375 12.9999 65.5905C12.8774 65.6891 12.7344 65.7577 12.5819 65.7911C12.4293 65.8245 12.2714 65.8217 12.1201 65.7831C11.9508 65.7305 11.7915 65.6492 11.6488 65.5424C11.4677 65.4033 11.2993 65.2475 11.146 65.077L10.6904 64.6438C10.4056 64.3789 10.0889 64.1524 9.7478 63.9698C9.35474 63.7464 8.93835 63.5688 8.50659 63.4402C8.00098 63.2644 7.45813 63.2311 6.93555 63.3439C6.7373 63.3756 6.55151 63.4629 6.39893 63.5961C6.24634 63.7292 6.13306 63.903 6.07141 64.0981C6.0498 64.1486 6.03345 64.2011 6.02246 64.2548C6.01147 64.3087 6.00586 64.3637 6.00586 64.4191C6.00586 64.4447 6.00708 64.4703 6.0094 64.4957C6.01221 64.5259 6.01672 64.556 6.02295 64.5856C6.03394 64.6385 6.05017 64.6902 6.07141 64.74C6.23792 65.0081 6.45728 65.2376 6.71558 65.414C7.22058 65.7608 7.74524 66.077 8.28662 66.3608C9.22876 66.8371 10.11 67.4299 10.9104 68.126C11.4342 68.5784 11.8302 69.1657 12.0573 69.827C12.231 70.4239 12.231 71.0595 12.0573 71.6564C11.8689 72.4444 11.4122 73.1383 10.7689 73.6141C10.0581 74.1315 9.22046 74.437 8.34949 74.4967C7.28796 74.5606 6.22388 74.4301 5.2074 74.1116C4.19336 73.8425 3.2168 73.4435 2.3009 72.9241ZM13.7699 75.973C13.6573 75.7818 13.5876 75.5675 13.5659 75.3455C13.5442 75.1236 13.5709 74.8994 13.6443 74.6892L16.158 64.7079C16.1982 64.4912 16.2817 64.2853 16.4034 64.1031C16.525 63.9209 16.6821 63.7662 16.865 63.6488C17.0618 63.5441 17.277 63.4803 17.498 63.4611C17.7192 63.4418 17.9419 63.4674 18.1532 63.5365C20.3539 64.1121 21.6261 64.4185 23.5656 64.8856L24.6261 65.1412C25.063 65.2122 25.4655 65.4262 25.7729 65.751C25.8883 65.9007 25.9681 66.0757 26.0063 66.2622C26.0446 66.4487 26.0399 66.6417 25.9929 66.8261C25.8044 67.7248 25.1603 68.0618 24.0448 67.821L19.3315 66.6978L18.7502 69.2011C20.5255 69.6344 21.4054 69.843 23.1964 70.2442C24.3119 70.5009 24.7675 71.0626 24.579 71.9612C24.5522 72.1494 24.481 72.3281 24.3715 72.4818C24.262 72.6356 24.1176 72.7598 23.9506 72.8438C23.5165 72.9873 23.0492 72.9873 22.6151 72.8438C20.8083 72.4266 19.9128 72.218 18.1218 71.7686C17.8547 72.8599 17.729 73.3734 17.4777 74.5127C19.4415 74.9941 20.4313 75.2348 22.4265 75.6681C23.5577 75.9249 23.9977 76.5026 23.8562 77.4012C23.8292 77.5914 23.7562 77.7718 23.6437 77.9259C23.5312 78.08 23.3829 78.203 23.2122 78.2838C22.7684 78.4343 22.2889 78.4343 21.8452 78.2838C19.0958 77.658 17.7134 77.337 14.9796 76.6791C14.5018 76.6133 14.068 76.3601 13.7699 75.973ZM29.3507 78.9498C29.3995 79.18 29.4974 79.3964 29.6375 79.5836C29.9515 79.9784 30.4009 80.2365 30.8943 80.3057C31.3817 80.4115 31.8901 80.3316 32.324 80.0811C32.5176 79.9533 32.6813 79.7835 32.8035 79.5838C32.9257 79.3842 33.0033 79.1595 33.031 78.9257L34.4921 70.0516C34.8154 70.1067 35.0862 70.1538 35.3333 70.1969C35.9504 70.3045 36.4202 70.3863 37.1943 70.5009C37.632 70.6123 38.0942 70.5611 38.4983 70.3565C38.6631 70.2445 38.7999 70.0948 38.8981 69.9193C38.9963 69.7438 39.0531 69.5474 39.0638 69.3455C39.1095 69.1486 39.1106 68.9436 39.067 68.7462C39.0234 68.5488 38.9364 68.3641 38.8125 68.2062C38.4886 67.8905 38.0654 67.7028 37.6185 67.6766C34.0836 67.0989 32.3082 66.794 28.7891 66.0719C28.3661 65.9264 27.908 65.9264 27.485 66.0719C27.3171 66.1772 27.1748 66.32 27.0687 66.4895C26.9625 66.6591 26.8954 66.851 26.8723 67.0508C26.8177 67.2456 26.8064 67.4504 26.839 67.6502C26.8716 67.8501 26.9474 68.04 27.0608 68.2062C27.3721 68.5409 27.7898 68.7514 28.2391 68.7999C28.5385 68.8602 28.7936 68.9124 29.0275 68.9602C29.6652 69.0907 30.144 69.1886 30.9257 69.3295C30.4044 72.4547 30.0868 74.2091 29.5857 76.9764L29.5835 76.9877L29.3546 78.2517C29.3032 78.4813 29.3019 78.7197 29.3507 78.9498ZM43.3062 81.7179C43.1548 81.5393 43.0439 81.3287 42.9814 81.1012C42.9189 80.8738 42.9065 80.635 42.9447 80.402L44.0446 71.4156L41.3423 71.0465C40.8907 71.0201 40.4626 70.8326 40.1326 70.517C39.9094 70.1856 39.8163 69.7807 39.8715 69.3824C39.9268 68.9842 40.1265 68.6217 40.431 68.3667C40.8298 68.1644 41.2845 68.1077 41.7194 68.2062C45.27 68.7037 47.061 68.9123 50.6116 69.2653C51.0609 69.2689 51.4946 69.4337 51.837 69.7307C52.0964 70.0543 52.2218 70.4685 52.1865 70.8851C52.1514 71.3017 51.9583 71.6878 51.6486 71.9612C51.2557 72.1973 50.7935 72.2826 50.3446 72.2019L47.6266 71.9131C47.2495 75.5237 47.061 77.321 46.6682 80.9316C46.6545 81.1684 46.5897 81.3991 46.4784 81.6072C46.3671 81.8153 46.2118 81.9956 46.024 82.1351C45.6072 82.4151 45.1022 82.524 44.6101 82.44C44.3562 82.416 44.1097 82.3396 43.8856 82.2155C43.6615 82.0913 43.4644 81.9221 43.3062 81.7179ZM52.7837 82.1482C52.8517 82.3758 52.9683 82.5851 53.1251 82.761C53.4703 83.1185 53.9377 83.3256 54.4292 83.3387C54.9294 83.4057 55.4358 83.2736 55.8431 82.9696C56.0233 82.8203 56.1689 82.632 56.2695 82.4184C56.37 82.2047 56.4229 81.971 56.4244 81.7339C56.5538 79.7354 56.6539 78.2229 56.7528 76.7273L56.7656 76.5333L56.7773 76.3565C56.8745 74.889 56.973 73.4004 57.1 71.4477C57.1235 71.214 57.0994 70.9778 57.0291 70.7541C56.9587 70.5304 56.8439 70.324 56.6915 70.1479C56.3593 69.802 55.9089 69.6008 55.4347 69.5862C54.9694 69.5286 54.5006 69.6613 54.1306 69.9553C53.96 70.1085 53.8217 70.2957 53.7244 70.5054C53.6272 70.7151 53.5729 70.943 53.5651 71.1749C53.4001 73.2289 53.2744 74.7695 53.1487 76.31C53.0903 77.0254 53.032 77.7409 52.9697 78.5077C52.8978 79.3922 52.8208 80.345 52.7324 81.4451C52.6982 81.6805 52.7158 81.9206 52.7837 82.1482ZM73.0936 70.6935C73.2512 70.8586 73.3741 71.0547 73.4552 71.2699C73.485 71.3489 73.5088 71.4298 73.5266 71.5121C73.5575 71.6538 73.5704 71.7994 73.5649 71.9452L73.6436 82.424C73.6545 82.6374 73.621 82.8508 73.5452 83.0499C73.4694 83.2491 73.3529 83.4296 73.2036 83.5794C73.0474 83.7253 72.8639 83.8376 72.6641 83.9093C72.4642 83.9809 72.2523 84.0107 72.041 83.9966C71.8297 84.0107 71.6178 83.9809 71.418 83.9093C71.2183 83.8376 71.0347 83.7253 70.8784 83.5794C70.7238 83.433 70.6028 83.2535 70.5239 83.0538C70.4452 82.854 70.4106 82.6389 70.4229 82.424V76.7593C69.6852 78.0812 69.2354 78.8586 68.5814 79.9886L68.371 80.3525L68.129 80.7711C67.954 81.1159 67.7008 81.413 67.3906 81.6376C67.1207 81.8172 66.8008 81.9018 66.4794 81.8784C66.1577 81.8866 65.8427 81.7849 65.5839 81.5895C65.2845 81.3593 65.0469 81.0557 64.8926 80.7069C64.0286 79.1022 63.6044 78.2998 62.7874 76.6951C62.6931 78.9096 62.646 80.0169 62.5674 82.2314C62.5691 82.4448 62.5249 82.6559 62.438 82.85C62.3512 83.0441 62.2238 83.2163 62.0647 83.3547C61.9021 83.4991 61.7123 83.6078 61.5068 83.674C61.3014 83.7403 61.0848 83.7627 60.8706 83.7398C60.6555 83.7328 60.4442 83.6808 60.2496 83.587C60.0551 83.4931 59.8813 83.3594 59.7395 83.1942C59.5922 83.0416 59.4803 82.857 59.4124 82.6542C59.3444 82.4514 59.3219 82.2356 59.3467 82.0228L59.8966 71.56C59.9001 71.328 59.9492 71.0991 60.041 70.8869C60.1327 70.6746 60.2653 70.4834 60.4308 70.3244C60.5925 70.1722 60.7838 70.0565 60.9923 69.9846C61.2007 69.9127 61.4215 69.8864 61.6405 69.9072C61.9768 69.9152 62.3018 70.0334 62.5674 70.2442C62.8607 70.4832 63.0927 70.7917 63.243 71.1428C64.547 73.8548 65.2225 75.2027 66.6208 77.9147C67.9413 75.7027 68.6292 74.409 69.6545 72.4803L69.9763 71.8755C70.0743 71.6913 70.1758 71.501 70.2814 71.3033C70.4106 70.9794 70.6265 70.6992 70.9043 70.4949C71.1823 70.2905 71.5109 70.1703 71.8525 70.1479C72.0861 70.1388 72.3187 70.183 72.5334 70.2774C72.7482 70.3718 72.9396 70.514 73.0936 70.6935ZM90.0432 82.3029C90.1223 82.1078 90.1554 81.8964 90.1399 81.6858C90.1144 81.4403 90.0337 81.2042 89.9043 80.9958C87.4691 77 86.3065 74.9941 84.0598 70.9342C83.8784 70.6018 83.5977 70.3375 83.2585 70.18C82.9285 70.0091 82.5596 69.9315 82.1903 69.9553C81.813 69.9662 81.4449 70.0768 81.1219 70.2763C80.8036 70.4683 80.5553 70.7613 80.4149 71.1107C78.5453 75.3632 77.5555 77.4654 75.5132 81.6858C75.3988 81.9027 75.3394 82.1455 75.3403 82.3919C75.3412 82.6047 75.3933 82.814 75.4919 83.0015C75.5906 83.1889 75.7327 83.3488 75.9059 83.467C76.2645 83.7514 76.709 83.899 77.1628 83.8842C77.4639 83.8835 77.7583 83.7943 78.0112 83.6275C78.2743 83.4577 78.4821 83.212 78.6082 82.9214C78.9695 82.1351 79.1423 81.7339 79.4723 80.9476C82.0646 80.8674 83.3685 80.8032 85.9608 80.6427L86.9821 82.5202C87.1284 82.7997 87.3525 83.0287 87.6262 83.1782C87.8934 83.3145 88.1931 83.3701 88.4902 83.3387C88.9373 83.3125 89.3605 83.1248 89.6843 82.8091C89.8411 82.6714 89.964 82.498 90.0432 82.3029ZM83.442 78.1347C82.5068 78.2001 81.7693 78.2517 80.6191 78.2517C80.8014 77.8106 80.9626 77.4246 81.1125 77.066L81.1158 77.0585L81.1166 77.0571L81.1228 77.0422C81.562 75.99 81.9048 75.1691 82.3945 73.8708L82.6548 74.3795L82.9249 74.9093L82.9279 74.9149C83.4812 76.0005 83.8984 76.819 84.5782 78.0591C84.1541 78.0849 83.786 78.1106 83.4442 78.1345L83.442 78.1347ZM102.347 68.5432C102.523 68.6857 102.67 68.8627 102.778 69.0639C102.886 69.2651 102.953 69.4864 102.976 69.7146L104.39 79.9206C104.43 80.1528 104.422 80.3908 104.368 80.62C104.314 80.8491 104.215 81.0644 104.076 81.2525C103.749 81.6232 103.298 81.8553 102.813 81.9029C102.327 81.9504 101.841 81.81 101.452 81.5093C98.6553 78.9257 97.2885 77.6259 94.6177 74.962C94.7434 76.1816 94.8337 77.0963 94.9241 78.011C95.0144 78.9257 95.1047 79.8404 95.2303 81.06C95.2615 81.2892 95.2469 81.5226 95.1875 81.7459C95.1282 81.9693 95.0251 82.1781 94.8848 82.3598C94.7401 82.5468 94.5564 82.6986 94.3472 82.804C94.1379 82.9095 93.9083 82.9661 93.6749 82.9696C93.447 82.9986 93.2157 82.9809 92.9945 82.9175C92.7732 82.8542 92.5667 82.7464 92.3867 82.6005C92.2085 82.4529 92.0641 82.2672 91.9637 82.0565C91.8633 81.8458 91.8092 81.6152 91.8054 81.3809L90.9413 71.1107C90.9056 70.8839 90.918 70.652 90.9777 70.4305C91.0372 70.209 91.1427 70.0032 91.287 69.827C91.4263 69.651 91.6006 69.5071 91.7982 69.4047C91.9958 69.3024 92.2125 69.244 92.4338 69.2332C92.6729 69.1996 92.9161 69.2226 93.145 69.3005C93.3739 69.3785 93.5822 69.5092 93.7535 69.6825C96.3616 72.3463 97.6969 73.6622 100.446 76.2458C100.297 75.0262 100.183 74.1155 100.069 73.2049L99.9561 72.2987L99.8412 71.3738L99.77 70.7973L99.6923 70.1639C99.6477 69.9381 99.6514 69.7051 99.7029 69.4808C99.7544 69.2565 99.8525 69.0462 99.9907 68.8641C100.122 68.688 100.287 68.5415 100.477 68.4338C100.666 68.3261 100.875 68.2595 101.09 68.2383C101.309 68.2001 101.533 68.2074 101.749 68.2598C101.965 68.3122 102.169 68.4086 102.347 68.5432ZM120.684 77.7664C120.736 77.563 120.741 77.35 120.698 77.1445C120.658 76.9075 120.567 76.6827 120.43 76.4866C117.492 72.8599 116.063 71.0145 113.298 67.3076C113.088 66.994 112.776 66.7666 112.418 66.6657C112.066 66.5348 111.685 66.507 111.318 66.5855C110.943 66.6429 110.59 66.8038 110.297 67.0508C110.014 67.2887 109.806 67.607 109.7 67.9655C108.396 72.4427 107.689 74.6732 106.196 79.1183C106.11 79.3482 106.083 79.5968 106.118 79.8404C106.149 80.0521 106.229 80.253 106.352 80.4262C106.475 80.5993 106.637 80.7397 106.825 80.8353C107.222 81.058 107.68 81.1424 108.129 81.076C108.428 81.0275 108.709 80.9003 108.946 80.707C109.186 80.5019 109.361 80.2281 109.448 79.9206C109.536 79.6178 109.608 79.3699 109.676 79.1355C109.792 78.7364 109.897 78.3763 110.046 77.8506C112.606 77.4173 113.895 77.1766 116.456 76.6631L117.712 78.3962C117.891 78.6393 118.133 78.8257 118.411 78.9337C118.69 79.0416 118.992 79.0667 119.283 79.006C119.721 78.9124 120.115 78.669 120.399 78.3159C120.535 78.158 120.632 77.9698 120.684 77.7664ZM114.727 74.2881L110.784 75.0263C110.953 74.4066 111.099 73.8918 111.234 73.4121L111.235 73.4099L111.24 73.3926C111.506 72.4522 111.735 71.6435 112.025 70.4368C113.13 71.9566 113.605 72.6503 114.65 74.176L114.727 74.2881ZM123.007 77.6901C122.822 77.5658 122.665 77.4028 122.545 77.212C122.426 77.0211 122.348 76.8067 122.316 76.5828L122.308 76.547C121.433 72.5591 120.993 70.5531 120.132 66.5373C120.074 66.3138 120.061 66.0806 120.093 65.8517C120.125 65.6228 120.203 65.403 120.32 65.2054C120.593 64.8154 121.005 64.5503 121.467 64.4672C121.929 64.3304 122.425 64.3822 122.85 64.6116C123.043 64.7379 123.209 64.9023 123.338 65.0952C123.468 65.2882 123.558 65.5057 123.604 65.735C124.012 67.4992 124.323 68.8186 124.633 70.1377L124.633 70.1399L124.633 70.142C124.944 71.4612 125.254 72.7806 125.662 74.5448C127.469 74.1116 128.364 73.8869 130.171 73.4055C131.302 73.1006 131.978 73.4055 132.229 74.3362C132.298 74.5298 132.32 74.7377 132.293 74.9418C132.265 75.1459 132.19 75.3401 132.072 75.5077C131.752 75.8533 131.335 76.0888 130.878 76.1816C128.27 76.8717 126.966 77.1926 124.358 77.7864C123.912 77.9327 123.428 77.8983 123.007 77.6901Z" fill="url(#paint1_linear)"/>
<rect x="32" y="31" width="80" height="30" rx="5.625" fill="black" fill-opacity="0.18"/>
<rect x="29" y="25" width="86" height="32" rx="6" fill="url(#paint2_linear)"/>
<rect x="29" y="25" width="86" height="32" rx="6" fill="url(#paint3_linear)"/>
<path d="M29 45.4V47.4C29 50.7603 29 52.4405 29.6539 53.7239C30.2292 54.8529 31.1471 55.7708 32.2761 56.346C33.5595 57 35.2397 57 38.6 57H105.4C108.76 57 110.44 57 111.724 56.346C112.853 55.7708 113.771 54.8529 114.346 53.7239C115 52.4405 115 50.7603 115 47.4V45.4C115 48.7603 115 50.4405 114.346 51.7239C113.771 52.8529 112.853 53.7708 111.724 54.346C110.44 55 108.76 55 105.4 55H38.6C35.2397 55 33.5595 55 32.2761 54.346C31.1471 53.7708 30.2292 52.8529 29.6539 51.7239C29 50.4405 29 48.7603 29 45.4Z" fill="#BE2C01"/>
<rect x="29.2966" y="25.2966" width="85.4068" height="29.4068" rx="5.70338" fill="url(#paint4_linear)" fill-opacity="0.4" stroke="#FFF6AD" stroke-width="0.593231" stroke-linecap="round"/>
<path opacity="0.25" d="M29.0759 30.7334C29 31.7219 29 32.9611 29 34.6V47.4C29 50.7603 29 52.4405 29.6539 53.7239C29.9168 54.2397 30.2512 54.7115 30.6445 55.1266L33.8408 50.7845C36.6008 47.035 36.6008 40.9559 33.8408 37.2065L29.0759 30.7334Z" fill="black"/>
<path d="M17.4158 23.9737H20.5144V23.9785C22.279 24.0229 24.0336 24.9597 25.3801 26.789L30.8402 34.2065C33.6003 37.956 33.6003 44.035 30.8402 47.7845L25.3801 55.202C23.962 57.1285 22.0912 58.0651 20.2328 58.012H17.4158V57.1301C16.6804 56.6684 15.9914 56.0256 15.3852 55.202L9.92509 47.7845C7.16503 44.035 7.16503 37.956 9.92509 34.2065L15.3852 26.789C15.9914 25.9654 16.6804 25.3226 17.4158 24.8609V23.9737Z" fill="url(#paint5_linear)"/>
<path d="M27.9128 47.7845C30.6728 44.0351 30.6728 37.956 27.9128 34.2065L22.4527 26.789C19.6927 23.0396 15.2178 23.0396 12.4577 26.789L6.99763 34.2065C4.2376 37.956 4.2376 44.0351 6.99763 47.7845L12.4577 55.202C15.2178 58.9515 19.6927 58.9515 22.4527 55.202L27.9128 47.7845Z" fill="url(#paint6_linear)"/>
<path d="M17.4279 24.0636C15.9473 24.3347 14.5178 25.2432 13.3797 26.7892L7.91965 34.2066C5.15959 37.9562 5.15959 44.0352 7.91965 47.7847L13.3797 55.2021C14.5036 56.7289 15.9118 57.6341 17.3728 57.9175L22.5922 53.4131L22.5272 52.959L22.1254 53.5049C20.0553 56.317 16.6991 56.317 14.6291 53.5049L9.16901 46.0874C7.09898 43.2754 7.09898 38.716 9.16901 35.9039L14.6291 28.4865C15.7522 26.9607 17.254 26.2628 18.7236 26.3927L18.6502 25.8807L17.4279 24.0636Z" fill="black" fill-opacity="0.12"/>
<path fill-rule="evenodd" clip-rule="evenodd" d="M21.2033 28.4863L26.6634 35.9038C28.7334 38.7159 28.7334 43.2752 26.6634 46.0873L21.2033 53.5048C19.1332 56.3169 15.7771 56.3169 13.707 53.5048L8.24695 46.0873C6.17692 43.2752 6.17692 38.7159 8.24695 35.9038L13.707 28.4863C15.7771 25.6742 19.1332 25.6742 21.2033 28.4863ZM27.9127 34.2065C30.6728 37.956 30.6728 44.0351 27.9127 47.7845L22.4526 55.202C19.6926 58.9515 15.2177 58.9515 12.4577 55.202L6.99758 47.7845C4.23754 44.0351 4.23754 37.956 6.99758 34.2065L12.4577 26.7891C15.2177 23.0396 19.6926 23.0396 22.4526 26.7891L27.9127 34.2065Z" fill="#B6EDFF"/>
<path d="M12.0018 48.2409L9.74583 45.1763C7.84953 42.6002 7.84953 39.0901 9.74583 36.514L15.229 29.0652C16.3502 27.542 18.6257 27.5391 19.7508 29.0594L20.6531 30.2788C20.8152 30.4979 20.5801 30.8803 20.3093 30.9114C19.8638 30.9625 19.3314 31.1646 18.9331 31.7534C17.185 34.3376 14.3053 39.6762 13.3047 47.8838C13.2261 48.5286 12.3868 48.7641 12.0018 48.2409Z" fill="url(#paint7_linear)" fill-opacity="0.7"/>
<path d="M18.7741 34.8462C19.3777 34.8462 19.8669 35.3355 19.8669 35.939V39.2999H21.6609C22.4808 39.2999 23.1455 39.9645 23.1455 40.7845C23.1455 41.6045 22.4808 42.2691 21.6609 42.2691H19.8669V45.6302C19.8669 46.2337 19.3777 46.7231 18.7741 46.7231C18.1705 46.7231 17.6813 46.2337 17.6813 45.6302V42.2691H15.8874C15.0675 42.2691 14.4028 41.6045 14.4028 40.7845C14.4028 39.9645 15.0675 39.2999 15.8874 39.2999H17.6813V35.939C17.6813 35.3355 18.1705 34.8462 18.7741 34.8462Z" fill="url(#paint8_linear)"/>
<path d="M17.619 34.8462C18.2397 34.8462 18.743 35.3494 18.743 35.9703V39.2999H20.5369C21.3568 39.2999 22.0215 39.9645 22.0215 40.7845C22.0215 41.6045 21.3568 42.2691 20.5369 42.2691H18.743V45.599C18.743 46.2198 18.2397 46.7231 17.619 46.7231H16.5573V42.2691H14.7634C13.9435 42.2691 13.2788 41.6045 13.2788 40.7845C13.2788 39.9645 13.9435 39.2999 14.7634 39.2999H16.5573V34.8462H17.619Z" fill="url(#paint9_linear)"/>
<path d="M16.5567 34.8462C17.1603 34.8462 17.6496 35.3355 17.6496 35.939V39.3003H19.4435C20.2634 39.3003 20.9281 39.9649 20.9281 40.7849C20.9281 41.6049 20.2634 42.2695 19.4435 42.2695H17.6496V45.6302C17.6496 46.2337 17.1603 46.7231 16.5567 46.7231C15.9532 46.7231 15.4639 46.2337 15.4639 45.6302V42.2695H13.67C12.8501 42.2695 12.1854 41.6049 12.1854 40.7849C12.1854 39.9649 12.8501 39.3003 13.67 39.3003H15.4639V35.939C15.4639 35.3355 15.9532 34.8462 16.5567 34.8462Z" fill="url(#paint10_linear)"/>
<path opacity="0.25" d="M114.952 30.7334C115.028 31.7219 115.028 32.9611 115.028 34.6V47.4C115.028 50.7603 115.028 52.4405 114.374 53.7239C114.111 54.2397 113.777 54.7115 113.384 55.1266L110.187 50.7845C107.427 47.035 107.427 40.9559 110.187 37.2065L114.952 30.7334Z" fill="black"/>
<path d="M126.835 23.9737H123.736V23.9785C121.971 24.0229 120.217 24.9597 118.87 26.789L113.41 34.2065C110.65 37.956 110.65 44.035 113.41 47.7845L118.87 55.202C120.288 57.1285 122.159 58.0652 124.017 58.012H126.835V57.1301C127.57 56.6684 128.259 56.0256 128.865 55.202L134.325 47.7845C137.085 44.035 137.085 37.956 134.325 34.2065L128.865 26.789C128.259 25.9654 127.57 25.3226 126.835 24.8609V23.9737Z" fill="url(#paint11_linear)"/>
<path d="M116.338 47.7845C113.578 44.0351 113.578 37.956 116.338 34.2065L121.798 26.789C124.558 23.0396 129.033 23.0396 131.793 26.789L137.253 34.2065C140.013 37.956 140.013 44.0351 137.253 47.7845L131.793 55.202C129.033 58.9515 124.558 58.9515 121.798 55.202L116.338 47.7845Z" fill="url(#paint12_linear)"/>
<path d="M126.878 57.9173C128.339 57.6338 129.747 56.7289 130.871 55.2021L136.331 47.7847C139.091 44.0352 139.091 37.9562 136.331 34.2066L130.871 26.7892C129.689 25.184 128.193 24.2659 126.652 24.0351L125.765 24.7289L125.527 26.3927C126.996 26.2628 128.498 26.9607 129.621 28.4865L135.081 35.9039C137.151 38.716 137.151 43.2754 135.081 46.0874L129.621 53.5049C127.551 56.317 124.195 56.317 122.125 53.5049L121.723 52.959L121.658 53.413L126.878 57.9173Z" fill="black" fill-opacity="0.12"/>
<path fill-rule="evenodd" clip-rule="evenodd" d="M123.047 28.4863L117.587 35.9038C115.517 38.7159 115.517 43.2752 117.587 46.0873L123.047 53.5047C125.117 56.3168 128.473 56.3168 130.543 53.5047L136.003 46.0873C138.073 43.2752 138.073 38.7159 136.003 35.9038L130.543 28.4863C128.473 25.6742 125.117 25.6742 123.047 28.4863ZM116.338 34.2065C113.578 37.956 113.578 44.0351 116.338 47.7845L121.798 55.202C124.558 58.9515 129.033 58.9515 131.793 55.202L137.253 47.7845C140.013 44.0351 140.013 37.956 137.253 34.2065L131.793 26.789C129.033 23.0396 124.558 23.0396 121.798 26.789L116.338 34.2065Z" fill="#B6EDFF"/>
<path d="M121.46 48.2409L119.204 45.1763C117.308 42.6002 117.308 39.0901 119.204 36.514L124.688 29.0652C125.809 27.542 128.084 27.5391 129.209 29.0594L130.112 30.2788C130.274 30.4979 130.039 30.8803 129.768 30.9114C129.322 30.9625 128.79 31.1646 128.392 31.7534C126.644 34.3376 123.764 39.6762 122.763 47.8838C122.685 48.5286 121.845 48.7641 121.46 48.2409Z" fill="url(#paint13_linear)" fill-opacity="0.7"/>
<path d="M125.476 34.8462C124.873 34.8462 124.383 35.3355 124.383 35.939V39.3H122.59C121.77 39.3 121.105 39.9645 121.105 40.7845C121.105 41.6045 121.77 42.2691 122.59 42.2691H124.383V45.6302C124.383 46.2337 124.873 46.7231 125.476 46.7231C126.08 46.7231 126.569 46.2337 126.569 45.6302V42.2691H128.363C129.183 42.2691 129.848 41.6045 129.848 40.7845C129.848 39.9645 129.183 39.3 128.363 39.3H126.569V35.939C126.569 35.3355 126.08 34.8462 125.476 34.8462Z" fill="url(#paint14_linear)"/>
<path d="M126.631 34.8462C126.011 34.8462 125.507 35.3494 125.507 35.9703V39.3H123.713C122.894 39.3 122.229 39.9645 122.229 40.7845C122.229 41.6045 122.894 42.2691 123.713 42.2691H125.507V45.599C125.507 46.2198 126.011 46.7231 126.631 46.7231H127.693V42.2691H129.487C130.307 42.2691 130.972 41.6045 130.972 40.7845C130.972 39.9645 130.307 39.3 129.487 39.3H127.693V34.8462H126.631Z" fill="url(#paint15_linear)"/>
<path d="M127.694 34.8462C127.09 34.8462 126.601 35.3355 126.601 35.939V39.3003H124.807C123.987 39.3003 123.322 39.9649 123.322 40.7849C123.322 41.6049 123.987 42.2695 124.807 42.2695H126.601V45.6302C126.601 46.2337 127.09 46.7231 127.694 46.7231C128.297 46.7231 128.786 46.2337 128.786 45.6302V42.2695H130.58C131.4 42.2695 132.065 41.6049 132.065 40.7849C132.065 39.9649 131.4 39.3003 130.58 39.3003H128.786V35.939C128.786 35.3355 128.297 34.8462 127.694 34.8462Z" fill="url(#paint16_linear)"/>
</svg>
