<svg width="20" height="22" viewBox="0 0 20 22" fill="none" xmlns="http://www.w3.org/2000/svg">
<defs>
<linearGradient id="paint0_linear" x1="9.89953" y1="9.8995" x2="16.9706" y2="16.9705" gradientUnits="userSpaceOnUse">
<stop stop-color="#35CCFC"/>
<stop offset="1" stop-color="#414CBE"/>
</linearGradient>
<linearGradient id="paint1_linear" x1="11.3137" y1="11.3137" x2="8.48526" y2="8.48529" gradientUnits="userSpaceOnUse">
<stop stop-color="#E3F8FF"/>
<stop offset="1" stop-color="white"/>
</linearGradient>
<linearGradient id="paint2_linear" x1="7.14175" y1="6.43464" x2="12.445" y2="11.7379" gradientUnits="userSpaceOnUse">
<stop stop-color="white"/>
<stop offset="1" stop-color="white" stop-opacity="0"/>
</linearGradient>
</defs>
<path d="M3 14.4142C1.34314 12.7573 1.34315 10.071 3 8.41418L7 4.41418C8.65686 2.75733 11.3431 2.75733 13 4.41418L17 8.41419C18.6569 10.071 18.6569 12.7573 17 14.4142L13 18.4142C11.3431 20.071 8.65685 20.071 7 18.4142L3 14.4142Z" fill="black" fill-opacity="0.15"/>
<path d="M3.375 7.37497L7.375 3.37497C8.82474 1.92523 11.1753 1.92522 12.625 3.37497L16.625 7.37497C18.0747 8.82471 18.0747 11.1752 16.625 12.625L12.625 16.625C11.1753 18.0747 8.82475 18.0747 7.375 16.625L3.375 12.625C1.92526 11.1752 1.92525 8.82472 3.375 7.37497Z" fill="url(#paint0_linear)" stroke="#B6EDFF" stroke-width="1.06066"/>
<path fill-rule="evenodd" clip-rule="evenodd" d="M9.89948 7.77817C9.50897 7.77817 9.19238 8.09476 9.19238 8.48526V9.89951H7.07104V10.6066C7.07104 10.9971 7.38763 11.3137 7.77814 11.3137H9.19238V12.7279C9.19238 13.1184 9.50897 13.435 9.89948 13.435C10.29 13.435 10.6066 13.1184 10.6066 12.7279V11.3137H12.0208C12.4113 11.3137 12.7279 10.9971 12.7279 10.6066V9.89951H10.6066V8.48526C10.6066 8.09476 10.29 7.77817 9.89948 7.77817Z" fill="black" fill-opacity="0.2"/>
<path fill-rule="evenodd" clip-rule="evenodd" d="M9.89948 7.07108C9.50897 7.07108 9.19238 7.38766 9.19238 7.77817V9.19238H7.77814C7.38763 9.19238 7.07104 9.50897 7.07104 9.89951C7.07104 10.29 7.38763 10.6066 7.77814 10.6066H9.19238V12.0208C9.19238 12.4113 9.50897 12.7279 9.89948 12.7279C10.29 12.7279 10.6066 12.4113 10.6066 12.0208V10.6066H12.0208C12.4113 10.6066 12.7279 10.29 12.7279 9.89951C12.7279 9.50897 12.4113 9.19238 12.0208 9.19238H10.6066V7.77817C10.6066 7.38766 10.29 7.07108 9.89948 7.07108Z" fill="url(#paint1_linear)"/>
<path d="M6.62159 13.6927L4.39911 11.4702C3.57068 10.6417 3.57068 9.2986 4.39911 8.47018L8.47018 4.39911C9.2986 3.57068 10.6417 3.57068 11.4702 4.39911L13.6927 6.62159C13.9023 6.83122 13.7815 7.20955 13.4932 7.27851C11.8915 7.66156 8.10626 9.02779 7.25163 13.483C7.19578 13.7742 6.83122 13.9023 6.62159 13.6927Z" fill="url(#paint2_linear)" fill-opacity="0.7"/>
</svg>
