<svg width="13" height="19" viewBox="0 0 13 19" fill="none" xmlns="http://www.w3.org/2000/svg">
<path fill-rule="evenodd" clip-rule="evenodd" d="M9.40932 7.98177L12.0793 5.33094C12.18 5.23553 12.2126 5.08894 12.1721 4.9574C12.1287 4.82484 12.0172 4.72543 11.8801 4.70736L8.18489 4.1601L6.53608 0.756073C6.41371 0.503021 6.00917 0.503021 5.88685 0.756073L4.23811 4.1601L0.54286 4.70736C0.405714 4.72644 0.294202 4.82485 0.250806 4.9574C0.211317 5.08994 0.243909 5.23654 0.344556 5.33194L3.01448 7.98277L2.38301 11.7282C2.36128 11.8637 2.41554 12.0033 2.52705 12.0877C2.63856 12.169 2.78657 12.18 2.90596 12.1138L6.21138 10.3475L9.5179 12.1118C9.56819 12.1409 9.62544 12.1559 9.68367 12.1559C9.72493 12.1559 9.76509 12.1485 9.80354 12.1347C9.83589 12.123 9.86708 12.1068 9.8968 12.0867C10.0083 12.0023 10.0625 11.8627 10.0408 11.7272L9.40932 7.98177ZM6.21162 11.1773L4.40004 12.1453L4.06849 15.6026H8.35481L8.02327 12.1453L6.21162 11.1773ZM8.56776 16.3366H3.85536C3.18739 16.3366 2.64271 16.8879 2.64271 17.5707V18.5437C2.64271 18.7456 2.80549 18.9113 3.00386 18.9113H9.41926C9.61757 18.9113 9.78041 18.7456 9.78041 18.5437V17.5707C9.78041 16.8879 9.23573 16.3366 8.56776 16.3366Z" fill="#FFF6AD"/>
</svg>
