<svg width="121" height="120" viewBox="0 0 121 120" fill="none" xmlns="http://www.w3.org/2000/svg">
<defs>
<linearGradient id="paint0_linear" x1="46.6618" y1="97.4704" x2="71.48" y2="97.4704" gradientUnits="userSpaceOnUse">
<stop stop-color="#E6EEF1"/>
<stop offset="1" stop-color="#BAD0D7"/>
</linearGradient>
<linearGradient id="paint1_linear" x1="72.7523" y1="99.2125" x2="93.7523" y2="99.2125" gradientUnits="userSpaceOnUse">
<stop stop-color="#E6EEF1"/>
<stop offset="1" stop-color="#BAD0D7"/>
</linearGradient>
<linearGradient id="paint2_linear" x1="24.7523" y1="99.2125" x2="45.7523" y2="99.2125" gradientUnits="userSpaceOnUse">
<stop stop-color="#E6EEF1"/>
<stop offset="1" stop-color="#BAD0D7"/>
</linearGradient>
<linearGradient id="paint3_linear" x1="42.2495" y1="52" x2="78.5702" y2="52" gradientUnits="userSpaceOnUse">
<stop stop-color="white" stop-opacity="0.2"/>
<stop offset="1" stop-color="white"/>
</linearGradient>
</defs>
<path d="M60.25 115C90.6264 115 115.25 90.3764 115.25 60C115.25 29.6236 90.6264 5 60.25 5C29.8736 5 5.25 29.6236 5.25 60C5.25 90.3764 29.8736 115 60.25 115Z" fill="#35CCFC" stroke="white" stroke-width="10"/>
<path fill-rule="evenodd" clip-rule="evenodd" d="M47.25 108.293V83C47.25 82.4477 47.6977 82 48.25 82H72.25C72.8023 82 73.25 82.4477 73.25 83V108.293C69.1234 109.401 64.786 109.995 60.3109 110H60.1891C55.714 109.995 51.3766 109.401 47.25 108.293Z" fill="url(#paint0_linear)"/>
<path fill-rule="evenodd" clip-rule="evenodd" d="M95.25 95.7078C89.2073 101.631 81.6672 106.033 73.25 108.293V88H94.25C94.8023 88 95.25 88.4477 95.25 89V95.7078Z" fill="url(#paint1_linear)"/>
<path fill-rule="evenodd" clip-rule="evenodd" d="M25.25 95.7078V89C25.25 88.4477 25.6977 88 26.25 88H47.25V108.293C38.8328 106.033 31.2927 101.631 25.25 95.7078Z" fill="url(#paint2_linear)"/>
<path d="M85.1778 94.7636C85.5738 94.8758 85.8807 95.0804 86.0985 95.3774C86.3229 95.6744 86.4351 96.034 86.4351 96.4564C86.4351 97.0702 86.1909 97.5553 85.7025 97.9116C85.2207 98.2614 84.5608 98.4363 83.7226 98.4363C83.2276 98.4363 82.7525 98.3703 82.2971 98.2383C81.8417 98.0997 81.4787 97.9182 81.2081 97.6939L81.7724 96.4069C82.3928 96.8227 83.0131 97.0306 83.6335 97.0306C84.0295 97.0306 84.31 96.9712 84.475 96.8524C84.6466 96.7336 84.7324 96.5356 84.7324 96.2584C84.7324 96.001 84.6499 95.8162 84.4849 95.7041C84.3199 95.5919 84.0493 95.5358 83.6731 95.5358H82.5941V94.13H83.4949C83.8579 94.13 84.1219 94.0772 84.2869 93.9716C84.4519 93.866 84.5344 93.6978 84.5344 93.4668C84.5344 93.2226 84.4552 93.0345 84.2968 92.9025C84.145 92.7639 83.9272 92.6946 83.6434 92.6946C83.3662 92.6946 83.0725 92.7507 82.7624 92.8629C82.4522 92.9685 82.1552 93.1203 81.8714 93.3183L81.3071 92.0313C81.5843 91.807 81.9473 91.6288 82.3961 91.4968C82.8514 91.3582 83.3134 91.2889 83.782 91.2889C84.277 91.2889 84.7093 91.3681 85.0788 91.5265C85.455 91.6849 85.7454 91.9092 85.95 92.1996C86.1546 92.49 86.2569 92.8266 86.2569 93.2094C86.2569 93.579 86.1612 93.899 85.9698 94.1696C85.785 94.4402 85.521 94.6382 85.1778 94.7636Z" fill="white"/>
<path d="M38.4599 96.9118V98.3571H33.5398V97.0108L35.8167 94.6448C36.2523 94.1894 36.4701 93.7704 36.4701 93.3876C36.4701 92.9256 36.1962 92.6946 35.6484 92.6946C35.3844 92.6946 35.0974 92.7507 34.7872 92.8629C34.4836 92.9685 34.1767 93.1203 33.8665 93.3183L33.3022 92.0313C33.5794 91.807 33.9391 91.6288 34.3813 91.4968C34.8301 91.3582 35.2854 91.2889 35.7474 91.2889C36.249 91.2889 36.6879 91.3714 37.0641 91.5364C37.4468 91.6948 37.7405 91.9224 37.9451 92.2194C38.1497 92.5164 38.252 92.8629 38.252 93.2589C38.252 93.6615 38.1695 94.031 38.0045 94.3676C37.8461 94.6976 37.5722 95.0672 37.1828 95.4764L35.7771 96.9118H38.4599Z" fill="white"/>
<path d="M61.3954 92.0932H63.0966V93.7381H57.6211V92.0932H59.3223V88.0485L57.9816 88.8146L57.238 87.3275L59.9307 85.7952H61.3954V92.0932Z" fill="white"/>
<path d="M67.25 46.65C67.5 46.65 67.75 46.6 67.9 46.5C68.1 46.4 68.25 46.3 68.4 46.15L73.0999 41.5C73.3999 41.15 73.5499 40.75 73.5499 40.35C73.5499 39.95 73.3999 39.5 73.0999 39.2C72.7499 38.85 72.35 38.7 71.95 38.7C71.55 38.7 71.0999 38.85 70.7999 39.2L66.0999 43.85C65.7999 44.2 65.65 44.6 65.65 45C65.65 45.45 65.7999 45.85 66.0999 46.15C66.2999 46.3 66.5 46.45 66.7 46.5C66.9 46.6 67.1 46.65 67.25 46.65ZM52.1 57.85L47.4 62.5C47.0999 62.85 46.95 63.25 46.95 63.65C46.95 64.1 47.0999 64.5 47.4 64.8C47.5999 64.95 47.8 65.1 48 65.15C48.2 65.25 48.3999 65.3 48.5499 65.3C48.7499 65.3 48.95 65.25 49.15 65.15C49.3499 65.05 49.55 64.95 49.7 64.8L54.4 60.1C54.7 59.8 54.85 59.4 54.85 58.95C54.85 58.5 54.7 58.1 54.4 57.8C54.0499 57.45 53.65 57.3 53.15 57.3C52.7 57.35 52.35 57.5 52.1 57.85ZM76.95 50.35H70.25C69.75 50.35 69.3499 50.5 69.0499 50.8C68.75 51.1 68.5499 51.5 68.5499 52C68.5499 52.5 68.7 52.95 69 53.25C69.2999 53.55 69.7 53.7 70.2 53.7H76.9C77.4 53.7 77.7999 53.55 78.0999 53.25C78.3999 52.95 78.5499 52.55 78.5499 52C78.5499 51.5 78.3999 51.1 78.0999 50.8C77.7999 50.5 77.4 50.35 76.95 50.35ZM51.95 52C51.95 51.5 51.8 51.1 51.5 50.8C51.2 50.5 50.75 50.35 50.25 50.35H43.5499C43.0499 50.35 42.65 50.5 42.35 50.8C42.05 51.1 41.95 51.5 41.95 52C41.95 52.5 42.1 52.95 42.4 53.25C42.7 53.55 43.1 53.7 43.6 53.7H50.25C50.75 53.7 51.15 53.55 51.45 53.25C51.75 52.95 51.95 52.5 51.95 52ZM68.4 57.85C68.05 57.5 67.65 57.35 67.25 57.35C66.85 57.35 66.3999 57.5 66.0999 57.85C65.7999 58.15 65.65 58.55 65.65 59C65.65 59.45 65.7999 59.85 66.0999 60.15L70.7999 64.85C70.9499 65 71.1499 65.15 71.3499 65.2C71.5499 65.3 71.75 65.35 71.95 65.35C72.1 65.35 72.2999 65.3 72.5 65.2C72.7 65.1 72.8999 65 73.0999 64.85C73.3999 64.5 73.5499 64.1 73.5499 63.7C73.5499 63.25 73.3999 62.85 73.0999 62.55L68.4 57.85ZM49.6 39C49.25 38.65 48.85 38.5 48.45 38.5C48.05 38.5 47.5999 38.65 47.2999 39C46.9499 39.3 46.7999 39.7 46.7999 40.15C46.7999 40.6 46.9499 41 47.2999 41.3L52 46C52.15 46.15 52.3499 46.3 52.5499 46.35C52.7499 46.45 52.95 46.5 53.15 46.5C53.2999 46.5 53.5 46.45 53.7 46.35C53.9 46.25 54.1 46.15 54.25 46C54.6 45.65 54.75 45.25 54.75 44.85C54.75 44.4 54.6 44 54.25 43.7L49.6 39ZM60.25 60.35C59.75 60.35 59.3499 60.5 59.0499 60.8C58.75 61.1 58.5499 61.5 58.5499 62V68.7C58.5499 69.2 58.7 69.6 59 69.9C59.2999 70.2 59.7 70.35 60.2 70.35C60.7 70.35 61.1 70.2 61.4 69.9C61.7 69.6 61.8499 69.2 61.8499 68.7V62C61.8499 61.5 61.7 61.1 61.4 60.8C61.1 60.5 60.75 60.35 60.25 60.35ZM60.25 33.65C59.75 33.65 59.3499 33.8 59.0499 34.1C58.75 34.4 58.5999 34.8 58.5999 35.35V42C58.5999 42.5 58.75 42.95 59.0499 43.25C59.3499 43.55 59.75 43.7 60.25 43.7C60.75 43.7 61.15 43.55 61.45 43.25C61.75 42.95 61.9 42.55 61.9 42V35.35C61.9 34.85 61.75 34.4 61.45 34.1C61.15 33.8 60.75 33.65 60.25 33.65Z" fill="url(#paint3_linear)"/>
</svg>
