<svg width="200" height="50" viewBox="0 0 200 50" fill="none" xmlns="http://www.w3.org/2000/svg">
<defs>
<linearGradient id="paint0_linear" x1="63.6626" y1="13.5169" x2="156.25" y2="13.5169" gradientUnits="userSpaceOnUse">
<stop offset="0.0996389" stop-color="#F1AD97"/>
<stop offset="1" stop-color="#FF49ED"/>
</linearGradient>
<linearGradient id="paint1_linear" x1="63.6626" y1="13.5169" x2="156.25" y2="13.5169" gradientUnits="userSpaceOnUse">
<stop offset="0.0996389" stop-color="#F1AD97"/>
<stop offset="1" stop-color="#FF49ED"/>
</linearGradient>
<linearGradient id="paint2_linear" x1="63.6626" y1="13.5169" x2="156.25" y2="13.5169" gradientUnits="userSpaceOnUse">
<stop offset="0.0996389" stop-color="#F1AD97"/>
<stop offset="1" stop-color="#FF49ED"/>
</linearGradient>
<linearGradient id="paint3_linear" x1="63.6626" y1="13.5169" x2="156.25" y2="13.5169" gradientUnits="userSpaceOnUse">
<stop offset="0.0996389" stop-color="#F1AD97"/>
<stop offset="1" stop-color="#FF49ED"/>
</linearGradient>
<linearGradient id="paint4_linear" x1="63.6626" y1="13.5169" x2="156.25" y2="13.5169" gradientUnits="userSpaceOnUse">
<stop offset="0.0996389" stop-color="#F1AD97"/>
<stop offset="1" stop-color="#FF49ED"/>
</linearGradient>
<clipPath id="clip0">
<rect width="188" height="16" fill="white" transform="translate(6 30)"/>
</clipPath>
<clipPath id="clip1">
<rect width="188" height="16" fill="white" transform="translate(6 29)"/>
</clipPath>
</defs>
<g clip-path="url(#clip0)">
<path d="M162.771 32.7648C161.295 31.2942 159.348 30.4707 157.283 30.4707C155.218 30.4707 153.271 31.2942 151.796 32.706L151.501 33.0001L153.153 34.6472L153.448 34.3531C154.451 33.3531 155.808 32.7648 157.283 32.7648C158.699 32.7648 160.056 33.3531 161.118 34.3531C162.122 35.3531 162.712 36.706 162.712 38.1766C162.712 39.5883 162.122 40.9413 161.118 42.0001C158.994 44.1178 155.572 44.1178 153.507 42.0001L147.135 35.706C146.427 34.8236 145.306 34.2942 144.067 34.2942C141.884 34.2942 140.113 36.0589 140.113 38.2354C140.113 40.4119 141.884 42.1766 144.067 42.1766C145.719 42.1766 147.194 41.1178 147.725 39.706L151.737 43.706C154.746 46.706 159.702 46.706 162.712 43.706C164.187 42.2354 165.013 40.2942 165.013 38.2354C165.072 36.1766 164.246 34.2354 162.771 32.7648Z" fill="black" fill-opacity="0.2"/>
<path d="M147.902 41.9999C146.899 42.9999 145.542 43.5881 144.067 43.5881C142.651 43.5881 141.294 42.9999 140.231 41.9999C139.228 40.9999 138.638 39.647 138.638 38.1764C138.638 36.7646 139.228 35.4117 140.231 34.3529C142.356 32.2352 145.778 32.2352 147.843 34.3529L154.215 40.647C154.923 41.5293 156.044 42.0587 157.283 42.0587C159.466 42.0587 161.236 40.294 161.236 38.1176C161.236 35.9411 159.466 34.1764 157.283 34.1764C155.631 34.1764 154.156 35.2352 153.625 36.647L149.613 32.647C146.604 29.647 141.648 29.647 138.638 32.647C137.163 34.1176 136.337 36.0587 136.337 38.1176C136.337 40.1764 137.163 42.1176 138.638 43.5881C140.113 45.0587 142.061 45.8823 144.126 45.8823C146.191 45.8823 148.138 45.0587 149.613 43.647L149.908 43.3529L148.256 41.7058L147.902 41.9999Z" fill="black" fill-opacity="0.2"/>
<path d="M12.7263 45.8236H6V30.4707H12.0183C13.0803 30.4707 13.9654 30.5884 14.7324 30.8236C15.4995 31.0589 16.0895 31.4119 16.4435 31.8236C17.1515 32.5884 17.5056 33.5295 17.5056 34.5295C17.5056 35.706 17.0925 36.6472 16.3255 37.2354C16.0895 37.4119 15.8535 37.5884 15.7945 37.6472C15.6765 37.706 15.4995 37.7648 15.2635 37.8825C16.2075 38.0589 16.9745 38.5295 17.5646 39.1766C18.1546 39.8236 18.3906 40.6472 18.3906 41.5884C18.3906 42.6472 18.0366 43.5884 17.2695 44.4119C16.3845 45.3531 14.8504 45.8236 12.7263 45.8236ZM9.42217 36.706H11.0742C12.0183 36.706 12.7263 36.5884 13.1983 36.4119C13.6704 36.2354 13.9064 35.7648 13.9064 35.0589C13.9064 34.3531 13.6704 33.9413 13.2574 33.706C12.8443 33.4707 12.1363 33.3531 11.0742 33.3531H9.42217V36.706ZM9.42217 42.9413H11.7823C12.7853 42.9413 13.4934 42.8236 14.0244 42.5884C14.4964 42.3531 14.7914 41.8825 14.7914 41.1766C14.7914 40.4707 14.5554 40.0001 14.0244 39.7648C13.4934 39.5295 12.6673 39.4119 11.5463 39.4119H9.54017V42.9413H9.42217Z" fill="black" fill-opacity="0.2"/>
<path d="M31.0172 30.4707V33.5295H23.3469V36.706H30.2502V39.6472H23.3469V42.8236H31.2532V45.8825H19.8657V30.4707H31.0172Z" fill="black" fill-opacity="0.2"/>
<path d="M43.8208 30.4707H47.243V45.8236H43.8208L36.4454 36.2354V45.8825H33.0233V30.4707H36.2684L43.8208 40.3531V30.4707Z" fill="black" fill-opacity="0.2"/>
<path d="M61.5217 32.4707C62.9968 33.8236 63.7048 35.6472 63.7048 38.0589C63.7048 40.4707 62.9968 42.3531 61.5807 43.706C60.1647 45.1178 57.9816 45.7648 55.0314 45.7648H49.7802V30.4707H55.2084C57.9226 30.4707 60.0467 31.1766 61.5217 32.4707ZM58.9846 41.5884C59.8107 40.8236 60.2827 39.6472 60.2827 38.1178C60.2827 36.5884 59.8697 35.4707 58.9846 34.6472C58.1586 33.8236 56.8605 33.4119 55.0904 33.4119H53.1433V42.8236H55.3264C56.9195 42.8236 58.0996 42.4119 58.9846 41.5884Z" fill="black" fill-opacity="0.2"/>
<path d="M65.3569 30.4707H68.779V45.8236H65.3569V30.4707Z" fill="black" fill-opacity="0.2"/>
<path d="M82.0547 30.4707H85.4769V45.8236H82.0547L74.6794 36.1766V45.8236H71.2572V30.4707H74.5024L82.0547 40.3531V30.4707Z" fill="black" fill-opacity="0.2"/>
<path d="M97.9855 38H101.467V43.4706C99.9326 45.1765 97.8085 46 95.0944 46C92.8522 46 90.9051 45.2353 89.3711 43.7647C87.837 42.2941 87.07 40.4118 87.07 38.1177C87.07 35.8236 87.837 33.9412 89.4301 32.4118C91.0231 30.8824 92.9112 30.1177 95.0944 30.1177C97.3365 30.1177 99.2246 30.8236 100.877 32.2941L99.1066 34.8824C98.3985 34.2941 97.7495 33.8824 97.2185 33.6471C96.6284 33.4118 95.9794 33.2941 95.3304 33.2941C94.0323 33.2941 92.9112 33.7647 92.0262 34.6471C91.1412 35.5294 90.6691 36.7059 90.6691 38.1765C90.6691 39.6471 91.0822 40.7647 91.9672 41.6471C92.8522 42.5294 93.8553 42.9412 95.0353 42.9412C96.2154 42.9412 97.2185 42.7059 98.0445 42.2353V38H97.9855Z" fill="black" fill-opacity="0.2"/>
<path d="M114.034 33.5294C113.68 33.8235 113.562 34.1765 113.562 34.5882C113.562 35.0588 113.739 35.4118 114.152 35.6471C114.565 35.8824 115.509 36.2353 116.984 36.5882C118.459 36.9412 119.58 37.4706 120.406 38.1765C121.233 38.8824 121.646 39.9412 121.646 41.2941C121.646 42.6471 121.115 43.7647 120.111 44.6471C119.049 45.5294 117.692 45.9412 116.04 45.9412C113.621 45.9412 111.379 45.0588 109.432 43.2353L111.497 40.7059C113.149 42.1765 114.683 42.8824 116.099 42.8824C116.748 42.8824 117.22 42.7647 117.574 42.4706C117.928 42.1765 118.105 41.8235 118.105 41.3529C118.105 40.8824 117.928 40.5294 117.515 40.2353C117.161 39.9412 116.394 39.7059 115.214 39.4118C113.444 39 112.087 38.4118 111.261 37.7647C110.435 37.0588 110.022 36 110.022 34.5294C110.022 33.0588 110.553 31.9412 111.615 31.1765C112.677 30.4118 113.975 30 115.568 30C116.571 30 117.633 30.1765 118.636 30.5294C119.639 30.8824 120.584 31.3529 121.351 32L119.58 34.5294C118.223 33.5294 116.866 33 115.45 33C114.86 33.1176 114.388 33.2941 114.034 33.5294Z" fill="black" fill-opacity="0.2"/>
<path d="M133.859 31.8825C134.921 32.8236 135.511 34.1766 135.511 36.1178C135.511 38.0001 134.98 39.4119 133.859 40.2942C132.738 41.1766 131.027 41.5884 128.785 41.5884H126.72V45.8825H123.18V30.4707H128.608C131.027 30.4707 132.738 30.9413 133.859 31.8825ZM131.322 37.8825C131.735 37.4119 131.912 36.7648 131.912 35.8825C131.912 35.0001 131.617 34.3531 131.086 34.0001C130.555 33.6472 129.729 33.4119 128.608 33.4119H126.661V38.5884H128.962C130.142 38.5884 130.909 38.3531 131.322 37.8825Z" fill="black" fill-opacity="0.2"/>
<path d="M176.931 30.4707H180.354V45.8236H176.931L169.556 36.1766V45.8236H166.134V30.4707H169.379L176.931 40.3531V30.4707Z" fill="black" fill-opacity="0.2"/>
<path d="M186.431 33.5294C186.077 33.8235 185.959 34.1765 185.959 34.5882C185.959 35.0588 186.136 35.4118 186.549 35.6471C186.962 35.8824 187.906 36.2353 189.381 36.5882C190.856 36.9412 191.977 37.4706 192.803 38.1765C193.629 38.8824 194.042 39.9412 194.042 41.2941C194.042 42.6471 193.511 43.7647 192.508 44.6471C191.446 45.5294 190.089 45.9412 188.437 45.9412C186.018 45.9412 183.776 45.0588 181.829 43.2353L183.894 40.7059C185.546 42.1765 187.08 42.8824 188.496 42.8824C189.145 42.8824 189.617 42.7647 189.971 42.4706C190.325 42.1765 190.502 41.8235 190.502 41.3529C190.502 40.8824 190.325 40.5294 189.912 40.2353C189.558 39.9412 188.791 39.7059 187.611 39.4118C185.841 39 184.484 38.4118 183.658 37.7647C182.832 37.0588 182.419 36 182.419 34.5294C182.419 33.0588 182.95 31.9412 184.012 31.1765C185.074 30.4118 186.372 30 187.965 30C188.968 30 190.03 30.1765 191.033 30.5294C192.036 30.8824 192.98 31.3529 193.747 32L191.977 34.5294C190.62 33.5294 189.263 33 187.847 33C187.257 33.1176 186.785 33.2941 186.431 33.5294Z" fill="black" fill-opacity="0.2"/>
</g>
<g clip-path="url(#clip1)">
<path d="M162.771 31.7648C161.295 30.2942 159.348 29.4707 157.283 29.4707C155.218 29.4707 153.271 30.2942 151.796 31.706L151.501 32.0001L153.153 33.6472L153.448 33.3531C154.451 32.3531 155.808 31.7648 157.283 31.7648C158.699 31.7648 160.056 32.3531 161.118 33.3531C162.122 34.3531 162.712 35.706 162.712 37.1766C162.712 38.5883 162.122 39.9413 161.118 41.0001C158.994 43.1178 155.572 43.1178 153.507 41.0001L147.135 34.706C146.427 33.8236 145.306 33.2942 144.067 33.2942C141.884 33.2942 140.113 35.0589 140.113 37.2354C140.113 39.4119 141.884 41.1766 144.067 41.1766C145.719 41.1766 147.194 40.1178 147.725 38.706L151.737 42.706C154.746 45.706 159.702 45.706 162.712 42.706C164.187 41.2354 165.013 39.2942 165.013 37.2354C165.072 35.1766 164.246 33.2354 162.771 31.7648Z" fill="white"/>
<path d="M147.902 40.9999C146.899 41.9999 145.542 42.5881 144.067 42.5881C142.651 42.5881 141.294 41.9999 140.231 40.9999C139.228 39.9999 138.638 38.647 138.638 37.1764C138.638 35.7646 139.228 34.4117 140.231 33.3529C142.356 31.2352 145.778 31.2352 147.843 33.3529L154.215 39.647C154.923 40.5293 156.044 41.0587 157.283 41.0587C159.466 41.0587 161.236 39.294 161.236 37.1176C161.236 34.9411 159.466 33.1764 157.283 33.1764C155.631 33.1764 154.156 34.2352 153.625 35.647L149.613 31.647C146.604 28.647 141.648 28.647 138.638 31.647C137.163 33.1176 136.337 35.0587 136.337 37.1176C136.337 39.1764 137.163 41.1176 138.638 42.5881C140.113 44.0587 142.061 44.8823 144.126 44.8823C146.191 44.8823 148.138 44.0587 149.613 42.647L149.908 42.3529L148.256 40.7058L147.902 40.9999Z" fill="white"/>
<path d="M12.7263 44.8236H6V29.4707H12.0183C13.0803 29.4707 13.9654 29.5884 14.7324 29.8236C15.4995 30.0589 16.0895 30.4119 16.4435 30.8236C17.1515 31.5884 17.5056 32.5295 17.5056 33.5295C17.5056 34.706 17.0925 35.6472 16.3255 36.2354C16.0895 36.4119 15.8535 36.5884 15.7945 36.6472C15.6765 36.706 15.4995 36.7648 15.2635 36.8825C16.2075 37.0589 16.9745 37.5295 17.5646 38.1766C18.1546 38.8236 18.3906 39.6472 18.3906 40.5884C18.3906 41.6472 18.0366 42.5884 17.2695 43.4119C16.3845 44.3531 14.8504 44.8236 12.7263 44.8236ZM9.42217 35.706H11.0742C12.0183 35.706 12.7263 35.5884 13.1983 35.4119C13.6704 35.2354 13.9064 34.7648 13.9064 34.0589C13.9064 33.3531 13.6704 32.9413 13.2574 32.706C12.8443 32.4707 12.1363 32.3531 11.0742 32.3531H9.42217V35.706ZM9.42217 41.9413H11.7823C12.7853 41.9413 13.4934 41.8236 14.0244 41.5884C14.4964 41.3531 14.7914 40.8825 14.7914 40.1766C14.7914 39.4707 14.5554 39.0001 14.0244 38.7648C13.4934 38.5295 12.6673 38.4119 11.5463 38.4119H9.54017V41.9413H9.42217Z" fill="white"/>
<path d="M31.0172 29.4707V32.5295H23.3469V35.706H30.2502V38.6472H23.3469V41.8236H31.2532V44.8825H19.8657V29.4707H31.0172Z" fill="white"/>
<path d="M43.8208 29.4707H47.243V44.8236H43.8208L36.4454 35.2354V44.8825H33.0233V29.4707H36.2684L43.8208 39.3531V29.4707Z" fill="white"/>
<path d="M61.5217 31.4707C62.9968 32.8236 63.7048 34.6472 63.7048 37.0589C63.7048 39.4707 62.9968 41.3531 61.5807 42.706C60.1647 44.1178 57.9816 44.7648 55.0314 44.7648H49.7802V29.4707H55.2084C57.9226 29.4707 60.0467 30.1766 61.5217 31.4707ZM58.9846 40.5884C59.8107 39.8236 60.2827 38.6472 60.2827 37.1178C60.2827 35.5884 59.8697 34.4707 58.9846 33.6472C58.1586 32.8236 56.8605 32.4119 55.0904 32.4119H53.1433V41.8236H55.3264C56.9195 41.8236 58.0996 41.4119 58.9846 40.5884Z" fill="white"/>
<path d="M65.3569 29.4707H68.779V44.8236H65.3569V29.4707Z" fill="white"/>
<path d="M82.0547 29.4707H85.4769V44.8236H82.0547L74.6794 35.1766V44.8236H71.2572V29.4707H74.5024L82.0547 39.3531V29.4707Z" fill="white"/>
<path d="M97.9855 37H101.467V42.4706C99.9326 44.1765 97.8085 45 95.0944 45C92.8522 45 90.9051 44.2353 89.3711 42.7647C87.837 41.2941 87.07 39.4118 87.07 37.1177C87.07 34.8236 87.837 32.9412 89.4301 31.4118C91.0231 29.8824 92.9112 29.1177 95.0944 29.1177C97.3365 29.1177 99.2246 29.8236 100.877 31.2941L99.1066 33.8824C98.3985 33.2941 97.7495 32.8824 97.2185 32.6471C96.6284 32.4118 95.9794 32.2941 95.3304 32.2941C94.0323 32.2941 92.9112 32.7647 92.0262 33.6471C91.1412 34.5294 90.6691 35.7059 90.6691 37.1765C90.6691 38.6471 91.0822 39.7647 91.9672 40.6471C92.8522 41.5294 93.8553 41.9412 95.0353 41.9412C96.2154 41.9412 97.2185 41.7059 98.0445 41.2353V37H97.9855Z" fill="white"/>
<path d="M114.034 32.5294C113.68 32.8235 113.562 33.1765 113.562 33.5882C113.562 34.0588 113.739 34.4118 114.152 34.6471C114.565 34.8824 115.509 35.2353 116.984 35.5882C118.459 35.9412 119.58 36.4706 120.406 37.1765C121.233 37.8824 121.646 38.9412 121.646 40.2941C121.646 41.6471 121.115 42.7647 120.111 43.6471C119.049 44.5294 117.692 44.9412 116.04 44.9412C113.621 44.9412 111.379 44.0588 109.432 42.2353L111.497 39.7059C113.149 41.1765 114.683 41.8824 116.099 41.8824C116.748 41.8824 117.22 41.7647 117.574 41.4706C117.928 41.1765 118.105 40.8235 118.105 40.3529C118.105 39.8824 117.928 39.5294 117.515 39.2353C117.161 38.9412 116.394 38.7059 115.214 38.4118C113.444 38 112.087 37.4118 111.261 36.7647C110.435 36.0588 110.022 35 110.022 33.5294C110.022 32.0588 110.553 30.9412 111.615 30.1765C112.677 29.4118 113.975 29 115.568 29C116.571 29 117.633 29.1765 118.636 29.5294C119.639 29.8824 120.584 30.3529 121.351 31L119.58 33.5294C118.223 32.5294 116.866 32 115.45 32C114.86 32.1176 114.388 32.2941 114.034 32.5294Z" fill="white"/>
<path d="M133.859 30.8825C134.921 31.8236 135.511 33.1766 135.511 35.1178C135.511 37.0001 134.98 38.4119 133.859 39.2942C132.738 40.1766 131.027 40.5884 128.785 40.5884H126.72V44.8825H123.18V29.4707H128.608C131.027 29.4707 132.738 29.9413 133.859 30.8825ZM131.322 36.8825C131.735 36.4119 131.912 35.7648 131.912 34.8825C131.912 34.0001 131.617 33.3531 131.086 33.0001C130.555 32.6472 129.729 32.4119 128.608 32.4119H126.661V37.5884H128.962C130.142 37.5884 130.909 37.3531 131.322 36.8825Z" fill="white"/>
<path d="M176.931 29.4707H180.354V44.8236H176.931L169.556 35.1766V44.8236H166.134V29.4707H169.379L176.931 39.3531V29.4707Z" fill="white"/>
<path d="M186.431 32.5294C186.077 32.8235 185.959 33.1765 185.959 33.5882C185.959 34.0588 186.136 34.4118 186.549 34.6471C186.962 34.8824 187.906 35.2353 189.381 35.5882C190.856 35.9412 191.977 36.4706 192.803 37.1765C193.629 37.8824 194.042 38.9412 194.042 40.2941C194.042 41.6471 193.511 42.7647 192.508 43.6471C191.446 44.5294 190.089 44.9412 188.437 44.9412C186.018 44.9412 183.776 44.0588 181.829 42.2353L183.894 39.7059C185.546 41.1765 187.08 41.8824 188.496 41.8824C189.145 41.8824 189.617 41.7647 189.971 41.4706C190.325 41.1765 190.502 40.8235 190.502 40.3529C190.502 39.8824 190.325 39.5294 189.912 39.2353C189.558 38.9412 188.791 38.7059 187.611 38.4118C185.841 38 184.484 37.4118 183.658 36.7647C182.832 36.0588 182.419 35 182.419 33.5294C182.419 32.0588 182.95 30.9412 184.012 30.1765C185.074 29.4118 186.372 29 187.965 29C188.968 29 190.03 29.1765 191.033 29.5294C192.036 29.8824 192.98 30.3529 193.747 31L191.977 33.5294C190.62 32.5294 189.263 32 187.847 32C187.257 32.1176 186.785 32.2941 186.431 32.5294Z" fill="white"/>
</g>
<path d="M70.3998 6.15991L73.2798 19.4999H75.9198L79.6998 11.3999L81.4798 19.4999H84.1198L90.2798 6.15991H86.9998L83.0798 14.9999L81.3398 6.15991H79.2198L75.2798 14.9999L73.5198 6.15991H70.3998Z" fill="url(#paint0_linear)"/>
<path d="M92.1388 13.8399C92.2188 13.4399 92.4188 13.0999 92.6388 12.8599C92.8788 12.6199 93.2988 12.3199 93.9988 12.3199C94.3588 12.3199 94.8588 12.4199 95.1788 12.6799C95.4988 12.9399 95.7188 13.4199 95.7588 13.8399H92.1388ZM98.5188 15.5999C98.6388 14.5399 98.5988 12.5999 97.3988 11.4199C96.7188 10.7599 95.5788 10.2799 94.0588 10.2799C92.9388 10.2799 91.5988 10.4999 90.5188 11.5199C89.7788 12.2199 88.9788 13.5199 88.9788 15.4799C88.9788 16.6799 89.2388 17.7399 90.0988 18.5999C91.1588 19.6599 92.4788 19.7999 93.5788 19.7999C94.3988 19.7999 95.6188 19.7199 96.6388 18.9599C97.2788 18.4799 97.8988 17.6399 98.2588 16.7399L95.3588 16.4999C95.2388 16.7799 94.9988 17.1199 94.7388 17.2999C94.3788 17.5399 93.9388 17.5599 93.5988 17.5599C93.1388 17.5599 92.5988 17.4599 92.2188 16.9399C91.9788 16.5999 91.8388 16.0399 91.8588 15.5999H98.5188Z" fill="url(#paint1_linear)"/>
<path d="M111.367 11.6599C110.967 11.0999 110.487 10.7799 110.147 10.6199C109.567 10.3399 108.927 10.2799 108.407 10.2799C107.167 10.2799 106.047 10.6399 105.127 11.5799C104.267 12.4599 103.687 13.7799 103.687 15.4199C103.687 16.9599 104.227 17.9999 104.887 18.6999C105.667 19.5199 106.547 19.7999 107.647 19.7999C107.987 19.7999 108.687 19.7599 109.307 19.4799C109.787 19.2599 110.247 18.8599 110.567 18.4799L110.347 19.4999H113.227L114.327 10.5799H111.447L111.367 11.6599ZM109.027 12.7599C109.807 12.7599 110.267 13.0199 110.527 13.2599C110.907 13.5999 111.147 14.1599 111.147 14.7999C111.147 15.4599 110.907 16.2199 110.387 16.7199C110.087 16.9999 109.567 17.3199 108.747 17.3199C108.167 17.3199 107.647 17.1599 107.227 16.7199C106.947 16.4199 106.647 15.9399 106.647 15.1999C106.647 14.4599 106.927 13.8199 107.327 13.4199C107.767 12.9799 108.307 12.7599 109.027 12.7599Z" fill="url(#paint2_linear)"/>
<path d="M114.86 19.4999H117.74L118.22 15.6999C118.34 14.7399 118.58 13.8999 119.08 13.4199C119.36 13.1599 119.84 12.8799 120.56 12.8799C121.12 12.8799 121.54 13.0399 121.82 13.1799L122.38 10.4999C122.08 10.4199 121.68 10.3599 121.2 10.3599C120.88 10.3599 120.26 10.4199 119.7 10.7199C119.28 10.9599 118.86 11.3399 118.58 11.8999L118.84 10.5799H115.96L114.86 19.4999Z" fill="url(#paint3_linear)"/>
<path d="M125.18 13.8399C125.26 13.4399 125.46 13.0999 125.68 12.8599C125.92 12.6199 126.34 12.3199 127.04 12.3199C127.4 12.3199 127.9 12.4199 128.22 12.6799C128.54 12.9399 128.76 13.4199 128.8 13.8399H125.18ZM131.56 15.5999C131.68 14.5399 131.64 12.5999 130.44 11.4199C129.76 10.7599 128.62 10.2799 127.1 10.2799C125.98 10.2799 124.64 10.4999 123.56 11.5199C122.82 12.2199 122.02 13.5199 122.02 15.4799C122.02 16.6799 122.28 17.7399 123.14 18.5999C124.2 19.6599 125.52 19.7999 126.62 19.7999C127.44 19.7999 128.66 19.7199 129.68 18.9599C130.32 18.4799 130.94 17.6399 131.3 16.7399L128.4 16.4999C128.28 16.7799 128.04 17.1199 127.78 17.2999C127.42 17.5399 126.98 17.5599 126.64 17.5599C126.18 17.5599 125.64 17.4599 125.26 16.9399C125.02 16.5999 124.88 16.0399 124.9 15.5999H131.56Z" fill="url(#paint4_linear)"/>
</svg>
