<svg width="16" height="16" fill="none" xmlns="http://www.w3.org/2000/svg"><path fill-rule="evenodd" clip-rule="evenodd" d="M3.41417.5858c-.78101-.781067-2.04736-.781067-2.82837 0-.781067.78101-.781067 2.04736 0 2.82843l4.58582 4.58582L.5858 12.5858c-.781067.7811-.781067 2.0474 0 2.8284.78101.7811 2.04736.7811 2.82837 0l4.58581-4.5858 4.58582 4.5858c.781.781 2.0474.781 2.8284 0 .781-.781.781-2.0474 0-2.8284l-4.5858-4.58575 4.5858-4.58582c.781-.78101.781-2.04736 0-2.828369-.781-.781067-2.0474-.781067-2.8284 0L7.99998 5.17162 3.41417.5858z" fill="#C6C6C6"/></svg>