<svg width="28" height="28" viewBox="0 0 28 28" fill="none" xmlns="http://www.w3.org/2000/svg">
    <path d="M1.75726 1.75726C4.10052 -0.585754 7.89935 -0.585754 10.2426 1.75726L13.9999 5.51459L17.7573 1.75726C20.1005 -0.585754 23.8994 -0.585754 26.2426 1.75726C28.5856 4.10052 28.5856 7.89935 26.2426 10.2426L22.4853 13.9999L26.2426 17.7573C28.5856 20.1005 28.5856 23.8994 26.2426 26.2426C23.8994 28.5856 20.1005 28.5856 17.7573 26.2426L13.9999 22.4853L10.2426 26.2426C7.89935 28.5856 4.10052 28.5856 1.75726 26.2426C-0.585754 23.8994 -0.585754 20.1005 1.75726 17.7573L5.51459 13.9999L1.75726 10.2426C-0.585754 7.89935 -0.585754 4.10052 1.75726 1.75726Z" fill="#E45896"/>
    <path fill-rule="evenodd" clip-rule="evenodd" d="M4.58579 4.58579C5.36683 3.80474 6.63317 3.80474 7.41421 4.58579L14 11.1716L20.5858 4.58579C21.3668 3.80474 22.6332 3.80474 23.4142 4.58579C24.1953 5.36683 24.1953 6.63317 23.4142 7.41421L16.8284 14L23.4142 20.5858C24.1953 21.3668 24.1953 22.6332 23.4142 23.4142C22.6332 24.1953 21.3668 24.1953 20.5858 23.4142L14 16.8284L7.41421 23.4142C6.63317 24.1953 5.36683 24.1953 4.58579 23.4142C3.80474 22.6332 3.80474 21.3668 4.58579 20.5858L11.1716 14L4.58579 7.41421C3.80474 6.63317 3.80474 5.36683 4.58579 4.58579Z" fill="white"/>
</svg>