<svg width="52" height="52" viewBox="0 0 52 52" fill="none" xmlns="http://www.w3.org/2000/svg">
    <path fill-rule="evenodd" clip-rule="evenodd" d="M26 50C39.2548 50 50 39.2548 50 26C50 12.7452 39.2548 2 26 2C12.7452 2 2 12.7452 2 26C2 39.2548 12.7452 50 26 50Z" fill="#11D079" stroke="#D9DAE8" stroke-opacity="0.2" stroke-width="4"/>
    <path d="M17.5185 26.1984C16.7997 25.3598 15.5371 25.2626 14.6984 25.9815C13.8598 26.7003 13.7626 27.9629 14.4815 28.8016L17.5185 26.1984ZM22 34.5L20.4815 35.8016C20.8591 36.2422 21.4095 36.497 21.9898 36.5C22.5701 36.5029 23.123 36.2537 23.5052 35.817L22 34.5ZM37.5052 19.817C38.2325 18.9857 38.1483 17.7222 37.317 16.9948C36.4857 16.2675 35.2222 16.3517 34.4948 17.183L37.5052 19.817ZM14.4815 28.8016L20.4815 35.8016L23.5185 33.1984L17.5185 26.1984L14.4815 28.8016ZM23.5052 35.817L37.5052 19.817L34.4948 17.183L20.4948 33.183L23.5052 35.817Z" fill="white"/>
</svg>