<svg width="100" height="100" viewBox="0 0 100 100" fill="none" xmlns="http://www.w3.org/2000/svg">
    <path d="M50 89C74.8528 89 95 78.9264 95 66.5C95 54.0736 74.8528 44 50 44C25.1472 44 5 54.0736 5 66.5C5 78.9264 25.1472 89 50 89Z" fill="#CFD8DD"/>
    <path d="M91.8875 71.309C92.93 69.527 93.5 67.6505 93.5 65.7095C93.5 54.239 74.0255 44.9375 50 44.9375C25.9745 44.9375 6.5 54.2375 6.5 65.7095C6.5 67.6505 7.07 69.527 8.114 71.309C13.235 62.5595 86.7665 62.5595 91.8875 71.309Z" fill="#99A8AE"/>
    <path d="M13.3763 76.9086C21.1103 71.1546 78.8903 71.1546 86.6258 76.9086C88.9253 75.1971 90.7133 73.3146 91.8878 71.3091C86.7668 62.5596 69.9593 56.1411 50.0003 56.1411C30.0413 56.1411 13.2353 62.5596 8.11426 71.3091C9.28726 73.3146 11.0753 75.1986 13.3763 76.9086Z" fill="#6E8189"/>
    <path d="M13.376 76.9086C21.11 82.6611 34.6175 86.4771 50 86.4771C65.384 86.4771 78.89 82.6611 86.6255 76.9086C78.89 71.1561 65.384 67.3386 50 67.3386C34.6175 67.3386 21.11 71.1561 13.376 76.9086Z" fill="#302C3B"/>
    <path d="M56.1988 13.2425C48.8728 6.55255 19.8553 14.867 23.8813 37.7C26.1658 49.946 33.0583 77.4575 54.7108 73.64C76.3618 69.8225 73.4503 41.729 71.5153 29.3C70.1728 21.695 64.2583 13.4675 56.1988 13.2425Z" fill="#EA8800"/>
    <path d="M25.5472 45.1323C28.9987 58.4778 36.8017 76.7973 54.7342 73.6353C72.7207 70.4643 73.7542 50.5428 72.4792 36.7653C70.7872 30.6153 65.7277 23.1798 56.1622 15.0513C36.0907 27.5988 24.1252 29.9733 25.5472 45.1323Z" fill="#D67C00"/>
    <path d="M15.7065 43.1873H22.5825V46.3748H15.7065V43.1873ZM87.5985 35.5658C88.917 33.2723 86.937 31.8128 83.811 35.8268C81.399 38.9258 73.2435 44.4923 79.1325 45.8948C83.328 46.8938 93.5505 39.3353 94.83 31.7318C95.991 24.8213 90.921 34.0763 87.5985 35.5658Z" fill="#FDCA47"/>
    <path d="M12.4009 35.5654C11.0809 33.2719 13.0609 31.8124 16.1869 35.8264C18.6004 38.9254 26.7559 44.4919 20.8669 45.8944C16.6714 46.8934 6.44735 39.3349 5.16935 31.7299C4.00835 24.8209 9.07835 34.0759 12.4009 35.5654ZM77.9569 43.1869H84.8329V46.3744H77.9569V43.1869Z" fill="#FDCA47"/>
    <path d="M85.6459 45.7598H77.0824L77.3914 65.4128C77.3914 65.4128 74.5084 59.7998 69.8494 55.9943C64.8934 51.9488 50.2774 53.9993 50.2699 54.0008C50.2624 54.0008 35.6464 51.9488 30.6904 55.9943C26.0314 59.7998 23.1484 65.4128 23.1484 65.4128L23.4574 45.7598H14.8939C14.8939 45.7598 13.7899 69.3413 14.2069 77.1878C14.5939 84.4373 20.0824 87.1883 31.3939 72.1253C32.6449 82.6883 31.3939 84.5001 31.3939 84.5001C31.3939 84.5001 39.7585 86.5157 50.2699 86.5157C60.7812 86.5157 68.75 84.5001 68.75 84.5001C68.75 84.5001 67.8949 82.6883 69.1459 72.1253C80.4574 87.1883 85.9459 84.4373 86.3329 77.1878C86.7499 69.3413 85.6459 45.7598 85.6459 45.7598Z" fill="#8E3ED6"/>
    <path d="M25.8587 61.1704L23.1647 64.2724L23.0117 71.3899L25.8587 61.1704ZM74.6792 61.1704L77.3732 64.2724L77.5277 71.3899L74.6792 61.1704Z" fill="#5D1E96"/>
    <path d="M43.4448 56.5552C43.4448 63.2377 57.0963 63.2377 57.0948 56.5552L57.0963 45.7417H43.4448V56.5552Z" fill="#E6A400"/>
    <path d="M63.6289 28.9266C60.2374 23.8896 54.7414 18.7446 54.7414 18.7446C35.1169 30.1776 25.5064 28.7001 32.4529 45.7356C35.7484 53.8191 47.7844 58.4076 52.0744 57.6516C56.3569 56.8971 66.3814 48.4686 66.4294 39.7446C66.4579 34.6911 65.2084 31.2726 63.6289 28.9266Z" fill="#FDCA47"/>
    <path d="M63.0124 32.6286C61.9654 38.0211 53.9479 38.6676 51.8809 35.3931C51.9784 29.5251 60.9979 27.4311 63.0124 32.6286Z" fill="#F5F5F5"/>
    <path d="M53.6597 33.7219C54.4442 38.1754 60.8852 37.0399 60.1007 32.5849C59.3717 28.4524 52.9322 29.5879 53.6597 33.7219Z" fill="#45332C"/>
    <path d="M63.0063 32.5925C62.0508 27.1715 50.7827 29.1575 51.8882 35.4365C52.5902 30.002 60.6393 28.583 63.0063 32.5925Z" fill="#45332C"/>
    <path d="M33.2295 37.88C36.0585 42.5885 43.815 40.4555 44.6355 36.6695C42.537 31.1885 33.3465 32.3075 33.2295 37.88Z" fill="#F5F5F5"/>
    <path d="M42.3929 35.7095C43.1774 40.163 36.7364 41.3 35.9534 36.845C35.2214 32.7125 41.6624 31.577 42.3929 35.7095Z" fill="#45332C"/>
    <path d="M33.2225 37.8443C32.267 32.4248 43.5365 30.4373 44.6435 36.7133C42.128 31.8458 34.0775 33.2663 33.2225 37.8443Z" fill="#45332C"/>
    <path d="M53.8666 32.5702C54.0631 33.6832 55.6727 33.4012 55.4747 32.2867C55.2947 31.2532 53.6836 31.5367 53.8666 32.5702ZM37.9276 35.1487C38.1241 36.2617 36.5161 36.5452 36.3196 35.4307C36.1366 34.3987 37.7461 34.1137 37.9276 35.1487Z" fill="#F5F5F5"/>
    <path d="M61.1059 25.8125C57.4459 25.0085 52.7254 25.5575 50.4919 26.9165C50.0224 27.203 50.2504 28.4135 50.6764 28.2125C53.9494 26.6705 57.896 25.8995 61.3519 26.4575C61.8169 26.534 61.6564 25.934 61.1059 25.8125ZM32.6059 31.07C35.7724 29.0615 40.3939 27.965 42.9574 28.478C43.4989 28.586 43.6984 29.801 43.2274 29.759C39.6244 29.429 35.6539 30.0545 32.5984 31.7615C32.1859 31.9925 32.1319 31.3715 32.6059 31.07ZM53.5699 42.6185C54.0259 45.2045 46.0849 46.604 45.6274 44.021C45.5239 43.427 53.4649 42.0275 53.5699 42.6185Z" fill="#E6A400"/>
    <path d="M55.0042 48.6156C52.6147 49.1856 49.4917 49.6251 46.6837 49.6101C45.6202 49.6041 45.1537 51.1266 46.2697 51.1836C49.4062 51.3456 52.9612 50.7531 55.3942 49.4106C55.9807 49.0881 55.5832 48.4761 55.0042 48.6156Z" fill="#9E7000"/>
</svg>