<svg width="28" height="28" viewBox="0 0 28 28" fill="none" xmlns="http://www.w3.org/2000/svg">
    <path d="M17.6667 1.23326C17.6667 0.552149 17.1145 0 16.4334 0H11.5666C10.8855 0 10.3333 0.552149 10.3333 1.23326V1.23326C10.3333 1.91437 10.8855 2.46652 11.5666 2.46652H16.4334C17.1145 2.46652 17.6667 1.91437 17.6667 1.23326V1.23326ZM12.2351 13.9037C11.9946 15.0375 12.8594 16.1049 14.0184 16.1049V16.1049C15.1654 16.1049 16.0274 15.0583 15.8076 13.9326L14.7812 8.67634H13.3438L12.2351 13.9037ZM22.5938 7.92188L23.4733 7.03088C23.9634 6.53448 23.9923 5.74209 23.5104 5.23772V5.23772V5.23772C23.0233 4.72784 22.221 4.7883 21.7256 5.29013L20.875 6.15179C19.9201 5.39732 18.8602 4.80246 17.6953 4.36719C16.5304 3.93192 15.2986 3.71429 14 3.71429C12.4722 3.71429 11.0447 4.00446 9.71745 4.58482C8.39018 5.16518 7.22527 5.96316 6.22266 6.97879C5.22005 7.99442 4.43229 9.17447 3.85938 10.519C3.28646 11.8635 3 13.3095 3 14.8571C3 16.4048 3.28646 17.8508 3.85938 19.1953C4.43229 20.5398 5.21527 21.7199 6.20833 22.7355C7.20139 23.7511 8.36631 24.5491 9.70312 25.1295C11.0399 25.7098 12.4722 26 14 26C15.5278 26 16.9601 25.7098 18.2969 25.1295C19.6337 24.5491 20.7986 23.7511 21.7917 22.7355C22.7847 21.7199 23.5677 20.5398 24.1406 19.1953C24.7135 17.8508 25 16.4048 25 14.8571C25 13.5417 24.7852 12.2939 24.3555 11.1138C23.9258 9.93377 23.3385 8.8698 22.5938 7.92188ZM14 23.5335C12.816 23.5335 11.7036 23.3062 10.6628 22.8516C9.62196 22.3969 8.71485 21.7779 7.94141 20.9944C7.16796 20.2109 6.55686 19.292 6.10807 18.2377C5.65929 17.1834 5.4349 16.0566 5.4349 14.8571C5.4349 13.6577 5.65929 12.5309 6.10807 11.4766C6.55686 10.4222 7.16796 9.50335 7.94141 8.71987C8.71485 7.93638 9.62196 7.31734 10.6628 6.86272C11.7036 6.40811 12.816 6.1808 14 6.1808C15.184 6.1808 16.2964 6.40811 17.3372 6.86272C18.378 7.31734 19.2852 7.93638 20.0586 8.71987C20.832 9.50335 21.4431 10.4222 21.8919 11.4766C22.3407 12.5309 22.5651 13.6577 22.5651 14.8571C22.5651 16.0566 22.3407 17.1834 21.8919 18.2377C21.4431 19.292 20.832 20.2109 20.0586 20.9944C19.2852 21.7779 18.378 22.3969 17.3372 22.8516C16.2964 23.3062 15.184 23.5335 14 23.5335Z" fill="white"/>
</svg>