<svg width="52" height="52" viewBox="0 0 52 52" fill="none" xmlns="http://www.w3.org/2000/svg">
    <path fill-rule="evenodd" clip-rule="evenodd" d="M26 50C39.2548 50 50 39.2548 50 26C50 12.7452 39.2548 2 26 2C12.7452 2 2 12.7452 2 26C2 39.2548 12.7452 50 26 50Z" fill="#FF5995" stroke="#D9DAE8" stroke-opacity="0.2" stroke-width="4"/>
    <path d="M16.5858 32.5858C15.8047 33.3668 15.8047 34.6332 16.5858 35.4142C17.3668 36.1953 18.6332 36.1953 19.4142 35.4142L16.5858 32.5858ZM35.4142 19.4142C36.1953 18.6332 36.1953 17.3668 35.4142 16.5858C34.6332 15.8047 33.3668 15.8047 32.5858 16.5858L35.4142 19.4142ZM32.5858 35.4142C33.3668 36.1953 34.6332 36.1953 35.4142 35.4142C36.1953 34.6332 36.1953 33.3668 35.4142 32.5858L32.5858 35.4142ZM19.4142 16.5858C18.6332 15.8047 17.3668 15.8047 16.5858 16.5858C15.8047 17.3668 15.8047 18.6332 16.5858 19.4142L19.4142 16.5858ZM19.4142 35.4142L35.4142 19.4142L32.5858 16.5858L16.5858 32.5858L19.4142 35.4142ZM35.4142 32.5858L19.4142 16.5858L16.5858 19.4142L32.5858 35.4142L35.4142 32.5858Z" fill="white"/>
</svg>