<svg xmlns="http://www.w3.org/2000/svg" width="24" height="24" fill="none"><path fill="#fff" d="M0 0h24v24H0z"/><path stroke="#414CBE" stroke-width="2" d="M3.553 3.553A1.864 1.864 0 0 0 3 4.896v14.229c0 .513.2.969.553 1.322A1.84 1.84 0 0 0 4.875 21h8.667V12.812h-2.084v-.416h2.084V9.625c0-.857.232-1.355.554-1.661l-.69-.724.69.724c.362-.345.848-.547 1.55-.547.324 0 .615.007.875.022v.248h-.292c-.543 0-1.347.099-1.796.763-.29.428-.391.923-.391 1.404v2.542H16.3l-.054.416H14.042V21h5.083c.513 0 .969-.2 1.322-.553A1.84 1.84 0 0 0 21 19.125V4.895c0-.509-.188-.977-.553-1.342A1.84 1.84 0 0 0 19.125 3H4.875c-.513 0-.969.2-1.322.553z"/></svg>
