<svg width="81" height="92" viewBox="0 0 81 92" fill="none" xmlns="http://www.w3.org/2000/svg">
    <defs>
        <linearGradient id="paint0_linear" x1="62.4184" y1="15.7477" x2="62.4184" y2="53.045" gradientUnits="userSpaceOnUse">
            <stop stop-color="#FFE354"/>
            <stop offset="1" stop-color="#E9C93C"/>
        </linearGradient>
        <linearGradient id="paint1_linear" x1="62.4123" y1="38.4742" x2="62.4123" y2="42.5521" gradientUnits="userSpaceOnUse">
            <stop stop-color="white"/>
            <stop offset="1" stop-color="#CDCDCD"/>
        </linearGradient>
        <linearGradient id="paint2_linear" x1="25.3462" y1="0" x2="25.3462" y2="46.4144" gradientUnits="userSpaceOnUse">
            <stop stop-color="#FFE354"/>
            <stop offset="1" stop-color="#E9C93C"/>
        </linearGradient>
        <linearGradient id="paint3_linear" x1="37.2302" y1="38.955" x2="37.2302" y2="92" gradientUnits="userSpaceOnUse">
            <stop stop-color="#FFE354"/>
            <stop offset="1" stop-color="#E9C93C"/>
        </linearGradient>
    </defs>
    <path d="M62.4184 53.045C72.6807 53.045 81 44.6957 81 34.3963C81 24.097 72.6807 15.7477 62.4184 15.7477C52.1561 15.7477 43.8369 24.097 43.8369 34.3963C43.8369 44.6957 52.1561 53.045 62.4184 53.045Z" fill="url(#paint0_linear)"/>
    <path d="M53.4497 37.4743C53.2983 37.4722 53.1488 37.5087 53.0152 37.5803C52.8816 37.6519 52.7683 37.7563 52.6858 37.8838C52.6033 38.0113 52.5544 38.1576 52.5436 38.3092C52.5327 38.4609 52.5604 38.6127 52.6239 38.7507C53.4834 40.6312 54.8626 42.2245 56.5977 43.3416C58.3327 44.4586 60.3508 45.0524 62.4122 45.0524C64.4736 45.0524 66.4917 44.4586 68.2268 43.3416C69.9619 42.2245 71.3411 40.6312 72.2006 38.7507C72.2641 38.6127 72.2917 38.4609 72.2809 38.3092C72.2701 38.1576 72.2211 38.0113 72.1387 37.8838C72.0562 37.7563 71.9429 37.6519 71.8093 37.5803C71.6757 37.5087 71.5262 37.4722 71.3747 37.4743H53.4497Z" fill="black"/>
    <path fill-rule="evenodd" clip-rule="evenodd" d="M71.5273 40C71.7779 39.6002 72.003 39.1831 72.2006 38.7507C72.2641 38.6127 72.2918 38.4608 72.2809 38.3092C72.2701 38.1576 72.2212 38.0112 72.1387 37.8838C72.0562 37.7562 71.9429 37.6518 71.8093 37.5802C71.6757 37.5086 71.5262 37.4722 71.3747 37.4743H53.4498C53.2983 37.4722 53.1489 37.5086 53.0152 37.5802C52.9381 37.6215 52.8677 37.6739 52.8061 37.7352C52.761 37.7801 52.7207 37.8299 52.6858 37.8838C52.6034 38.0112 52.5544 38.1576 52.5436 38.3092C52.5328 38.4608 52.5604 38.6127 52.6239 38.7507C52.8216 39.1831 53.0467 39.6002 53.2972 40H71.5273Z" fill="url(#paint1_linear)"/>
    <path opacity="0.5" d="M48.4824 37.6429C49.7663 37.6429 50.8071 36.5983 50.8071 35.3097C50.8071 34.0211 49.7663 32.9766 48.4824 32.9766C47.1984 32.9766 46.1576 34.0211 46.1576 35.3097C46.1576 36.5983 47.1984 37.6429 48.4824 37.6429Z" fill="#F24E53"/>
    <path opacity="0.5" d="M76.3545 37.6429C77.6385 37.6429 78.6793 36.5983 78.6793 35.3097C78.6793 34.0211 77.6385 32.9766 76.3545 32.9766C75.0706 32.9766 74.0298 34.0211 74.0298 35.3097C74.0298 36.5983 75.0706 37.6429 76.3545 37.6429Z" fill="#F24E53"/>
    <path d="M66.4816 30.4954C68.476 29.6666 70.6108 29.7661 72.8695 30.4954" stroke="black" stroke-width="2.32481" stroke-linecap="round" stroke-linejoin="round"/>
    <path d="M58.3512 30.4954C56.3609 29.6666 54.2219 29.7661 51.9633 30.4954" stroke="black" stroke-width="2.32481" stroke-linecap="round" stroke-linejoin="round"/>
    <path d="M25.3462 46.4144C38.1171 46.4144 48.4699 36.0242 48.4699 23.2072C48.4699 10.3902 38.1171 0 25.3462 0C12.5754 0 2.22253 10.3902 2.22253 23.2072C2.22253 36.0242 12.5754 46.4144 25.3462 46.4144Z" fill="url(#paint2_linear)"/>
    <path d="M13.8918 15.7312L19.458 19.7179L12.8058 23.1119" stroke="black" stroke-width="2.89568" stroke-linecap="round" stroke-linejoin="round"/>
    <path d="M36.8007 15.7312L31.2304 19.7179L37.8867 23.1119" stroke="black" stroke-width="2.89568" stroke-linecap="round" stroke-linejoin="round"/>
    <path opacity="0.8" d="M6.17013 26.6746C5.22223 27.2155 4.09965 27.3581 3.04734 27.0714C1.99504 26.7846 1.09846 26.0918 0.553248 25.1441C0.0080391 24.1964 -0.141532 23.0707 0.137174 22.0128C0.415881 20.9548 1.10024 20.0504 2.0409 19.4969C4.36979 18.1459 8.3421 18.5023 10.2168 18.7675C10.3445 18.7858 10.4665 18.833 10.5734 18.9056C10.6803 18.9781 10.7693 19.0741 10.8338 19.1863C10.8982 19.2985 10.9364 19.424 10.9454 19.5532C10.9544 19.6824 10.934 19.8119 10.8857 19.9321C10.1796 21.6933 8.49902 25.3236 6.17013 26.6746Z" fill="#6793FD"/>
    <path opacity="0.8" d="M5.88521 19.9197C4.80943 19.9774 3.75747 20.2597 2.79654 20.7485C2.16502 21.0994 1.6811 21.6675 1.4339 22.3481" stroke="#C2EDFF" stroke-width="1.08795" stroke-linecap="round" stroke-linejoin="round"/>
    <path opacity="0.8" d="M44.4976 26.6746C44.9674 26.951 45.487 27.1314 46.0266 27.2054C46.5661 27.2795 47.1149 27.2457 47.6414 27.106C48.1679 26.9663 48.6616 26.7235 49.0942 26.3915C49.5268 26.0595 49.8896 25.6449 50.1619 25.1716C50.4342 24.6983 50.6105 24.1756 50.6807 23.6337C50.7509 23.0917 50.7136 22.5411 50.5709 22.0137C50.4282 21.4863 50.183 20.9923 49.8494 20.5604C49.5157 20.1285 49.1002 19.767 48.6268 19.4969C46.298 18.1459 42.3256 18.5023 40.451 18.7675C40.3232 18.7858 40.2013 18.833 40.0944 18.9056C39.9875 18.9781 39.8984 19.0741 39.834 19.1863C39.7695 19.2985 39.7313 19.424 39.7223 19.5532C39.7133 19.6824 39.7338 19.8119 39.782 19.9321C40.4881 21.6933 42.1687 25.3236 44.4976 26.6746Z" fill="#6793FD"/>
    <path opacity="0.8" d="M44.7825 19.9197C45.8583 19.9774 46.9103 20.2597 47.8712 20.7485C48.5027 21.0994 48.9866 21.6675 49.2338 22.3481" stroke="#C2EDFF" stroke-width="1.08795" stroke-linecap="round" stroke-linejoin="round"/>
    <path d="M14.185 28.2838C13.9973 28.2826 13.8124 28.3289 13.6473 28.4185C13.4822 28.5081 13.3423 28.638 13.2406 28.7963C13.1389 28.9546 13.0787 29.1361 13.0655 29.3239C13.0522 29.5118 13.0865 29.7 13.165 29.871C14.2352 32.2106 15.9517 34.1928 18.1109 35.5824C20.2701 36.972 22.7812 37.7107 25.3463 37.7107C27.9113 37.7107 30.4224 36.972 32.5816 35.5824C34.7408 34.1928 36.4573 32.2106 37.5275 29.871C37.606 29.7 37.6403 29.5118 37.6271 29.3239C37.6138 29.1361 37.5536 28.9546 37.4519 28.7963C37.3502 28.638 37.2103 28.5081 37.0452 28.4185C36.8802 28.3289 36.6952 28.2826 36.5076 28.2838H14.185Z" fill="black"/>
    <path fill-rule="evenodd" clip-rule="evenodd" d="M31.7217 36.0914C29.9786 34.6993 27.7608 33.8658 25.3463 33.8658C22.9317 33.8658 20.7139 34.6993 18.9708 36.0914C20.9243 37.1516 23.1149 37.7106 25.3463 37.7106C27.5776 37.7106 29.7682 37.1516 31.7217 36.0914Z" fill="#F24E53"/>
    <path d="M37.2302 92C51.8254 92 63.6572 80.1255 63.6572 65.4775C63.6572 50.8295 51.8254 38.955 37.2302 38.955C22.6349 38.955 10.8031 50.8295 10.8031 65.4775C10.8031 80.1255 22.6349 92 37.2302 92Z" fill="url(#paint3_linear)"/>
    <path d="M23.0215 63.2562C22.7866 63.2568 22.5551 63.3132 22.3461 63.4208C22.137 63.5285 21.9564 63.6844 21.819 63.8757C21.6816 64.0669 21.5914 64.2882 21.5556 64.5212C21.5199 64.7543 21.5397 64.9925 21.6135 65.2164C24.1901 73.0074 30.2105 78.4777 37.2302 78.4777C44.2499 78.4777 50.2662 73.0115 52.8428 65.2164C52.9166 64.9925 52.9364 64.7543 52.9007 64.5212C52.8649 64.2882 52.7747 64.0669 52.6373 63.8757C52.4998 63.6844 52.3192 63.5285 52.1102 63.4208C51.9012 63.3132 51.6697 63.2568 51.4347 63.2562H23.0215Z" fill="black"/>
    <path fill-rule="evenodd" clip-rule="evenodd" d="M46.6022 74.8565C44.1571 72.5387 40.8589 71.1177 37.2302 71.1177C33.6013 71.1177 30.3032 72.5387 27.858 74.8566C30.5424 77.1443 33.7645 78.4777 37.2302 78.4777C40.6967 78.4777 43.9185 77.1447 46.6022 74.8565Z" fill="#F24E53"/>
    <path opacity="0.5" d="M17.2357 70.4505C19.0601 70.4505 20.5391 68.9661 20.5391 67.1351C20.5391 65.3041 19.0601 63.8198 17.2357 63.8198C15.4113 63.8198 13.9323 65.3041 13.9323 67.1351C13.9323 68.9661 15.4113 70.4505 17.2357 70.4505Z" fill="#F24E53"/>
    <path opacity="0.5" d="M57.2246 70.4505C59.049 70.4505 60.528 68.9661 60.528 67.1351C60.528 65.3041 59.049 63.8198 57.2246 63.8198C55.4002 63.8198 53.9212 65.3041 53.9212 67.1351C53.9212 68.9661 55.4002 70.4505 57.2246 70.4505Z" fill="#F24E53"/>
    <path d="M31.4492 58.018C30.8629 55.6227 29.0543 53.8739 26.9071 53.8739C24.7599 53.8739 22.9472 55.6227 22.3649 58.018" stroke="black" stroke-width="3.30934" stroke-linecap="round" stroke-linejoin="round"/>
    <path d="M52.0954 58.018C51.5091 55.6227 49.7005 53.8739 47.5533 53.8739C45.4061 53.8739 43.5933 55.6227 43.0111 58.018" stroke="black" stroke-width="3.30934" stroke-linecap="round" stroke-linejoin="round"/>
</svg>
