<svg width="70" height="70" viewBox="0 0 70 70" fill="none" xmlns="http://www.w3.org/2000/svg">
<defs>
<linearGradient id="paint0_linear" x1="38.4016" y1="58.3242" x2="52.0201" y2="58.3242" gradientUnits="userSpaceOnUse">
<stop stop-color="#B99C00"/>
<stop offset="1" stop-color="#F9D309"/>
</linearGradient>
<linearGradient id="paint1_linear" x1="10.4016" y1="37.3213" x2="64.6724" y2="37.3213" gradientUnits="userSpaceOnUse">
<stop stop-color="#F9EB74"/>
<stop offset="1" stop-color="#F9D100"/>
</linearGradient>
<linearGradient id="paint2_linear" x1="5.34723" y1="12.6389" x2="20.9028" y2="12.6389" gradientUnits="userSpaceOnUse">
<stop stop-color="#F9EB74"/>
<stop offset="1" stop-color="#F9D100"/>
</linearGradient>
<linearGradient id="paint3_linear" x1="13.6037" y1="41.1528" x2="33.0565" y2="41.1528" gradientUnits="userSpaceOnUse">
<stop stop-color="#FCF5BC"/>
<stop offset="1" stop-color="#F9EB74"/>
</linearGradient>
</defs>
<path d="M45.2083 65.1389C48.9669 65.1389 52.0139 62.0919 52.0139 58.3333C52.0139 54.5747 48.9669 51.5278 45.2083 51.5278C41.4497 51.5278 38.4028 54.5747 38.4028 58.3333C38.4028 62.0919 41.4497 65.1389 45.2083 65.1389Z" fill="url(#paint0_linear)"/>
<path d="M19.9305 12.5903C22.7014 10.9861 25.9097 10.2083 29.118 10.2083C34.125 10.2083 38.8889 12.2014 42.4861 15.7986L44.868 18.1805C50.2639 23.5764 55.8542 26.9791 61.4444 28.1458C62.2222 28.3403 62.8542 28.5347 63.243 29.1666C65.4305 30.7708 65.0417 34.1736 62.2222 38.743C60.0347 42.7291 56.243 47.3472 51.8194 51.7222C44.2361 59.3055 36.2639 64.5069 31.8403 64.5069C30.625 64.5069 29.6528 64.118 29.0694 63.4861C28.6805 63.0972 28.2917 62.2708 28.0486 61.6875C26.8333 56.0972 23.6736 50.5069 18.0833 45.1111L16.0903 43.118C10.0625 36.993 8.7986 27.5625 12.4444 20.4166C12.4444 20.4166 14.1458 16.3819 19.9305 12.5903Z" fill="url(#paint1_linear)"/>
<path d="M13.125 20.4166C8.84723 20.4166 5.34723 16.9166 5.34723 12.6389C5.34723 8.36108 8.84723 4.86108 13.125 4.86108C17.4028 4.86108 20.9028 8.36108 20.9028 12.6389C20.9028 16.9166 17.4028 20.4166 13.125 20.4166ZM13.125 8.74997C10.9861 8.74997 9.23612 10.5 9.23612 12.6389C9.23612 14.7778 10.9861 16.5278 13.125 16.5278C15.2639 16.5278 17.0139 14.7778 17.0139 12.6389C17.0139 10.5 15.2639 8.74997 13.125 8.74997Z" fill="url(#paint2_linear)"/>
<path d="M30.8195 58.8681L30.1875 57.2639C28.632 53.2778 26.6389 49.632 24.1597 46.5695C22.7014 44.7709 21.3403 43.4097 20.0278 42.0486C17.4028 39.4236 15.1667 37.1875 14.1459 33.2986C13.4653 30.7222 13.4653 28 14.1459 25.1806L14.5347 23.4792C16.3334 23.9167 17.5 25.6181 17.3056 27.4653C17.1111 28.9722 17.1111 30.7709 17.5 32.4236C18.2778 35.4375 20.0764 37.1875 22.507 39.6181C23.8195 40.9306 25.3264 42.4861 26.9306 44.4306C29.6528 47.7361 31.6459 51.625 32.8125 54.3472C33.5417 56.0972 32.6667 58.1875 30.8195 58.8681Z" fill="url(#paint3_linear)"/>
</svg>
