<svg width="16" height="16" viewBox="0 0 16 16" fill="none" xmlns="http://www.w3.org/2000/svg">
<path d="M10.4 5.6002L11.8707 6.23047C12.0825 5.73612 12.0318 5.16841 11.7358 4.71941C11.4397 4.27041 10.9379 4.0002 10.4 4.0002L10.4 5.6002ZM8.00002 11.2002L6.52939 11.8305C6.78152 12.4188 7.35998 12.8002 8.00002 12.8002C8.64007 12.8002 9.21853 12.4188 9.47066 11.8305L8.00002 11.2002ZM5.60002 5.60019L5.60002 4.00019C5.0622 4.00019 4.56035 4.27041 4.26428 4.71941C3.96821 5.16841 3.91753 5.73612 4.12939 6.23047L5.60002 5.60019ZM8.92939 4.96992L6.52939 10.5699L9.47066 11.8305L11.8707 6.23047L8.92939 4.96992ZM9.47066 10.5699L7.07066 4.96992L4.12939 6.23047L6.52939 11.8305L9.47066 10.5699ZM10.4 4.0002L8.00002 4.00019L8.00002 7.2002L10.4 7.2002L10.4 4.0002ZM8.00002 4.00019L5.60002 4.00019L5.60002 7.20019L8.00002 7.2002L8.00002 4.00019Z" fill="#FF5995"/>
</svg>
