<svg width="16" height="16" viewBox="0 0 16 16" fill="none" xmlns="http://www.w3.org/2000/svg">
<path d="M5.59998 11.2001L4.12934 10.5698C3.91748 11.0642 3.96816 11.6319 4.26423 12.0809C4.5603 12.5299 5.06215 12.8001 5.59998 12.8001V11.2001ZM7.99998 5.6001L9.47061 4.96983C9.21848 4.38153 8.64002 4.0001 7.99998 4.0001C7.35993 4.0001 6.78147 4.38153 6.52934 4.96983L7.99998 5.6001ZM10.4 11.2001V12.8001C10.9378 12.8001 11.4397 12.5299 11.7357 12.0809C12.0318 11.6319 12.0825 11.0642 11.8706 10.5698L10.4 11.2001ZM7.07061 11.8304L9.47061 6.23037L6.52934 4.96983L4.12934 10.5698L7.07061 11.8304ZM6.52934 6.23037L8.92934 11.8304L11.8706 10.5698L9.47061 4.96983L6.52934 6.23037ZM5.59998 12.8001H7.99998V9.6001H5.59998V12.8001ZM7.99998 12.8001H10.4V9.6001H7.99998V12.8001Z" fill="#11D079"/>
</svg>
