<svg width="24" height="24" viewBox="0 0 24 24" fill="none" xmlns="http://www.w3.org/2000/svg">
<path d="M19.8638 18.3518C18.5138 8.92505 5.48672 8.92505 4.13672 18.3518H19.8638Z" fill="#018BC9"/>
<path d="M12.322 12.4753C12.6794 13.5493 7.71215 15.2668 7.35477 14.1928C6.8849 12.7888 11.8555 11.0709 12.322 12.4753Z" fill="#0FB4D4"/>
<path d="M20.25 22.5V18.75C22.5 15 23.25 13.125 23.25 11.25C23.25 8.41092 19.5 10.4997 18 10.4997V11.9997C19.5 11.9997 21.75 10.5 21.75 12C21.75 12.75 21 14.25 19.0099 16.8619H14.7262C15.0191 16.3939 15.4001 15.7178 15.4001 15.3694C15.4001 14.055 13.392 14.055 13.392 15.3694C13.392 15.7182 13.7738 16.3939 14.0666 16.8619H9.93375C10.2266 16.3939 10.6084 15.7178 10.6084 15.3694C10.6084 14.055 8.60025 14.055 8.60025 15.3694C8.60025 15.7182 8.98125 16.3939 9.27413 16.8619H4.99013C3 14.25 2.25 12.75 2.25 12C2.25 10.5 4.5 11.9997 6 11.9997V10.4997C4.5 10.4997 0.75 8.41092 0.75 11.25C0.75 13.125 1.5 15 3.75 18.75V22.5C3.50325 22.5 3.50325 23.25 3.75 23.25H20.25C20.4967 23.25 20.4967 22.5 20.25 22.5Z" fill="#F9B700"/>
<path d="M18.652 13.9399C19.6517 11.3993 19.7815 9.405 18.1438 8.37863C16.3172 7.23375 14.7467 8.54513 13.9236 8.54513C14.2086 7.94475 14.2502 7.13775 14.2502 6.75H9.75021C9.75021 7.13775 9.79146 7.94475 10.0768 8.54513C9.25372 8.54513 7.68209 7.23375 5.85621 8.37863C4.21859 9.405 4.34871 11.3993 5.34846 13.9399C4.97759 14.1105 4.63971 14.3186 4.37646 14.5635C4.75934 14.6704 5.19734 14.6936 5.64621 14.6588C5.97662 15.4053 6.33296 16.1401 6.71459 16.8619H8.70171C8.17372 15.9713 7.70871 15.0739 7.33859 14.2222C7.70759 14.0528 8.04321 13.8454 8.30534 13.5983C7.92621 13.4876 7.49009 13.4644 7.04346 13.4989C6.33884 11.6325 6.20271 10.0913 7.10984 9.52763C7.89584 9.03975 9.86572 10.6755 11.1028 10.6755L11.1013 13.1726C10.6712 13.2469 10.2651 13.3718 9.92947 13.563C10.2655 13.7554 10.6716 13.8803 11.1013 13.9538L11.1002 16.8619H12.9002L12.8987 13.9538C13.3273 13.8803 13.7346 13.7554 14.0698 13.563C13.735 13.3718 13.3285 13.2469 12.898 13.1726L12.8965 10.6755C14.1343 10.6755 16.1038 9.04013 16.8895 9.52763C17.797 10.0913 17.6616 11.6325 16.9555 13.4989C16.51 13.464 16.0735 13.4876 15.6943 13.5983C15.9565 13.8454 16.2921 14.0528 16.6603 14.2222C16.2906 15.0739 15.8252 15.9713 15.298 16.8619H17.2843C17.6665 16.1402 18.0232 15.4054 18.3538 14.6588C18.802 14.6936 19.2407 14.6704 19.6225 14.5635C19.3603 14.3186 19.0228 14.1105 18.652 13.9399Z" fill="#FFE12C"/>
<path d="M13.5 6.75H9.75L10.5 5.25H12.75L13.5 6.75Z" fill="#75D6FF"/>
<path d="M12.3633 5.25L12.7495 6.75H14.2495L13.4995 5.25H12.3633Z" fill="#018BC9"/>
<path d="M12.3638 5.25H11.5519L11.25 6.75H12.75L12.3638 5.25Z" fill="#0FB4D4"/>
<path d="M11.25 19.5H12.75V22.5H11.25V19.5Z" fill="#FEEC9A"/>
<path d="M14.25 19.5H15.75V22.5H14.25V19.5Z" fill="#FFE12C"/>
<path d="M12.75 19.5H14.25V22.5H12.75V19.5Z" fill="white"/>
<path d="M17.25 19.5H18.75V22.5H17.25V19.5ZM5.25 19.5H7.5V22.5H5.25V19.5Z" fill="#FFE12C"/>
<path d="M12.0006 8.7032C11.3915 8.70443 10.805 8.47227 10.3618 8.05445C10.4642 8.88545 11.1598 9.5282 12.0028 9.5282C12.8484 9.5282 13.5456 8.88245 13.6446 8.04883C13.2011 8.47022 12.6123 8.70457 12.0006 8.7032Z" fill="#F9B700"/>
<path d="M20.2499 18.75H3.74989C3.46976 18.75 3.46976 19.5 3.74989 19.5H20.2499C20.5379 19.5 20.5379 18.75 20.2499 18.75Z" fill="#018BC9"/>
</svg>
