<svg width="6" height="6" viewBox="0 0 6 6" fill="none" xmlns="http://www.w3.org/2000/svg">
    <path d="M4.5 1.5L5.41915 1.89392C5.55156 1.58496 5.51989 1.23014 5.33484 0.949509C5.1498 0.668883 4.83614 0.5 4.5 0.5L4.5 1.5ZM3 5L2.08085 5.39392C2.23843 5.7616 2.59997 6 3 6C3.40003 6 3.76157 5.7616 3.91915 5.39392L3 5ZM1.5 1.5L1.5 0.5C1.16386 0.5 0.850203 0.668883 0.665159 0.949509C0.480116 1.23013 0.448442 1.58495 0.580855 1.89392L1.5 1.5ZM3.58086 1.10608L2.08085 4.60608L3.91915 5.39392L5.41915 1.89392L3.58086 1.10608ZM3.91915 4.60608L2.41915 1.10608L0.580855 1.89392L2.08085 5.39392L3.91915 4.60608ZM4.5 0.5L3 0.5L3 2.5L4.5 2.5L4.5 0.5ZM3 0.5L1.5 0.5L1.5 2.5L3 2.5L3 0.5Z" fill="white"/>
</svg>
