<svg width="28" height="28" viewBox="0 0 28 28" fill="none" xmlns="http://www.w3.org/2000/svg">
    <defs>
        <linearGradient id="paint0_linear" x1="5" y1="14" x2="23" y2="14" gradientUnits="userSpaceOnUse">
            <stop stop-color="#F9EB74"/>
            <stop offset="1" stop-color="#F3AF00"/>
        </linearGradient>
        <linearGradient id="paint1_linear" x1="6" y1="14" x2="22" y2="14" gradientUnits="userSpaceOnUse">
            <stop stop-color="#F9EB74"/>
            <stop offset="1" stop-color="#F3AF00"/>
        </linearGradient>
        <radialGradient id="paint2_radial" cx="0" cy="0" r="1" gradientUnits="userSpaceOnUse" gradientTransform="translate(14 14) rotate(90) scale(8)">
            <stop offset="0.502762" stop-color="#B98C0A"/>
            <stop offset="1" stop-color="#B98C0A" stop-opacity="0"/>
        </radialGradient>
        <linearGradient id="paint3_linear" x1="9.81894" y1="8.74942" x2="17.4603" y2="16.3478" gradientUnits="userSpaceOnUse">
            <stop stop-color="white"/>
            <stop offset="1" stop-color="white" stop-opacity="0"/>
        </linearGradient>
        <linearGradient id="paint4_linear" x1="12" y1="12" x2="16" y2="16.6667" gradientUnits="userSpaceOnUse">
            <stop stop-color="white"/>
            <stop offset="1" stop-color="#FFF0A8"/>
        </linearGradient>
    </defs>
    <path d="M12 14L6 0H4L10 14H12Z" fill="#414CBE"/>
    <path d="M16 14L22 0H24L18 14H16Z" fill="#414CBE"/>
    <path d="M14 14L8 0H6L12 14H14Z" fill="#6397FF"/>
    <path d="M14 14L20 0H22L16 14H14Z" fill="#6397FF"/>
    <path d="M16 14L10 0H8L14 14H16Z" fill="#414CBE"/>
    <path d="M18 14L12 0H10L16 14H18Z" fill="#6397FF"/>
    <path d="M20 14L14 0H12L18 14H20Z" fill="#414CBE"/>
    <path d="M6 14L12 0H14L8 14H6Z" fill="black" fill-opacity="0.3"/>
    <path d="M12 14L18 0H20L14 14H12Z" fill="#414CBE"/>
    <path d="M10 14L16 0H18L12 14H10Z" fill="#6397FF"/>
    <path d="M8 14L14 0H16L10 14H8Z" fill="#414CBE"/>
    <circle cx="14" cy="15.5" r="9" fill="black" fill-opacity="0.2"/>
    <circle cx="14" cy="14" r="9" fill="url(#paint0_linear)"/>
    <circle cx="14" cy="14" r="7.43218" fill="url(#paint1_linear)" stroke="url(#paint2_radial)" stroke-width="1.13565"/>
    <path d="M9.01384 18.7343L8.806 18.4935C6.39949 15.7051 6.62021 11.5149 9.30635 8.99477C11.8337 6.62355 15.7315 6.50607 18.3972 8.72077L18.5304 8.83148C18.7845 9.04262 18.7173 9.4599 18.4144 9.5919C16.5226 10.4164 11.3205 13.1276 9.79979 18.5414C9.70236 18.8883 9.24924 19.0071 9.01384 18.7343Z" fill="url(#paint3_linear)" fill-opacity="0.7"/>
    <path d="M13.5419 10.9282C13.7293 10.5485 14.2707 10.5485 14.4581 10.9282L15.0567 12.1411C15.1311 12.2919 15.275 12.3964 15.4413 12.4206L16.7799 12.6151C17.1989 12.676 17.3662 13.1909 17.063 13.4864L16.0944 14.4306C15.974 14.5479 15.9191 14.717 15.9475 14.8827L16.1762 16.2159C16.2477 16.6332 15.8097 16.9514 15.435 16.7544L14.2377 16.125C14.0889 16.0467 13.9111 16.0467 13.7623 16.125L12.565 16.7544C12.1903 16.9514 11.7523 16.6332 11.8238 16.2159L12.0525 14.8827C12.0809 14.717 12.026 14.5479 11.9056 14.4306L10.937 13.4864C10.6338 13.1909 10.8011 12.676 11.2201 12.6151L12.5587 12.4206C12.725 12.3964 12.8689 12.2919 12.9433 12.1411L13.5419 10.9282Z" fill="url(#paint4_linear)"/>
</svg>
