<svg width="28" height="28" viewBox="0 0 28 28" fill="none" xmlns="http://www.w3.org/2000/svg">
    <defs>
        <linearGradient id="paint0_linear" x1="13.8794" y1="13.8794" x2="22.3647" y2="22.3647" gradientUnits="userSpaceOnUse">
            <stop stop-color="#35CCFC"/>
            <stop offset="1" stop-color="#414CBE"/>
        </linearGradient>
        <linearGradient id="paint1_linear" x1="15.5765" y1="15.5765" x2="12.1823" y2="12.1824" gradientUnits="userSpaceOnUse">
            <stop stop-color="#E3F8FF"/>
            <stop offset="1" stop-color="white"/>
        </linearGradient>
        <linearGradient id="paint2_linear" x1="10.5701" y1="9.72164" x2="16.9341" y2="16.0856" gradientUnits="userSpaceOnUse">
            <stop stop-color="white"/>
            <stop offset="1" stop-color="white" stop-opacity="0"/>
        </linearGradient>
    </defs>
    <path d="M5.6 19.297C3.61178 17.3088 3.61178 14.0852 5.6 12.097L10.4 7.29702C12.3882 5.3088 15.6118 5.3088 17.6 7.29702L22.4 12.097C24.3882 14.0852 24.3882 17.3088 22.4 19.297L17.6 24.097C15.6118 26.0852 12.3882 26.0852 10.4 24.097L5.6 19.297Z" fill="black" fill-opacity="0.2"/>
    <path d="M6.05 17.15C4.3103 15.4103 4.3103 12.5897 6.05 10.85L10.85 6.05C12.5897 4.3103 15.4103 4.3103 17.15 6.05L21.95 10.85C23.6897 12.5897 23.6897 15.4103 21.95 17.15L17.15 21.95C15.4103 23.6897 12.5897 23.6897 10.85 21.95L6.05 17.15Z" fill="url(#paint0_linear)" stroke="#B6EDFF" stroke-width="1.27279"/>
    <path fill-rule="evenodd" clip-rule="evenodd" d="M13.8794 11.3337C13.4108 11.3337 13.0309 11.7136 13.0309 12.1823V13.8793H10.4853L10.4853 14.7279C10.4853 15.1965 10.8652 15.5764 11.3338 15.5764H13.0309V17.2734C13.0309 17.7421 13.4108 18.122 13.8794 18.122C14.348 18.122 14.7279 17.7421 14.7279 17.2734V15.5764H16.425C16.8936 15.5764 17.2735 15.1965 17.2735 14.7279V13.8793H14.7279V12.1823C14.7279 11.7136 14.348 11.3337 13.8794 11.3337Z" fill="black" fill-opacity="0.2"/>
    <path fill-rule="evenodd" clip-rule="evenodd" d="M13.8794 10.4854C13.4108 10.4854 13.0309 10.8653 13.0309 11.3339V13.0309H11.3338C10.8652 13.0309 10.4853 13.4108 10.4853 13.8795C10.4853 14.3481 10.8652 14.728 11.3338 14.728H13.0309V16.425C13.0309 16.8937 13.4108 17.2736 13.8794 17.2736C14.348 17.2736 14.7279 16.8937 14.7279 16.425V14.728H16.425C16.8936 14.728 17.2735 14.3481 17.2735 13.8795C17.2735 13.4108 16.8936 13.0309 16.425 13.0309H14.7279V11.3339C14.7279 10.8653 14.348 10.4854 13.8794 10.4854Z" fill="url(#paint1_linear)"/>
    <path d="M9.94595 18.4313L7.27897 15.7643C6.28486 14.7702 6.28486 13.1584 7.27897 12.1643L12.1643 7.279C13.1584 6.28489 14.7701 6.28489 15.7643 7.279L18.4312 9.94598C18.6828 10.1975 18.5378 10.6515 18.1918 10.7343C16.2698 11.194 11.7276 12.8334 10.702 18.1797C10.635 18.5291 10.1975 18.6828 9.94595 18.4313Z" fill="url(#paint2_linear)" fill-opacity="0.7"/>
</svg>
