<svg width="6" height="6" viewBox="0 0 6 6" fill="none" xmlns="http://www.w3.org/2000/svg">
    <path d="M1.5 5L0.580855 4.60608C0.448442 4.91505 0.480115 5.26987 0.665159 5.55049C0.850203 5.83112 1.16386 6 1.5 6L1.5 5ZM3 1.5L3.91915 1.10608C3.76157 0.738397 3.40003 0.5 3 0.5C2.59997 0.5 2.23843 0.738397 2.08085 1.10608L3 1.5ZM4.5 5V6C4.83614 6 5.1498 5.83112 5.33484 5.55049C5.51988 5.26987 5.55156 4.91505 5.41915 4.60608L4.5 5ZM2.41915 5.39392L3.91915 1.89392L2.08085 1.10608L0.580855 4.60608L2.41915 5.39392ZM2.08085 1.89392L3.58085 5.39392L5.41915 4.60608L3.91915 1.10608L2.08085 1.89392ZM1.5 6H3V4H1.5V6ZM3 6H4.5V4H3V6Z" fill="white"/>
</svg>
