<svg width="9" height="12" viewBox="0 0 9 12" fill="none" xmlns="http://www.w3.org/2000/svg">
    <path d="M1.74576 1.0339C2.43503 0.344629 3.26553 0 4.23729 0C5.20904 0 6.03954 0.344629 6.72881 1.0339C7.41808 1.72317 7.76271 2.55367 7.76271 3.52542C7.76271 4.49718 7.41808 5.32768 6.72881 6.01695C6.03954 6.70622 5.20904 7.05085 4.23729 7.05085C3.26553 7.05085 2.43503 6.70622 1.74576 6.01695C1.05649 5.32768 0.711864 4.49718 0.711864 3.52542C0.711864 2.55367 1.05649 1.72317 1.74576 1.0339ZM0 10.5932C0 9.84745 0.389827 9.18927 1.16949 8.61864C1.94916 8.04802 2.97175 7.76271 4.23729 7.76271C5.46893 7.76271 6.48305 8.04802 7.27966 8.61864C8.07627 9.18927 8.47458 9.84745 8.47458 10.5932C8.47458 10.9661 8.07062 11.2938 7.26271 11.5763C6.4548 11.8588 5.44633 12 4.23729 12C2.97175 12 1.94916 11.8588 1.16949 11.5763C0.389827 11.2938 0 10.9661 0 10.5932Z" fill="white"/>
</svg>