<svg width="30" height="30" viewBox="0 0 30 30" fill="none" xmlns="http://www.w3.org/2000/svg">
    <path d="M1 6C1 3.23858 3.23858 1 6 1H24C26.7614 1 29 3.23858 29 6V24C29 26.7614 26.7614 29 24 29H6C3.23858 29 1 26.7614 1 24V6Z" fill="white"/>
    <g opacity="0.5">
        <path d="M10.5484 12H9C7.89545 12 7 12.8955 7 14V16C7 17.1045 7.89545 18 9 18H10.5484L11.4666 18.7117L17 13.9688V8.96143C17 8.43042 16.5696 8 16.0386 8C15.8254 8 15.6182 8.0708 15.4497 8.20142L10.5484 12Z" fill="#414CBE"/>
        <path d="M20.6059 13.512L22.1411 12.1963C23.4614 14.1418 23.2595 16.8113 21.5355 18.5354C21.145 18.926 20.5118 18.926 20.1213 18.5354C19.7308 18.145 19.7308 17.5117 20.1213 17.1213C21.0994 16.1431 21.261 14.6577 20.6059 13.512Z" fill="#414CBE"/>
        <path d="M17 16.6028L13.0805 19.9624L15.4497 21.7986C15.5522 21.8779 15.6689 21.9353 15.7927 21.968C15.8724 21.989 15.9551 22 16.0386 22C16.5696 22 17 21.5696 17 21.0386V16.6028Z" fill="#414CBE"/>
    </g>
    <path fill-rule="evenodd" clip-rule="evenodd" d="M22.7593 8.34923C23.1187 8.76855 23.0701 9.39985 22.6508 9.75927L8.65081 21.7593C8.23148 22.1187 7.60018 22.0701 7.24076 21.6508C6.88134 21.2315 6.9299 20.6002 7.34923 20.2408L21.3492 8.24076C21.7686 7.88134 22.3999 7.9299 22.7593 8.34923Z" fill="#414CBE"/>
</svg>