<svg width="30" height="30" viewBox="0 0 30 30" fill="none" xmlns="http://www.w3.org/2000/svg">
    <path d="M1 6C1 3.23858 3.23858 1 6 1H24C26.7614 1 29 3.23858 29 6V24C29 26.7614 26.7614 29 24 29H6C3.23858 29 1 26.7614 1 24V6Z" fill="white"/>
    <path d="M10.5484 12H9C7.89543 12 7 12.8954 7 14V16C7 17.1046 7.89543 18 9 18H10.5484L15.4497 21.7985C15.6182 21.9291 15.8254 22 16.0386 22V22C16.5696 22 17 21.5696 17 21.0386V8.96139C17 8.43043 16.5696 8 16.0386 8V8C15.8254 8 15.6182 8.07088 15.4497 8.20149L10.5484 12Z" fill="#FF4770"/>
    <path fill-rule="evenodd" clip-rule="evenodd" d="M20.1213 11.4644C20.5118 11.0739 21.145 11.0739 21.5355 11.4644C23.4882 13.4171 23.4882 16.5829 21.5355 18.5355C21.145 18.926 20.5118 18.926 20.1213 18.5355C19.7308 18.145 19.7308 17.5118 20.1213 17.1213C21.2929 15.9497 21.2929 14.0502 20.1213 12.8786C19.7308 12.4881 19.7308 11.855 20.1213 11.4644Z" fill="#FF4770"/>
</svg>