<svg width="15" height="16" viewBox="0 0 15 16" fill="none" xmlns="http://www.w3.org/2000/svg">
    <path d="M0.975174 16C0.14693 16 -0.227567 15.4053 0.14318 14.6773L6.82688 1.54561C7.19687 0.818119 7.80337 0.818119 8.17362 1.54561L14.8571 14.6773C15.2276 15.4053 14.8526 16 14.0246 16H0.975174Z" fill="black" fill-opacity="0.15"/>
    <path d="M0.975174 15C0.14693 15 -0.227567 14.4053 0.14318 13.6773L6.82688 0.545621C7.19687 -0.181874 7.80337 -0.181874 8.17362 0.545621L14.8571 13.6773C15.2276 14.4053 14.8526 15 14.0246 15H0.975174Z" fill="#FFCE31"/>
    <path d="M7.23787 1.21436C7.54736 0.605865 7.32712 0.029619 6.95712 0.757113L2.16766 10.1675C1.99016 10.5385 2.08241 10.6128 2.2794 10.254C4.33864 6.50557 7.23787 1.21436 7.23787 1.21436Z" fill="#FFE463"/>
    <path d="M14.857 13.6773L8.17335 0.545616L14.1068 13.1773C14.4775 13.9053 14.1025 14.5 13.2746 14.5C13.2746 14.5 0.106659 14.496 0.0506592 14.4898C0.169158 14.7993 0.495156 15 0.975152 15H14.0243C14.8525 15 15.2275 14.4053 14.857 13.6773Z" fill="#F9B700"/>
    <path d="M6.45034 5.39658L7.13783 10.0125C7.20658 10.4725 7.79358 10.4725 7.86233 10.0125L8.54932 5.39658C8.67582 3.59684 6.32334 3.59684 6.45034 5.39658Z" fill="#1A1626"/>
    <path d="M7.50012 12.9533C8.08263 12.9533 8.55486 12.4822 8.55486 11.901C8.55486 11.3199 8.08263 10.8488 7.50012 10.8488C6.9176 10.8488 6.44537 11.3199 6.44537 11.901C6.44537 12.4822 6.9176 12.9533 7.50012 12.9533Z" fill="#1A1626"/>
</svg>